<svg width="40" height="40" viewBox="0 0 40 40" fill="none" xmlns="http://www.w3.org/2000/svg">
<path d="M18.9152 12.274V28.2573H15.1516V21.7042H7.76366V28.2573H4V12.274H7.76366V18.576H15.1516V12.274H18.9152Z" fill="#FFD503"/>
<path d="M29.2856 28.5313C27.6283 28.5313 26.1259 28.1812 24.7785 27.481C23.4465 26.7655 22.3933 25.7837 21.6189 24.5355C20.8599 23.272 20.4805 21.8487 20.4805 20.2656C20.4805 18.6825 20.8599 17.2669 21.6189 16.0187C22.3933 14.7552 23.4465 13.7734 24.7785 13.0732C26.1259 12.3577 27.636 12 29.3088 12C30.7182 12 31.9883 12.2436 33.1189 12.7307C34.265 13.2178 35.2253 13.918 35.9997 14.8313L33.5835 17.0233C32.4839 15.7751 31.1209 15.151 29.4946 15.151C28.4879 15.151 27.5896 15.3717 26.7997 15.8132C26.0098 16.2394 25.3903 16.8407 24.9411 17.617C24.5074 18.3933 24.2906 19.2762 24.2906 20.2656C24.2906 21.2551 24.5074 22.138 24.9411 22.9143C25.3903 23.6906 26.0098 24.2995 26.7997 24.741C27.5896 25.1672 28.4879 25.3803 29.4946 25.3803C31.1209 25.3803 32.4839 24.7486 33.5835 23.4851L35.9997 25.6772C35.2253 26.6057 34.265 27.3135 33.1189 27.8006C31.9728 28.2878 30.695 28.5313 29.2856 28.5313Z" fill="#FFD503"/>
</svg>
