<svg width="40" height="40" viewBox="0 0 40 40" fill="none" xmlns="http://www.w3.org/2000/svg">
<path fill-rule="evenodd" clip-rule="evenodd" d="M25.0476 32.4827H32.459C32.5485 32.4904 32.6384 32.4738 32.7193 32.4347C32.8001 32.3955 32.8688 32.3353 32.9182 32.2604C32.9675 32.1855 32.9956 32.0987 32.9995 32.0091C33.0034 31.9196 32.983 31.8306 32.9404 31.7517L28.7146 22.98C28.4906 22.5164 28.1767 22.2825 27.5216 22.2825H23.0174L32.5365 7.80921C32.5928 7.72787 32.6245 7.63209 32.6279 7.53327C32.6312 7.43445 32.606 7.33675 32.5553 7.2518C32.5046 7.16686 32.4305 7.09825 32.3418 7.05415C32.2531 7.01005 32.1536 6.99231 32.0551 7.00305H24.405C24.177 6.996 23.9512 7.05048 23.7515 7.16075C23.5519 7.27102 23.3857 7.433 23.2706 7.6296L19.072 14.0183L16.0162 7.68599C15.9357 7.47303 15.7887 7.2916 15.5968 7.16859C15.4049 7.04557 15.1784 6.98753 14.9508 7.00305H7.53943C7.45014 6.99605 7.36061 7.01309 7.28018 7.05241C7.19975 7.09172 7.13137 7.15186 7.08219 7.22654C7.033 7.30123 7.00481 7.38772 7.00056 7.47699C6.99631 7.56626 7.01616 7.65502 7.05803 7.73402L11.2839 16.5057C11.5078 16.9672 11.8218 17.2012 12.4769 17.2012H16.9811L7.46199 31.6765C7.40639 31.7582 7.37535 31.854 7.37251 31.9527C7.36967 32.0514 7.39515 32.1488 7.44596 32.2335C7.49677 32.3182 7.57078 32.3867 7.65928 32.4308C7.74778 32.475 7.84708 32.493 7.94548 32.4827H15.5934C15.8215 32.4897 16.0473 32.4352 16.2469 32.325C16.4466 32.2147 16.6127 32.0527 16.7278 31.8561L20.9285 25.4653L23.9864 31.7997C24.0667 32.012 24.2131 32.1929 24.4041 32.3158C24.5952 32.4388 24.8207 32.4973 25.0476 32.4827Z" fill="url(#paint0_linear_1459_2600)"/>
<defs>
<linearGradient id="paint0_linear_1459_2600" x1="8.56711" y1="12.477" x2="31.6013" y2="27.1793" gradientUnits="userSpaceOnUse">
<stop stop-color="#00D5D9"/>
<stop offset="1" stop-color="#F000EC"/>
</linearGradient>
</defs>
</svg>
