<svg width="40" height="40" viewBox="0 0 40 40" fill="none" xmlns="http://www.w3.org/2000/svg">
<path fill-rule="evenodd" clip-rule="evenodd" d="M20.5044 6C20.8769 6 21.2732 6.01545 21.7118 6.05075V8.73714C21.7118 20.5738 22.1626 25.6907 23.9107 33.581C21.6771 34.1404 19.308 34.1404 17.0783 33.5766C18.8379 25.6289 19.292 20.512 19.292 8.73714V6.05075C19.7351 6.01545 20.1313 6 20.5044 6ZM34 21.0019C34 16.3981 31.4948 12.3503 27.7308 10.0445L27.7815 13.17C30.0189 15.0951 31.4363 17.8952 31.4363 21.0019C31.4363 22.4206 31.1332 23.7743 30.6014 25.0111C28.9818 23.4709 27.8278 21.6594 27.1097 19.5202C26.2434 16.9309 26.0412 14.0956 26.0103 10.6314L26.0142 9.14203L25.6968 9.00964L25.4058 8.89711C24.8172 8.67646 24.211 8.49443 23.5944 8.35652L23.5982 10.627C23.6798 22.5883 25.7502 27.5187 28.8302 31.2245C31.9803 28.8448 34 25.1512 34 21.0019ZM17.4056 10.6292L17.4095 8.35873C16.5785 8.54518 15.7667 8.80996 14.9897 9.14424L14.9935 10.6336C14.9588 14.0945 14.7604 16.9331 13.8941 19.5224C13.1799 21.6616 12.0221 23.4698 10.4024 25.0133C9.87062 23.7765 9.56752 22.4229 9.56752 21.0041C9.56752 17.8929 10.9811 15.0973 13.2223 13.1722L13.273 10.0467C9.50525 12.3481 7 16.3958 7 21.0041C7 25.1534 9.02359 28.847 12.1698 31.2267C15.2575 27.5253 17.3241 22.5905 17.4056 10.6292Z" fill="#3B175C"/>
</svg>
