<svg width="40" height="40" viewBox="0 0 40 40" fill="none" xmlns="http://www.w3.org/2000/svg">
<path d="M15.851 22.4333V21.6926C15.1156 21.3679 14.1588 21.144 13.112 21.144C11.2793 21.144 10.149 21.8582 10.149 23.231C10.149 24.3561 11.1057 25.012 12.4931 25.012C14.4981 25.0133 15.851 23.9479 15.851 22.4333ZM6 23.3397C6 20.1316 8.50847 18.6474 12.0943 18.6474C13.6221 18.6474 14.7207 18.8939 15.7927 19.2464V19.0026C15.7927 17.2772 14.6915 16.3165 12.5461 16.3165C10.9083 16.3165 9.75277 16.6213 8.36933 17.1076L7.29598 13.926C8.96299 13.2104 10.5995 12.7466 13.1663 12.7466C15.5065 12.7466 17.2053 13.3482 18.2773 14.3951C19.4063 15.4936 19.9152 17.1076 19.9152 19.0874V27.6186H15.7609V26.0257C14.7207 27.1521 13.2816 27.8955 11.1919 27.8955C8.34416 27.8982 6 26.3027 6 23.3397ZM24.2881 28.7237C28.0992 26.1384 29.7357 23.6153 29.7357 19.7446C29.7357 15.8779 28.0979 13.3509 24.2881 10.7748L26.1791 8C31.3709 10.7457 34 14.4786 34 19.7446C34 25.0133 31.3709 28.7436 26.1791 31.4879L24.2881 28.7237Z" fill="#7A66A8"/>
</svg>
