<svg width="40" height="40" viewBox="0 0 40 40" fill="none" xmlns="http://www.w3.org/2000/svg">
<path d="M15.1589 6H14.2728C14.04 6 13.8544 6.19161 13.8544 6.43099V28.0973C13.8544 28.5431 13.9801 28.8956 14.2272 29.1498C14.4721 29.4013 14.7922 29.5352 15.1529 29.5352C15.5361 29.5352 15.8644 29.3925 16.101 29.1212C16.3322 28.8566 16.4491 28.514 16.4491 28.0973V24.1728C16.4491 22.0629 17.3062 19.8591 18.9972 17.6229C20.445 15.7035 22.2699 14.0921 24.3958 12.786C24.3958 14.1811 24.3958 29.863 24.3958 30.4762C23.6112 30.4762 11.6056 30.4762 11.6056 30.4762C10.4148 30.4762 9.44352 29.5165 9.44352 28.3367V10.7974C9.44352 9.61755 10.4148 8.6562 11.6056 8.6562H12.5164C12.7465 8.6562 12.9359 8.46349 12.9359 8.22741V6.43099C12.9353 6.19161 12.7459 6 12.5159 6H11.6501C9.00156 6 6.84717 8.15768 6.84717 10.8078V28.3252C6.84717 30.9759 9.00156 33.1319 11.6501 33.1319H26.576C26.8055 33.1319 26.9921 32.9408 26.9921 32.7026V11.0357C26.9921 10.6613 26.8796 10.3318 26.6594 10.0546C26.42 9.75426 26.0758 9.59888 25.6673 9.59888C24.5649 9.59888 22.982 10.457 20.8271 12.2265C19.0241 13.7023 17.567 15.2923 16.4491 16.957C16.4491 15.0738 16.4491 9.27002 16.4491 8.65675C17.2364 8.65675 29.2398 8.65675 29.2398 8.65675C30.434 8.65675 31.4074 9.6181 31.4074 10.798V28.3361C31.4074 29.516 30.434 30.4757 29.2398 30.4757H28.3329C28.1006 30.4757 27.9128 30.6684 27.9128 30.9045V32.7026C27.9128 32.9408 28.1012 33.1319 28.3329 33.1319H29.1943C31.8461 33.1319 34.001 30.9759 34.001 28.3252V10.8078C34.0005 8.15768 31.8461 6 29.1937 6H15.1589Z" fill="#0066B7"/>
<path d="M14.3156 6.86597H13.4262C13.195 6.86597 13.0073 7.05868 13.0073 7.29421V28.9644C13.0073 29.4074 13.1324 29.7632 13.3833 30.018C13.6277 30.2689 13.9472 30.4023 14.3041 30.4023C14.6873 30.4023 15.0167 30.2573 15.2577 29.9861C15.4845 29.7248 15.6031 29.3805 15.6031 28.9644V25.0377C15.6031 22.9289 16.4584 20.7251 18.15 18.4878C19.5983 16.5706 21.4217 14.9581 23.5519 13.6525C23.5519 15.0481 23.5519 30.7289 23.5519 31.3439C22.7624 31.3439 10.7573 31.3439 10.7573 31.3439C9.56374 31.3439 8.59471 30.3825 8.59471 29.2021V11.6645C8.59471 10.4846 9.56374 9.52272 10.7573 9.52272H11.6687C11.9004 9.52272 12.0871 9.33056 12.0871 9.09502V7.29421C12.0871 7.05868 11.9004 6.86597 11.6687 6.86597H10.804C8.15439 6.86597 6 9.02365 6 11.6733V29.1917C6 31.8429 8.15439 34.0001 10.804 34.0001H25.7244C25.9566 34.0001 26.1455 33.8084 26.1455 33.5702V11.9028C26.1455 11.5278 26.0346 11.1989 25.8111 10.9205C25.5707 10.6213 25.2297 10.4648 24.8207 10.4648C23.7183 10.4648 22.1349 11.3246 19.9783 13.0936C18.1769 14.5699 16.7203 16.1594 15.6025 17.8262C15.6025 15.9447 15.6025 10.1354 15.6025 9.52272C16.3893 9.52272 28.391 9.52272 28.391 9.52272C29.5885 9.52272 30.5591 10.4846 30.5591 11.6645V29.2021C30.5591 30.3825 29.5885 31.3439 28.391 31.3439H27.4824C27.2518 31.3439 27.0629 31.5344 27.0629 31.7716V33.5702C27.0629 33.8079 27.2518 34.0001 27.4824 34.0001H28.3471C30.9978 34.0001 33.1528 31.8429 33.1528 29.1922V11.6733C33.1528 9.02365 30.9978 6.86597 28.3471 6.86597H14.3156Z" fill="#0066B7"/>
<path fill-rule="evenodd" clip-rule="evenodd" d="M10.804 7.29578H11.6692V9.09659H10.7579C9.33642 9.09659 8.17578 10.2512 8.17578 11.666V29.2037C8.17578 30.6169 9.33697 31.7731 10.7579 31.7731H23.9691V12.8843C21.5018 14.2816 19.4512 16.0643 17.8195 18.2264C16.0637 20.5521 15.1825 22.8245 15.1825 25.0393V28.9659C15.1825 29.2745 15.1023 29.5199 14.9453 29.7005C14.7833 29.8834 14.5703 29.9745 14.3046 29.9745C14.0564 29.9745 13.8483 29.8883 13.6792 29.7154C13.5107 29.5413 13.4272 29.2915 13.4272 28.9659V7.29578H28.3487C30.7634 7.29578 32.7322 9.26679 32.7322 11.6748V29.1932C32.7322 31.6013 30.7634 33.5717 28.3487 33.5717H27.484V31.7731H28.3927C29.8146 31.7731 30.9797 30.6174 30.9797 29.2037V11.6655C30.9797 10.2506 29.8146 9.09604 28.3927 9.09604H15.183V19.2888C16.3376 17.1986 18.0248 15.2441 20.2423 13.4295C22.2984 11.7385 23.8291 10.8941 24.8218 10.8941C25.1056 10.8941 25.3274 10.9935 25.4883 11.1922C25.6459 11.3926 25.7249 11.6276 25.7249 11.9032V33.5706H10.804C8.39045 33.5706 6.41943 31.6007 6.41943 29.1921V11.6743C6.41943 9.26679 8.39045 7.29578 10.804 7.29578Z" fill="white"/>
</svg>
