<svg width="40" height="40" viewBox="0 0 40 40" fill="none" xmlns="http://www.w3.org/2000/svg">
<path d="M25.6045 14.2207L23.364 15.411V17.6515H21.4035V19.752H23.364V26.0534C23.364 27.7338 24.3442 28.9241 25.8845 28.9941C26.5847 28.9941 27.2849 28.8541 27.915 28.504L28.4751 26.3335L28.4051 26.4035C27.915 26.7536 27.2849 26.9636 26.7247 26.9636C25.9546 26.9636 25.6045 26.6136 25.6045 25.7034V19.752H27.915V17.6515H25.6045V14.2207ZM11.8113 17.5115C10.341 17.5115 8.87066 18.0016 7.7504 18.9818C7.19027 19.542 6.70016 20.1721 6.4201 20.9423C6.14003 21.7124 6 22.4826 6 23.2528C6 24.023 6.14003 24.8632 6.4201 25.5633C6.70016 26.3335 7.19027 26.9636 7.7504 27.5238C8.87066 28.504 10.341 29.0641 11.8113 28.9941C12.5815 28.9941 13.3517 28.8541 13.9818 28.504C14.612 28.1539 15.2421 27.7338 15.7322 27.1037L15.8022 27.0337L14.4719 25.4233L14.4019 25.4933C14.0518 25.8434 13.6317 26.1935 13.1416 26.4035C12.6515 26.6136 12.1614 26.7536 11.6713 26.7536C11.1812 26.7536 10.7611 26.6836 10.271 26.4735C9.85088 26.2635 9.43078 26.0534 9.0807 25.7034C8.73062 25.3533 8.52058 24.9332 8.31053 24.5131C8.1705 24.093 8.10048 23.6029 8.10048 23.1128C8.10048 22.6227 8.1705 22.2026 8.31053 21.7124C8.45056 21.2924 8.73062 20.8723 9.0807 20.5222C9.43078 20.1721 9.78086 19.892 10.271 19.752C10.6911 19.542 11.1812 19.4719 11.6713 19.542C12.1614 19.542 12.7215 19.682 13.1416 19.892C13.6317 20.1021 14.0518 20.3821 14.4019 20.8022L14.4719 20.8723L15.8022 19.3319V19.4019C15.3121 18.7718 14.752 18.2817 14.0518 18.0016C13.3517 17.6515 12.5815 17.5115 11.8113 17.5115V17.5115ZM17.1325 17.6515H19.3731V28.7841H17.1325V17.6515V17.6515ZM30.2255 17.6515H32.5361V28.7841H30.2956C30.2956 28.8541 30.2255 17.6515 30.2255 17.6515V17.6515Z" fill="#020168"/>
<path d="M33.8662 15.6911C32.816 14.2207 31.4857 13.0305 29.8753 12.1903C28.2649 11.3501 26.5846 11 24.8342 11C23.0838 11 21.2633 11.4201 19.723 12.2603C18.1126 13.1005 16.7823 14.2908 15.7321 15.7611L15.592 15.9011H18.2526C19.0928 14.9909 20.0731 14.2908 21.2633 13.8006C22.4536 13.3105 23.5739 13.0305 24.8342 13.0305C26.0944 13.0305 27.2847 13.3105 28.405 13.8006C29.5252 14.2908 30.5755 14.9909 31.4157 15.9011H34.0063L33.8662 15.6911Z" fill="#FF0100"/>
</svg>
