<svg width="40" height="40" viewBox="0 0 40 40" fill="none" xmlns="http://www.w3.org/2000/svg">
<path d="M20.0012 33.6473C17.2714 33.6473 14.6817 32.8774 12.4419 31.3375C10.1321 29.8677 8.3823 27.6979 7.4024 25.2481C6.3525 22.7284 6.07253 19.9986 6.63247 17.3389C7.19242 14.6792 8.4523 12.2294 10.3421 10.3396C12.2319 8.44976 14.6817 7.11989 17.3414 6.62994C20.0012 6.07 22.7309 6.34997 25.2507 7.39987C27.7704 8.44976 29.8702 10.1996 31.4101 12.4394C32.8799 14.6792 33.7198 17.3389 33.7198 19.9986C33.7198 23.6383 32.25 27.0679 29.7302 29.6577C27.0705 32.2474 23.6408 33.6473 20.0012 33.6473V33.6473Z" fill="white"/>
<path d="M20.0013 6.69993C22.661 6.69993 25.1808 7.46986 27.4206 8.93971C29.5903 10.4096 31.3402 12.5094 32.3201 14.8891C33.3 17.3389 33.58 19.9986 33.09 22.5884C32.6001 25.1781 31.3402 27.5579 29.4504 29.4477C26.9306 31.9675 23.5709 33.3673 20.0013 33.3673C16.4316 33.3673 13.072 31.9675 10.5522 29.4477C8.03245 26.928 6.63259 23.5683 6.63259 19.9986C6.63259 16.429 8.03245 13.0693 10.5522 10.5496C11.8121 9.28968 13.2819 8.30977 14.8918 7.67984C16.5016 6.9799 18.2515 6.69993 20.0013 6.69993ZM20.0013 6C17.2016 6 14.5418 6.83992 12.232 8.37977C9.92226 9.91962 8.10244 12.0894 7.05255 14.6792C6.00265 17.1989 5.72268 19.9986 6.28262 22.7284C6.84257 25.4581 8.17244 27.9079 10.1322 29.8677C12.0921 31.8275 14.6118 33.1573 17.2715 33.7173C19.9313 34.2772 22.801 33.9973 25.3908 32.9474C27.9805 31.8975 30.1503 30.0777 31.6901 27.7679C33.16 25.4581 33.9999 22.7984 33.9999 19.9986C33.9999 16.289 32.5301 12.7193 29.8703 10.1296C27.2806 7.46986 23.7109 6 20.0013 6Z" fill="#FF0500"/>
<path d="M12.4419 15.1691V23.9182L18.3913 17.9688V15.1691L15.4516 12.2294L12.4419 15.1691V15.1691ZM23.6408 12.2294H17.2014L20.1411 15.1691V17.9688L23.3608 21.2585L26.5805 17.9688V15.1691L23.6408 12.2294Z" fill="#FF0500"/>
<path d="M22.661 21.8884L19.3013 18.5288L10.6921 27.0679H17.4115L22.661 21.8884V21.8884ZM27.4205 18.4588L18.7414 27.0679H27.3505V18.4588H27.4205Z" fill="#FF0500"/>
<path d="M19.3014 19.5087L12.3721 26.368H17.2016L21.6812 21.8884L19.3014 19.5087V19.5087Z" fill="url(#paint0_linear_2518_9070)"/>
<path d="M19.3013 19.5087V18.5288L10.6921 27.0679L12.372 26.368L19.3013 19.5087Z" fill="url(#paint1_linear_2518_9070)"/>
<path d="M26.7204 20.1386L27.4204 18.4588L18.7412 27.0679L20.421 26.368C20.491 26.368 26.7204 20.1386 26.7204 20.1386V20.1386Z" fill="url(#paint2_linear_2518_9070)"/>
<path d="M26.7206 26.368V20.1386L20.4912 26.368H26.7206Z" fill="url(#paint3_linear_2518_9070)"/>
<defs>
<linearGradient id="paint0_linear_2518_9070" x1="20.4633" y1="20.7125" x2="13.5969" y2="27.5789" gradientUnits="userSpaceOnUse">
<stop stop-color="#F9F6F1"/>
<stop offset="1" stop-color="#C8B67F"/>
</linearGradient>
<linearGradient id="paint1_linear_2518_9070" x1="19.5165" y1="18.7859" x2="10.9773" y2="27.3321" gradientUnits="userSpaceOnUse">
<stop stop-color="#F7F4EC"/>
<stop offset="1" stop-color="#CAB880"/>
</linearGradient>
<linearGradient id="paint2_linear_2518_9070" x1="1862.31" y1="1862.08" x2="1756.07" y2="1755.84" gradientUnits="userSpaceOnUse">
<stop stop-color="#F7F4EC"/>
<stop offset="1" stop-color="#CAB880"/>
</linearGradient>
<linearGradient id="paint3_linear_2518_9070" x1="1337.81" y1="1339.01" x2="1283.49" y2="1284.63" gradientUnits="userSpaceOnUse">
<stop stop-color="#F9F6F1"/>
<stop offset="1" stop-color="#C8B67F"/>
</linearGradient>
</defs>
</svg>
