<svg width="40" height="40" viewBox="0 0 40 40" fill="none" xmlns="http://www.w3.org/2000/svg">
<path d="M27.63 16.44V13.22C27.63 11.47 26.23 10 24.41 10C22.66 10 21.26 11.47 21.26 13.22V16.44H18.67C18.67 12.94 15.8 10.14 12.37 10.14C8.8 10.07 6 12.94 6 16.44C6 19.94 8.87 22.74 12.3 22.74V25.96C12.3 27.71 13.7 29.18 15.52 29.18C17.34 29.18 18.74 27.78 18.74 25.96V22.74H21.33C21.33 26.24 24.2 29.04 27.63 29.04C31.13 29.04 33.93 26.17 33.93 22.74C33.93 19.31 31.06 16.44 27.63 16.44ZM11.04 16.44C11.04 15.74 11.6 15.18 12.3 15.18C13 15.18 13.63 15.67 13.63 16.44C13.63 17.21 13.07 17.7 12.37 17.7C11.6 17.7 11.04 17.14 11.04 16.44ZM27.63 24C26.93 24 26.37 23.44 26.37 22.74C26.37 22.04 26.93 21.48 27.63 21.48C28.33 21.48 28.89 22.04 28.89 22.74C28.89 23.44 28.33 24 27.63 24ZM31.41 15.18C32.81 15.18 34 14.06 34 12.59C34 11.12 32.88 10 31.41 10C30.01 10 28.82 11.12 28.82 12.59C28.82 14.06 30.01 15.18 31.41 15.18Z" fill="#0999D5"/>
</svg>
