<svg width="40" height="40" viewBox="0 0 40 40" fill="none" xmlns="http://www.w3.org/2000/svg">
<path d="M30.3923 6.57668C21.3154 8.50464 14.5448 13.3478 15.2694 17.3927C15.4961 18.6554 16.4277 19.6906 17.8748 20.4592L17.8696 20.4814L17.8468 20.4571L17.8416 20.4814C13.9455 19.8235 11.0451 18.0167 10.1549 15.2521C9.18295 12.2291 9.97481 8.8731 12.5874 6H6V33.9845C7.17485 33.8553 8.37453 33.6825 9.60838 33.4196C18.6842 31.4909 25.4559 26.6486 24.7303 22.6036C24.5036 21.3417 23.573 20.3057 22.1228 19.5362L22.1301 19.5141L22.1528 19.54L22.158 19.5149C26.0542 20.1736 28.9545 21.9803 29.8447 24.7442C30.8188 27.7687 30.0238 31.1247 27.4091 34H34.0007V6.01108C32.8258 6.14104 31.6261 6.31455 30.3923 6.57668Z" fill="#E40134"/>
</svg>
