<svg width="40" height="40" viewBox="0 0 40 40" fill="none" xmlns="http://www.w3.org/2000/svg">
<path d="M26.7891 13.6166C27.0293 13.6934 27.2452 13.8319 27.4152 14.0181C27.453 14.0644 27.4745 14.1218 27.4765 14.1815V14.0998C27.4356 13.9909 27.3063 13.8072 26.7891 13.6166Z" fill="#ACABAB"/>
<path d="M26.6328 13.5621L26.7962 13.6166L26.6328 13.5621Z" fill="#ACABAB"/>
<path d="M38.7202 17.7344L38.9584 17.816L38.7202 17.7344Z" fill="#ACABAB"/>
<path d="M38.9653 17.816C39.3279 17.929 39.6542 18.1356 39.9114 18.415C39.9673 18.4846 39.9984 18.5708 39.9999 18.66V18.5375C39.9454 18.3878 39.7412 18.1087 38.9653 17.816Z" fill="#ACABAB"/>
<path d="M27.4768 14.1815C27.4749 14.1218 27.4533 14.0644 27.4156 14.0181C27.2455 13.8319 27.0296 13.6934 26.7894 13.6166C27.3067 13.8071 27.47 13.9909 27.47 14.0998C27.4731 13.3799 27.4208 12.6609 27.3135 11.9491C26.0815 10.3292 18.867 10.7512 9.41318 13.46C6.49499 14.3684 3.62967 15.4386 0.830566 16.6657V16.938C2.12374 16.4842 3.49633 16.0509 4.94831 15.638C12.3466 13.5145 21.5214 12.7045 25.5166 13.3103C25.8774 13.3647 26.2343 13.442 26.5852 13.5417H26.6397L26.7962 13.5962L26.6328 13.5417C26.2112 13.9534 25.7559 14.329 25.2716 14.6647C25.9931 14.549 26.6941 14.4401 27.3747 14.3516C27.4237 14.3054 27.459 14.2465 27.4768 14.1815Z" fill="#ACABAB"/>
<path d="M31.125 23.0977C30.4921 23.3699 29.8931 23.6422 29.3486 23.928C29.9884 23.6626 30.5397 23.3835 31.125 23.0977Z" fill="#114A93"/>
<path d="M39.9864 18.9118V19.0343C39.9849 18.9451 39.9538 18.8589 39.8979 18.7893C39.6395 18.5098 39.3138 18.3013 38.9519 18.1836C39.7278 18.4694 39.9319 18.7553 39.9728 18.9118C39.9728 18.9118 39.9251 15.9035 39.7346 15.6653C37.8833 13.2355 26.9661 13.8412 12.6527 17.9521C8.35153 19.2823 4.12746 20.8502 0 22.6484V23.0976C1.85809 22.4647 3.81828 21.8385 5.88736 21.2463C17.0972 18.0338 30.9886 16.8019 37.0257 17.7207C37.5684 17.803 38.105 17.9212 38.632 18.0747H38.7204L38.9587 18.1563L38.7204 18.0747C37.2027 19.6061 34.3781 21.4778 31.1247 23.0704C34.9906 21.4097 39.9728 20.0757 39.9728 18.9867C39.9817 18.9627 39.9863 18.9374 39.9864 18.9118Z" fill="#114A93"/>
<path d="M30.1448 27.8619C29.7228 28.0389 29.328 28.2227 28.9673 28.4132C29.3689 28.2363 29.7568 28.0253 30.1448 27.8619Z" fill="#ACABAB"/>
<path d="M35.9436 25.0169C35.7781 24.8286 35.5637 24.6896 35.3242 24.6154C35.8347 24.8059 36.0049 24.9897 36.0049 25.0918C36.008 24.3742 35.9556 23.6574 35.8483 22.9478C34.6164 21.3484 27.6401 21.4165 18.2543 24.3635C16.1063 25.0036 14.0088 25.8021 11.979 26.7525V27.2698C13.0884 26.841 14.1638 26.4598 14.9261 26.2557C26.5851 23.1316 30.0494 23.7033 34.0719 24.3091C34.4281 24.3641 34.7804 24.4414 35.1269 24.5405H35.1881L35.3447 24.5949L35.1881 24.5405C33.6885 25.8828 31.998 26.9953 30.172 27.8415C32.7243 26.7457 36.0185 25.8609 36.0321 25.1599C36.0198 25.1035 35.9886 25.053 35.9436 25.0169Z" fill="#ACABAB"/>
<path d="M36.0049 25.1735V25.0918C36.011 25.1187 36.011 25.1466 36.0049 25.1735Z" fill="#ACABAB"/>
</svg>
