<svg width="40" height="40" viewBox="0 0 40 40" fill="none" xmlns="http://www.w3.org/2000/svg">
<path fill-rule="evenodd" clip-rule="evenodd" d="M20.2132 36C12.376 36 6 29.624 6 21.7946C6 17.2907 8.06589 13.1512 11.6667 10.438L11.8178 10.3256V4H19.9728V7.58139C20.0504 7.58139 20.1318 7.57752 20.2093 7.57752C28.0465 7.57752 34.4186 13.9535 34.4186 21.7907C34.4225 29.624 28.0465 36 20.2132 36Z" fill="#19502E"/>
<path fill-rule="evenodd" clip-rule="evenodd" d="M16.1008 22.0194L19.0582 19.1124V17.1395L16.1008 20.031V22.0194Z" fill="#FFCB05"/>
<path fill-rule="evenodd" clip-rule="evenodd" d="M16.1008 14.655L19.0582 11.748V9.88367L16.1008 12.779V14.655Z" fill="#FFCB05"/>
<path fill-rule="evenodd" clip-rule="evenodd" d="M16.1008 17.093L19.0582 14.186V12.3217L16.1008 15.2131V17.093Z" fill="#FFCB05"/>
<path fill-rule="evenodd" clip-rule="evenodd" d="M15.2516 9.90695L14.8601 9.52323V4.91858H14.4105V9.08913L14.0229 8.70541V4.91858H13.5772V8.26742L13.1819 7.88369V4.91858H12.74V9.31006L15.6974 12.2209V4.91858H15.2516V9.90695Z" fill="#FFCB05"/>
<path fill-rule="evenodd" clip-rule="evenodd" d="M16.1008 19.5271L19.0582 16.6201V14.7596L16.1008 17.6511V19.5271Z" fill="#FFCB05"/>
<path fill-rule="evenodd" clip-rule="evenodd" d="M12.74 19.1124L15.6974 22.0194V20.031L12.74 17.1395V19.1124Z" fill="#FFCB05"/>
<path fill-rule="evenodd" clip-rule="evenodd" d="M18.6163 7.88757L18.2249 8.26742V4.91858H17.7753V8.70541L17.3838 9.08913V4.91858H16.9381V9.52323L16.5466 9.90695V4.91858H16.1008V12.2209L19.0582 9.31006V4.91858H18.6163V7.88757Z" fill="#FFCB05"/>
<path fill-rule="evenodd" clip-rule="evenodd" d="M12.74 11.748L15.6974 14.655V12.779L12.74 9.88367V11.748Z" fill="#FFCB05"/>
<path fill-rule="evenodd" clip-rule="evenodd" d="M12.74 14.1821L15.6974 17.093V15.2131L12.74 12.3217V14.1821Z" fill="#FFCB05"/>
<path fill-rule="evenodd" clip-rule="evenodd" d="M12.74 16.6201L15.6974 19.5271V17.6511L12.74 14.7596V16.6201Z" fill="#FFCB05"/>
<path fill-rule="evenodd" clip-rule="evenodd" d="M30.3721 18.1551H23.4883H23.1744C23.3255 17.9186 23.4147 17.6396 23.4147 17.3373C23.4147 16.4807 22.717 15.7869 21.8604 15.7869C21.0039 15.7869 20.3101 16.4807 20.3101 17.3373C20.3101 17.6745 20.4186 17.9807 20.6008 18.2365C20.4651 18.3256 20.3759 18.4768 20.3759 18.6512C20.3759 18.8256 20.4651 18.9768 20.6008 19.0659C20.4186 19.3179 20.3101 19.628 20.3101 19.9652C20.3101 20.8217 21.0039 21.5155 21.8604 21.5155C22.717 21.5155 23.4147 20.8217 23.4147 19.9652C23.4147 19.6628 23.3255 19.3838 23.1744 19.1473H24.4767H28.5271V19.4729H28V19.9303H28.5271V20.4031H28V21.2752H28.5271V20.8799H29.31V21.2752H29.8372V20.4031H29.31V19.9303H29.8372V19.4729H29.31V19.1473H30.3682C30.5736 19.1473 30.7403 18.9768 30.7403 18.7675V18.5388C30.7441 18.3295 30.5775 18.1551 30.3721 18.1551ZM22.6628 19.9652C22.6628 20.407 22.3023 20.7636 21.8604 20.7636C21.4225 20.7636 21.062 20.407 21.062 19.9652C21.062 19.8024 21.1085 19.6512 21.1937 19.5272L21.4186 19.1512C21.279 19.031 21.1937 18.8528 21.1937 18.6551C21.1937 18.4574 21.279 18.2791 21.4186 18.1551L21.1937 17.7752C21.1085 17.6512 21.062 17.5 21.062 17.3373C21.062 16.8954 21.4225 16.5349 21.8604 16.5349C22.3023 16.5349 22.6628 16.8954 22.6628 17.3373C22.6628 17.6628 22.2868 18.4419 22.2868 18.4419V18.8644C22.2868 18.8605 22.6628 19.6396 22.6628 19.9652Z" fill="#FFCB05"/>
<path fill-rule="evenodd" clip-rule="evenodd" d="M10.0464 17.2131V19.1472C10.0464 20.9961 10.8526 22.1821 11.3138 22.6434C11.5852 22.9108 14.3371 25.6162 14.3759 25.655C15.2325 26.4922 15.3797 26.7674 15.5735 27.2441V25.1085C15.5735 23.2015 14.6046 22.4612 14.1084 21.9767C12.9495 20.8449 12.1704 20.1007 11.5464 19.4767C10.3603 18.2829 10.0464 17.2131 10.0464 17.2131Z" fill="white"/>
<path fill-rule="evenodd" clip-rule="evenodd" d="M14.1084 26.7519C12.9495 25.6201 12.1704 24.8759 11.5464 24.2519C10.3603 23.062 10.0464 22.2596 10.0464 22.2596V23.9302C10.0464 25.7752 10.8875 26.9534 11.3138 27.4379C11.5852 27.7015 14.3449 30.3992 14.3797 30.4379C15.2363 31.2752 15.3836 31.6705 15.5774 32.1472V29.8837C15.5735 27.9767 14.6046 27.2325 14.1084 26.7519Z" fill="white"/>
<path fill-rule="evenodd" clip-rule="evenodd" d="M20.213 8.49609C19.9999 8.49609 19.7867 8.49997 19.5774 8.5116V9.41858C19.7867 9.40695 19.9999 9.40307 20.213 9.40307C27.0541 9.40307 32.6006 14.9496 32.6006 21.7945C32.6006 28.6318 27.0541 34.1783 20.213 34.1783C13.3681 34.1783 7.82154 28.6318 7.82154 21.7945C7.82154 17.9961 9.53083 14.5969 12.2208 12.3256V11.1705C8.99983 13.5969 6.91846 17.4535 6.91846 21.7945C6.91846 29.1318 12.872 35.0814 20.213 35.0814C27.5541 35.0814 33.5076 29.1318 33.5076 21.7945C33.5037 14.4496 27.5541 8.49609 20.213 8.49609Z" fill="white"/>
<path fill-rule="evenodd" clip-rule="evenodd" d="M29.616 28.7286C29.8214 28.4457 30.0191 28.1589 30.2012 27.8604V26.0736H29.616V28.7286Z" fill="white"/>
<path fill-rule="evenodd" clip-rule="evenodd" d="M31.3214 25.4302C31.4067 25.1744 31.4803 24.9147 31.5462 24.6511H29.616V25.1279H29.9105C30.4222 25.1124 30.9997 25.1046 31.3214 25.4302Z" fill="white"/>
<path d="M18.4803 24.5891H17.957V29.8837H18.4803V24.5891Z" fill="white"/>
<path fill-rule="evenodd" clip-rule="evenodd" d="M16.7479 23.5659H18.4766C18.9223 23.5659 19.2324 23.6589 19.4185 23.8334C19.6007 24.0039 19.682 24.3179 19.682 24.7636V29.7132C19.682 30.1628 19.5968 30.4729 19.4185 30.6473C19.1433 30.9186 18.6394 30.9186 18.2208 30.9186C18.1278 30.9109 18.0386 30.9109 17.9572 30.9109V33.2558C18.1317 33.2869 18.3022 33.3217 18.4805 33.345V31.4186C19.2751 31.4186 19.7983 31.1473 20.0425 30.6047V33.4729C20.1006 33.4729 20.1549 33.4729 20.2131 33.4729C20.3216 33.4729 20.434 33.4729 20.5425 33.469V24.8527C20.5425 24.3954 20.6355 24.0775 20.8061 23.8954C20.9805 23.7132 21.2906 23.6241 21.7324 23.6241C22.182 23.6241 22.8371 23.5582 23.1743 23.8954C23.3487 24.0775 23.4301 24.3993 23.4301 24.8527V27.3915H22.2441V24.6822H21.7324V33.3799C21.903 33.3605 22.0735 33.3334 22.2441 33.3024V27.9031H23.4301V33.0272C23.6743 32.9574 23.9146 32.8799 24.151 32.7946V28.1008C24.151 27.5698 24.2789 27.1706 24.8177 26.9884L24.2208 23.7287H25.4185L25.62 27.2907H25.7673L25.9689 23.7287H27.2325L26.558 26.9884C27.1239 27.1861 27.2325 27.5349 27.2325 28.1008V31.1318C27.5813 30.8682 27.9185 30.5853 28.2363 30.283V23.7016H31.7441C31.7673 23.5465 31.7906 23.3838 31.8099 23.2248H23.6007L23.7169 23.814C23.4572 23.3372 22.965 23.0969 22.2441 23.0969H21.7324C20.8642 23.0969 20.3332 23.4419 20.1355 24.1318C19.9495 23.4109 19.3991 23.0504 18.4844 23.0504H16.2363V32.7752C16.4069 32.8372 16.5813 32.8954 16.7557 32.9496V23.5659H16.7479ZM27.651 27.3062L27.0852 26.7675L27.651 23.845V27.3062Z" fill="white"/>
<path fill-rule="evenodd" clip-rule="evenodd" d="M25.4224 32.252C25.6045 32.1589 25.7828 32.0659 25.9611 31.9651V27.9535H25.4224V32.252Z" fill="white"/>
</svg>
