<svg width="40" height="40" viewBox="0 0 40 40" fill="none" xmlns="http://www.w3.org/2000/svg">
<path fill-rule="evenodd" clip-rule="evenodd" d="M7.60196 6H32.008C33.1189 6 34.001 6.91482 34.001 7.993V32.3991C34.001 33.2812 33.2822 34 32.4001 34H7.60196C6.71981 34 6.00103 33.2812 6.00103 32.3991V7.60093C5.96835 6.71879 6.71981 6 7.60196 6Z" fill="#F2CD13"/>
<path fill-rule="evenodd" clip-rule="evenodd" d="M15.2472 6L21.5202 16.3571V19.1669L13.5155 6H15.2472ZM18.0896 6L21.5202 11.6849V13.7106L16.8481 6H18.0896ZM20.5074 6L21.5202 7.69895V9.26721L19.5272 6H20.5074ZM23.3498 27.9883H21.3895L18.2857 22.6301V27.9883H16.456V19.9183H18.7431L21.4875 24.4597V19.9183H23.3498V27.9883ZM24.8854 19.9183H28.9368C29.7863 19.9183 30.4397 20.1144 30.8318 20.4737C31.2238 20.8331 31.4199 21.3232 31.4199 21.9767C31.4199 22.3687 31.3218 22.7281 31.0931 23.0222C30.8644 23.3162 30.5377 23.5123 30.0803 23.6756C30.6357 23.8063 31.0605 24.035 31.3545 24.3944C31.6486 24.7538 31.8119 25.2112 31.8119 25.734C31.8119 26.4527 31.5832 27.0082 31.0931 27.4002C30.6031 27.7923 29.8189 27.9883 28.7081 27.9883H24.8854V19.9183ZM26.7804 21.4866V23.0875H28.5447C28.8388 23.0875 29.0675 23.0222 29.2308 22.8588C29.3942 22.6954 29.4922 22.4994 29.4922 22.2707C29.4922 22.042 29.3942 21.846 29.2308 21.7153C29.0675 21.5846 28.8061 21.4866 28.4794 21.4866C28.4794 21.5193 26.7804 21.5193 26.7804 21.4866ZM26.7804 24.5904V26.4201H28.7407C29.0021 26.4201 29.2635 26.3547 29.4595 26.1914C29.6882 26.028 29.7863 25.7993 29.7863 25.5053C29.7863 25.1785 29.6882 24.9498 29.4595 24.8191C29.2635 24.6558 28.9368 24.5904 28.4794 24.5904H26.7804ZM8.22266 25.3746H10.1176C10.1176 25.7666 10.2483 26.0607 10.5097 26.2894C10.7711 26.5181 11.1958 26.6488 11.7512 26.6488C12.2413 26.6488 12.6007 26.5834 12.8294 26.4527C13.0581 26.3221 13.1888 26.0933 13.1888 25.7993C13.1888 25.5379 13.0908 25.3092 12.8621 25.1132C12.6334 24.9498 12.078 24.7211 11.1631 24.5251C10.085 24.2637 9.36618 23.9697 9.00679 23.6103C8.64739 23.2835 8.48403 22.7608 8.48403 22.0747C8.48403 21.2905 8.77808 20.7025 9.36618 20.2777C9.95428 19.8856 10.7711 19.6896 11.7839 19.6896C12.6987 19.6896 13.4502 19.9183 14.0056 20.3431C14.561 20.8005 14.8224 21.3886 14.8551 22.1074H13.0581C13.0255 21.846 12.8948 21.6173 12.6661 21.4539C12.4374 21.2905 12.1106 21.2252 11.6859 21.2252C11.2938 21.2252 10.9671 21.2905 10.7711 21.4212C10.5424 21.5519 10.4444 21.748 10.4444 21.9767C10.4444 22.2054 10.5424 22.4014 10.7384 22.5648C10.9344 22.7281 11.3592 22.8588 12.0453 22.9895C13.2868 23.2509 14.1036 23.5449 14.5284 23.937C14.9531 24.3291 15.1491 24.8518 15.1491 25.5053C15.1491 26.3221 14.8551 26.9755 14.2997 27.4656C13.7442 27.9557 12.8948 28.1844 11.7512 28.1844C10.6731 28.1844 9.82359 27.9557 9.20282 27.4656C8.54938 27.0082 8.22266 26.2894 8.22266 25.3746Z" fill="#185491"/>
</svg>
