<svg width="40" height="40" viewBox="0 0 40 40" fill="none" xmlns="http://www.w3.org/2000/svg">
<path fill-rule="evenodd" clip-rule="evenodd" d="M10.3074 6C14.1493 6 18.022 6 21.8639 6C23.5236 6.03074 25.2755 6.15368 26.7508 7.01428C27.9495 7.69046 28.7179 8.98134 28.8716 10.3337C29.056 11.7475 28.9638 13.2843 28.0725 14.4523C27.5807 15.1592 26.7816 15.6202 25.9824 15.9276C26.7201 16.1734 27.4885 16.4501 28.1032 16.9418C29.3326 17.8639 29.8858 19.4929 29.8858 20.9682C29.9781 22.4742 29.7936 24.0724 29.0253 25.3941C28.2876 26.6235 26.9045 27.3304 25.5521 27.6378C24.4764 27.9144 23.3699 27.9451 22.2635 27.9451C18.2986 27.9451 14.3337 27.9451 10.3688 27.9451C10.3381 27.6685 10.3381 27.3611 10.3381 27.0845C10.3074 20.0461 10.3381 13.0077 10.3074 6ZM17.1921 10.0263C17.1921 11.5631 17.1921 13.0692 17.1921 14.6059C18.2371 14.6059 19.2821 14.6367 20.3271 14.5752C21.3721 14.5445 22.2327 13.5609 22.2942 12.5159C22.3249 11.8397 22.2327 11.0713 21.741 10.5796C21.3107 10.1493 20.6652 9.99561 20.0812 10.0263C19.0977 10.0263 18.1449 10.0263 17.1921 10.0263ZM17.1921 18.6015C17.1921 20.3842 17.1921 22.1361 17.1921 23.9188C18.1756 23.9188 19.1899 23.9188 20.1734 23.9188C20.6652 23.888 21.1877 23.9188 21.6487 23.7036C23.247 23.1811 23.6773 20.9374 22.7245 19.6773C22.2327 18.9089 21.2799 18.6015 20.4193 18.6015C19.3743 18.6323 18.2678 18.6015 17.1921 18.6015ZM10 31.6334H30.9869L30.956 34H10L10 31.6334Z" fill="#007D48"/>
</svg>
