<svg width="40" height="40" viewBox="0 0 40 40" fill="none" xmlns="http://www.w3.org/2000/svg">
<path d="M24.6394 9C18.3196 9 13.2797 13.9599 13.2797 20.1197C13.2797 26.2795 18.3996 31.2394 24.6394 31.2394C30.8792 31.2394 35.9991 26.2795 35.9991 20.1197C36.0791 13.9599 30.8792 9 24.6394 9ZM24.6394 24.1996C22.3195 24.1996 20.3195 22.3596 20.3195 20.1197C20.3195 17.8797 22.2395 16.0398 24.6394 16.0398C27.0393 16.0398 28.9593 17.8797 28.9593 20.1197C28.7993 22.3596 27.0393 24.1996 24.6394 24.1996ZM13.1997 12.2799V28.5194H9.19985L4 12.2799H13.1997Z" fill="#8B3FFD"/>
</svg>
