<svg width="40" height="40" viewBox="0 0 40 40" fill="none" xmlns="http://www.w3.org/2000/svg">
<path d="M33.9489 31.7683C30.7704 30.8046 25.6752 30.145 19.8731 30.145C14.0709 30.145 9.22858 30.7537 6.0498 31.6669V34H33.9483L33.9489 31.7683Z" fill="#E52529"/>
<path d="M20.0753 18.5288C25.7759 18.5288 31.0226 21.5214 33.9997 24.6157V22.2823C30.7709 17.6159 25.7263 14.6232 20.025 14.6232C14.324 14.6232 9.32994 17.6159 6.10059 22.2823V24.6157C9.81784 20.9023 14.7883 18.7297 20.025 18.5288H20.0753Z" fill="#E52529"/>
<path d="M19.9747 26.2901H20.0253C24.8355 26.235 29.5961 27.2755 33.9497 29.333V27.0002C30.4686 24.2613 25.7265 22.5874 19.9747 22.4352C14.2228 22.2829 9.48163 24.2613 6 27.0002V29.333C10.3536 27.2755 15.1138 26.235 19.9241 26.2901H19.9747Z" fill="#E52529"/>
<path d="M33.9489 20.2537C30.7704 14.4204 25.6752 10.6162 19.8731 10.6162C14.0709 10.6162 9.22858 14.2684 6.0498 19.7972V6H33.9483L33.9489 20.2537Z" fill="#1D1D1B"/>
</svg>
