<svg width="40" height="40" viewBox="0 0 40 40" fill="none" xmlns="http://www.w3.org/2000/svg">
<path fill-rule="evenodd" clip-rule="evenodd" d="M11.312 15.8516C9.12647 14.5295 6.72513 13.4233 4 12.6948C11.4199 11.3997 17.0051 11.4536 20.4587 12.7487C19.7841 9.24115 23.6695 7.91906 25.6931 9.18718C26.3946 9.61889 27.7437 9.21417 28.715 9.0253C33.086 8.21585 34.8398 8.05396 36 8L35.946 8.2968C34.1922 8.37774 29.9292 9.18718 27.285 9.94266C25.828 10.6442 25.4233 11.9663 25.4772 14.0978C25.9899 19.1164 24.2361 21.9494 21.1332 22.6779C17.6256 23.4874 16.9241 26.914 17.4907 32.742C13.6863 31.231 12.9848 24.5936 17.2209 18.145C15.0894 17.5784 13.0658 16.9039 11.312 15.8516Z" fill="#D15F20"/>
</svg>
