<svg width="40" height="40" viewBox="0 0 40 40" fill="none" xmlns="http://www.w3.org/2000/svg">
<path d="M16.0984 11.6751H8.62891C7.96125 12.5097 7.58569 13.5946 7.58569 14.763H17.1416C17.1416 13.5946 16.766 12.5097 16.0984 11.6751Z" fill="#003B75"/>
<path d="M12.3845 9.83905C11.1744 9.83905 10.0477 10.3398 9.21313 11.0909H15.5976C14.7213 10.2981 13.5947 9.83905 12.3845 9.83905Z" fill="#003B75"/>
<path d="M19.6034 6C16.0982 6 12.8851 7.37705 10.4648 9.6304H28.742C26.3218 7.37705 23.1087 6 19.6034 6Z" fill="#003B75"/>
<path d="M29.3264 29.7019C31.7049 27.1982 33.1654 23.7764 33.1654 19.9791H6C6 23.7764 7.46051 27.1982 9.83905 29.7019H29.3264Z" fill="#003B75"/>
<path d="M12.3846 19.687C13.8033 19.687 15.0969 19.0611 15.9732 18.0179H8.7959C9.6722 19.0611 10.9241 19.687 12.3846 19.687Z" fill="#003B75"/>
<path d="M10.9241 30.7451C13.2609 32.7481 16.3071 34 19.6037 34C22.9002 34 25.9464 32.7898 28.2832 30.7451H10.9241Z" fill="#003B75"/>
</svg>
