<svg width="40" height="40" viewBox="0 0 40 40" fill="none" xmlns="http://www.w3.org/2000/svg">
<path d="M31.0784 11.4399C31.7435 12.2998 32.3065 13.2339 32.756 14.2237L20.0033 23.6248L14.6736 20.2837V16.2642L20.0033 19.6053L31.0784 11.4399Z" fill="#21A038"/>
<path d="M9.23436 20C9.23436 19.8197 9.23875 19.6405 9.24755 19.4624L6.01759 19.3041C6.0066 19.5349 6 19.768 6 20.0033C5.99863 21.8414 6.36016 23.6615 7.06385 25.3595C7.76754 27.0575 8.79955 28.5998 10.1007 29.898L12.3918 27.6079C11.3902 26.6104 10.5957 25.4247 10.0538 24.1191C9.51196 22.8135 9.23347 21.4136 9.23436 20Z" fill="url(#paint0_linear_1442_2716)"/>
<path d="M20.0005 9.23362C20.1807 9.23362 20.3599 9.24022 20.538 9.24902L20.6996 6.01784C20.4681 6.00685 20.235 6.00135 20.0005 6.00135C18.1616 5.99911 16.3405 6.36013 14.6416 7.06367C12.9427 7.76722 11.3995 8.79944 10.1006 10.1011L12.3917 12.3922C13.3892 11.3903 14.575 10.5955 15.8808 10.0534C17.1866 9.51134 18.5866 9.23273 20.0005 9.23362Z" fill="url(#paint1_linear_1442_2716)"/>
<path d="M20.0006 30.7666C19.8203 30.7666 19.6411 30.7666 19.4619 30.7523L19.3003 33.9824C19.5326 33.9941 19.7661 34 20.0006 34C21.8387 34.0019 23.6589 33.6407 25.3569 32.9369C27.0549 32.2332 28.5971 31.2008 29.895 29.8992L27.6083 27.6091C26.6106 28.6105 25.4249 29.4049 24.1194 29.9468C22.8138 30.4887 21.4141 30.7673 20.0006 30.7666Z" fill="url(#paint2_linear_1442_2716)"/>
<path d="M26.0691 11.1123L28.7911 9.10586C26.3032 7.09114 23.1975 5.99441 19.9961 6.00002V9.23339C22.1639 9.2307 24.2815 9.88586 26.0691 11.1123Z" fill="url(#paint3_linear_1442_2716)"/>
<path d="M33.9998 20C34.0016 19.1588 33.928 18.3191 33.7799 17.4911L30.7666 19.7119C30.7666 19.8076 30.7666 19.9032 30.7666 20C30.7674 21.5043 30.452 22.992 29.8411 24.3666C29.2301 25.7412 28.3371 26.9721 27.22 27.9795L29.3935 30.3818C30.8458 29.0706 32.0064 27.4688 32.7999 25.6804C33.5935 23.8919 34.0023 21.9566 33.9998 20Z" fill="#21A038"/>
<path d="M20.0003 30.7666C18.4959 30.7671 17.0082 30.4516 15.6334 29.8407C14.2588 29.2297 13.0277 28.3368 12.0199 27.2198L9.6189 29.3923C10.9299 30.8449 12.5315 32.0057 14.3199 32.7995C16.1083 33.5932 18.0436 34.0022 20.0003 33.9999V30.7666Z" fill="url(#paint4_linear_1442_2716)"/>
<path d="M12.7809 12.0204L10.6086 9.61816C9.15584 10.9291 7.99485 12.5307 7.20091 14.3192C6.40698 16.1077 5.99784 18.0431 6.00001 19.9999H9.23437C9.2337 18.4957 9.54907 17.008 10.16 15.6334C10.771 14.2588 11.6639 13.0279 12.7809 12.0204Z" fill="url(#paint5_linear_1442_2716)"/>
<defs>
<linearGradient id="paint0_linear_1442_2716" x1="10.7548" y1="29.4946" x2="7.22117" y2="19.28" gradientUnits="userSpaceOnUse">
<stop offset="0.14" stop-color="#F1E813"/>
<stop offset="0.3" stop-color="#E6E418"/>
<stop offset="0.58" stop-color="#C9DA26"/>
<stop offset="0.89" stop-color="#A2CC39"/>
</linearGradient>
<linearGradient id="paint1_linear_1442_2716" x1="11.0241" y1="10.6728" x2="20.1258" y2="7.20433" gradientUnits="userSpaceOnUse">
<stop offset="0.06" stop-color="#0FA7DF"/>
<stop offset="0.54" stop-color="#0098F8"/>
<stop offset="0.92" stop-color="#0290EA"/>
</linearGradient>
<linearGradient id="paint2_linear_1442_2716" x1="19.0871" y1="32.0485" x2="29.3794" y2="29.7235" gradientUnits="userSpaceOnUse">
<stop offset="0.12" stop-color="#A2CC39"/>
<stop offset="0.28" stop-color="#86C239"/>
<stop offset="0.87" stop-color="#219F38"/>
</linearGradient>
<linearGradient id="paint3_linear_1442_2716" x1="19.3233" y1="7.08294" x2="28.1227" y2="9.79831" gradientUnits="userSpaceOnUse">
<stop offset="0.06" stop-color="#0290EA"/>
<stop offset="0.79" stop-color="#0C89CA"/>
</linearGradient>
<linearGradient id="paint4_linear_1442_2716" x1="10.4302" y1="28.9987" x2="20.0081" y2="32.5781" gradientUnits="userSpaceOnUse">
<stop offset="0.13" stop-color="#F1E813"/>
<stop offset="0.3" stop-color="#EAE616"/>
<stop offset="0.53" stop-color="#D8DF1F"/>
<stop offset="0.8" stop-color="#BAD52D"/>
<stop offset="0.98" stop-color="#A2CC39"/>
</linearGradient>
<linearGradient id="paint5_linear_1442_2716" x1="7.20492" y1="20.3913" x2="11.0497" y2="10.3901" gradientUnits="userSpaceOnUse">
<stop offset="0.07" stop-color="#A2CC39"/>
<stop offset="0.26" stop-color="#81C45E"/>
<stop offset="0.92" stop-color="#0FA7DF"/>
</linearGradient>
</defs>
</svg>
