<svg width="40" height="40" viewBox="0 0 40 40" fill="none" xmlns="http://www.w3.org/2000/svg">
<path fill-rule="evenodd" clip-rule="evenodd" d="M6 6H34C33.9734 15.2979 34 24.5958 34 33.8937H6V6ZM14.6072 11.4194C16.5996 14.1822 18.2998 17.1309 20.2922 19.8937C20.2125 20.1063 20.1063 20.3188 20 20.5313C18.3529 23.055 16.4934 25.4991 15.0323 28.129C14.8463 28.2353 14.6869 28.3416 14.5009 28.4478C16.2011 28.7135 17.9013 28.6338 19.6015 28.5275C21.3814 25.8975 23.1347 23.2676 24.888 20.6376C25.1803 20.2391 25.1006 19.6281 24.8083 19.2562C23.1879 16.9184 21.6736 14.501 20.0531 12.1632C19.9203 11.9241 19.7875 11.7116 19.6546 11.4725C18.0076 11.26 16.3074 11.3928 14.6072 11.4194Z" fill="#F78F1E"/>
</svg>
