<svg width="40" height="40" viewBox="0 0 40 40" fill="none" xmlns="http://www.w3.org/2000/svg">
<path d="M20 9.5C12.23 9.5 6 15.45 6 22.87C6 25.39 6.77 27.84 8.17 29.94H14.89C13.49 28.89 12.44 27.35 11.88 25.67C11.39 23.99 11.39 22.17 11.95 20.49C12.51 18.81 13.63 17.34 15.03 16.29C16.5 15.24 18.18 14.68 20 14.68C21.75 14.68 23.5 15.24 24.97 16.29C26.44 17.34 27.49 18.81 28.05 20.49C28.61 22.17 28.61 23.99 28.12 25.67C27.63 27.35 26.58 28.89 25.11 29.94H31.83C33.23 27.84 33.93 25.39 34 22.87C34 15.45 27.77 9.5 20 9.5Z" fill="#C8102E"/>
<path d="M15.45 25.11C15.73 26.09 16.36 26.93 17.2 27.49C18.04 28.12 19.02 28.4 20 28.4C20.98 28.4 22.03 28.05 22.8 27.49C23.64 26.86 24.2 26.09 24.55 25.11H15.45Z" fill="#C8102E"/>
</svg>
