<svg width="40" height="40" viewBox="0 0 40 40" fill="none" xmlns="http://www.w3.org/2000/svg">
<path fill-rule="evenodd" clip-rule="evenodd" d="M10.7188 20.8987L6 19.483V17.7528L10.7188 19.1686V19.7975V20.7415V20.8987ZM10.7188 20.8987C10.8761 22.944 11.6629 24.517 12.7642 25.9327C13.8654 27.3484 15.4384 28.4497 17.0113 29.3931C19.056 30.3371 21.2585 30.966 23.4604 31.2812C24.0072 31.4028 24.5541 31.4773 25.1017 31.5231C25.9705 31.5956 26.8394 31.5956 27.7082 31.5956C28.1799 31.5956 28.8088 31.5956 29.4384 31.4384C30.0673 31.2812 30.6969 31.2812 31.0113 31.2812C32.1126 31.2812 33.056 31.4384 33.8428 31.5956V30.966C30.5396 29.2358 27.0786 27.5057 23.4604 25.9327C19.3711 24.0446 15.1239 22.4717 10.7188 20.8987ZM10.7188 19.1686V18.8541C10.7188 18.6306 10.7544 18.4077 10.7913 18.2013C10.8323 17.9709 10.8761 17.7617 10.8761 17.5956C15.2812 19.0113 19.5283 20.7415 23.6183 22.4717C27.2358 24.0446 30.6969 25.7755 34 27.5057V29.2358C31.9608 28.1674 29.8608 27.0989 27.7014 26.0681C26.3636 25.4289 25.0025 24.8041 23.6183 24.2025C19.5283 22.3145 15.1239 20.5843 10.7188 19.1686ZM6 16.0227V14.2918L10.7188 15.7082C10.8761 15.8654 11.1912 15.8654 11.3484 15.8654C11.2534 16.1498 11.1584 16.4909 11.0634 16.8204C11.0012 17.0378 10.939 17.2504 10.8761 17.4384H10.7188L6 16.0227ZM6 12.5616V10.8314C7.57295 11.3031 9.1459 11.7755 10.7188 12.4044C11.5057 12.5616 12.2918 12.8761 13.0786 13.1912L12.1346 14.6069C11.8488 14.5119 11.5631 14.4162 11.2773 14.2863C11.0914 14.2016 10.9055 14.1018 10.7188 13.9773L6 12.5616ZM12.1346 14.6069C12.056 14.7252 11.9869 14.8435 11.9227 14.9617C11.7312 15.3151 11.5843 15.6686 11.3484 16.0227C15.5956 17.4384 19.6855 19.0113 23.4604 20.7415C27.0786 22.3145 30.5396 24.0446 33.8428 25.7755V24.0446C30.5396 22.3145 27.0786 20.5843 23.4604 19.0113C19.8428 17.4384 16.0673 15.8654 12.1346 14.6069ZM13.0786 13.1912C16.6969 14.4497 20.1572 15.8654 23.4604 17.2812C27.0786 18.8541 30.3817 20.5843 33.8428 22.3145V20.5843C32.6232 19.9424 31.4823 19.3265 30.3127 18.716C28.6167 17.8301 26.8605 16.9537 24.7188 16.0227C25.3484 15.7082 27.0786 15.3931 28.3371 15.3931C29.5819 15.5489 30.5191 15.7055 31.4522 15.8613L31.483 15.8654C32.1126 16.0227 33.056 16.3371 33.8428 16.966V8C32.7415 8.47168 31.483 8.47168 30.6969 8.47168C30.3893 8.47168 30.057 8.42383 29.5881 8.35547C28.858 8.24951 27.7964 8.0957 25.9773 8C25.1912 8 24.2472 8 23.4604 8.15723C21.1013 8.31445 18.7415 9.10127 17.1686 10.0446C15.5956 10.8314 14.1799 11.9327 13.0786 13.1912Z" fill="#7F003F"/>
</svg>
