<svg width="40" height="40" viewBox="0 0 40 40" fill="none" xmlns="http://www.w3.org/2000/svg">
<path d="M20.8343 8.41064C20.4017 8.41064 20.1545 8.41064 19.9072 8.47245C21.1434 8.7815 21.5142 9.33779 22.1323 10.3268L27.3862 18.1148L29.3023 16.3842L25.6556 10.8212C24.3575 8.90512 22.256 8.41064 20.8343 8.41064Z" fill="#216B36"/>
<path d="M20.0309 6C12.2428 6 6 12.2428 6 19.9691C6 27.6954 12.2428 34 19.9691 34C27.6954 34 34 27.7572 34 20.0309C34.0618 12.3664 27.6954 6 20.0309 6ZM32.5783 21.2671L29.9823 17.3731L22.1943 24.4194C19.4128 26.9536 15.8278 30.9095 13.4172 26.5209C11.8101 23.6159 12.181 18.6093 14.0971 16.1369C15.3333 14.6534 17.1258 14.6534 18.3002 16.3841L22.5651 22.7506L24.4813 21.0198L21.5761 16.5695C20.0927 14.4061 18.2384 13.4791 16.3841 13.4791C14.777 13.4172 13.3554 13.9735 12.1192 14.9624C8.4724 17.8676 8.28698 24.1722 11.192 27.7572C14.5298 31.8366 19.2891 30.5386 22.8742 27.3245L29.5497 21.3289L31.7748 24.7284C31.713 24.9139 31.5894 25.0993 31.5276 25.3465L29.7351 22.6269L27.7572 24.4812L30.0441 27.8808C29.8587 28.128 29.6732 28.3135 29.4878 28.5607L27.0772 24.9139L25.1611 26.7682L27.5717 30.3532C25.4702 31.9602 22.8124 32.8874 19.9691 32.8874C13.0464 32.8256 7.35983 27.1391 7.35983 20.2163C7.35983 13.17 13.0464 7.60706 20.0309 7.60706C27.0154 7.60706 32.6402 13.2936 32.6402 20.2781C32.6402 20.5254 32.5783 20.8962 32.5783 21.2671Z" fill="#216B36"/>
<path d="M17.9912 8.78137C17.0022 8.78137 16.0133 9.02861 15.1479 9.52309C16.6314 9.33766 17.9294 9.95577 18.9183 11.3774L25.0376 20.4635L26.9537 18.7328L21.4526 10.4502C20.5872 9.15223 19.351 8.78137 17.9912 8.78137Z" fill="#216B36"/>
</svg>
