<svg width="40" height="40" viewBox="0 0 40 40" fill="none" xmlns="http://www.w3.org/2000/svg">
<path d="M18.8948 6V12.3383L24.0526 6H18.8948ZM7.78852 9.01559C8.14827 8.4373 8.53477 7.98109 9.0699 7.55231L9.47619 7.27643C9.86021 7.06755 10.2078 6.9286 10.6373 6.8218C10.8974 6.77526 11.1371 6.74985 11.4051 6.74108C11.7633 6.753 12.07 6.79797 12.418 6.88386C12.6622 6.96188 12.8832 7.04934 13.1151 7.15928C13.6416 7.44978 14.0421 7.77671 14.4452 8.21919L14.7481 8.60166C15.1924 9.25212 15.4797 9.89652 15.6917 10.6493L15.8064 11.161C15.8215 11.2427 15.8341 11.3238 15.8442 11.4018V6H7V11.4164C7.10973 10.819 7.28555 10.0346 7.55514 9.45335L7.78852 9.01559ZM27.7396 6.87611L18.8948 17.7461V20.2124C18.9051 20.1328 18.9186 20.0528 18.9321 19.9721L19.0463 19.4612C19.259 18.708 19.5468 18.0629 19.9904 17.4122L20.2933 17.0282C20.6384 16.6532 20.9739 16.3627 21.4073 16.0904C21.6304 15.9658 21.8471 15.8642 22.0805 15.7696C22.6015 15.6056 23.0469 15.5422 23.5967 15.5586L24.1057 15.6328C24.5316 15.7394 24.8794 15.8783 25.2616 16.0902C25.4738 16.221 25.6652 16.3597 25.8595 16.5148C26.4346 17.0311 26.8351 17.5802 27.1856 18.2641L27.3859 18.7251C27.5476 19.1601 27.6634 19.7998 27.7398 20.2304C27.7396 20.2304 27.7396 6.87611 27.7396 6.87611Z" fill="#50B848"/>
<path d="M23.3345 24.867C22.0866 24.867 21.0699 23.274 21.0699 21.3186C21.0699 19.3642 22.0866 17.7712 23.3345 17.7712C24.584 17.7712 25.6018 19.3642 25.6018 21.3186C25.6018 23.274 24.584 24.867 23.3345 24.867ZM23.3345 16.8458C21.5668 16.8458 20.1262 18.8543 20.1262 21.3186C20.1262 23.7828 21.567 25.793 23.3345 25.793C25.1013 25.793 26.5442 23.7828 26.5442 21.3186C26.5455 18.8554 25.1013 16.8458 23.3345 16.8458Z" fill="#50B848"/>
<path d="M19.0463 23.1789L18.9321 22.6659C18.9186 22.5847 18.9051 22.5051 18.8948 22.4269V27.8298H27.7396V22.4536C27.6281 23.0526 27.4534 23.7935 27.1853 24.376L26.949 24.8145C26.5893 25.3907 26.2039 25.8452 25.6695 26.276L25.2614 26.5503C24.8789 26.7618 24.5313 26.8992 24.1055 27.006C23.8415 27.0525 23.6011 27.0784 23.3345 27.0872C22.9774 27.0753 22.6689 27.0319 22.3211 26.9444C22.0772 26.8659 21.8557 26.7783 21.6241 26.6701C21.0975 26.3778 20.6966 26.0517 20.2931 25.61L19.9902 25.2248C19.5468 24.5766 19.2606 23.9304 19.0463 23.1789ZM15.8446 13.6165C15.8347 13.696 15.8219 13.7756 15.8068 13.8573L15.6922 14.3685C15.4802 15.1218 15.1928 15.7673 14.7485 16.4162L14.4454 16.8005C14.1023 17.175 13.7637 17.4653 13.3298 17.7394C13.109 17.8613 12.8931 17.9636 12.6571 18.0587C12.1343 18.2241 11.6934 18.2876 11.1441 18.2675L10.637 18.1972C10.2078 18.0902 9.85999 17.9514 9.47596 17.7394C9.26484 17.6069 9.07395 17.4682 8.87968 17.3136C8.30296 16.7957 7.90409 16.2503 7.55469 15.5643C7.27543 14.9226 7.12457 14.3175 7 13.625V26.9521L15.8446 16.0852V13.6165Z" fill="#50B848"/>
<path d="M11.4052 16.0563C10.1568 16.0563 9.13741 14.464 9.13741 12.5099C9.13741 10.5555 10.1568 8.9596 11.4052 8.9596C12.6517 8.9596 13.6676 10.5558 13.6676 12.5099C13.6676 14.464 12.6517 16.0563 11.4052 16.0563ZM11.4052 8.03685C9.63746 8.03685 8.19532 10.0449 8.19532 12.5096C8.19532 14.9725 9.63746 16.9808 11.4052 16.9808C13.1708 16.9808 14.6116 14.9723 14.6116 12.5096C14.6116 10.0451 13.1708 8.03685 11.4052 8.03685ZM15.8446 21.4932L10.6866 27.8299H15.8446V21.4932ZM27.4837 6H24.9981L7.26636 27.8299H9.71534L27.4837 6ZM18.1326 26.3274H16.6154V27.83H18.1326V26.3274Z" fill="#50B848"/>
<path d="M28.5047 26.3274V27.83C29.5415 27.83 30.3839 28.661 30.3839 29.6859C30.3839 30.7114 29.5415 31.5423 28.5047 31.5423C27.7414 31.5423 27.0439 31.3712 25.5948 31.0153C22.787 30.3275 19.33 29.4785 16.5613 28.7995C11.5856 27.58 7.02082 28.9634 7.00171 32.196H8.5185C8.5185 30.9942 10.8463 30.1966 15.8313 31.4178C20.1429 32.4757 21.7644 32.8734 25.0116 33.6698C27.1555 34.1953 28.9128 34.0687 30.1758 33.4668L30.1805 33.4715C31.4434 32.8583 32.3117 31.5743 32.3117 30.0919C32.312 28.0119 30.6063 26.3274 28.5047 26.3274Z" fill="#50B848"/>
</svg>
