<svg width="40" height="40" viewBox="0 0 40 40" fill="none" xmlns="http://www.w3.org/2000/svg">
<path d="M34 30.4898C34 32.4081 32.4421 34 30.5154 34H9.48463C7.55784 33.9592 6 32.4081 6 30.4898V9.51021C6 7.59183 7.55784 6 9.48463 6H30.4744C32.4012 6 33.959 7.59183 33.959 9.51021V30.4898H34Z" fill="#B49F64"/>
<path d="M19.9795 18.2447C20.9634 18.2447 21.7423 19.0203 21.7423 19.9999C21.7423 20.9794 20.9634 21.755 19.9795 21.755C18.9956 21.755 18.2167 20.9794 18.2167 19.9999C18.2577 19.0203 19.0366 18.2447 19.9795 18.2447ZM22.6032 14.7346C21.6193 14.7346 20.8404 15.5101 20.8404 16.4896C20.8404 17.4693 21.6193 18.2447 22.6032 18.2447C23.5871 18.2447 24.366 17.4693 24.366 16.4896C24.366 15.5101 23.5871 14.7346 22.6032 14.7346ZM17.3557 14.7346C16.3719 14.7346 15.5929 15.5101 15.5929 16.4896C15.5929 17.4693 16.3719 18.2447 17.3557 18.2447C18.3397 18.2447 19.1186 17.4693 19.1186 16.4896C19.1186 15.5101 18.3397 14.7346 17.3557 14.7346ZM25.2269 11.2244C26.2108 11.2244 26.9897 11.9999 26.9897 12.9795C26.9897 13.9591 26.2108 14.7346 25.2269 14.7346C24.243 14.7346 23.4641 13.9591 23.4641 12.9795C23.5051 11.9999 24.284 11.2244 25.2269 11.2244ZM19.9795 11.2244C20.9634 11.2244 21.7423 11.9999 21.7423 12.9795C21.7423 13.9591 20.9634 14.7346 19.9795 14.7346C18.9956 14.7346 18.2167 13.9591 18.2167 12.9795C18.2577 11.9999 19.0366 11.2244 19.9795 11.2244ZM16.4949 12.9795C16.4949 13.9591 15.7159 14.7346 14.7321 14.7346C13.7482 14.7346 12.9692 13.9591 12.9692 12.9795C12.9692 11.9999 13.7482 11.2244 14.7321 11.2244C15.7159 11.2244 16.4949 11.9999 16.4949 12.9795ZM22.6032 21.7142C21.6193 21.7142 20.8404 22.4897 20.8404 23.4693C20.8404 24.4488 21.6193 25.2244 22.6032 25.2244C23.5871 25.2244 24.366 24.4488 24.366 23.4693C24.366 22.5305 23.5871 21.7142 22.6032 21.7142ZM17.3557 21.7142C16.3719 21.7142 15.5929 22.4897 15.5929 23.4693C15.5929 24.4488 16.3719 25.2244 17.3557 25.2244C18.3397 25.2244 19.1186 24.4488 19.1186 23.4693C19.1186 22.5305 18.3397 21.7142 17.3557 21.7142ZM25.2269 25.2244C26.2108 25.2244 26.9897 25.9999 26.9897 26.9795C26.9897 27.9183 26.2108 28.7346 25.2269 28.7346C24.243 28.7346 23.4641 27.9183 23.4641 26.9795C23.5051 25.9999 24.284 25.2244 25.2269 25.2244ZM19.9795 25.2244C20.9634 25.2244 21.7423 25.9999 21.7423 26.9795C21.7423 27.9183 20.9634 28.7346 19.9795 28.7346C18.9956 28.7346 18.2167 27.9183 18.2167 26.9795C18.2577 25.9999 19.0366 25.2244 19.9795 25.2244ZM14.7321 25.2244C15.7159 25.2244 16.4949 25.9999 16.4949 26.9795C16.4949 27.9183 15.7159 28.7346 14.7321 28.7346C13.7482 28.7346 12.9692 27.9183 12.9692 26.9795C13.0102 25.9999 13.7892 25.2244 14.7321 25.2244Z" fill="white"/>
</svg>
