<svg width="40" height="40" viewBox="0 0 40 40" fill="none" xmlns="http://www.w3.org/2000/svg">
<path fill-rule="evenodd" clip-rule="evenodd" d="M21.5314 32.2985C23.1822 32.4665 25.4009 31.1094 28.2061 27.9867C30.2448 25.7077 32.17 23.3296 33.9747 20.8611V31.4574C33.8338 32.6313 32.7889 33.5515 31.5196 33.5515H11.231C12.7983 32.1359 14.4881 30.0852 16.0218 27.7276C17.5653 25.3734 17.8255 24.6645 18.9029 22.3233C19.3364 22.1563 20.5981 21.7488 21.5314 21.4995C20.3987 23.7865 19.2172 26.6448 19.1012 28.3173C18.9018 30.6499 19.886 32.1359 21.5325 32.2996L21.5314 32.2985ZM15.6815 23.392C15.6815 23.392 13.6979 27.2009 12.304 28.9741C11.5236 29.9215 8.55695 34.7655 6.49643 33.2014C4.51829 31.2319 9.60075 27.1586 10.6023 26.4573C12.3344 25.0894 15.6815 23.3931 15.6815 23.3931V23.392ZM8.55803 10.0653C6.67853 11.5828 6 13.1241 6 13.1241V9.35642C6 8.06223 7.1186 7 8.48541 7H27.7639C27.7639 7 26.6398 7.08671 25.5527 8.25192C24.9403 8.90768 22.9589 11.6446 20.8095 11.0809C18.6579 10.5216 19.0817 8.75052 16.9475 8.16195C14.8198 7.57447 10.8256 8.22916 8.55803 10.0653ZM28.5399 8.82964C29.5567 8.09258 29.2336 7.1821 28.4944 7H31.5185C32.6501 7 33.6029 7.73272 33.8956 8.72342C32.1971 8.55758 29.3681 9.63391 27.1352 12.3827C24.8698 15.1759 22.9589 18.5859 22.9589 18.5859C22.9589 18.5859 21.2062 19.09 20.2925 19.3631C20.5775 18.7702 21.8533 16.3216 24.0016 13.2715C25.8172 10.6951 27.6696 9.45614 28.5399 8.82748V8.82964ZM17.0299 20.305C13.621 21.3347 8.30006 24.0608 6 27.1705V16.8061C6.83786 18.0602 7.93803 18.8114 9.3753 19.1528C11.1854 19.5213 12.9923 19.2504 14.6106 18.3616C15.3435 17.9647 16.014 17.4621 16.6007 16.8701C17.8071 15.6724 17.3681 14.2319 16.3839 13.9414C15.3921 13.6552 14.4437 14.3099 13.9505 15.0903C13.4551 15.8729 12.7972 16.8376 10.6858 16.8376C9.62352 16.8376 8.36835 16.1699 8.04534 14.6524C7.51314 12.3404 10.4722 9.9645 13.1495 9.5537C17.4743 8.89251 16.3839 11.7486 18.4498 13.1881C18.9701 13.5707 20.3391 14.0292 21.5856 13.1772C20.9244 14.1137 18.1127 18.4125 17.031 20.3061L17.0299 20.305ZM29.6033 12.4326C30.8823 10.9866 32.9558 10.0046 33.8284 11.0603C34.6955 12.1193 32.08 14.2145 30.3967 15.2605C28.722 16.301 27.0951 17.2029 25.7066 17.7817C26.5716 16.1721 28.6874 13.4677 29.6033 12.4336V12.4326ZM30.3349 17.6137C31.3484 16.9286 32.9829 15.6713 33.9736 14.6849V18.7496C33.1932 19.6948 28.7058 24.7176 26.8447 26.4313C23.6656 29.3503 21.5314 28.9102 22.3551 25.8546C22.8548 24.0415 23.5603 22.2915 24.4579 20.6389C25.5278 20.2291 28.2321 19.039 30.3349 17.6147V17.6137Z" fill="#005191"/>
</svg>
