<svg width="40" height="40" viewBox="0 0 40 40" fill="none" xmlns="http://www.w3.org/2000/svg">
<path d="M28.2678 25.7897C28.1115 26.0068 27.9638 26.2369 27.7901 26.4454C26.1313 28.4473 23.9558 29.2202 21.4111 29.1116C20.1605 29.0596 18.9447 28.8424 17.8982 28.0998C16.4174 27.0447 15.588 25.5595 15.5012 23.7792C15.3796 21.2736 15.41 18.7594 15.3796 16.2495C15.3752 15.8934 15.3796 15.5416 15.3796 15.1639C15.0278 15.1031 14.6978 15.0684 14.3765 14.9902C13.4038 14.747 12.9001 14.0826 12.9001 13.0795C12.9001 12.4065 12.9001 11.7291 12.9044 11.056C12.9088 10.4133 13.0911 10.1875 13.7381 10.2005C16.1004 10.2396 18.4583 10.3134 20.8163 10.3699C21.1853 10.3786 21.3547 10.6 21.3851 10.9387C21.4068 11.2167 21.4024 11.4989 21.4024 11.7812C21.4111 14.9121 21.4111 18.0429 21.4285 21.1738C21.4285 21.5254 21.4893 21.8859 21.5718 22.2289C21.9452 23.7922 23.4477 24.4522 24.9719 23.6966C26.4874 22.9455 27.2603 21.6427 27.5209 20.0187C27.6121 19.4498 27.6338 18.8636 27.6381 18.2817C27.6511 15.9586 27.6425 13.631 27.6468 11.3078C27.6468 10.5219 27.8249 10.3525 28.6022 10.3525C30.0829 10.3525 31.5636 10.3482 33.0444 10.3569C33.7175 10.3612 33.8261 10.4784 33.8304 11.1559C33.8391 13.1447 33.826 15.1291 33.8434 17.118C33.8694 20.3791 33.9085 23.6402 33.9476 26.9014C33.952 27.3139 34.0041 27.7221 33.9997 28.1346C33.9954 28.5819 33.7522 28.825 33.2962 28.825C32.1542 28.825 31.0079 28.8337 29.8658 28.8207C29.323 28.8164 28.9148 28.5167 28.7454 28.026C28.5717 27.5049 28.5023 26.9448 28.4067 26.3977C28.372 26.2109 28.4024 26.0155 28.4024 25.8244C28.359 25.8071 28.3112 25.7984 28.2678 25.7897V25.7897ZM12.6613 26.0242C12.6656 27.861 11.1935 29.3374 9.34802 29.3461C7.47645 29.3591 5.99135 27.848 6.00004 25.9417C6.00872 24.1439 7.49816 22.6545 9.28722 22.6545C11.2022 22.6501 12.6569 24.1049 12.6613 26.0242Z" fill="#E77128"/>
</svg>
