<svg width="40" height="40" viewBox="0 0 40 40" fill="none" xmlns="http://www.w3.org/2000/svg">
<path fill-rule="evenodd" clip-rule="evenodd" d="M35.9354 21.3226C35.9354 21.1613 35.9031 21 35.9031 20.8387V20.7742C35.4838 17.7097 32.7096 14.7097 30.258 13.5484C28.7741 12.6774 26.9677 12.3548 25.3548 12.0645C23.9677 11.8064 22.6451 11.5806 21.7419 11.0323C21.6451 10.9677 21.5483 10.9032 21.4515 10.871C21.3548 10.8064 21.258 10.7742 21.1612 10.7097C20.9354 10.5484 20.1612 9.90323 19.6128 9.29032C19.3548 8.96774 19.1289 8.6129 18.9677 8.25806L18.8386 8V21.4516H20.2902V11.9032C20.516 12.0968 20.7741 12.2903 21.1289 12.5161C21.9354 13 23.3225 13.2581 24.8064 13.5161C26.3548 13.8064 27.9677 14.0968 29.2257 14.6774C32.387 16.0968 34.3225 19.4839 34.5483 21.3548C34.5483 21.4194 34.5483 21.5161 34.5483 21.5806C34.5483 21.6452 34.5483 21.7097 34.5483 21.7419V23.7419H21.4515V30.4194H21.4838C21.9354 30.4194 22.2257 30.3871 22.6773 30.3226H22.8064V25H35.9999V23.6452C35.9999 22.9677 35.9999 22.0645 35.9354 21.3226Z" fill="#CA2044"/>
<path fill-rule="evenodd" clip-rule="evenodd" d="M35.3871 26.1612H23.8065V27.5483H31.7097C31.4194 27.8063 31.1935 27.9676 30.7419 28.3225C27.9355 30.1612 24.2258 31.1612 20.3226 31.1934V22.7741H33.5806V21.3225H11.2903C11.3226 20.9031 11.3871 20.516 11.4516 20.1289C11.4839 19.9999 11.5161 19.8386 11.5484 19.7418C11.6452 19.3547 11.7419 18.9999 11.871 18.6773L12.0645 18.7418C12.3226 18.8386 12.6129 18.9354 12.871 18.9999C13.6129 19.2257 14.3226 19.387 15.0323 19.4838L15.2258 19.516C15.7742 19.6128 16.3871 19.7096 17.0968 19.7741C17.6452 19.8063 18.1935 19.8386 18.8065 19.8709V18.2902C18.3226 18.2902 17.8065 18.258 17.2258 18.1934C16.6129 18.1289 16.0323 18.0644 15.4516 17.9676C15.3226 17.9676 15.1613 17.9354 15.0323 17.9031C14.1935 17.7418 13.5161 17.5805 12.871 17.3547C12.7742 17.3225 12.6774 17.3225 12.6129 17.2902C12.5806 17.2902 12.5484 17.258 12.5161 17.258C12.6129 17.0967 12.6774 16.9676 12.7742 16.8063C12.8065 16.7418 12.8387 16.7096 12.871 16.6451C13.4194 15.8386 14.1613 15.0967 15 14.4838C16.0645 13.7096 17.2903 13.1934 18.6129 12.9676C18.6452 12.9676 18.6774 12.9676 18.7097 12.9676H18.7419V11.3547H18.7097C18.6774 11.3547 18.6452 11.387 18.5806 11.387C18.5484 11.387 18.4839 11.387 18.4516 11.4192C17.2903 11.516 16.0968 11.6773 14.9677 11.9031C14.1613 12.0967 13.4516 12.2902 12.8065 12.516C12.3548 12.6451 11.9032 12.8063 11.3871 13.0321C11 13.1934 10.5806 13.4192 10.0323 13.6773C9.22581 14.0967 8.54839 14.5483 7.96774 14.9999C7 15.7418 6.19355 16.5483 5.54839 17.4838C5.06452 18.1612 4.67742 18.9031 4.41936 19.6451C4.16129 20.4515 4 21.2257 4 22.0322V22.0644C4 24.6451 5.3871 27.1289 7.93549 29.0967C8.09678 29.1934 8.22581 29.3225 8.3871 29.4193C8.54839 29.516 8.67742 29.6128 8.80645 29.7096C9.09677 29.8709 9.3871 30.0644 9.67742 30.2257C9.77419 30.2902 9.87097 30.3547 9.96774 30.387C10.3226 30.5805 10.7419 30.7741 11.129 30.9354L11.3226 31.0322C11.7419 31.2257 12.1613 31.387 12.7419 31.5805C13.4516 31.8063 14.1613 32.0322 14.9032 32.1934C16.5806 32.5805 18.2903 32.7418 20.0645 32.7418C24.3871 32.7418 28.4194 31.6128 31.4516 29.6128C32.0645 29.2257 32.6129 28.7741 33.0968 28.3547C33.5161 27.9676 34.7419 26.7418 35.1613 26.2257L35.3871 26.1612ZM10 15.6128C10.0645 15.5805 10.129 15.5483 10.1935 15.4838C10.5806 15.258 11.0323 15.0321 11.4516 14.8063L11.5484 14.7741C11.9032 14.5805 12.2581 14.4515 12.6452 14.2902C12.7419 14.258 12.8387 14.1934 12.9677 14.1612C13 14.1612 13.0323 14.1289 13.0645 14.1289C13 14.1612 12.9677 14.2257 12.9032 14.2902C12.3548 14.8386 11.871 15.4193 11.4839 15.9999C11.4194 16.0967 11.3548 16.2257 11.2903 16.3225C11.2258 16.4193 11.1613 16.516 11.0968 16.6128C10.7742 16.4192 10.4516 16.2257 10.1935 15.9676C10.0645 15.8386 9.96774 15.7418 9.90323 15.6451C9.93548 15.6451 9.96774 15.6451 10 15.6128ZM6.06452 20.1612C6.25806 19.5483 6.58065 18.9676 6.96774 18.387C7.29032 17.9676 7.67742 17.4838 8.12903 17.0322C8.22581 16.9354 8.29032 16.8709 8.3871 16.7741C8.45161 16.7096 8.54839 16.6451 8.6129 16.5483C8.96774 17.0322 9.48387 17.4515 10.129 17.8063C10.1613 17.8063 10.1613 17.8386 10.1935 17.8386C10.2581 17.8709 10.3226 17.9354 10.4194 17.9676C10.3226 18.2257 10.1935 18.5483 10.129 18.8709L10.0968 18.9999C10.0323 19.258 9.96774 19.4838 9.90323 19.7418C9.80645 20.258 9.74194 20.7741 9.70968 21.258H5.77419C5.83871 20.9031 5.93548 20.516 6.06452 20.1612ZM9.09678 27.1934C9 27.3547 8.87097 27.4838 8.77419 27.6128C8.54839 27.4192 8.35484 27.2257 8.16129 27.0322C6.80645 25.7418 6 24.2902 5.80645 22.7741H9.74194C9.80645 23.5805 9.93548 24.3225 10.1613 25.1289C10.2581 25.4838 10.3548 25.8063 10.4839 26.1289C10.4194 26.1612 10.3871 26.1934 10.3226 26.2257C10.2581 26.258 10.2258 26.2902 10.1613 26.3225H10.129C9.70968 26.6128 9.3871 26.9031 9.09678 27.1934ZM12.9355 29.9354C12.4516 29.7741 12 29.5805 11.5484 29.3225L11.3548 29.2257C10.9677 29.0322 10.5806 28.8386 10.1935 28.6128C10.1613 28.5805 10.0968 28.5805 10.0645 28.516C10.0968 28.4838 10.129 28.4192 10.1935 28.3547L10.2903 28.2257C10.4516 28.0644 10.6774 27.8386 11.0323 27.6451C11.0645 27.6451 11.0968 27.6128 11.129 27.5805C11.1613 27.5805 11.1935 27.5483 11.1935 27.5483C11.2581 27.6128 11.2903 27.7096 11.3548 27.8063C11.4194 27.9031 11.4516 27.9999 11.5161 28.0644C11.9355 28.6773 12.3871 29.2257 12.9355 29.7418C13 29.8386 13.0645 29.9031 13.129 29.9676C13.0323 29.9676 13 29.9676 12.9355 29.9354ZM18.8387 31.0967H18.7419C18.4839 31.0321 18.1935 30.9999 17.9355 30.9031C17.3871 30.7741 16.8387 30.5805 16.129 30.2257C15.7097 29.9999 15.3871 29.8063 15.0645 29.5805C14.2258 28.9999 13.4839 28.258 12.9355 27.4192C12.8065 27.2257 12.6774 27.0644 12.5806 26.8709C12.6452 26.8386 12.7097 26.8386 12.7742 26.8063C12.8065 26.8063 12.871 26.7741 12.9032 26.7418C13.5161 26.5483 14.2581 26.3547 15.0323 26.1612C16.2258 25.9354 17.4516 25.7741 18.8065 25.7418V31.0967H18.8387ZM18.8387 24.1612C17.4839 24.2257 16.2258 24.3547 15.0645 24.5805C14.3226 24.7096 13.6129 24.9031 12.9032 25.0967C12.5806 25.1934 12.2258 25.3225 11.9032 25.4515C11.7742 25.1289 11.6774 24.8063 11.5806 24.4515L11.5484 24.3225C11.4516 23.8063 11.3548 23.3225 11.2903 22.8063H18.8387V24.1612Z" fill="#093D58"/>
</svg>
