<svg width="40" height="40" viewBox="0 0 40 40" fill="none" xmlns="http://www.w3.org/2000/svg">
<path fill-rule="evenodd" clip-rule="evenodd" d="M22.9887 32.3402H16.9454L16.2928 34H6V23.7067L7.62712 23.0868V16.9127L6 16.2928V6H16.2928L16.9454 7.65936H22.9892L23.6413 6H33.9346V16.2933L32.3075 16.9127V23.0864L33.9341 23.7063V33.9995H23.6413L22.9887 32.3402ZM26.8021 29.3609H29.295V26.9034L27.6679 26.2835V13.7156L29.295 13.0957V10.6386H26.8021L26.1499 12.298H13.7842L13.1316 10.6386H10.6386V13.0957L12.2653 13.7156V26.284L10.6386 26.9039V29.3609H13.1316L13.7842 27.7011H26.1495L26.8021 29.3609Z" fill="#009033"/>
</svg>
