<svg width="40" height="40" viewBox="0 0 40 40" fill="none" xmlns="http://www.w3.org/2000/svg">
<path d="M15.6022 25.628L16.6247 22.4225H7.69853C7.24103 22.4434 6.80921 22.6399 6.49287 22.9711C6.17652 23.3023 6 23.7426 6 24.2006C6 24.6586 6.17652 25.099 6.49287 25.4301C6.80921 25.7613 7.24103 25.9578 7.69853 25.9788H15.3932C15.4489 25.8541 15.5191 25.7363 15.6022 25.628ZM18.1286 17.7094H9.37778C8.92028 17.7303 8.48847 17.9268 8.17212 18.258C7.85578 18.5892 7.67925 19.0295 7.67925 19.4875C7.67925 19.9455 7.85578 20.3859 8.17212 20.717C8.48847 21.0482 8.92028 21.2447 9.37778 21.2657H16.9941L18.1286 17.7094ZM19.6362 13H11.0533C10.5958 13.021 10.164 13.2175 9.84764 13.5486C9.5313 13.8798 9.35478 14.3202 9.35478 14.7781C9.35478 15.2361 9.5313 15.6765 9.84764 16.0077C10.164 16.3388 10.5958 16.5353 11.0533 16.5563H18.5167L19.6362 13.056V13ZM23.7186 18.3326H32.3015C32.759 18.3116 33.1908 18.1151 33.5071 17.7839C33.8235 17.4528 34 17.0124 34 16.5544C34 16.0964 33.8235 15.6561 33.5071 15.3249C33.1908 14.9937 32.759 14.7972 32.3015 14.7763H24.8381L23.7186 18.2766V18.3326Z" fill="#40406B"/>
<path d="M31.4136 23.0419H22.062L22.0881 22.9859L23.2076 19.4893H27.4058C27.9841 19.4821 28.5578 19.5944 29.0907 19.8192C29.6237 20.0439 30.1045 20.3763 30.5031 20.7954C31.0856 21.3984 31.4119 22.2035 31.4136 23.0419Z" fill="#40406B"/>
<path d="M29.3872 27.1953C28.7822 27.5725 28.0812 27.7669 27.3683 27.755H19.4497L19.4758 27.699L20.5953 24.1987H31.1C31.0595 24.7952 30.8843 25.3747 30.5877 25.8937C30.291 26.4127 29.8805 26.8577 29.3872 27.1953Z" fill="#40406B"/>
<path d="M17.2108 15.0636L13.106 27.9267H17.2108L20.8977 15.0636H17.2108ZM22.4837 13.1978L18.3788 26.0608H22.4837L26.1706 13.1978H22.4837Z" fill="#328455"/>
</svg>
