<svg width="40" height="40" viewBox="0 0 40 40" fill="none" xmlns="http://www.w3.org/2000/svg">
<path d="M33.5255 6.47455H6.47461V33.5254H33.5255V6.47455Z" fill="#526BA6"/>
<path d="M33.0508 6.94915V33.0319H6.94915V6.94915H33.0508ZM34 6H6V34H34V6Z" fill="white"/>
<path d="M31.1714 8.68292H8.83472V31.3234H31.1714V8.68292Z" fill="white"/>
<path fill-rule="evenodd" clip-rule="evenodd" d="M9.26514 9.23346C16.4281 9.23346 23.61 9.23346 30.735 9.23346V30.7476C23.61 30.7476 16.4281 30.7476 9.26514 30.7476V9.23346Z" fill="#526BA6"/>
<path fill-rule="evenodd" clip-rule="evenodd" d="M9.92958 13.7704H11.7203V10.3028H29.7289C29.7289 16.8266 29.7289 23.3505 29.7289 29.8553C23.7239 29.8553 17.7063 29.8553 11.6887 29.8553V28.8176H9.89795L9.92958 13.7704Z" fill="white"/>
<path fill-rule="evenodd" clip-rule="evenodd" d="M10.79 14.574C13.1123 14.574 15.4346 14.574 17.7885 14.574C15.5168 16.814 13.2768 19.0476 11.0431 21.2813C13.2768 23.5783 15.5168 25.8752 17.7885 28.1658H10.79V14.574Z" fill="#526BA6"/>
<path fill-rule="evenodd" clip-rule="evenodd" d="M19.2502 14.5297H20.6865C18.3326 16.7634 15.9661 19.0224 13.6248 21.275C15.9661 23.591 18.3326 25.9069 20.6865 28.2355H19.2502C16.8794 25.9196 14.5234 23.5994 12.1821 21.275C14.5424 19.0224 16.8773 16.7634 19.2502 14.5297Z" fill="#526BA6"/>
<path fill-rule="evenodd" clip-rule="evenodd" d="M21.4207 17.3455H28.7481V28.1975H21.4207V28.0773C21.5808 28.0872 21.7414 28.0872 21.9016 28.0773C25.2995 28.0963 28.0837 26.0714 28.0837 23.5403C28.0837 21.0092 25.2995 18.9528 21.9016 18.9528H21.4207V17.3455Z" fill="#526BA6"/>
<path fill-rule="evenodd" clip-rule="evenodd" d="M21.8697 20.4461C22.8504 20.4461 23.6287 21.9204 23.6287 23.7554C23.6287 25.5905 22.8504 27.0522 21.8697 27.0522C20.8889 27.0522 20.0979 25.5525 20.0979 23.7365C20.0979 21.9204 20.8699 20.4397 21.8697 20.4461Z" fill="#B4966A"/>
<path fill-rule="evenodd" clip-rule="evenodd" d="M21.503 20.4144C22.4774 20.4144 23.262 21.8887 23.262 23.7238C23.262 25.5588 22.4774 27.0205 21.503 27.0205C20.5285 27.0205 19.7312 25.5208 19.7312 23.7048C19.7312 21.8887 20.5222 20.3764 21.503 20.4144Z" fill="url(#paint0_linear_1470_5510)"/>
<defs>
<linearGradient id="paint0_linear_1470_5510" x1="18.5732" y1="19.5285" x2="24.439" y2="27.9064" gradientUnits="userSpaceOnUse">
<stop stop-color="#B4966A"/>
<stop offset="0.5" stop-color="#FEF0C7"/>
<stop offset="1" stop-color="#B4966A"/>
</linearGradient>
</defs>
</svg>
