<svg width="40" height="40" viewBox="0 0 40 40" fill="none" xmlns="http://www.w3.org/2000/svg">
<path d="M33.9477 8.10583C33.8953 8.05292 33.7907 8 33.686 8H29.5514C29.2898 8 29.028 8.21166 28.9757 8.47622L27.6673 20.8051C27.615 21.0697 26.8299 27.3664 20.4449 27.3664H14.0075C13.7458 27.3664 13.4841 27.5781 13.4318 27.8427L13.0131 32.0228C13.0131 32.1286 13.0131 32.2345 13.1177 32.2874C13.1701 32.3403 13.2748 32.3932 13.3794 32.3932H19.8168C31.3308 32.3932 32.6393 21.0697 32.6916 20.5935L34 8.3704C34 8.26457 34 8.15874 33.9477 8.10583ZM19.5552 13.0797H25.9925C26.2542 13.0797 26.5159 12.8681 26.5682 12.6035L26.9869 8.42331C26.9869 8.31749 26.9869 8.21166 26.8822 8.15874C26.8299 8.10583 26.7252 8.05292 26.6206 8.05292H20.1832C8.66916 8 7.30841 19.2706 7.25607 19.7469L6 32.0757C6 32.1816 6 32.2874 6.10467 32.3403C6.15701 32.3932 6.26168 32.4461 6.36635 32.4461H10.501C10.7626 32.4461 11.0243 32.2345 11.0766 31.9699L12.3851 19.641C12.3851 19.3765 13.1701 13.0797 19.5552 13.0797ZM19.2934 19.2706H23.2187C24.2654 19.2706 25.2075 18.424 25.3122 17.4187L25.4692 15.8841C25.4692 15.7783 25.4692 15.6725 25.3645 15.6196C25.3122 15.5667 25.2075 15.5138 25.1028 15.5138H23.6374C23.6374 15.5138 23.6374 15.5138 23.5851 15.5138H19.6598C17.7757 15.5138 14.8448 16.7837 14.4785 20.276C14.1122 23.7683 16.7813 25.0382 18.6654 25.0382H21.9626C23.0094 25.0382 23.9514 24.1916 24.0561 23.1862L24.2131 21.7046C24.2131 21.5989 24.2131 21.493 24.1084 21.4401C24.0561 21.3872 23.9514 21.3342 23.8467 21.3342H22.329C22.329 21.3342 19.7121 21.3342 19.0841 21.3342C18.4561 21.3342 18.1944 20.6993 18.2467 20.3818C18.2991 20.0114 18.3514 19.2706 19.2934 19.2706Z" fill="#DB082B"/>
</svg>
