<svg width="40" height="40" viewBox="0 0 40 40" fill="none" xmlns="http://www.w3.org/2000/svg">
<path fill-rule="evenodd" clip-rule="evenodd" d="M28.8202 6.0029C31.5687 6.36863 33.273 7.89558 33.9332 10.5838C34.0096 16.7368 34.0251 22.8909 33.9794 29.0461C33.4655 31.8736 31.792 33.5162 28.959 33.974C21.3088 33.9971 13.6586 34.0048 6.00836 33.9971C5.98578 26.2072 6.00892 18.4181 6.07777 10.63C6.62401 8.19436 8.11242 6.68281 10.543 6.09544C10.7268 6.06731 10.9118 6.04417 11.0982 6.02603C17.0055 6.0029 22.9128 5.99517 28.8202 6.0029Z" fill="#1C468B"/>
<path d="M25.0723 14.8407H23.9155L23.9155 18.0335C23.4444 18.0486 22.9817 18.0332 22.5274 17.9872L22.5274 14.8407H21.3706V13.7302H25.0723V14.8407Z" fill="white"/>
<path fill-rule="evenodd" clip-rule="evenodd" d="M19.1034 14.2393C19.1486 14.1103 19.1641 13.9715 19.1497 13.8228H20.5379V18.0798H19.2423L19.1497 17.7096C18.9598 17.9435 18.713 18.0823 18.4094 18.1261C17.978 18.2178 17.5615 18.1715 17.16 17.9873C16.5547 17.6748 16.2 17.1813 16.0958 16.5066C15.9746 16.1207 15.9746 15.7351 16.0958 15.3498C16.3451 14.238 17.0392 13.7058 18.178 13.7534C18.5484 13.8074 18.8569 13.9694 19.1034 14.2393Z" fill="white"/>
<path fill-rule="evenodd" clip-rule="evenodd" d="M30.0233 18.0797V13.8227H28.6352C28.6428 13.9624 28.6351 14.1012 28.612 14.2392C28.194 13.8273 27.6927 13.6654 27.1082 13.7533C26.0461 14.0547 25.5063 14.7642 25.4887 15.8818C25.4562 17.0351 25.9806 17.7909 27.062 18.1491C27.6693 18.2676 28.1937 18.121 28.6352 17.7095C28.6804 17.8385 28.6958 17.9773 28.6814 18.126C29.1371 18.1411 29.5844 18.1257 30.0233 18.0797ZM28.6815 17.6632C28.6815 17.6632 28.6814 17.6632 28.6815 17.6632V17.6632Z" fill="white"/>
<path fill-rule="evenodd" clip-rule="evenodd" d="M14.7537 16.8763V13.7302H11.3759C11.4293 14.6621 11.3213 15.5721 11.052 16.4602C11.052 16.4602 11.052 16.4602 11.052 16.4602C11.0061 16.5823 10.9598 16.7057 10.9132 16.8304C10.6994 16.8764 10.4835 16.8918 10.2654 16.8767C10.2193 17.6243 10.2038 18.3801 10.2191 19.144H11.3759V18.8664L11.4221 18.0335H14.2447C14.2672 18.3878 14.2826 18.7426 14.291 19.0977C14.6681 19.1437 15.0537 19.1591 15.4477 19.144C15.463 18.3802 15.4476 17.6245 15.4015 16.8769V16.8767H14.7537C14.7537 16.8766 14.7537 16.8764 14.7537 16.8763ZM11.2371 16.2289C11.2371 16.2289 11.237 16.2289 11.2371 16.2289V16.2289Z" fill="white"/>
<path d="M18.2241 22.892C18.2271 22.9123 18.2194 22.9277 18.201 22.9383C18.1143 22.8361 18.014 22.7512 17.9002 22.6838C17.0706 22.2666 16.3225 22.3823 15.6561 23.0308C15.0335 23.8363 14.9101 24.7155 15.2859 25.6683C15.5401 26.2926 15.9951 26.6859 16.6509 26.8482C17.2912 26.9774 17.8388 26.8154 18.2935 26.3623C18.3166 26.5003 18.3243 26.6391 18.3167 26.7788L19.6123 26.7788V22.5218H18.2241L18.2241 22.892Z" fill="white"/>
<path fill-rule="evenodd" clip-rule="evenodd" d="M13.1805 24.4652C13.2112 24.5643 13.2267 24.6723 13.2268 24.7891C13.2255 24.9172 13.1947 25.0252 13.1343 25.113C13.1719 24.8993 13.1874 24.6833 13.1805 24.4652Z" fill="white"/>
<path fill-rule="evenodd" clip-rule="evenodd" d="M24.6558 26.825C24.6711 25.383 24.6557 23.9489 24.6095 22.5227V22.5217H23.2676V24.1412L21.9258 24.1412C21.9409 23.5931 21.9255 23.0533 21.8795 22.5217H20.5376V26.7787C20.9919 26.8247 21.4547 26.8401 21.9257 26.825V25.298H23.2676C23.2676 25.298 23.2676 25.298 23.2676 25.298L23.2676 26.7787C23.722 26.8247 24.1847 26.8401 24.6558 26.825Z" fill="white"/>
<path d="M29.8843 22.5218C29.337 22.4605 28.7972 22.4605 28.2648 22.5218C27.8512 23.1049 27.4039 23.6602 26.9229 24.1875L26.9229 22.5218H25.5811V26.7787H26.9229L26.9229 25.622C27.0431 25.4397 27.1819 25.2701 27.3394 25.113C27.6953 25.6691 28.0501 26.2243 28.4036 26.7787C28.9206 26.84 29.445 26.84 29.9768 26.7787C29.9711 26.7507 29.9557 26.7353 29.9306 26.7325C29.4045 25.9505 28.8955 25.1561 28.4036 24.3495C28.4204 24.2928 28.4435 24.2389 28.473 24.1875C28.9284 23.6463 29.3834 23.1065 29.838 22.5681C29.8631 22.5653 29.8785 22.5499 29.8843 22.5218Z" fill="white"/>
<path d="M12.8104 26.8251C13.7418 26.6417 14.3202 26.0865 14.5455 25.1593C14.7228 24.2563 14.4683 23.5083 13.7821 22.9151C12.8086 22.333 11.968 22.4796 11.2603 23.3547C11.182 22.6391 11.4674 22.1378 12.1163 21.8509C12.8244 21.709 13.5339 21.5779 14.2448 21.4576C14.1937 21.0805 14.1089 20.7103 13.9903 20.3471C13.9515 20.2951 13.8975 20.2642 13.8283 20.2545C13.3205 20.3468 12.8115 20.4316 12.3014 20.509C11.5468 20.5891 10.953 20.9361 10.5199 21.5501C10.1466 22.2871 9.98461 23.0737 10.0341 23.91C10.0184 24.6106 10.1649 25.2738 10.4736 25.8996C10.6674 26.2555 10.9527 26.5023 11.3297 26.64C11.4802 26.7439 11.6499 26.8133 11.8387 26.8482C12.1708 26.8862 12.4947 26.8785 12.8104 26.8251Z" fill="white"/>
<path fill-rule="evenodd" clip-rule="evenodd" d="M13.1804 24.4652C13.1872 24.6834 13.1718 24.8993 13.1341 25.113C12.8175 25.6717 12.3702 25.8028 11.7923 25.5064C11.3794 25.056 11.3254 24.5702 11.6303 24.0488C11.7909 23.849 11.9991 23.7564 12.255 23.7712C12.7499 23.7575 13.0584 23.9888 13.1804 24.4652Z" fill="#1C468B"/>
<path fill-rule="evenodd" clip-rule="evenodd" d="M17.1599 23.6323C17.9588 23.6369 18.3366 24.0378 18.2935 24.8354C18.0752 25.6269 17.5893 25.8506 16.836 25.5063C16.3218 24.8903 16.3526 24.3042 16.9285 23.748C17.0206 23.7307 17.0978 23.6922 17.1599 23.6323Z" fill="#1C468B"/>
<path fill-rule="evenodd" clip-rule="evenodd" d="M27.571 14.9332C28.1198 14.8796 28.4823 15.1109 28.6584 15.6273C28.8019 16.5319 28.424 16.9715 27.5247 16.946C27.2042 16.826 26.9959 16.6024 26.9001 16.2751C26.7734 15.6416 26.997 15.1943 27.571 14.9332Z" fill="#1C468B"/>
<path fill-rule="evenodd" clip-rule="evenodd" d="M18.0852 14.9333C18.6092 14.8828 18.9717 15.0987 19.1726 15.5811C19.3281 16.2118 19.1199 16.6668 18.5479 16.9461C17.9583 17.0408 17.5804 16.8017 17.4143 16.2289C17.3118 15.6161 17.5355 15.1843 18.0852 14.9333Z" fill="#1C468B"/>
<path fill-rule="evenodd" clip-rule="evenodd" d="M12.6249 14.8407C12.8872 14.8407 13.1493 14.8407 13.4116 14.8407C13.4116 15.5194 13.4116 16.198 13.4116 16.8766C13.0094 16.892 12.6083 16.8765 12.2085 16.8304C12.4627 16.1931 12.6015 15.5299 12.6249 14.8407Z" fill="#1C468B"/>
</svg>
