<svg width="40" height="40" viewBox="0 0 40 40" fill="none" xmlns="http://www.w3.org/2000/svg">
<path d="M14.1758 16.8426C14.1758 13.64 16.7739 11.0432 19.9782 11.0432C23.1825 11.0432 25.7807 13.64 25.7807 16.8426C25.7807 20.0453 23.1825 22.6421 19.9782 22.6421C16.7739 22.6421 14.1758 20.0453 14.1758 16.8426Z" fill="#FDA329"/>
<path d="M36 24.8062H4V29.1774H36V24.8062Z" fill="#FDA329"/>
<path d="M6.16509 11C5.42896 11 4.69283 11.1298 4 11.4328V22.2093C6.98782 23.4212 10.3654 21.9497 11.5778 18.9634C12.7903 15.9771 11.318 12.6013 8.33018 11.4328C7.63735 11.1731 6.90122 11 6.16509 11Z" fill="#FDA329"/>
<path d="M33.7917 11C34.5279 11 35.264 11.1298 35.9568 11.4328V22.2093C32.969 23.4212 29.5915 21.9929 28.379 19.0067C27.1666 16.0204 28.5955 12.6446 31.5833 11.4328C32.3195 11.1731 33.0556 11 33.7917 11Z" fill="#FDA329"/>
</svg>
