<svg width="40" height="40" viewBox="0 0 40 40" fill="none" xmlns="http://www.w3.org/2000/svg">
<path fill-rule="evenodd" clip-rule="evenodd" d="M26.1862 31.9501L23.3725 25.8116H16.6289L13.8138 31.9501H26.1862ZM28.4727 10.7668C31.2124 13.1596 32.8696 16.7654 32.8696 20.4751C32.8696 24.1848 31.2119 27.7905 28.4727 30.1833L24.9286 22.4531H15.0728L11.5287 30.1833C8.78809 27.7896 7.12995 24.1838 7.12995 20.4751C7.12995 16.7658 8.78809 13.1605 11.5287 10.7668L15.0728 18.4975H24.9286L28.4727 10.7668ZM28.0399 9L24.204 17.3676H15.7979L11.962 9C8.24376 11.5688 6 15.9406 6 20.4751C6 25.01 8.24376 29.3813 11.962 31.9501L15.7979 23.583H24.204L28.0399 31.9501C31.7586 29.3813 34 25.01 34 20.4751C33.9995 15.9406 31.7581 11.5688 28.0399 9ZM26.1862 9L23.3725 15.139H16.6289L13.8138 9H26.1862Z" fill="#123A92"/>
</svg>
