<svg width="40" height="40" viewBox="0 0 40 40" fill="none" xmlns="http://www.w3.org/2000/svg">
<path d="M20 6C12.2581 6 6 12.2581 6 20C6 27.7419 12.2581 34 20 34C27.7419 34 34 27.7419 34 20C33.9355 12.2581 27.6774 6 20 6ZM18 25.9355L16.9677 28.9677C13.0968 27.6774 10.5161 24 10.5161 19.871C10.5161 15.7419 13.0968 12.129 17.0323 10.7742L18.0645 13.8065C15.4839 14.6452 13.8065 17.0968 13.8065 19.8065C13.7419 22.7097 15.4194 25.0968 18 25.9355ZM22.7742 29.0968L21.8065 26C24.4516 25.1613 26.1936 22.7097 26.1936 19.9355C26.1936 17.1613 24.4516 14.7742 21.871 13.9355L22.9032 10.8387C26.8387 12.129 29.4839 15.8064 29.4839 19.9355C29.4839 24.129 26.7742 27.8064 22.7742 29.0968Z" fill="#00BEF0"/>
</svg>
