<svg width="40" height="40" viewBox="0 0 40 40" fill="none" xmlns="http://www.w3.org/2000/svg">
<path d="M20.0028 6H20C19.5293 6.56325 17.038 10.0941 14.8411 15.6005C14.2638 17.2538 13.2101 20.8659 13.0336 24.3547C13.0168 24.7246 13.0056 25.0945 13 25.4615V26.305C13.0449 29.8218 13.6137 33.0052 13.8659 34C13.8659 32.5933 13.8995 27.9079 15.0204 24.0464C16.1385 20.1877 18.271 15.7238 20 13.454C21.8747 15.8274 24.223 20.992 25.0525 24.0689C25.8819 27.1653 26.3162 31.1109 26.1341 33.9187C26.6385 32.2878 27.0364 29.5612 27.1093 26.9804C27.1793 24.4192 26.8487 20.042 25.2318 15.48C23.6121 10.9179 20.4792 6.56605 20.0028 6Z" fill="url(#paint0_linear_2520_9195)"/>
<path d="M16.6906 22.9115C16.315 23.9063 15.6369 26.0836 15.522 28.1881C15.3875 30.7382 15.8667 33.2882 16.06 34C16.06 33.1537 16.0797 30.329 16.8054 28.0004C17.5256 25.6717 18.9043 22.9872 20.0224 21.6168C21.2329 23.0488 22.749 26.1593 23.2842 28.0116C23.8194 29.8779 24.1025 32.2542 23.9848 33.9467C24.3099 32.9659 24.5677 31.321 24.6153 29.7658C24.6601 28.2218 24.4471 25.5849 23.4019 22.8358C22.3511 20.0869 20.325 17.4612 20.0224 17.1249C19.7226 17.4612 18.1113 19.588 16.6906 22.9115V22.9115Z" fill="url(#paint1_linear_2520_9195)"/>
<defs>
<linearGradient id="paint0_linear_2520_9195" x1="20.061" y1="34.0005" x2="20.061" y2="6" gradientUnits="userSpaceOnUse">
<stop stop-color="#0073B7"/>
<stop offset="1" stop-color="#1A93CD"/>
</linearGradient>
<linearGradient id="paint1_linear_2520_9195" x1="20.06" y1="33.9988" x2="20.06" y2="17.1235" gradientUnits="userSpaceOnUse">
<stop stop-color="#0073B7"/>
<stop offset="1" stop-color="#1A93CD"/>
</linearGradient>
</defs>
</svg>
