<svg width="40" height="40" viewBox="0 0 40 40" fill="none" xmlns="http://www.w3.org/2000/svg">
<path d="M32.4001 26.2L20.1001 13.9L19.9001 13.7L19.7001 13.9L7.6001 26.2H8.4001L19.9001 14.6L31.5001 26.2H32.4001Z" fill="#A58A57"/>
<path d="M5.3 26.2L20 11.5L34.7 26.1H35.7L20 10.5L4.3 26.2H5.3ZM0 30.5H40L37.9 28.4H2.2L0 30.5Z" fill="#A58A57"/>
<path d="M27.1001 18.7H26.2001V14.2C27.0001 14.1 28.5001 14.1 28.8001 14.1C29.3001 14.1 31.1001 14.2 32.1001 14.3C32.1001 14.1 32.0001 13.8 32.0001 13.7C32.0001 13.5 32.0001 13.3 32.1001 13.1C30.9001 13.2 28.9001 13.3 27.9001 13.3C27.5001 13.3 25.6001 13.2 24.4001 13.1C24.5001 14.1 24.5001 17.2 24.5001 19.2V23.4C23.1001 24.8 21.8001 25.3 20.7001 25.3C17.1001 25.3 15.5001 21.5 15.5001 18C15.5001 14.3 17.0001 10.4 20.7001 10.4C21.8001 10.4 23.0001 11 24.4001 12.5H24.7001L25.2001 10.7C23.8001 9.79998 22.2001 9.59998 20.8001 9.59998C18.0001 9.59998 15.8001 10.9 14.6001 13.2C13.8001 13.2 12.8001 13.3 11.8001 13.3C10.2001 13.3 8.0001 13.2 7.1001 13.2C7.1001 13.4 7.2001 13.7 7.2001 13.8C7.2001 13.9 7.2001 14.2 7.1001 14.4C8.3001 14.3 9.4001 14.2 10.6001 14.3H10.9001C11.0001 15.3 11.0001 18 11.0001 19.4C11.0001 21.7 11.0001 24.4 10.9001 26.3C11.2001 26.3 11.7001 26.2 11.9001 26.2C12.0001 26.2 12.5001 26.2 12.8001 26.3C12.7001 24.3 12.7001 21.6 12.7001 19.4C12.7001 18 12.7001 15.3 12.8001 14.3H14.3001C13.9001 15.5 13.6001 16.8 13.7001 18.1C13.7001 23.2 16.5001 26.3 20.6001 26.3C22.1001 26.3 23.5001 25.9 24.8001 25.1C24.8001 25.5 24.8001 25.9 24.7001 26.3C25.0001 26.3 25.4001 26.2 25.7001 26.2C26.5001 26.2 27.7001 26.3 28.0001 26.3C30.9001 26.3 33.1001 25.1 33.1001 22.5C32.9001 19 29.0001 18.7 27.1001 18.7ZM27.7001 25.1H26.2001V19.6C29.6001 19.6 31.1001 20.2 31.1001 22.2C31.1001 24.1 29.9001 25.1 27.7001 25.1Z" fill="#00345E"/>
</svg>
