<svg width="40" height="40" viewBox="0 0 40 40" fill="none" xmlns="http://www.w3.org/2000/svg">
<path d="M21.6902 4.40336L33.0415 10.9368C33.9691 11.4746 34.4878 12.381 34.4878 13.4566V26.5335C34.4878 27.6091 33.9492 28.5154 33.0415 29.0532L21.7002 35.5966C20.7726 36.1345 19.7152 36.1345 18.7876 35.5966L7.44633 29.0233C6.51869 28.4855 6 27.5792 6 26.5135V13.4367C6 12.361 6.51869 11.4547 7.44633 10.9169L18.7976 4.40336C19.7053 3.86555 20.7626 3.86555 21.6902 4.40336Z" fill="#EE7C00"/>
<path d="M21.2614 9.06446L29.2113 13.6558C29.8596 14.0243 30.2287 14.6717 30.2287 15.4087V24.5715C30.2287 25.3085 29.8596 25.9558 29.2113 26.3243L21.2614 30.8958C20.6131 31.2643 19.8749 31.2643 19.2266 30.8958L17.1718 29.7106C16.6332 29.4317 16.8027 28.8242 17.1718 28.6549C19.7852 27.141 22.4185 25.6371 25.0219 24.1233C25.7102 23.7349 25.9495 23.2867 25.9695 22.3804V20.3088C25.9296 19.7212 25.361 19.2929 24.6728 19.7013C20.7128 22.0119 16.7429 24.3026 12.7829 26.5833C12.2642 26.902 12.1146 26.8024 11.7455 26.5833C10.3192 25.7467 10.2793 25.3483 10.2793 23.8444C10.2793 23.5158 10.389 23.4162 10.5985 23.2568C14.6183 20.9263 18.658 18.6157 22.6778 16.2851C23.4958 15.8569 23.2364 14.9904 22.6778 14.7912L20.9323 13.7952C20.3537 13.4467 19.8051 13.2973 19.047 13.7753C16.4536 15.2693 13.8602 16.7731 11.2468 18.2671C10.7082 18.5858 10.2693 18.2472 10.2693 17.7492V15.4087C10.2693 14.6717 10.6384 14.0243 11.2867 13.6558L19.2366 9.08438C19.8749 8.69596 20.6131 8.69596 21.2614 9.06446Z" fill="white"/>
</svg>
