<svg width="40" height="40" viewBox="0 0 40 40" fill="none" xmlns="http://www.w3.org/2000/svg">
<path d="M6.28003 11.25C6.28003 8.52003 8.52003 6.28003 11.25 6.28003H28.75C31.48 6.28003 33.72 8.52003 33.72 11.25V28.75C33.72 31.48 31.48 33.72 28.75 33.72H11.25C8.52003 33.72 6.28003 31.48 6.28003 28.75C6.28003 28.75 6.28003 11.25 6.28003 11.25Z" fill="#072DA0"/>
<path fill-rule="evenodd" clip-rule="evenodd" d="M11.25 34H28.82C31.69 34 34 31.69 34 28.75V11.25C34 8.31 31.69 6 28.75 6H11.25C8.31 6 6 8.31 6 11.25V28.75C6 31.69 8.31 34 11.25 34ZM6.56 11.25C6.56 8.66 8.66 6.56 11.25 6.56H28.75C31.34 6.56 33.44 8.66 33.44 11.25V28.75C33.44 31.34 31.34 33.44 28.75 33.44H11.25C8.66 33.44 6.56 31.34 6.56 28.75V11.25ZM15.8 13H13V18.6H15.8V21.4H13V27H15.8V24.2H18.6V27H21.4V24.2H24.2V27H27V24.2H24.2V21.4H27V15.8H24.2V13H18.6V15.8H15.8V13ZM21.4 21.4V24.2H18.6V21.4H21.4ZM21.4 18.6H24.2V21.4H21.4V18.6ZM21.4 18.6V15.8H18.6V18.6H21.4Z" fill="white"/>
</svg>
