<svg width="40" height="40" viewBox="0 0 40 40" fill="none" xmlns="http://www.w3.org/2000/svg">
<path d="M6 14.82H12.65C15.66 20 20 24.34 25.18 27.28V34C20.7 32.46 16.71 29.94 13.35 26.65C10.06 23.29 7.54 19.23 6 14.82ZM25.18 14.82H12.65C11.04 12.09 9.85 9.08 9.15 6H16.43C18.74 6 20.98 6.91 22.66 8.59C24.27 10.2 25.18 12.44 25.18 14.82ZM25.11 6C25.6 8.17 26.65 10.13 28.26 11.74C29.8 13.28 31.83 14.4 34 14.89V6H25.11Z" fill="#00AFAA"/>
<path d="M25.18 14.8199V27.3499C20 24.3399 15.66 19.9999 12.72 14.8199H25.18Z" fill="#00539B"/>
<path d="M33.9999 23.6399V30.9199C30.9199 30.1499 27.9799 29.0299 25.1799 27.4199V14.8199C27.4899 14.8199 29.7299 15.7299 31.4099 17.4099C33.0899 19.0899 33.9999 21.2599 33.9999 23.6399Z" fill="#F39A00"/>
</svg>
