<svg width="40" height="40" viewBox="0 0 40 40" fill="none" xmlns="http://www.w3.org/2000/svg">
<path fill-rule="evenodd" clip-rule="evenodd" d="M33.3632 24.2018C33.016 25.2968 32.5343 26.3444 31.9294 27.3208C26.2074 26.8752 20.8238 27.7174 15.9523 29.9943L16.4911 26.1044C21.8697 24.0835 27.6647 23.4268 33.3588 24.1929L33.3632 24.2018ZM34 19.9287C34 19.9287 34 19.9688 34 19.9866C34.0001 20.9629 33.8986 21.9365 33.6972 22.8918C27.8015 22.1789 22.0305 22.7804 16.638 25.0127L17.1011 21.5952C22.5066 19.6568 28.3065 19.0829 33.9866 19.9243L34 19.9287ZM33.4211 16.0299C33.6635 16.855 33.8289 17.7007 33.9154 18.5563C28.3 17.7319 22.5671 18.364 17.2659 20.3921L17.6711 17.4647C22.6272 15.8383 27.8505 15.0987 33.3899 15.9319L33.4211 16.0299ZM31.4574 11.9707C32.0327 12.7925 32.5179 13.6739 32.9046 14.5996C27.8167 13.9989 22.6589 14.586 17.8359 16.3151L18.2233 13.5302C22.4915 12.1689 26.9807 11.6381 31.4485 11.9663L31.4574 11.9707ZM27.8594 8.40612C28.8877 9.11145 29.8176 9.95056 30.6247 10.9013V10.8791C26.4671 10.7055 22.3131 11.2991 18.3702 12.6302L18.7487 9.8988C21.7124 9.0348 24.7705 8.53651 27.855 8.41503L27.8594 8.40612ZM20 6.00001C22.3334 5.99693 24.6302 6.58069 26.6794 7.69766C24.0089 7.91483 21.372 8.43657 18.82 9.25272L19.1628 6.77086C16.1168 6.96683 13.2319 8.2093 10.9958 10.2882C8.75972 12.3671 7.30964 15.1549 6.89074 18.1802C6.47184 21.2055 7.10983 24.2828 8.69683 26.8917C10.2838 29.5006 12.7225 31.4811 15.6005 32.4984L15.8053 30.9523C20.6506 28.8928 25.9185 28.025 31.1679 28.4214C29.7338 30.3272 27.8368 31.8346 25.6569 32.8007C23.477 33.7668 21.0866 34.1594 18.7125 33.9414C16.3383 33.7234 14.0592 32.9019 12.0915 31.5549C10.1237 30.208 8.53263 28.3802 7.46913 26.245C6.40563 24.1099 5.90504 21.7383 6.01485 19.3552C6.12466 16.9721 6.84124 14.6566 8.09658 12.6284C9.35192 10.6003 11.1044 8.92676 13.1876 7.7667C15.2709 6.60663 17.6159 5.9985 20 6.00001Z" fill="#06204D"/>
</svg>
