<svg width="40" height="40" viewBox="0 0 40 40" fill="none" xmlns="http://www.w3.org/2000/svg">
<path d="M33.9998 23.0309C33.9886 22.0612 33.7727 21.1048 33.3664 20.2242C32.96 19.3436 32.3724 18.5588 31.6419 17.921C31.8784 17.2762 31.9986 16.5947 31.9969 15.908C31.9969 15.531 31.9589 15.159 31.8899 14.801C31.3739 12.07 28.9799 10 26.1109 10H19.1529V22.8209C19.1529 25.2889 17.0429 27.2989 14.449 27.2989C14.3673 27.2983 14.2856 27.2963 14.204 27.2929C11.724 27.1729 9.74398 25.2119 9.74398 22.8229V13.785C9.74398 13.187 10.237 12.701 10.842 12.701H13.566C13.7447 12.7026 13.922 12.6689 14.0878 12.6019C14.2535 12.5349 14.4044 12.4358 14.5319 12.3104C14.6593 12.1851 14.7607 12.0358 14.8304 11.8711C14.9001 11.7065 14.9366 11.5298 14.938 11.351C14.938 10.606 14.323 10.001 13.566 10.001H10.843C8.72299 10.001 7 11.698 7 13.785V14.997H7.001H7V22.8229L7.001 22.9219C7.06 26.8339 10.376 29.9999 14.45 29.9999C18.5569 29.9999 21.8989 26.7799 21.8989 22.8229V12.7H26.1119C26.1399 12.7 26.1669 12.701 26.1919 12.705C27.8869 12.748 29.2519 14.168 29.2519 15.908C29.2557 16.5478 29.0676 17.1741 28.7119 17.706C28.2999 18.3419 28.4039 19.0419 29.0369 19.3959C29.709 19.7565 30.2705 20.2928 30.6615 20.9476C31.0525 21.6025 31.2583 22.3512 31.2569 23.1139C31.2569 25.2669 29.6509 27.0439 27.5969 27.2749C27.4471 27.2906 27.2965 27.2986 27.1459 27.2989H22.7099C21.9539 27.2989 21.3399 27.9049 21.3399 28.6499C21.3399 29.3969 21.9539 29.9999 22.7099 29.9999H27.1449C30.9219 29.9999 33.9978 26.9099 33.9978 23.1149C34.0008 23.0859 33.9998 23.0589 33.9998 23.0309V23.0309Z" fill="#CC163F"/>
</svg>
