<svg width="40" height="40" viewBox="0 0 40 40" fill="none" xmlns="http://www.w3.org/2000/svg">
<path fill-rule="evenodd" clip-rule="evenodd" d="M17.7066 10H22.3124C22.3124 10.4187 22.3124 10.8374 22.3124 11.2561C24.9586 10.1005 28.191 10.3015 30.5692 11.9763C32.0765 13.0482 33.4499 14.5387 33.8686 16.381C34.2705 18.2066 33.7011 20.0991 32.8302 21.7069C31.5238 24.1522 29.6313 26.1954 27.789 28.2387C28.9279 28.3392 30.0668 28.3224 31.1889 28.4397C31.1554 29.1933 31.1219 29.947 31.0884 30.7007C28.7437 30.7007 26.3822 30.6839 24.0374 30.7007C24.0709 30.0308 23.9202 29.3273 24.1044 28.6909C25.8965 26.5136 27.8058 24.3531 29.0451 21.7907C29.715 20.3838 30.1505 18.776 29.782 17.2352C29.5308 16.0796 28.9111 14.9742 27.8728 14.3545C26.2147 13.3664 24.0207 13.5339 22.3961 14.5387C22.3459 19.9149 22.3459 25.3078 22.3459 30.6839C20.7883 30.6839 19.214 30.6839 17.6564 30.6839C17.6397 28.8751 17.6899 27.0496 17.6229 25.2408C17.6229 21.6734 17.6229 18.1228 17.6229 14.5555C15.9983 13.5004 13.7876 13.3664 12.096 14.3545C11.0241 14.9909 10.4045 16.1633 10.1867 17.3357C9.83503 19.0942 10.438 20.8528 11.2586 22.3769C12.431 24.5206 13.9886 26.4132 15.5796 28.2722C16.2496 28.8919 15.8476 29.88 15.9481 30.6672C13.6034 30.6672 11.2586 30.6672 8.91388 30.6672C8.86363 29.9135 8.83014 29.1599 8.83014 28.3894C9.95226 28.289 11.0911 28.3057 12.2133 28.2052C10.103 25.894 7.90899 23.5157 6.65288 20.6016C5.88247 18.8263 5.68149 16.6825 6.66963 14.9407C7.74151 13.0984 9.48331 11.6078 11.5098 10.9211C13.5196 10.2345 15.7639 10.4187 17.7234 11.2394C17.7066 10.8374 17.7066 10.4187 17.7066 10ZM18.6278 10.9714C18.6278 11.6581 18.6278 12.328 18.6278 13.0147C17.6731 12.2945 16.6348 11.6246 15.4456 11.3733C14.1225 11.0551 12.7492 11.3733 11.4931 11.7921C9.31584 12.529 7.52379 14.4383 7.10508 16.716C6.80362 18.4746 7.3898 20.2499 8.22721 21.7739C9.75129 24.4871 11.962 26.6979 14.0556 28.9589C12.6655 29.1431 11.2586 29.2101 9.86852 29.4111C9.85177 29.4948 9.83503 29.679 9.81828 29.7795C11.5433 29.7795 13.2684 29.7795 14.9934 29.7795C14.9934 29.5116 14.9934 29.2436 14.9934 28.9589C13.5196 26.9993 11.8448 25.1905 10.6054 23.0803C9.81828 21.7572 9.18185 20.2833 9.1316 18.709C9.06461 17.2017 9.53356 15.6274 10.6054 14.5387C11.8113 13.2994 13.5866 12.7132 15.2949 12.7132C16.4505 12.6964 17.5392 13.2156 18.4436 13.9023C18.678 14.0196 18.5775 14.321 18.5943 14.522C18.5775 19.5967 18.5775 24.6546 18.6278 29.7293C19.5489 29.7293 20.4701 29.7293 21.3912 29.7293C21.3912 26.0615 21.3912 22.3769 21.3912 18.709C21.4582 17.1347 21.4247 15.5771 21.4247 14.0028C22.0277 13.5506 22.6808 13.1486 23.4178 12.9142C26.0472 12.2442 29.2796 13.4334 30.385 16.0126C31.1219 17.6874 30.9879 19.6302 30.3012 21.305C29.1289 24.1689 26.9349 26.4132 25.1093 28.8584C24.9251 29.1264 25.0256 29.4781 24.9921 29.7795C26.7171 29.7628 28.4589 29.7963 30.184 29.7628C30.1672 29.6623 30.117 29.4781 30.1003 29.3776C28.7437 29.2603 27.3871 29.1096 26.0137 28.9924C26.7004 28.021 27.6215 27.2338 28.3919 26.3127C30.2845 24.1522 32.244 21.7907 32.8637 18.91C33.3494 16.7662 32.4282 14.4885 30.7702 13.0817C29.3968 11.9093 27.6048 11.3566 25.8295 11.2394C24.1714 11.1891 22.6473 12.0098 21.3912 12.9979C21.3912 12.328 21.3912 11.6581 21.3912 10.9714C20.4701 10.9714 19.5489 10.9714 18.6278 10.9714Z" fill="#1F1560"/>
</svg>
