<svg width="40" height="40" viewBox="0 0 40 40" fill="none" xmlns="http://www.w3.org/2000/svg">
<path fill-rule="evenodd" clip-rule="evenodd" d="M13.5406 10.3302C13.2057 9.90584 12.9516 9.42313 12.7893 8.90764C12.2379 9.24331 11.5266 9.70684 10.9192 10.0425C11.9941 10.8609 12.6686 12.0997 12.7733 13.4471C14.3158 12.56 15.9701 11.6009 17.2728 10.7938C17.9202 10.4021 18.9112 9.81873 19.6225 9.41114C21.9482 10.7538 24.066 11.9846 26.4796 13.4071C26.7993 11.6329 27.2788 10.8017 28.3178 10.0105C27.7424 9.66688 27.0311 9.21134 26.4397 8.85969C26.3566 9.22253 26.2303 9.57418 26.064 9.90664C25.3168 10.8881 23.9885 11.2197 22.8672 10.7058C22.2207 10.4549 21.7763 9.8547 21.7244 9.16339C21.7044 8.26908 22.1528 7.42992 22.9072 6.9496C21.9961 6.41414 20.5096 5.56698 19.6624 5.08746C18.7514 5.63092 17.2329 6.43012 16.3857 6.94161C16.8261 7.29566 17.1793 7.7472 17.4167 8.26029C17.6397 8.70864 17.6397 9.23452 17.4167 9.68287C16.7174 10.9001 15.1637 11.3196 13.9466 10.6203C13.8019 10.5372 13.666 10.4397 13.5406 10.3302Z" fill="#FFCC00"/>
<path fill-rule="evenodd" clip-rule="evenodd" d="M9.06495 9.96204C8.88113 10.1618 9.13687 10.2977 9.22479 10.3297C10.991 11.009 11.3187 11.6563 11.5185 13.023C11.6232 13.5033 11.6448 13.998 11.5824 14.4855C11.6 14.7277 11.8102 14.9099 12.0524 14.8931C12.1059 14.8891 12.1579 14.8755 12.2058 14.8531L19.6064 10.4975C23.2028 12.6793 23.7223 12.959 27.023 14.8611C27.2188 14.9802 27.4745 14.9187 27.5944 14.7229C27.6376 14.6517 27.6592 14.5694 27.6544 14.4855C27.5313 13.5664 27.6847 12.6322 28.0939 11.8002C28.4679 11.0466 29.1656 10.5055 29.988 10.3297C30.2038 10.2817 30.2837 9.99401 30.1638 9.93007C28.2458 8.87512 27.1988 8.33167 25.8002 7.53247C25.5924 7.53247 25.5045 7.6044 25.5125 7.73227C25.5341 8.10709 25.5101 8.48272 25.4406 8.85115C25.3207 9.42737 24.8939 9.89091 24.3297 10.0579C23.7119 10.1778 23.0909 9.87013 22.8112 9.30669C22.7497 9.06853 22.7497 8.81758 22.8112 8.57942C22.8751 8.13187 23.6104 7.43656 24.2498 7.04496C24.3616 6.98102 24.4336 6.82917 24.2498 6.68531C21.4925 5.08691 21.3407 4.98302 19.6064 4C18.2318 4.7992 16.8092 5.5984 14.979 6.7013C14.8192 6.87712 14.8831 6.96503 14.979 7.02897C16.0899 7.84416 16.3537 8.2997 16.4895 8.82717C16.7213 9.73027 15.5624 10.2498 14.987 10.1459C13.6603 9.91409 13.7083 8.25974 13.7083 7.78821C13.7083 7.7003 13.5005 7.62038 13.4366 7.56444C11.5345 8.5954 10.8392 8.97103 9.06495 9.96204ZM12.4056 14.1898C12.2617 14.2937 12.03 14.3417 12.0939 14.014C12.4056 12.7033 11.4785 10.4895 9.97603 10.018L13.2208 8.21978C13.1992 8.73447 13.3239 9.24436 13.5804 9.69031C14.3796 11.1608 17.2647 10.7373 17.057 8.74725C16.8723 8.07273 16.4488 7.48771 15.8661 7.1009C15.8022 6.997 15.6424 6.86913 15.9301 6.7013C17.1688 5.998 18.3996 5.27073 19.6304 4.55944C20.4296 5.01499 21.2288 5.47053 23.2987 6.71728C23.5704 6.86913 23.4506 7.02098 23.3626 7.1009C22.5634 7.82018 21.8522 8.63536 22.2917 9.59441C22.6977 10.1962 23.3794 10.5542 24.1059 10.5455C24.8771 10.5039 25.5557 10.022 25.8482 9.30669L26.016 8.21179C27.3507 9.01099 27.6544 9.13087 29.2607 9.97003C28.2418 10.404 27.4865 11.2919 27.2228 12.3676C27.0574 12.8855 27.0382 13.4386 27.1668 13.966C27.1668 14.1179 27.1668 14.2937 26.8232 14.1578C23.9141 12.4396 22.8272 11.7602 19.6304 9.93007C17.041 11.5045 14.995 12.7113 12.4056 14.1898ZM11.3986 15.8921C11.1988 16.0679 11.2308 16.1958 11.3347 16.4675C11.9341 17.9461 10.3037 20.7273 10.991 24.7952C11.3906 27.1928 13.3167 29.7582 15.1149 31.5245C15.2188 31.4525 15.2667 31.2208 15.3387 31.1568C13.7634 29.6871 12.5591 27.8665 11.8222 25.8422C10.6314 22.2537 11.7103 20.0879 11.8861 17.978L11.9501 17.2667C11.9501 17.2667 11.8542 16.4675 11.8462 16.4675C11.8382 16.4675 11.8062 16.2757 11.8462 16.2438C14.4915 14.9171 17.0969 13.4066 19.5744 11.8641C21.3726 12.8232 22.4036 13.5504 24.1858 14.5415C25.2224 15.1544 26.2893 15.7147 27.3826 16.2198C27.4386 16.2837 27.4466 16.3796 27.3826 16.5475C27.1956 17.5992 27.2867 18.6821 27.6464 19.6883H28.046C27.8462 18.8891 27.5265 17.2907 27.9261 16.4915C27.9988 16.3037 27.9692 16.0919 27.8462 15.9321C27.3898 15.6124 26.8991 15.3439 26.3836 15.1329C22.8751 13.1029 23.003 13.2627 19.6703 11.2807C17.5844 12.2637 14.2997 14.4775 12.9571 15.1249C12.3816 15.3806 11.9101 15.6763 11.3986 15.8921ZM12.4056 16.5475C12.6454 17.4825 12.2378 19.6004 11.9181 21.0549C11.8222 21.6943 11.6783 22.989 12.2378 23.4525C12.4935 23.5588 12.7812 23.5588 13.037 23.4525C14.4196 22.6933 17.033 20.8551 18.0719 23.5724C18.8711 25.7463 19.1029 29.4306 18.8711 31.8841C18.7113 30.2857 18.0719 23.6683 15.1229 24.5714C14.1079 24.8911 12.8292 25.2428 11.9261 24.3556C12.456 26.7772 13.6907 28.9878 15.4745 30.7093C15.7543 29.974 15.8262 29.6304 16.002 29.1109C15.5545 27.8561 14.6514 26.6494 14.5315 25.2667C14.7712 25.2667 15.3307 24.995 15.6264 25.0989C16.3033 25.2907 16.7597 25.9229 16.7293 26.6254C16.7293 28.6793 16.6813 29.6943 16.7293 32.036L19.3906 34.5295V12.6074C16.1938 14.4695 14.9471 15.2208 12.4056 16.5475ZM14.8751 18.2418C15.1597 17.4761 15.9141 16.9886 16.7293 17.043C16.7293 18.1698 16.7293 20.2398 16.7293 21.4386C15.9429 21.3291 15.1437 21.5049 14.4755 21.9341C14.06 21.0789 14.5954 18.7852 14.8751 18.2418ZM27.3826 23.0609C27.5856 22.8468 27.7479 22.5974 27.8621 22.3257C28.0619 24.02 27.7055 25.7343 26.8472 27.2088C25.2488 30.2777 22.0919 33.003 19.6544 35.3926C18.1998 34.002 17.6324 33.4346 16.7293 32.5554C16.7293 32.7233 16.5934 32.971 16.7293 33.1149C18.0959 34.5055 18.999 35.3127 19.7023 36C20.8372 34.961 21.972 33.6024 23.0909 32.5954C25.976 30.046 29.5884 25.0749 28.2697 21.0949C28.1642 21.0717 28.0556 21.0717 27.9501 21.0949C27.6144 21.8142 27.4146 22.7972 26.5674 22.9091C24.4576 22.1099 24.1059 21.039 22.5714 21.4705C22.5714 18.6414 22.5714 19.1449 22.5714 17.0669C24.7772 18.2577 25.1369 18.4256 27.0869 19.5205C26.8743 18.5391 26.8064 17.5321 26.8871 16.5315C24.5934 15.2847 23.5545 14.7093 19.9421 12.6633V34.5614C21.4334 33.2036 22.8504 31.7658 24.1858 30.2537C25.2927 29.0438 26.1583 27.6332 26.7353 26.0979L27.2228 24.3716C26.4835 24.9678 25.4613 25.0717 24.6174 24.6354C22.7632 23.8362 21.7802 25.4825 21.1249 27.1528C20.5415 28.6793 20.5255 30.4775 20.3257 31.9481C20.2146 30.4264 20.2146 28.8983 20.3257 27.3766C20.4272 26.1059 20.6965 24.8535 21.1249 23.6523C21.4094 22.563 22.5227 21.9109 23.6112 22.1954C23.7343 22.2274 23.855 22.2713 23.97 22.3257C24.993 22.7093 26.3676 23.9241 27.2388 23.2847C27.2867 23.2448 27.2947 23.1249 27.3666 23.0609H27.3826ZM22.5874 30.046C22.5874 27.968 22.5874 27.4645 22.6274 25.9461C23.1948 25.2108 23.7383 24.8591 24.7213 25.3067C24.4072 27.037 23.6751 28.6641 22.5874 30.046Z" fill="#00753A"/>
</svg>
