<svg width="40" height="40" viewBox="0 0 40 40" fill="none" xmlns="http://www.w3.org/2000/svg">
<path d="M12 36L28.0286 35.982L28.0204 20.1138C24.6846 26.443 18.4282 30.5613 12.0082 32.1354C12.0263 33.3342 12 36 12 36Z" fill="#008FB4"/>
<path d="M17.125 28.0114C23.1741 24.9563 26.0909 19.3689 26.0909 19.3689C26.0909 19.3689 26.07 17.5344 26.07 17.4955C22.7368 16.3246 19.7152 14.6097 17.131 12.0422C17.1446 16.3967 17.125 28.0114 17.125 28.0114Z" fill="#008FB4"/>
<path d="M17.9876 4C17.9876 4 17.986 8.85195 17.98 10.0621C19.5686 11.5384 20.3673 12.2292 22.0193 13.2849L22.0322 6.78041C20.1442 5.74274 19.4161 5.19115 17.9876 4Z" fill="#008FB4"/>
</svg>
