<svg width="40" height="40" viewBox="0 0 40 40" fill="none" xmlns="http://www.w3.org/2000/svg">
<path d="M22.7424 7.75848L16.2605 4V7.82749C10.9241 9.3042 7 14.1944 7 20.0046C7 25.0144 9.91662 29.3433 14.1443 31.3859L15.4048 27.9172C12.5802 26.4083 10.6619 23.4319 10.6619 20.0046C10.6619 16.2415 12.9804 13.0259 16.2605 11.6918V25.5618L22.7424 7.75848Z" fill="#4D4F53"/>
<path d="M16.5181 32.2461L23 36V32.1725C28.341 30.7004 32.265 25.8057 32.265 20C32.265 14.9903 29.3484 10.6613 25.1207 8.61877L23.8602 12.0874C26.6848 13.5963 28.6032 16.5728 28.6032 20C28.6032 23.7585 26.2892 26.9788 23.0046 28.3128V14.4428L16.5181 32.2461Z" fill="#53ED00"/>
</svg>
