<svg width="40" height="40" viewBox="0 0 40 40" fill="none" xmlns="http://www.w3.org/2000/svg">
<path fill-rule="evenodd" clip-rule="evenodd" d="M18.0537 21.5926C14.7782 22.5631 12.4571 22.1102 10.225 20.1773C12.6998 15.8182 15.498 13.7235 20.0917 13.5456C19.4609 16.1174 18.733 19.0127 18.0537 21.5926ZM19.6064 21.6007C19.4366 22.272 19.2425 23.0403 19.0646 23.7035C19.2182 24.4556 19.9623 24.9489 22.1297 25.046C31.5274 24.027 30.6135 13.5537 21.6768 13.5456C21.0379 16.0365 20.3586 18.6569 19.7116 21.1397C21.4099 20.614 22.1216 19.3686 22.7363 17.0556C23.0032 17.2416 23.2862 17.4114 23.5693 17.5812C22.5341 19.9185 21.4019 21.0103 19.6064 21.6007ZM21.3452 8.68504C20.9894 10.0923 20.5689 11.6855 20.213 13.0927C16.3472 13.1251 11.9314 14.508 9.04422 18.5598C6.88487 13.1251 12.5784 6.33968 18.8462 6.67935C20.8762 6.97858 21.3614 7.52044 21.3452 8.68504ZM17.9323 22.0698C17.6978 22.9351 17.6816 22.9756 17.439 23.8409C17.0427 24.4313 16.5656 24.7225 15.9994 25.1592C16.9133 25.1592 17.8676 25.0541 18.7411 25.1592C33.0559 27.4884 35.8542 12.9067 21.8386 13.1089C22.2591 11.4429 22.7848 9.39673 23.2215 7.7388C27.0793 8.68504 30.565 9.30777 33.3309 7.56897C32.7162 7.05137 32.1097 6.5176 31.495 6C29.3114 8.18361 24.7824 7.38296 18.8705 6.16984C13.2093 5.30448 7.07897 9.63936 6.50476 15.5028C6.31066 17.4033 6.85252 18.9157 8.00902 20.0479C0.479599 32.0982 15.959 38.916 24.0465 29.7771C23.8443 29.3889 23.634 28.9927 23.4399 28.5883C17.989 38.1881 4.44245 32.3894 9.68313 21.2206C12.0204 22.5227 14.8106 22.9513 17.9323 22.0698Z" fill="#3B2A98"/>
</svg>
