<svg width="40" height="40" viewBox="0 0 40 40" fill="none" xmlns="http://www.w3.org/2000/svg">
<path d="M12.3776 7C8.86209 7 6 9.6164 6 12.818V20.1911C6 23.3953 8.86209 26.0091 12.3776 26.0091H20.4355C23.3289 26.0091 25.8802 24.5471 26.6256 21.9958H10.6042V11.2622H26.6856C26.0666 8.58643 23.4852 7 20.4662 7H12.3776Z" fill="#D71920"/>
<path d="M13.3113 29.2439C13.9335 31.9196 16.5154 33.5061 19.5651 33.5061H27.6224C31.1379 33.5061 34 30.8897 34 27.6881V20.3155C34 17.1114 31.1379 14.4976 27.6224 14.4976H19.5332C16.6399 14.4976 14.0885 15.9596 13.3432 18.5109H29.3645V29.2751H13.3113V29.2439Z" fill="#007A5F"/>
</svg>
