<svg width="40" height="40" viewBox="0 0 40 40" fill="none" xmlns="http://www.w3.org/2000/svg">
<path d="M20.0893 6L14.5892 10.4791C14.1797 10.8126 13.8113 11.224 13.7153 11.7434C13.5344 12.7223 13.8683 13.75 14.6407 14.4356L24.7891 23.4432C25.8771 24.4088 26.3274 25.9059 25.9526 27.3118L25.5437 28.8457L33.7253 22.0155V21.8585L27.0545 26.6278L33.8823 20.7005V20.5043L26.9564 25.6072L34 19.4248L33.9608 19.307L26.8779 24.6848L33.7253 18.3257L33.6861 18.2275L26.3285 23.939L33.2544 17.6191L33.176 17.5406L25.7791 23.1931L32.5089 16.9518L32.45 16.9125L25.0532 22.5651L31.8222 16.2452L24.4646 21.937L31.2139 15.7153L31.1747 15.6564L23.719 21.4267L30.5272 15.0676L30.5076 15.0284L23.0323 20.7594L29.7817 14.4396L29.7424 14.4003L22.2083 20.2099L29.095 13.8311V13.7526L21.6589 19.6211L28.3886 13.2423V13.2031L20.933 19.0322L25.0532 14.7732V14.6947L20.207 18.3453L25.6026 13.3208V13.2423L19.5203 17.835L25.7988 12.104L25.7791 12.0255L18.8336 17.2069L25.4456 11.0637V11.0049L18.3039 16.4219L24.8374 10.5142L24.7785 10.4357L17.519 15.9508L24.131 9.74873L16.9108 15.3031L23.4247 9.17955L23.4051 9.12067L16.2241 14.7143L22.7184 8.66926L22.6595 8.57112L15.4785 13.9685L22.0905 8.08045V7.96269L14.9096 13.3405L21.5019 7.35425L14.4779 12.418L20.6387 6.72619L14.4191 11.3974L20.0893 6Z" fill="#00984B"/>
<path d="M22.5326 31.3504L19.8735 33.5758L7.31595 22.1016C5.46908 20.4141 5.58246 17.4706 7.55365 15.9302L12.1235 12.3591L11.7528 13.9452C11.5456 14.8321 11.8344 15.7616 12.5076 16.3747L22.6527 25.6145C24.3583 27.1679 24.3017 29.8698 22.5326 31.3504Z" fill="#00984B"/>
</svg>
