<svg width="40" height="40" viewBox="0 0 40 40" fill="none" xmlns="http://www.w3.org/2000/svg">
<path d="M8.01923 11.9808C8.05769 11.6923 8.07692 11.4038 8.17308 11.1346C8.36538 10.5 8.51923 9.84615 8.80769 9.26923C9.36538 8.17308 10 7.11538 10.6346 6C10.7308 6.13462 10.7885 6.23077 10.8462 6.34615C12.5577 9.30769 14.2692 12.2692 15.9615 15.2308C17.4615 17.8654 17.4615 20.5 15.9615 23.1346C15.4808 24 14.9808 24.8461 14.4615 25.75C14.3846 25.6346 14.3269 25.5577 14.2692 25.4615C12.5385 22.4615 10.8077 19.4615 9.07692 16.4615C8.53846 15.5192 8.17308 14.5192 8.05769 13.4231C8.05769 13.3654 8.01923 13.3077 8 13.2308C8.01923 12.8269 8.01923 12.4038 8.01923 11.9808Z" fill="#02ACE2"/>
<path d="M35.3462 19.1731C35.1924 19.1731 35.0962 19.1731 34.9809 19.1731C31.5385 19.1731 28.0962 19.1923 24.6347 19.1731C21.6732 19.1538 19.4232 17.8461 17.9039 15.2884C17.4424 14.5 16.9809 13.7115 16.5386 12.9231C16.4809 12.8269 16.4424 12.7308 16.3655 12.5961C16.5193 12.5961 16.6347 12.5769 16.7501 12.5769C20.1539 12.5769 23.5578 12.5577 26.9616 12.5769C30.0001 12.5961 32.3078 13.9231 33.8462 16.5577C34.2885 17.3269 34.7309 18.0769 35.1732 18.8461C35.2309 18.9423 35.2693 19.0384 35.3462 19.1731Z" fill="#FE720A"/>
<path d="M11.6155 34C11.6924 33.8461 11.7501 33.7307 11.8078 33.6346C13.5193 30.6731 15.2116 27.7307 16.9232 24.7884C18.4424 22.1731 20.7309 20.8654 23.7501 20.8269C24.7501 20.8269 25.7501 20.8269 26.7885 20.8269C26.7116 20.9615 26.6539 21.0769 26.5962 21.1731C24.8847 24.1346 23.1924 27.0769 21.4809 30.0192C19.9616 32.6538 17.6924 33.9807 14.6539 34C13.6539 34 12.6732 34 11.6155 34Z" fill="#0062A4"/>
</svg>
