<svg width="40" height="40" viewBox="0 0 40 40" fill="none" xmlns="http://www.w3.org/2000/svg">
<path d="M34 6H6V34H34V6Z" fill="#6A2538"/>
<path d="M19.9525 32.616C25.645 32.6106 30.3729 28.2227 30.803 22.5469H9.09613C9.52621 28.2251 14.2583 32.6136 19.9525 32.616ZM26.6095 25.5235C25.2495 27.9191 22.7072 29.3996 19.9525 29.4008C17.1955 29.402 14.6508 27.9209 13.2896 25.5235H26.6095ZM19.362 7.4613H16.3795V10.8554C12.0035 12.3789 9.07107 16.5055 9.07227 21.1392V21.2764H19.362V7.4613ZM16.3795 18.276H12.8422C13.521 16.5914 14.7743 15.201 16.3795 14.3509V18.276ZM30.803 21.1392C30.8042 16.5055 27.8718 12.3789 23.4958 10.8554V7.4613H20.5133V21.2824H30.803V21.1392ZM23.4958 18.2879V14.3509C25.1063 15.2016 26.362 16.5968 27.039 18.2879H23.4958Z" fill="white"/>
</svg>
