<svg width="40" height="40" viewBox="0 0 40 40" fill="none" xmlns="http://www.w3.org/2000/svg">
<path d="M10.6366 13.7C10.6366 13.77 10.6366 13.84 10.7066 13.91C10.7066 13.98 10.7066 13.98 10.7766 14.05L10.8466 14.12C10.9166 14.26 10.9166 14.33 10.9866 14.4H10.8466C10.9866 14.68 11.1266 14.89 11.2666 15.17H11.3366L11.4766 15.31V15.38L11.6166 15.52L11.7566 15.66L14.7666 12.65V6L11.9666 8.73L11.7566 9.01C10.9866 9.78 10.5666 11.39 10.4966 12.51V13C10.4966 13.14 10.4966 13.21 10.5666 13.28V13.56C10.5666 13.56 10.5666 13.63 10.6366 13.7C10.6366 13.63 10.6366 13.7 10.6366 13.7ZM30.3766 13.21V13.35C30.3766 13.42 30.3766 13.42 30.3066 13.49V13.98C30.3066 14.05 30.3066 14.05 30.2366 14.12C30.2366 14.19 30.2366 14.19 30.1666 14.26V14.4C30.1666 14.47 30.0966 14.47 30.0966 14.54C30.0966 14.61 30.0266 14.61 30.0266 14.68L29.9566 14.75C29.8166 15.03 29.6066 15.38 29.3966 15.59L29.3266 15.66C29.2566 15.8 29.1166 15.87 29.0466 15.94C28.2066 15.24 27.0866 14.82 25.9666 14.82C24.7066 14.82 23.4466 15.31 22.5366 16.22L18.1266 20.63L18.1966 14.05L22.6766 9.5C23.5166 8.66 24.6366 8.17 25.8266 8.1H26.0366C27.2266 8.1 28.2766 8.59 29.0466 9.36C30.0266 10.34 30.3766 12.02 30.3066 13.28C30.3766 13.14 30.3766 13.21 30.3766 13.21ZM11.3366 16.08C10.7066 15.45 10.2166 14.61 10.0766 13.77L10.0066 19.23C9.93658 20.56 10.4266 21.89 11.4066 22.8L17.7066 29.1V27.14L17.7766 27.07L20.0866 24.76L15.6066 20.28C13.4366 18.18 11.3366 16.08 11.3366 16.08ZM30.8666 13.91C30.6566 14.75 30.2366 15.52 29.6066 16.08L29.5366 16.15L18.2666 27.42V34L29.4666 22.8C30.4466 21.82 30.9366 20.42 30.8666 19.02V13.91Z" fill="#9D235A"/>
</svg>
