<svg width="40" height="40" viewBox="0 0 40 40" fill="none" xmlns="http://www.w3.org/2000/svg">
<path d="M33.935 19.9738V20.0301C33.9315 23.1888 33.6991 28.4977 31.3308 31.1266C29.9186 32.694 27.8109 33.9935 24.5963 34L24.5308 32.4842C27.3986 31.9959 29.0905 30.1593 29.4195 27.5187C29.7608 24.7819 29.7222 23.6242 29.7222 20.0002C29.7222 16.3802 29.7608 15.2212 29.4195 12.4822C29.0905 9.84292 27.7242 8.00492 24.8556 7.5167L24.5963 6C27.8109 6.00564 29.9182 7.30814 31.3308 8.87601C33.6987 11.5036 33.9315 16.812 33.935 19.9738ZM10.5158 27.5187C10.1742 24.7819 10.2119 23.6242 10.2119 20.0002C10.2119 16.3802 10.1993 15.2233 10.5158 12.4822C10.8701 9.41626 12.7653 8.00492 15.6322 7.5167L15.8 6C12.5845 6.00304 10.0177 7.30858 8.60501 8.87601C6.23674 11.504 6.0013 16.812 6 19.9738V20.0301C6.0013 23.1888 6.23587 28.4977 8.60501 31.1266C10.0172 32.694 12.124 33.997 15.3391 34L15.4046 32.4842C12.5359 31.9959 10.8454 30.1597 10.5158 27.5187ZM25.9972 23.3801C25.9972 26.1611 25.2905 28.4756 22.8407 29.8089C22.0906 30.2174 20.909 30.5053 19.9872 30.5053C18.9939 30.5053 17.9116 30.3431 17.1073 29.8601C16.5159 29.505 15.8364 28.9526 15.399 28.3733C14.3306 26.9576 13.8081 25.427 13.8081 22.2519C13.8081 15.9752 13.9304 13.26 15.4744 12.0833C18.3968 9.85636 21.1735 8.44198 21.4996 7.46554C21.7172 6.81428 21.4996 6.32996 21.4996 6.32996L22.6308 6.02948C23.5175 8.87688 24.0816 11.569 21.8139 12.7918C19.7344 13.913 19.3941 13.9603 17.6502 14.8713C16.1968 15.6305 15.304 16.3515 15.1583 17.6016C15.098 18.121 15.03 19.4535 15.03 19.4535L15.5763 19.4196C15.7692 18.8022 16.0905 18.141 16.7674 17.5695C17.6215 16.8484 18.7792 16.2921 20.0392 16.2514C20.1593 16.2475 20.2781 16.2453 20.3957 16.2453C21.8842 16.2453 23.175 16.5701 24.1735 17.4676C25.7514 18.8859 25.9972 21.2208 25.9972 23.3801ZM21.4805 19.1083C21.1015 18.2021 20.5786 18.0426 19.9191 18.0408C19.2609 18.0391 18.7354 18.2767 18.3547 19.1807C17.9415 20.1624 17.8557 21.5481 17.8522 23.3484C17.8483 25.1495 17.9285 26.6151 18.3387 27.595C18.719 28.5038 19.2419 28.8208 19.9001 28.8229C20.5574 28.8251 21.0842 28.5077 21.4666 27.6024C21.8803 26.6229 21.9644 25.1573 21.9679 23.3571C21.9713 21.5555 21.8915 20.0908 21.4805 19.1083Z" fill="#181716"/>
</svg>
