<svg width="40" height="40" viewBox="0 0 40 40" fill="none" xmlns="http://www.w3.org/2000/svg">
<path fill-rule="evenodd" clip-rule="evenodd" d="M18.9864 13.8827L20.4493 13.8818L17.3871 23.2034L15.9653 23.1993L18.9864 13.8827Z" fill="#0063AB"/>
<path fill-rule="evenodd" clip-rule="evenodd" d="M21.3774 16.3445L22.7663 16.3369L19.7649 25.5463H18.4277L21.3774 16.3445Z" fill="#0063AB"/>
<path fill-rule="evenodd" clip-rule="evenodd" d="M12.7241 23.196L13.3 23.1981L14.7006 18.7552L15.7998 22.2888L16.556 19.9458L15.1925 15.7831L12.7241 23.196Z" fill="#0063AB"/>
<path fill-rule="evenodd" clip-rule="evenodd" d="M15.4272 14.8742L15.7427 14.0896L17.0382 18.482L16.7434 19.3342L15.4272 14.8742Z" fill="#0063AB"/>
<path fill-rule="evenodd" clip-rule="evenodd" d="M29.6255 17.8073C29.6803 18.0482 29.708 18.0933 29.6822 18.3442C31.0248 18.3422 32.5756 18.3193 33.9168 18.3154C33.8919 18.1216 33.898 18.1073 33.8391 17.8025C32.4342 17.8053 31.0295 17.8053 29.6255 17.8073Z" fill="#0063AB"/>
<path fill-rule="evenodd" clip-rule="evenodd" d="M33.7679 17.3114H29.4972C29.4203 17.1451 29.333 16.9488 29.2434 16.7886C29.1748 16.666 28.9016 16.3423 28.9042 16.3155C29.0752 16.2947 29.96 16.3307 30.2878 16.3222C30.2562 16.1284 30.225 16.0276 30.1943 15.944C28.6727 11.9488 25.7222 7.99418 19.3875 7.78915C11.3832 7.7911 6.46808 13.6322 6.30679 20.1208H6C6.07599 12.515 11.5914 6.24353 19.3877 6.00559C26.0513 5.82741 32.1926 9.9137 33.7679 17.3114Z" fill="#0063AB"/>
<path fill-rule="evenodd" clip-rule="evenodd" d="M17.9004 23.196L20.9291 13.8681L21.3625 13.8671L18.418 23.2083L17.9004 23.196Z" fill="#0063AB"/>
<path fill-rule="evenodd" clip-rule="evenodd" d="M20.2988 25.5463L23.229 16.3369L23.7627 16.333L20.7938 25.5463H20.2988Z" fill="#0063AB"/>
<path fill-rule="evenodd" clip-rule="evenodd" d="M23.8808 17.4989C23.9713 17.2009 24.1001 16.7469 24.261 16.328C25.4422 16.3548 26.4416 16.3159 27.6235 16.3414C29.7394 16.698 29.5482 20.5267 27.1836 20.9428C28.9622 22.3128 27.399 25.5508 25.4732 25.55C24.1088 25.55 22.6472 25.5547 21.2832 25.5547C21.3627 25.3458 21.4742 24.9576 21.5519 24.7498C22.7855 24.6967 24.0213 24.7714 25.2539 24.7188C26.8878 23.7779 27.155 22.0573 26.2258 20.911C28.7112 20.1105 27.8905 17.49 27.0944 17.4815C25.8865 17.4571 25.0878 17.5246 23.8808 17.4989Z" fill="#0063AB"/>
<path fill-rule="evenodd" clip-rule="evenodd" d="M21.7139 24.2287C21.7654 24.0713 21.8535 23.8203 21.9048 23.6634C22.9025 23.6512 23.5858 23.6779 24.5823 23.6443C25.2388 23.3572 25.3849 22.6962 25.2017 22.1991C24.1521 22.1991 23.3974 22.2113 22.3467 22.2113C22.4794 21.8439 22.6314 21.3392 22.7633 20.9727C23.8657 20.9727 24.6213 20.9995 25.7235 20.9995C26.6716 21.5903 26.1879 23.9104 25.1084 24.2289H21.7139V24.2287Z" fill="#0063AB"/>
<path fill-rule="evenodd" clip-rule="evenodd" d="M22.9072 20.4927C23.8514 20.4927 24.9445 20.486 25.8896 20.486C26.7361 20.3645 27.3176 19.4485 27.3739 18.8418C27.4014 18.5385 27.2009 18.075 26.9284 18.0055L23.718 17.9977L23.5775 18.4157C24.654 18.4157 25.4784 18.4036 26.5538 18.4036C26.974 18.7951 26.5308 19.923 25.7772 20.0159H23.0501L22.9072 20.4927Z" fill="#0063AB"/>
<path fill-rule="evenodd" clip-rule="evenodd" d="M10.3833 23.2119L13.418 13.8608H15.2592L12.2842 23.1906L10.3833 23.2119Z" fill="#0063AB"/>
<path fill-rule="evenodd" clip-rule="evenodd" d="M21.7979 15.0223L22.1694 13.8614L23.5576 13.8534L23.1852 15.0262L21.7979 15.0223Z" fill="#0063AB"/>
<path fill-rule="evenodd" clip-rule="evenodd" d="M23.6611 15.0195L24.0327 13.8675L24.5863 13.8556L24.2015 15.0202L23.6611 15.0195Z" fill="#0063AB"/>
<path fill-rule="evenodd" clip-rule="evenodd" d="M21.5293 15.8389L21.6659 15.436H23.0515L22.9173 15.8383L21.5293 15.8389Z" fill="#0063AB"/>
<path fill-rule="evenodd" clip-rule="evenodd" d="M23.3979 15.8294L23.5263 15.4352L24.0769 15.4369L23.9288 15.8312L23.3979 15.8294Z" fill="#0063AB"/>
<path fill-rule="evenodd" clip-rule="evenodd" d="M19.4556 12.6107L19.828 11.4498L21.2151 11.4418L20.8436 12.6146L19.4556 12.6107Z" fill="#0063AB"/>
<path fill-rule="evenodd" clip-rule="evenodd" d="M21.3193 12.6066L21.6904 11.4554L22.1514 11.4446L21.7675 12.6087L21.3193 12.6066Z" fill="#0063AB"/>
<path fill-rule="evenodd" clip-rule="evenodd" d="M19.1875 13.4276L19.3235 13.024H20.721L20.5822 13.4267L19.1875 13.4276Z" fill="#0063AB"/>
<path fill-rule="evenodd" clip-rule="evenodd" d="M21.0571 13.4178L21.1855 13.0236H21.6339L21.5133 13.4139L21.0571 13.4178Z" fill="#0063AB"/>
<path fill-rule="evenodd" clip-rule="evenodd" d="M10.4787 21.4196C10.5612 21.1596 10.5671 21.133 10.6467 20.8887C10.0472 20.8762 6.18893 20.8638 6.01465 20.8723C6.01941 21.1793 6.01941 21.071 6.04041 21.4086C7.44465 21.4086 9.05977 21.3778 10.4787 21.4196Z" fill="#0063AB"/>
<path fill-rule="evenodd" clip-rule="evenodd" d="M6.12061 21.9463C7.34147 21.9676 9.10771 21.9305 10.2926 21.9535C10.1642 22.4575 9.99104 22.9563 9.89037 23.1999C9.71673 23.212 9.86222 23.2192 9.53509 23.2105C9.58358 23.3774 9.58835 23.4175 9.61671 23.5019C10.9198 27.5715 13.6539 31.6788 19.9701 32.2186C27.9628 32.646 33.1844 27.0736 33.6917 20.6031C33.8233 20.6114 33.8684 20.6133 33.9998 20.62C33.5153 28.2109 27.6712 34.1812 19.8744 34.0008C13.2102 33.8259 7.29644 29.4155 6.12061 21.9463Z" fill="#0063AB"/>
</svg>
