<svg width="40" height="40" viewBox="0 0 40 40" fill="none" xmlns="http://www.w3.org/2000/svg">
<path d="M23.1863 14.2414V20.8242H16.5931V14.2414H10.0104V34H16.5931V27.4069H23.1863V34H29.769V14.2414H23.1863ZM16.5931 9.29654C16.5931 8.6441 16.3995 8.00634 16.0368 7.464C15.6741 6.92166 15.1586 6.49914 14.5557 6.24994C13.9527 6.00074 13.2894 5.93607 12.6496 6.06411C12.0099 6.19215 11.4225 6.50714 10.9619 6.96921C10.5013 7.43128 10.1881 8.01964 10.0621 8.65979C9.93606 9.29994 10.0028 9.96309 10.2539 10.5653C10.505 11.1675 10.9292 11.6816 11.4726 12.0426C12.0161 12.4036 12.6545 12.5951 13.3069 12.5931C13.7393 12.5931 14.1675 12.5078 14.5669 12.342C14.9663 12.1762 15.329 11.9332 15.6343 11.6269C15.9396 11.3207 16.1814 10.9572 16.3459 10.5573C16.5105 10.1574 16.5945 9.72896 16.5931 9.29654ZM29.7689 9.29658C29.7689 8.64547 29.5761 8.00894 29.2148 7.46728C28.8535 6.92562 28.3398 6.5031 27.7386 6.25299C27.1375 6.00288 26.4757 5.9364 25.8368 6.06193C25.1979 6.18746 24.6105 6.49937 24.1487 6.95833C23.6868 7.41729 23.3713 8.00274 23.2417 8.64083C23.1122 9.27893 23.1745 9.9411 23.4208 10.5438C23.6672 11.1465 24.0865 11.6628 24.6259 12.0275C25.1652 12.3922 25.8005 12.589 26.4516 12.5931C26.8863 12.5959 27.3172 12.5126 27.7195 12.3482C28.1219 12.1837 28.4878 11.9413 28.7961 11.635C29.1044 11.3286 29.3491 10.9642 29.516 10.5629C29.683 10.1616 29.7689 9.73124 29.7689 9.29658Z" fill="#0DB14B"/>
</svg>
