<svg width="40" height="40" viewBox="0 0 40 40" fill="none" xmlns="http://www.w3.org/2000/svg">
<path d="M7.01953 6.37099C8.09345 6.15621 9.59694 6 11.7253 6C13.8731 6 15.3961 6.46862 16.431 7.42538C17.4073 8.32357 18.0711 9.80753 18.0711 11.5649C18.0711 13.3222 17.5635 14.8061 16.6653 15.802C15.4742 17.1102 13.7169 17.6764 11.6667 17.6764C11.2176 17.6764 10.8075 17.6569 10.4756 17.5983V24.0028H7.01953V6.37099ZM10.4561 14.4937C10.749 14.5718 11.1199 14.5914 11.6276 14.5914C13.4826 14.5914 14.6151 13.4979 14.6151 11.682C14.6151 10.0418 13.6388 9.04603 11.901 9.04603C11.1981 9.04603 10.7099 9.12413 10.4561 9.20223V14.4937ZM23.0951 6.13672V13.0098H28.8162V6.13672H32.2918V24.0223H28.8162V16.544H23.0951V24.0223H19.6V6.13672H23.0951Z" fill="#555D63"/>
<path d="M32.2 29.8H7V34H32.2V29.8Z" fill="#F68C28"/>
</svg>
