<svg width="40" height="40" viewBox="0 0 40 40" fill="none" xmlns="http://www.w3.org/2000/svg">
<path d="M22.7506 7C22.1668 7.01213 21.5826 7.18879 21.0738 7.53697L4.88814 18.6117C3.82717 19.3377 3.69429 20.833 4.61107 21.7294L15.1439 32.0275C15.3528 32.2318 15.5861 32.3997 15.8352 32.5305L17.1435 27.3812L14.3495 27.4026C12.7713 27.4146 11.5891 25.9822 11.924 24.4636L13.8833 15.5775C14.2537 13.8978 15.7817 12.7126 17.527 12.7514L21.0717 12.8301L22.7506 7Z" fill="#00218A"/>
<path d="M17.2592 32.8723L18.7568 27.4261L22.7091 27.3157C24.4582 27.2668 25.9395 26.0312 26.276 24.3404L28.0322 15.5155C28.3048 14.1451 27.2462 12.8677 25.828 12.856L22.6969 12.8301L24.2709 7.36199C24.5323 7.50147 24.7766 7.68067 24.9942 7.89872L35.4351 18.3614C36.2924 19.2204 36.1556 20.633 35.149 21.3172L18.9046 32.3574C18.4053 32.6968 17.8315 32.8662 17.2592 32.8723Z" fill="#00218A"/>
<path fill-rule="evenodd" clip-rule="evenodd" d="M22.349 26.4077L17.3776 26.4598L14.6154 26.4853C13.5359 26.4952 12.7291 25.5114 12.9663 24.4744L14.9403 15.8432C15.2136 14.6486 16.2911 13.7999 17.5348 13.7999H25.5386C26.4821 13.7999 27.1839 14.6588 26.9818 15.5662L25.043 24.2737C24.7655 25.5198 23.6446 26.4077 22.349 26.4077ZM22.2533 16.4184H19.6923L17.7224 23.6922H20.3326L22.2533 16.4184Z" fill="#00218A"/>
</svg>
