<svg width="40" height="40" viewBox="0 0 40 40" fill="none" xmlns="http://www.w3.org/2000/svg">
<path d="M12.0906 18.9207C11.2418 19.2567 10.5196 19.8503 10.0256 20.618C9.68522 21.159 9.49033 21.7787 9.45981 22.4171C9.42904 22.8776 9.54645 23.3358 9.79485 23.7247C10.0433 24.1135 10.4096 24.4127 10.8403 24.5784C11.4017 24.8457 11.9871 25.0598 12.5885 25.2177C12.7809 25.2686 13.1543 25.3931 13.3467 25.444C13.7495 25.5297 14.1074 25.759 14.3537 26.089C14.4154 26.27 14.4237 26.465 14.3776 26.6506C14.3314 26.8362 14.2328 27.0046 14.0935 27.1357C13.7611 27.4362 13.3402 27.6209 12.894 27.6618C12.5688 27.6841 12.242 27.667 11.9209 27.6109C11.7475 27.5844 11.582 27.5199 11.4363 27.4221C11.2906 27.3243 11.1682 27.1956 11.0779 27.0452C10.9567 26.7064 10.9217 26.3428 10.9761 25.9872H8.34524C8.10455 26.8651 8.22046 27.8025 8.66773 28.5954C8.83221 28.8549 9.04781 29.0782 9.30139 29.2517C10.0752 29.7312 10.9781 29.9604 11.887 29.908C12.7205 29.9093 13.5485 29.7716 14.3368 29.5006C14.6823 29.3638 15.0108 29.1872 15.3155 28.9744C15.8054 28.6495 16.2218 28.2255 16.5376 27.7297C16.8514 27.2337 17.0683 26.6828 17.1769 26.106C17.2963 25.5775 17.2448 25.0248 17.0298 24.5275C16.9193 24.313 16.7696 24.1211 16.5885 23.9617C16.0906 23.5034 15.457 23.2092 14.0086 22.8302C12.9846 22.5473 12.6225 22.3832 12.3962 22.1626C12.3023 22.0741 12.2473 21.952 12.2434 21.8231C12.2455 21.5878 12.3318 21.3609 12.4867 21.1838C12.6221 21.0109 12.8049 20.8811 13.0128 20.8104C13.4746 20.6616 13.9693 20.6478 14.4386 20.7708C14.5955 20.8128 14.7406 20.8902 14.8629 20.9971C14.9834 21.1048 15.0715 21.2438 15.1175 21.3988C15.1572 21.5986 15.1572 21.8043 15.1175 22.0041H17.7597C17.8992 21.3502 17.8361 20.6693 17.5786 20.0522C17.4658 19.8024 17.302 19.5788 17.0977 19.3959C16.5625 18.9224 15.8952 18.6243 15.1854 18.5416C14.8102 18.4935 14.4321 18.4727 14.0539 18.4794C13.3819 18.5329 12.7209 18.6815 12.0906 18.9207ZM19.6776 18.6717L17.2278 29.6194H20.0567C23.1062 29.6194 22.9421 29.6194 23.5305 29.5176C24.2554 29.4172 24.9376 29.1153 25.4994 28.6463C26.0577 28.1665 26.4727 27.542 26.6988 26.8415C26.8038 26.5553 26.8815 26.2597 26.9308 25.9589C26.9938 25.6537 26.9942 25.3388 26.932 25.0335C26.8697 24.7281 26.7461 24.4386 26.5687 24.1824C26.3437 23.9174 26.0558 23.7131 25.7314 23.5883C25.7314 23.5883 26.167 23.3394 26.3311 23.2149C26.5501 23.0477 26.7511 22.8581 26.9308 22.6491C27.2635 22.2364 27.4855 21.7457 27.5758 21.2234C27.7964 19.9334 27.2872 19.1074 26.0143 18.7962C25.7429 18.7227 25.4636 18.6828 25.1826 18.6774L19.6776 18.6717ZM24.2038 20.9348C24.2881 20.9422 24.3699 20.9671 24.444 21.0081C24.518 21.049 24.5827 21.105 24.6338 21.1725C24.7368 21.3064 24.7871 21.4735 24.7752 21.642C24.7682 21.9364 24.6736 22.222 24.5037 22.4624C24.3226 22.6952 24.0702 22.8622 23.7851 22.9377C23.3685 22.9884 22.9485 23.0054 22.5291 22.9886H21.3976L21.8558 20.9122H22.9534C23.3438 20.9065 23.8983 20.9065 24.2038 20.9292V20.9348ZM23.3947 24.8613C23.5785 24.8606 23.758 24.9159 23.9096 25.0197C24.0613 25.1251 24.1761 25.2755 24.2377 25.4497C24.2943 25.6667 24.2943 25.8946 24.2377 26.1116C24.1912 26.4055 24.0525 26.6769 23.8417 26.8867C23.633 27.0971 23.3641 27.2374 23.0723 27.2884C22.6083 27.345 20.4358 27.3224 20.4358 27.3224L21.0015 24.8556L23.3947 24.8613ZM26.9082 29.6251H29.5616L32.0001 18.717H29.3467L26.9082 29.6251Z" fill="#0A3E86"/>
<path d="M27.157 11C24.5431 11 20.3678 11.9844 16.9731 13.2631C13.3226 14.6038 9.93949 16.5827 6.98161 19.1075C6.64781 19.396 4.76379 21.1839 4 22.7907C5.31017 21.4994 6.74691 20.3431 8.28854 19.3395C13.0959 16.2902 18.5348 14.3766 24.1924 13.744C27.5021 13.4215 30.5856 14.0099 31.9547 14.8755C35.5757 17.1952 33.3578 20.6351 33.3352 20.7199C33.6068 20.4371 36 18.2136 36 15.2659C36 13.976 35.0382 12.7086 33.6181 12.0127C31.5134 11 29.9802 11 27.157 11Z" fill="#FC121B"/>
</svg>
