<svg width="40" height="40" viewBox="0 0 40 40" fill="none" xmlns="http://www.w3.org/2000/svg">
<path d="M35.5846 19.2849L36 17.9633L34.6257 18.0062C34.5097 18.0062 33.6657 17.9824 32.847 17.3923C32.908 17.3983 32.969 17.4066 33.0313 17.4066C33.874 17.4066 34.6892 16.9022 35.016 16.1813L35.6073 14.8787C34.8664 14.8883 34.1888 14.7955 34.1888 14.7955C34.1828 14.7943 33.649 14.7265 33.0313 14.0997C32.5884 13.65 32.0401 13.4121 31.4464 13.4121C31.1866 13.4121 30.9544 13.4585 30.7544 13.5216C30.7855 13.4156 30.8155 13.3086 30.8323 13.1979C31.0214 11.9787 30.2314 11.0484 30.2314 11.0497L29.1983 9.77799L28.5578 11.2721C28.5555 11.2769 28.3938 11.6266 28.1042 11.7979C28.0168 11.3589 27.8025 10.8653 27.344 10.393C26.4797 9.5032 25.4275 9.37121 24.8769 9.37121C24.6219 9.37121 24.4399 9.39855 24.3956 9.40571L23.1482 9.64955C23.2201 9.37238 23.3733 8.89062 23.6534 8.45639L24.3418 7.39058L22.6096 7.58683L22.0577 6.4223L20.9899 6.96949L20.0024 6L19.0172 6.96949L17.9458 6.4223L17.3952 7.58683L15.6642 7.39058L16.3538 8.45639C16.6339 8.89062 16.7871 9.37121 16.8577 9.64833L15.6679 9.41519L15.6271 9.40803C15.5673 9.39855 15.3865 9.37121 15.1303 9.37121C14.5797 9.37121 13.5275 9.50442 12.6656 10.393C12.2059 10.864 11.9916 11.3589 11.903 11.7979C11.6157 11.629 11.4553 11.284 11.4553 11.284L10.8137 9.78159L9.76387 11.0615C9.63581 11.2269 9.00257 12.1012 9.17487 13.2003C9.19289 13.3098 9.22164 13.4168 9.25274 13.5227C9.05405 13.4597 8.82173 13.4133 8.56201 13.4133C7.9683 13.4133 7.42001 13.6512 6.97592 14.1008C6.36059 14.7254 5.82914 14.7955 5.83391 14.7955C5.83391 14.7955 5.27242 14.8955 4.40339 14.88L4.99121 16.1826C5.31796 16.9046 6.13439 17.4078 6.97592 17.4078C7.03936 17.4078 7.10038 17.3994 7.16265 17.3935C6.34621 17.9835 5.50233 18.0073 5.4006 18.0085L4 17.9633L4.42377 19.2837C4.63683 19.9641 5.34906 21.0918 6.71373 21.2132C6.56528 21.8317 6.23612 22.524 5.51311 22.8226L4.47048 23.2497L5.03904 24.2335C5.35984 24.764 6.11283 25.3849 7.18539 25.3849C7.41759 25.3837 7.64143 25.3611 7.85697 25.316C7.91199 25.5586 7.98144 25.8012 8.06284 26.0416C8.38247 26.986 8.10708 27.6451 8.10355 27.6522L7.58877 28.724L8.73796 29.025C8.75234 29.0297 9.09947 29.1236 9.53402 29.1236C9.73159 29.1236 9.91949 29.1035 10.0967 29.0618C10.2308 29.0309 10.3588 28.9892 10.4821 28.9393C10.6305 29.2046 10.8113 29.446 11.022 29.6625C11.7582 30.4131 12.8008 30.7938 14.1224 30.7938H14.1272L15.0705 30.7819L13.1217 31.5861L14.6012 32.2962C15.1387 32.5567 15.7768 32.8648 16.4255 33.1004L16.2412 33.6024L16.7511 33.8331C16.7967 33.8534 17.777 34.2899 19.4075 34.3827C19.4075 34.3827 19.8013 34.4005 20.0179 34.4005C20.2346 34.4005 20.6237 34.3815 20.6237 34.3815C22.2433 34.2864 23.2165 33.8545 23.2621 33.8331L23.7731 33.6011L23.5864 33.0979C24.2544 32.8553 24.9152 32.5353 25.4299 32.2855L26.8819 31.5849L24.9391 30.7795L25.886 30.7914C27.2087 30.7914 28.2526 30.4107 28.9876 29.659C29.1971 29.4437 29.3778 29.2022 29.5275 28.937C29.6508 28.9869 29.78 29.0285 29.9141 29.0594C30.09 29.1011 30.278 29.1213 30.4755 29.1213C30.9029 29.1213 31.2536 29.0273 31.2632 29.025L32.4172 28.7216L31.9144 27.67C31.9025 27.6427 31.6271 26.9849 31.9468 26.0392C32.0282 25.7977 32.0963 25.555 32.1515 25.3136C32.3681 25.3588 32.5944 25.3825 32.8278 25.3825C34.1936 25.3825 34.8485 24.4273 34.9753 24.2203L35.5379 23.2473L34.4953 22.8215C33.7711 22.5229 33.4431 21.8293 33.2959 21.212C34.6413 21.0978 35.3643 19.9701 35.5846 19.2849ZM16.9487 10.104L16.9343 10.1075L16.9462 10.092L16.9487 10.104Z" fill="white"/>
<path d="M20.0037 10.0457C18.9 10.0469 18.0728 10.4061 17.8921 10.8284L20.0037 11.6563L22.1153 10.8284C21.9358 10.4061 21.1086 10.0469 20.0037 10.0457Z" fill="white"/>
<path d="M20.0251 31.963H20.0227H20.0047H19.9844H19.9832C19.3141 31.9678 18.3935 31.8309 17.9494 31.7025L17.4155 33.1383C17.7674 33.2632 18.9597 33.5011 20.0047 33.5011C21.0474 33.5011 22.2409 33.262 22.5916 33.1383L22.0589 31.7025C21.6136 31.8322 20.6942 31.9678 20.0251 31.963Z" fill="white"/>
<path d="M24.0653 30.5358C23.6678 30.7594 22.7808 31.0948 22.2649 31.2507L22.6982 32.4366C23.4967 32.2201 24.1551 31.9667 24.6997 31.6955L23.8007 31.3982L24.0653 30.5358Z" fill="white"/>
<path d="M15.943 30.5358L16.2088 31.3982L15.3086 31.6955C15.8521 31.9667 16.514 32.2201 17.3089 32.4366L17.7422 31.2507C17.2287 31.0948 16.3404 30.7582 15.943 30.5358Z" fill="white"/>
<path d="M20.0038 8.673C20.8357 8.673 21.6521 8.87043 22.2794 9.21781C22.3368 9.02626 22.417 8.79428 22.526 8.55166L22.289 8.58016L22.04 8.60634L21.9346 8.38152L21.6174 7.71537L21.0392 8.01518L20.8142 8.12936L20.6346 7.95328L20.0061 7.33472L19.3789 7.95328L19.1993 8.12936L18.9743 8.01518L18.3925 7.71537L18.0789 8.38152L17.9711 8.60634L17.7221 8.58016L17.4851 8.55166C17.594 8.7955 17.6731 9.02626 17.7317 9.21781C18.3602 8.87043 19.1742 8.673 20.0038 8.673Z" fill="white"/>
<path d="M32.7057 16.3718C32.8134 16.4087 32.9235 16.4253 33.0324 16.4253C33.5029 16.4253 33.9578 16.1232 34.1146 15.7771C34.1146 15.7771 33.2515 15.7247 32.3238 14.7886C32.0281 14.4852 31.7157 14.3948 31.4475 14.3948C31.0309 14.3948 30.7185 14.6137 30.7185 14.6137C31.839 15.2061 32.0676 16.1577 32.7057 16.3718Z" fill="white"/>
<path d="M6.97477 16.4253C7.08369 16.4253 7.19384 16.4087 7.29917 16.3718C7.93965 16.1577 8.16944 15.2061 9.28988 14.6137C9.28988 14.6137 8.97627 14.3948 8.56204 14.3948C8.29279 14.3948 7.98029 14.4852 7.68341 14.7886C6.75688 15.7247 5.8938 15.7771 5.8938 15.7771C6.04825 16.1232 6.5043 16.4253 6.97477 16.4253Z" fill="white"/>
<path d="M33.0096 20.239C33.0288 20.2401 33.0456 20.2401 33.0658 20.2401C34.2402 20.2401 34.6388 18.9899 34.6388 18.9899H34.616C34.4006 18.9899 32.6541 18.94 31.4199 17.3804C30.6071 16.3551 29.9415 15.4534 28.6259 15.0989L28.4966 15.0763L28.4679 14.9455C28.432 14.7456 28.5697 14.5589 28.8822 14.3566C30.6969 13.1754 29.4651 11.6694 29.4651 11.6694C29.4651 11.6694 28.9468 12.8744 27.7868 12.8744C27.7592 12.8744 27.7294 12.8733 27.7006 12.8733C27.5689 12.8661 27.442 12.8614 27.314 12.834L27.0997 12.7923C27.0997 12.7923 27.4301 11.899 26.6328 11.0782C26.0319 10.4585 25.3005 10.3538 24.8779 10.3538C24.6649 10.3538 24.5296 10.3812 24.5296 10.3812C24.9306 10.9022 25.2203 11.7658 24.757 12.2987C24.3572 12.7567 23.3804 12.7793 23.3804 13.4621C23.3804 13.7511 23.6521 14.089 24.1405 14.3923C25.6094 15.3118 27.0673 16.5311 27.6731 18.1655C28.4308 20.2045 27.5773 21.557 26.3587 22.3326C26.3587 22.3326 26.7406 22.6823 27.2948 22.7263C27.4073 22.737 27.5174 22.7418 27.6204 22.7418C28.79 22.7418 29.3945 22.197 29.3945 22.197C29.3945 22.197 29.2951 22.9499 28.6858 23.6494C28.1244 24.2953 27.387 24.6748 26.2629 24.6914C26.2629 24.6914 26.227 25.2101 26.725 25.6585C27.0435 25.9416 27.7796 26.0345 27.7796 26.0345C27.7796 26.0345 26.4018 26.3116 26.2498 28.3339C26.1671 29.4294 25.8858 29.8101 25.8858 29.8101H25.911C29.1084 29.8101 29.0257 27.0848 29.0257 27.0848C29.0257 27.0848 29.2484 27.8914 30.1403 28.1019C30.248 28.1305 30.3629 28.1412 30.473 28.1412C30.7603 28.1412 31.0093 28.0746 31.0093 28.0746C31.0093 28.0746 30.5424 27.0955 31.0057 25.7263C31.39 24.5903 31.3277 23.7482 31.3277 23.7482C31.3277 23.7482 31.7587 24.3952 32.8265 24.4012H32.8372C33.7267 24.4012 34.1145 23.7315 34.1145 23.7315C31.9825 22.8524 32.1933 20.0142 32.1933 20.0142C32.1933 20.0142 32.4698 20.2187 33.0096 20.239ZM32.368 23.2033C31.5013 22.7787 30.9531 21.6509 30.8202 21.2441C30.6766 23.4805 29.5777 25.0329 28.2932 26.5269C27.6264 27.3013 27.3941 28.0543 27.3941 28.0543C27.3941 28.0543 27.5223 27.2014 28.0993 26.5067C29.2975 25.0757 30.4359 23.2949 30.5209 21.2358C30.5795 19.7988 30.2073 18.6331 29.6267 17.6731C29.9511 18.6735 29.9057 19.8987 28.8031 21.0419C28.8031 21.0419 30.9974 18.4285 27.9293 15.7496C26.7011 14.7301 25.358 14.1009 24.6661 13.6548C27.1655 14.4649 28.3854 13.5727 28.3854 13.5727C27.5869 14.2603 26.5538 14.2484 25.9134 14.1496C26.087 14.2341 26.2677 14.3221 26.4628 14.4256C28.5697 15.5628 30.4635 17.434 30.7866 20.026V20.0058C31.2774 22.5503 32.368 23.2033 32.368 23.2033Z" fill="white"/>
<path d="M12.2274 26.0345C12.2274 26.0345 12.9636 25.9429 13.282 25.6585C13.7788 25.2101 13.7441 24.6914 13.7441 24.6914C12.6188 24.676 11.8827 24.2953 11.3176 23.6506C10.7131 22.9512 10.6125 22.1982 10.6125 22.1982C10.6125 22.1982 11.217 22.7429 12.3854 22.7429C12.4907 22.7429 12.5997 22.7382 12.7122 22.7275C13.2664 22.6835 13.6495 22.3337 13.6495 22.3337C12.4309 21.5582 11.5762 20.2045 12.3327 18.1655C12.9397 16.5323 14.3965 15.3118 15.8653 14.3923C16.3537 14.089 16.6254 13.7523 16.6254 13.4621C16.6254 12.7793 15.6498 12.7567 15.25 12.2987C14.7867 11.7658 15.0776 10.9009 15.4774 10.3812C15.4774 10.3812 15.3445 10.3538 15.1302 10.3538C14.709 10.3538 13.9775 10.4585 13.3766 11.0782C12.5769 11.899 12.9085 12.7923 12.9085 12.7923L12.6942 12.834C12.5661 12.8614 12.4381 12.8661 12.3076 12.8733C12.2777 12.8733 12.2513 12.8744 12.2225 12.8744C11.0602 12.8744 10.5443 11.6706 10.5443 11.6706C10.5443 11.6706 9.31249 13.1766 11.1261 14.3578C11.4385 14.56 11.5749 14.7468 11.5391 14.9466L11.5103 15.0775L11.3787 15.1001C10.0655 15.4546 9.39872 16.3563 8.58594 17.3817C7.35411 18.9388 5.60997 18.9899 5.39214 18.9899H5.36816C5.36816 18.9899 5.76678 20.2401 6.94112 20.2401C6.96027 20.2401 6.977 20.2401 6.99738 20.239C7.53731 20.2199 7.81505 20.0142 7.81505 20.0142C7.81505 20.0142 8.02328 22.8512 5.89372 23.7315C5.89372 23.7315 6.28156 24.4012 7.17097 24.4012H7.18169C8.25071 24.3952 8.68049 23.7482 8.68049 23.7482C8.68049 23.7482 8.61823 24.5903 9.00123 25.7263C9.46452 27.0955 9.00011 28.0746 9.00011 28.0746C9.00011 28.0746 9.2491 28.1412 9.53515 28.1412C9.64648 28.1412 9.76023 28.1305 9.86679 28.1019C10.7574 27.8914 10.9812 27.0848 10.9812 27.0848C10.9812 27.0848 10.8998 29.8101 14.0972 29.8101H14.12C14.12 29.8101 13.8399 29.4294 13.7585 28.3339C13.6052 26.3116 12.2274 26.0345 12.2274 26.0345ZM11.7138 26.5269C10.4294 25.0329 9.33169 23.4805 9.18684 21.2441C9.05395 21.6498 8.50807 22.7787 7.64145 23.2033C7.64145 23.2033 8.73074 22.5503 9.22036 20.0058V20.026C9.54475 17.4352 11.4373 15.5628 13.5454 14.4256C13.7381 14.321 13.9212 14.2329 14.0936 14.1496C13.4531 14.2484 12.4201 14.2603 11.6217 13.5727C11.6217 13.5727 12.8415 14.4649 15.3397 13.6548C14.6478 14.1009 13.3059 14.7301 12.0778 15.7496C9.00848 18.4285 11.2039 21.0419 11.2039 21.0419C10.1002 19.8976 10.0559 18.6735 10.3803 17.6731C9.79852 18.6343 9.42741 19.7988 9.48726 21.2358C9.57108 23.2949 10.7095 25.0757 11.9054 26.5067C12.4836 27.2002 12.614 28.0543 12.614 28.0543C12.614 28.0543 12.3794 27.3013 11.7138 26.5269Z" fill="white"/>
<path d="M17.6397 16.0707C17.6924 16.1266 17.7438 16.1873 17.793 16.2479C17.805 16.2622 17.8157 16.2753 17.8276 16.292C17.8731 16.3527 17.9199 16.4169 17.9641 16.4823C17.9737 16.4954 17.9833 16.5109 17.9941 16.5263C18.048 16.6072 18.0982 16.6905 18.1485 16.7761C18.6094 17.5672 19.3479 18.0394 20.0027 18.0407C20.6588 18.0394 21.3949 17.5672 21.8582 16.7761C21.9096 16.6881 21.9611 16.6025 22.015 16.5227C22.0234 16.5109 22.0318 16.5002 22.0389 16.4883C22.0844 16.4205 22.1323 16.3539 22.1826 16.2896C22.1934 16.2753 22.203 16.2634 22.2125 16.2516C22.264 16.1885 22.3167 16.1266 22.3705 16.0696C22.3801 16.06 22.3873 16.0517 22.3957 16.0446C22.6303 15.8055 22.9104 15.6235 23.2767 15.5223L23.1139 15.4284H23.1043L22.4556 15.0537L21.7888 14.6742L20.0075 15.6378L20.0027 15.6341L19.9991 15.6378L18.2167 14.6742L17.5511 15.0525L16.9011 15.4272H16.894L16.7288 15.5211C17.0962 15.6223 17.3752 15.8019 17.611 16.041C17.6218 16.0505 17.629 16.0612 17.6397 16.0707ZM19.2821 15.9934H20.0363H20.7892V16.5073C20.612 16.292 20.2673 16.336 20.2673 16.336V17.0771C20.2673 17.0771 20.2805 17.4411 20.4085 17.5993H20.0363H19.6628C19.7932 17.4422 19.8052 17.0771 19.8052 17.0771V16.336C19.8052 16.336 19.4617 16.292 19.2821 16.5073V15.9934Z" fill="white"/>
<path d="M19.849 14.9965V11.9881L17.9216 11.3386L18.4305 14.2542L19.849 14.9965ZM19.4347 12.7268V13.2098L19.3414 13.167C19.3365 13.1634 19.2001 13.1325 18.9607 12.9445C18.5656 12.64 18.5585 12.3592 18.5585 12.3592L19.4347 12.7268Z" fill="white"/>
<path d="M21.5777 14.2542L22.0841 11.3386L20.158 11.9881V14.9965L21.5777 14.2542ZM20.5721 12.7268L21.4484 12.3605C21.4484 12.3605 21.4412 12.6412 21.045 12.9457C20.8068 13.1336 20.6691 13.1646 20.6643 13.1681L20.571 13.211V12.7268H20.5721Z" fill="white"/>
<path d="M17.1231 21.9709C17.311 22.0388 17.5385 22.0531 17.6546 22.0531C17.6594 22.0388 17.6654 22.021 17.6714 21.9995C17.6822 21.9651 17.6917 21.9317 17.6989 21.8937C17.7312 21.7271 17.7432 21.538 17.7456 21.4166C17.6666 21.3679 17.5552 21.281 17.493 21.1514C17.4212 21.0015 17.3194 20.9325 17.1698 20.9325C16.9759 20.9325 16.7676 21.0479 16.679 21.1026C16.6084 21.5178 16.916 21.8948 17.1231 21.9709Z" fill="white"/>
<path d="M21.386 20.3743C21.028 20.7609 20.3277 21.4342 20.293 21.4687L20.2511 21.5114L18.0378 21.477C18.0365 21.6947 18.0006 21.8802 17.9659 22.0158C17.96 22.0385 17.9539 22.0623 17.948 22.0861L20.5815 22.5559C20.8556 22.3656 21.6098 21.8184 21.9018 21.6043C21.6887 21.295 21.6685 20.9286 21.7163 20.6704C21.5775 20.5813 21.4709 20.4814 21.386 20.3743Z" fill="white"/>
<path d="M21.6864 17.7289C21.1765 18.232 20.6869 18.4177 20.25 18.4605C20.1709 18.4688 20.0908 18.4736 20.0094 18.4736H20.0034H19.9985C19.9171 18.4736 19.8358 18.4688 19.7568 18.4605C19.6801 18.4534 19.6 18.4415 19.5197 18.4236C19.491 18.5366 19.4551 18.7733 19.5581 18.997C19.6503 19.2004 19.8382 19.3515 20.1123 19.4514L20.2045 19.487L20.2057 19.5858C20.2057 19.6156 20.2272 20.2555 20.9299 20.4328C21.0448 20.315 21.149 20.2091 21.2256 20.1211C21.0819 19.7856 21.1573 19.4431 21.3656 19.2753C21.356 19.311 21.2651 20.1508 21.9426 20.4624L22.0539 20.5148L22.0204 20.6326C22.0096 20.6683 21.7834 21.4807 22.6034 21.7829L22.7482 21.8377L22.6836 21.978C22.6692 22.0089 22.3472 22.7465 23.1049 23.1652H24.7485V21.8685C24.1644 21.7971 23.9166 21.3309 23.8531 21.0002C23.5813 20.9538 23.3707 20.8372 23.2271 20.6469C22.8823 20.1961 23.1792 19.7833 23.1828 19.7606C23.1815 19.7642 23.1828 20.2044 23.4557 20.4756C23.5909 20.6064 23.7514 20.7076 23.9944 20.7302L24.1141 20.7409L24.1248 20.8622C24.1273 20.8883 24.1931 21.4832 24.7497 21.5771L24.7485 18.9291C24.7485 18.5188 24.8694 18.106 25.0143 17.7253H21.6864V17.7289Z" fill="white"/>
<path d="M17.2632 18.9422L17.219 20.6289L17.4117 20.6575L17.8833 19.0397L17.6439 18.5425L17.2632 18.9422Z" fill="white"/>
<path d="M22.4636 26.6779C22.478 26.6779 22.4947 26.6803 22.5103 26.6839C22.8036 26.7671 22.8778 27.8187 23.3926 27.9127C23.4428 27.9234 23.4895 27.9258 23.5302 27.9258C23.6787 27.9258 23.7672 27.8627 23.863 27.7509C23.863 27.7509 23.6044 27.3464 23.4105 27.074C23.1531 26.7172 22.9532 26.2854 22.4743 26.2854C22.4636 26.2854 22.4492 26.2854 22.4373 26.2866C22.2792 26.2949 22.1823 26.371 22.1823 26.371C21.9884 26.2497 21.8076 26.2081 21.6436 26.2081C21.3432 26.2081 21.1097 26.3448 20.9936 26.3448H20.9888L19.9186 26.2402C19.7511 26.2247 19.6194 26.057 19.5715 25.9916C19.5595 25.9737 19.5535 25.963 19.5535 25.963C19.5535 25.9344 19.5535 25.9048 19.5511 25.8785C19.5152 25.009 18.8377 24.6367 18.597 24.6307C18.597 24.6307 18.6258 24.4653 18.56 24.4023L18.3241 24.6866L17.5496 24.3L18.1015 24.9412L17.6334 25.4634C17.5748 25.5229 17.582 25.6037 17.6059 25.6371L17.8082 25.8143L18.0643 25.6597C18.0775 25.6501 18.1003 25.6478 18.129 25.6478C18.1996 25.6478 18.3061 25.6656 18.4019 25.6656C18.5061 25.6656 18.597 25.643 18.6079 25.5455C18.5755 25.8679 18.275 26.4281 18.4726 26.8682L18.6186 27.2002L17.6729 27.0646L17.23 27.808C17.0936 28.0555 17.072 28.3231 17.2037 28.4682L17.3689 28.674C17.3689 28.674 17.6011 28.429 17.6538 28.2683L17.5784 28.1863C17.5149 28.1173 17.5185 28.0555 17.5569 27.9805L17.8345 27.5225L18.9514 27.7842L19.01 27.6843C19.0855 27.5594 19.1944 27.5214 19.3141 27.5214C19.3632 27.5214 19.4135 27.5273 19.4661 27.5356C19.6732 27.576 20.0144 27.6308 20.3555 27.6308C20.7302 27.6308 21.1014 27.5642 21.2989 27.3441C21.7034 27.9401 22.5235 28.0352 22.4588 28.3373L22.2434 29.358C22.3858 29.352 22.5235 29.3426 22.6539 29.3247L22.8586 28.2624C22.8814 28.147 22.9029 27.9912 22.9029 27.9912C22.8239 27.9115 22.6324 27.7426 22.5246 27.538C22.3798 27.262 22.4588 27.1181 22.3235 26.7588C22.3284 26.7612 22.369 26.6779 22.4636 26.6779ZM18.2858 25.1862C18.2307 25.1851 18.1912 25.1387 18.1936 25.0839C18.1985 25.0316 18.2427 24.99 18.2966 24.9947C18.3517 24.9971 18.3911 25.0447 18.3888 25.097C18.384 25.1494 18.3385 25.1898 18.2858 25.1862Z" fill="white"/>
<path d="M16.7605 27.6439C16.7605 27.6439 17.1304 27.4928 17.1639 27.3846L17.1149 27.262C17.0801 27.1823 17.085 27.0955 17.152 27.0479L17.5518 26.7731L18.2198 26.9004C18.2198 26.9004 18.0988 26.7505 18.1109 26.5495L17.474 26.415L16.8731 26.779C16.6157 26.9706 16.5966 27.2834 16.6815 27.4691L16.7605 27.6439Z" fill="white"/>
<path d="M21.4819 29.3734C21.6016 29.3686 21.7333 29.3662 21.8782 29.3662C21.8782 29.3662 22.2217 28.3682 22.2409 28.3361C22.0481 28.2517 21.6483 28.0411 21.4939 27.9447C21.5957 28.0959 21.8434 28.2694 21.7944 28.4027L21.4819 29.3734Z" fill="white"/>
<path d="M24.7522 23.4543H15.2559V27.0039C15.2559 28.4552 16.3129 29.364 17.8726 29.364C19.1763 29.364 19.5198 29.4139 20.0047 29.8922C20.3386 29.5615 20.6152 29.4377 21.1826 29.3913L21.1958 29.3366L21.495 28.4171C21.4783 28.3969 20.9886 27.8437 20.9886 27.8437C20.7947 27.908 20.6319 27.9187 20.3578 27.9187C20.0765 27.9187 19.7592 27.8866 19.4157 27.8223C19.381 27.814 19.3487 27.8116 19.3163 27.8116C19.2744 27.8116 19.2708 27.8152 19.26 27.8354L19.2002 27.9329L19.0913 28.1114L18.8866 28.065L17.9756 27.8521L17.8511 28.0566L17.8703 28.0781L17.9816 28.1994L17.9325 28.3577C17.8655 28.5646 17.6476 28.806 17.5818 28.8727L17.3543 29.1154L17.1473 28.8549L16.9916 28.661C16.8276 28.479 16.7893 28.1994 16.8815 27.9068C16.8791 27.9091 16.8755 27.9104 16.8719 27.9104L16.6145 28.0162L16.4984 27.7664L16.417 27.5892C16.2769 27.2775 16.3284 26.8219 16.7055 26.5471L17.4393 26.1356L18.1372 26.2723C18.154 26.2058 18.1791 25.9679 18.1994 25.9072C18.1863 25.9059 18.1731 25.9024 18.16 25.9024L17.7577 26.0511L17.3699 25.7846C17.3699 25.7846 17.2179 25.6395 17.3555 25.4944L17.7314 24.9293L16.7798 23.7422L18.2426 24.3393L18.3395 24.2192L18.537 23.9849L18.7609 24.1966C18.8244 24.2572 18.8603 24.3322 18.8782 24.4071C19.2816 24.563 20.0034 25.0233 20.0669 25.7715L19.8406 25.8619V25.8679C19.8921 25.9286 19.9352 25.9535 19.9484 25.9559L20.9922 26.0583C21.0186 26.0535 21.0521 26.0415 21.0892 26.0308C21.2185 25.9869 21.4136 25.9238 21.6447 25.9238C21.8326 25.9238 22.0145 25.9666 22.1893 26.0476C22.2539 26.0238 22.3329 26.0059 22.4239 26L22.4742 25.9987C23.0332 25.9987 23.3109 26.4139 23.5336 26.7446C23.5707 26.8017 23.6078 26.8564 23.6462 26.9099C23.8413 27.1835 24.0962 27.5844 24.107 27.6011L24.2219 27.7795L24.0807 27.9425C23.9717 28.0674 23.8089 28.2137 23.5288 28.2137C23.4713 28.2137 23.4079 28.2077 23.3397 28.1947C23.2798 28.1839 23.226 28.1661 23.1733 28.1447C23.1649 28.1994 23.1541 28.2649 23.1434 28.3208L22.9602 29.27C24.0556 29.0024 24.7511 28.1804 24.7511 27.0051L24.7522 23.4543Z" fill="#FFDD2D"/>
<path d="M15.256 23.169H22.6408C22.272 22.7907 22.2768 22.3114 22.3714 21.9997C22.2636 21.9486 22.1751 21.8866 22.0961 21.82C21.8075 22.0318 20.9265 22.6694 20.6967 22.8288L20.6476 22.8621L17.7495 22.341H17.6908C17.6214 22.341 17.5196 22.3387 17.4083 22.3256C17.3772 22.4553 17.2647 22.5445 17.1354 22.5445C17.121 22.5445 17.1043 22.5433 17.0887 22.5397C17.0133 22.5266 16.9474 22.4886 16.9032 22.4255C16.8576 22.3637 16.8397 22.2899 16.8529 22.2138L16.8636 22.152C16.5644 21.9426 16.2891 21.4751 16.4112 20.9826L16.4231 20.9303L16.465 20.9005C16.471 20.8957 16.5213 20.8625 16.5955 20.8196L16.3849 20.7875C16.3058 20.7733 16.2531 20.7006 16.2652 20.6234C16.2783 20.5448 16.3525 20.4889 16.4303 20.5044L16.9319 20.583L16.9774 18.8272L17.7243 18.042L18.19 19.0163L17.698 20.7054L18.141 20.7744C18.2188 20.7864 18.2726 20.8589 18.2606 20.9386C18.2486 21.0088 18.1888 21.0575 18.1182 21.0575C18.111 21.0575 18.1026 21.0575 18.0955 21.0564L17.7351 20.9981C17.7399 21.0088 17.7471 21.0147 17.7519 21.0266C17.7902 21.1051 17.8752 21.1622 17.9255 21.186L20.1352 21.2205C20.2286 21.1301 20.4608 20.904 20.6991 20.665C20.1556 20.4604 19.9581 19.9941 19.9246 19.6848C19.6205 19.5563 19.411 19.3637 19.2949 19.1127C19.1536 18.8022 19.204 18.4918 19.241 18.3406C18.9465 18.2336 18.6365 18.0385 18.3205 17.7268H14.9927C15.1351 18.1075 15.256 18.5202 15.256 18.9307V23.169Z" fill="#FFDD2D"/>
<path d="M18.2975 24.9946C18.2436 24.9899 18.1981 25.0315 18.1946 25.0839C18.191 25.1385 18.2316 25.185 18.2867 25.1861C18.3394 25.1909 18.3861 25.1504 18.3908 25.097C18.3908 25.0446 18.3525 24.9959 18.2975 24.9946Z" fill="black"/>
<path d="M24.739 31.4313L24.1919 31.2231L24.3427 30.6616L24.5092 30.0491C24.5092 30.0491 23.5396 30.5712 22.1737 30.9638C21.7858 31.0744 21.4925 31.1244 21.4925 31.1244V31.5407C21.4925 31.5407 20.7623 31.6668 20.0238 31.6668H20.0154H20.0046H19.9903H19.9818C19.2432 31.6668 18.5131 31.5407 18.5131 31.5407V31.1244C18.5131 31.1244 18.2186 31.0744 17.832 30.9638C16.4661 30.5712 15.4977 30.0491 15.4977 30.0491L15.6617 30.6616L15.8161 31.2231L15.2678 31.4313L14.6597 31.6573C15.3576 31.9916 16.3236 32.4793 17.2083 32.7195L17 33.2857C17 33.2857 18.1216 33.7937 19.9903 33.7985V33.7997H19.9962H20.0046H20.0118H20.0166V33.7985C21.8876 33.7937 23.008 33.2857 23.008 33.2857L22.7985 32.7195C23.6832 32.4793 24.6516 31.9916 25.3459 31.6573L24.739 31.4313ZM15.3085 31.6954L16.2087 31.3979L15.943 30.5356C16.3392 30.7592 17.2286 31.0946 17.7433 31.2504L17.3088 32.4364C16.514 32.2188 15.852 31.9654 15.3085 31.6954ZM20.0046 33.5011C18.9596 33.5011 17.7661 33.2619 17.4153 33.1382L17.9493 31.7025C18.3922 31.831 19.3139 31.9678 19.983 31.963H19.9843H20.0046H20.0226H20.025C20.6941 31.9678 21.6135 31.831 22.0587 31.7025L22.5915 33.1382C22.2407 33.2632 21.0484 33.5011 20.0046 33.5011ZM22.698 32.4364L22.2647 31.2504C22.7806 31.0946 23.6676 30.7592 24.065 30.5356L23.8005 31.3979L24.6995 31.6954C24.1548 31.9654 23.4965 32.2188 22.698 32.4364Z" fill="black"/>
<path d="M20.0034 9.02028C21.1168 9.02028 22.0074 9.38662 22.4993 9.77797C22.4993 9.77797 22.6454 8.90371 23.1446 8.13169L22.248 8.23279L21.7787 7.24189L20.8774 7.7034L20.0034 6.8446L19.132 7.7034L18.2294 7.24189L17.7614 8.23279L16.8647 8.13169C17.3639 8.90371 17.51 9.77797 17.51 9.77797C18.0032 9.38662 18.8914 9.02028 20.0034 9.02028ZM17.7206 8.58011L17.9696 8.60629L18.0774 8.38147L18.3911 7.71533L18.9728 8.01391L19.1978 8.12809L19.3774 7.95207L20.0047 7.33351L20.6331 7.95207L20.8127 8.12809L21.0377 8.01391L21.6159 7.71533L21.9331 8.38147L22.0385 8.60629L22.2875 8.58011L22.5245 8.55155C22.4156 8.79546 22.3354 9.02621 22.2779 9.2177C21.6506 8.87038 20.8342 8.67289 20.0023 8.67289C19.1739 8.67289 18.3587 8.87038 17.7291 9.2177C17.6704 9.02621 17.5914 8.79423 17.4824 8.55155L17.7206 8.58011Z" fill="black"/>
<path d="M33.0644 20.622C34.5044 20.622 34.9856 19.166 35.006 19.1041L35.1664 18.5915L34.6265 18.6081H34.6241C34.4338 18.6081 32.8454 18.5664 31.7188 17.1437L31.6123 17.0117C30.8761 16.0815 30.1782 15.1977 28.9309 14.7944C28.9668 14.7622 29.0183 14.7218 29.0889 14.6766C29.7509 14.2436 30.1363 13.7178 30.2333 13.1076C30.3746 12.1892 29.7856 11.4577 29.7592 11.4279L29.3583 10.9355L29.1081 11.5195C29.0914 11.5564 28.6699 12.4914 27.7841 12.4914H27.7183C27.6572 12.4878 27.5998 12.4854 27.5423 12.4807C27.5734 12.0632 27.4968 11.4172 26.9079 10.8118C26.2004 10.0826 25.3313 9.97314 24.8764 9.97314C24.6334 9.97314 24.4718 10.0029 24.4551 10.0053L23.8493 10.1242L24.2228 10.6131C24.5161 10.9902 24.7819 11.6861 24.467 12.0501C24.3665 12.1654 24.1594 12.2595 23.9607 12.3534C23.5525 12.5402 22.9958 12.7995 22.9958 13.461C22.9958 13.8891 23.3298 14.3364 23.9356 14.7171C25.7287 15.8376 26.8349 17.0069 27.3125 18.2976C28.0511 20.283 27.0874 21.4154 26.1513 22.0114L25.7311 22.2803L26.0986 22.6157C26.1477 22.6585 26.5978 23.0523 27.2622 23.1093C27.3879 23.1177 27.5088 23.1248 27.6213 23.1248C28.0475 23.1248 28.4102 23.0582 28.7047 22.969C28.6233 23.1105 28.5239 23.2544 28.3982 23.3996C27.8631 24.0157 27.2048 24.2965 26.2578 24.3108L25.9059 24.3167L25.8784 24.6676C25.8748 24.7378 25.8484 25.3885 26.4685 25.9417C26.5631 26.0273 26.678 26.0975 26.7977 26.1558C26.3776 26.5317 25.9502 27.1859 25.8676 28.3077C25.7982 29.2438 25.5732 29.59 25.5707 29.5936L25.1817 30.1836L25.8844 30.1931C27.0455 30.1931 27.9349 29.8743 28.5514 29.2438C28.9153 28.8703 29.1236 28.4492 29.2469 28.0757C29.4492 28.247 29.7102 28.3969 30.0502 28.4766C30.1795 28.5063 30.3207 28.523 30.4728 28.523C30.8007 28.523 31.0748 28.454 31.106 28.4469L31.5549 28.3279L31.3562 27.9115C31.3418 27.8782 30.9671 27.0432 31.3705 25.8512C31.5441 25.3362 31.6327 24.8746 31.6758 24.5154C31.9583 24.6617 32.3365 24.783 32.8262 24.7842C33.937 24.7842 34.4267 23.9598 34.4494 23.9254L34.6684 23.5471L34.2626 23.3806C32.9387 22.8346 32.6454 21.3678 32.5868 20.5732C32.7065 20.5958 32.8429 20.6172 32.9973 20.622H33.0644ZM34.1142 23.7315C34.1142 23.7315 33.7263 24.4012 32.8369 24.4012H32.8262C31.7584 24.3953 31.3274 23.7481 31.3274 23.7481C31.3274 23.7481 31.3897 24.5904 31.0042 25.7263C30.541 27.0956 31.0078 28.0745 31.0078 28.0745C31.0078 28.0745 30.7589 28.1411 30.4715 28.1411C30.3614 28.1411 30.2465 28.1304 30.1388 28.1018C29.2469 27.8913 29.0243 27.0848 29.0243 27.0848C29.0243 27.0848 29.1068 29.8101 25.9095 29.8101H25.8844C25.8844 29.8101 26.1657 29.4295 26.2494 28.3338C26.4015 26.3116 27.7793 26.0344 27.7793 26.0344C27.7793 26.0344 27.0443 25.9428 26.7259 25.6586C26.2279 25.21 26.2626 24.6914 26.2626 24.6914C27.3879 24.676 28.1241 24.2953 28.6855 23.6494C29.2936 22.95 29.3942 22.197 29.3942 22.197C29.3942 22.197 28.7896 22.7418 27.6201 22.7418C27.5172 22.7418 27.407 22.737 27.2946 22.7263C26.7415 22.6823 26.3584 22.3326 26.3584 22.3326C27.5758 21.557 28.4305 20.2033 27.6728 18.1643C27.0659 16.5311 25.6078 15.3106 24.1403 14.3911C23.6518 14.0878 23.3801 13.7511 23.3801 13.461C23.3801 12.7781 24.3569 12.7567 24.7579 12.2975C25.22 11.7646 24.9303 10.8998 24.5293 10.38C24.5293 10.38 24.6646 10.3526 24.8777 10.3526C25.3002 10.3526 26.0316 10.4584 26.6326 11.0771C27.431 11.8978 27.0994 12.7912 27.0994 12.7912L27.3137 12.8328C27.4418 12.8602 27.5686 12.8649 27.7004 12.8708C27.7291 12.8708 27.7577 12.8721 27.7865 12.8721C28.9464 12.8721 29.4648 11.6671 29.4648 11.6671C29.4648 11.6671 30.6978 13.1742 28.883 14.3543C28.5706 14.5565 28.433 14.7433 28.4688 14.9431L28.4975 15.0739L28.6268 15.0965C29.9424 15.451 30.608 16.3527 31.4208 17.3781C32.655 18.9376 34.4015 18.9875 34.617 18.9875H34.6397C34.6397 18.9875 34.2411 20.2378 33.0668 20.2378C33.0476 20.2378 33.0309 20.2378 33.0105 20.2366C32.4706 20.2176 32.1941 20.0117 32.1941 20.0117C32.1941 20.0117 31.9822 22.8512 34.1142 23.7315Z" fill="black"/>
<path d="M30.5355 14.9514C31.0729 15.2356 31.3854 15.6163 31.6595 15.9541C31.9288 16.2836 32.185 16.6013 32.5848 16.7333C32.7273 16.782 32.8782 16.8047 33.0314 16.8047C33.6323 16.8047 34.2356 16.4394 34.4643 15.9339L34.6941 15.4272L34.1375 15.3938C34.1111 15.3927 33.3952 15.3284 32.598 14.5184C32.27 14.1864 31.8738 14.0116 31.4464 14.0116C30.9245 14.0116 30.5378 14.2709 30.4948 14.2971L29.9824 14.6551L30.5355 14.9514ZM31.4476 14.3946C31.7158 14.3946 32.0282 14.485 32.3239 14.7884C33.2516 15.7245 34.1147 15.7769 34.1147 15.7769C33.9578 16.1219 33.503 16.4251 33.0325 16.4251C32.9236 16.4251 32.8147 16.4085 32.7057 16.3716C32.0677 16.1575 31.8391 15.2059 30.7174 14.6135C30.7174 14.6135 31.031 14.3946 31.4476 14.3946Z" fill="black"/>
<path d="M30.7866 20.0058V20.0248C30.4635 17.434 28.5696 15.5628 26.4628 14.4244C26.2677 14.3209 26.0881 14.2329 25.9134 14.1485C26.555 14.2472 27.588 14.2591 28.3853 13.5715C28.3853 13.5715 27.1655 14.4637 24.666 13.6536C25.3579 14.0997 26.7022 14.729 27.9292 15.7484C30.9973 18.4272 28.8018 21.0407 28.8018 21.0407C29.9044 19.8975 29.9499 18.6723 29.6254 17.6719C30.206 18.6318 30.5771 19.7976 30.5197 21.2346C30.4347 23.2937 29.2963 25.0745 28.098 26.5055C27.5222 27.2001 27.3929 28.0531 27.3929 28.0531C27.3929 28.0531 27.6251 27.3001 28.2919 26.5257C29.5764 25.0316 30.674 23.4793 30.8177 21.2429C30.9506 21.6486 31.4977 22.7774 32.3655 23.2021C32.3679 23.2033 31.2774 22.5502 30.7866 20.0058Z" fill="black"/>
<path d="M14.436 29.5923C14.4347 29.5887 14.2121 29.2426 14.1403 28.3064C14.0564 27.1846 13.6303 26.5304 13.2089 26.1545C13.3311 26.0974 13.4436 26.0272 13.5381 25.9404C14.157 25.3872 14.1307 24.7366 14.1271 24.6663L14.1032 24.3154L13.7488 24.3095C12.8043 24.294 12.1448 24.0133 11.6097 23.3983C11.4852 23.2532 11.3846 23.1092 11.3032 22.9677C11.5977 23.0569 11.958 23.1235 12.3853 23.1235C12.5003 23.1235 12.6188 23.1164 12.7445 23.108C13.4088 23.0509 13.859 22.6584 13.9092 22.6144L14.2767 22.2789L13.8566 22.01C12.9169 21.4129 11.9568 20.2805 12.6942 18.2963C13.1718 17.0056 14.2767 15.8363 16.0723 14.7157C16.678 14.3351 17.0097 13.8878 17.0097 13.4596C17.0097 12.7982 16.4542 12.5377 16.046 12.3521C15.8473 12.2581 15.6402 12.1642 15.5396 12.0488C15.2236 11.686 15.4905 10.9889 15.7827 10.6118L16.1585 10.1229L15.5505 10.0039C15.5325 10.0016 15.3733 9.9718 15.129 9.9718C14.6742 9.9718 13.8075 10.0813 13.0988 10.8105C12.5087 11.4171 12.4309 12.0631 12.4608 12.4794C12.4033 12.4842 12.3459 12.4866 12.286 12.4901H12.2214C11.3332 12.4901 10.913 11.5551 10.8962 11.5182L10.646 10.9341L10.2414 11.4267C10.2187 11.4564 9.6273 12.1892 9.77097 13.1063C9.86675 13.7165 10.2522 14.2423 10.9142 14.6753C10.986 14.7205 11.0363 14.7609 11.0722 14.7931C9.82599 15.1963 9.12937 16.0814 8.39311 17.0116L8.28661 17.1437C7.16139 18.5663 5.56928 18.6079 5.37896 18.6079L4.83667 18.5913L5.00184 19.104C5.02099 19.1658 5.50101 20.6219 6.94232 20.6219L7.01171 20.6195C7.16374 20.6147 7.30023 20.5945 7.42234 20.5707C7.36243 21.3641 7.0692 22.8309 5.744 23.3781L5.33943 23.5446L5.5585 23.9229C5.58006 23.9573 6.07086 24.7817 7.18412 24.7817C7.6701 24.7805 8.04833 24.6592 8.33208 24.5129C8.3752 24.8722 8.46373 25.3337 8.63733 25.8488C9.04072 27.0407 8.6649 27.8758 8.65052 27.909L8.45184 28.3255L8.90188 28.4444C8.9318 28.4514 9.20836 28.5205 9.53511 28.5205C9.68833 28.5205 9.82964 28.5038 9.95653 28.4741C10.2976 28.3944 10.561 28.2445 10.7609 28.0732C10.8831 28.4467 11.0926 28.8679 11.4552 29.2413C12.073 29.8718 12.9611 30.1906 14.1223 30.1906L14.8262 30.1811L14.436 29.5923ZM14.096 29.8099C10.8986 29.8099 10.98 27.0847 10.98 27.0847C10.98 27.0847 10.7573 27.8912 9.86552 28.1018C9.75895 28.1303 9.64527 28.141 9.53399 28.141C9.24665 28.141 8.99884 28.0745 8.99884 28.0745C8.99884 28.0745 9.46337 27.0954 9.00007 25.7262C8.61701 24.5902 8.67921 23.748 8.67921 23.748C8.67921 23.748 8.24949 24.3951 7.18053 24.4011H7.16975C6.28033 24.4011 5.89244 23.7313 5.89244 23.7313C8.02324 22.8523 7.81377 20.014 7.81377 20.014C7.81377 20.014 7.53726 20.2186 6.99616 20.2388C6.97701 20.24 6.95904 20.24 6.9399 20.24C5.76438 20.24 5.36694 18.9898 5.36694 18.9898H5.39085C5.60757 18.9898 7.35171 18.9399 8.58591 17.3803C9.39869 16.355 10.0654 15.4545 11.3787 15.0987L11.5103 15.0762L11.539 14.9454C11.575 14.7455 11.4385 14.5588 11.1261 14.3565C9.31127 13.1752 10.5443 11.6693 10.5443 11.6693C10.5443 11.6693 11.0602 12.8731 12.2226 12.8731C12.2513 12.8731 12.2776 12.872 12.3076 12.872C12.438 12.8648 12.5673 12.86 12.6942 12.8327L12.9085 12.7911C12.9085 12.7911 12.5769 11.8977 13.3765 11.0769C13.9775 10.4572 14.7089 10.3525 15.1302 10.3525C15.3445 10.3525 15.4774 10.3799 15.4774 10.3799C15.0776 10.9009 14.7879 11.7645 15.25 12.2974C15.6498 12.7554 16.6254 12.778 16.6254 13.4608C16.6254 13.7499 16.3536 14.0877 15.8652 14.391C14.3964 15.3105 12.9384 16.531 12.3327 18.1643C11.5761 20.2032 12.4297 21.5556 13.6495 22.3324C13.6495 22.3324 13.2664 22.6822 12.7122 22.7262C12.5996 22.7369 12.4907 22.7417 12.3853 22.7417C11.217 22.7417 10.6125 22.1968 10.6125 22.1968C10.6125 22.1968 10.7131 22.9498 11.3175 23.6493C11.8826 24.2952 12.6188 24.6759 13.7441 24.6913C13.7441 24.6913 13.78 25.21 13.282 25.6584C12.9624 25.9415 12.2273 26.0343 12.2273 26.0343C12.2273 26.0343 13.6064 26.3115 13.7572 28.3338C13.8398 29.4293 14.1187 29.8099 14.1187 29.8099H14.096Z" fill="black"/>
<path d="M6.97453 16.806C7.12892 16.806 7.27978 16.7834 7.42227 16.7347C7.82442 16.6026 8.07943 16.285 8.34874 15.9555C8.62407 15.6177 8.93409 15.237 9.47161 14.9527L10.0246 14.6577L9.51113 14.2996C9.46802 14.2723 9.08254 14.0142 8.56181 14.0142C8.13327 14.0142 7.73589 14.1879 7.40902 14.5209C6.61185 15.3298 5.8972 15.3953 5.87081 15.3964L5.31421 15.4285L5.54282 15.9364C5.77267 16.4397 6.37475 16.806 6.97453 16.806ZM7.68323 14.7898C7.98011 14.4864 8.29249 14.396 8.56181 14.396C8.97597 14.396 9.28971 14.6149 9.28971 14.6149C8.1692 15.2085 7.93935 16.1589 7.29892 16.373C7.1936 16.4099 7.08345 16.4266 6.97453 16.4266C6.50405 16.4266 6.04918 16.1245 5.89355 15.7783C5.89355 15.7771 6.75546 15.7247 7.68323 14.7898Z" fill="black"/>
<path d="M9.48724 21.2357C9.42734 19.7987 9.79844 18.633 10.3802 17.6731C10.0558 18.6734 10.1001 19.8987 11.2038 21.0418C11.2038 21.0418 9.0084 18.4283 12.0777 15.7496C13.3059 14.7301 14.649 14.1008 15.3396 13.6547C12.8415 14.4648 11.6216 13.5726 11.6216 13.5726C12.4188 14.2602 13.452 14.2483 14.0936 14.1484C13.92 14.2328 13.7381 14.3209 13.5453 14.4244C11.4361 15.5628 9.5435 17.4339 9.2191 20.0248V20.0045C8.72948 22.549 7.64014 23.2021 7.64014 23.2021C8.50688 22.7774 9.0527 21.6497 9.18559 21.2428C9.33044 23.4792 10.4281 25.0316 11.7126 26.5256C12.3793 27.3 12.614 28.053 12.614 28.053C12.614 28.053 12.4835 27.2001 11.9053 26.5054C10.7094 25.0768 9.57101 23.2948 9.48724 21.2357Z" fill="black"/>
<path d="M19.2815 15.9934V16.5074C19.4599 16.292 19.8047 16.3361 19.8047 16.3361V17.0771C19.8047 17.0771 19.7927 17.4411 19.6622 17.5994H20.0357H20.408C20.2799 17.4424 20.2668 17.0771 20.2668 17.0771V16.3361C20.2668 16.3361 20.6115 16.292 20.7887 16.5074V15.9934H20.0357H19.2815Z" fill="black"/>
<path d="M18.9609 12.9457C19.1991 13.1337 19.3367 13.1646 19.3415 13.1682L19.4349 13.211V12.7269L18.5586 12.3605C18.5586 12.3617 18.567 12.6412 18.9609 12.9457Z" fill="black"/>
<path d="M21.0449 12.9457C21.4411 12.6412 21.4483 12.3605 21.4483 12.3605L20.572 12.7269V13.211L20.6642 13.1682C20.6702 13.1646 20.8066 13.1337 21.0449 12.9457Z" fill="black"/>
<path d="M22.624 10.9747C22.624 10.2408 21.3802 9.58057 20.0071 9.58057H20.0059H20.0024H19.9988C18.6257 9.58057 17.382 10.2408 17.382 10.9747L17.4095 11.1555L17.9577 14.2828L17.4071 14.6005L15.9826 15.4272H15.9874C15.9874 15.4272 15.6666 15.5902 15.5182 15.6913C14.9759 16.066 14.8609 16.612 15.1758 16.838C15.2536 16.3931 15.6079 15.9268 16.2711 15.9268C16.7488 15.9268 17.1126 16.1719 17.4071 16.5394C17.4825 16.6322 17.5543 16.7309 17.6214 16.838C17.704 16.9724 17.7866 17.0902 17.8692 17.2044H14.2002C14.4695 17.7432 14.7256 18.3142 14.7256 18.934V27.0039C14.7256 28.9571 16.2376 29.8897 17.8728 29.8897C19.1368 29.8897 19.3069 29.8326 20.0047 30.5226C20.699 29.8314 20.869 29.8897 22.1343 29.8897C23.7707 29.8897 25.2802 28.9571 25.2802 27.0039V18.934C25.2802 18.3142 25.5364 17.7432 25.8069 17.2044H22.1367C22.2181 17.0914 22.3007 16.9724 22.3833 16.838C22.4515 16.7309 22.5222 16.6322 22.5964 16.5394C22.8933 16.1706 23.2559 15.9268 23.7336 15.9268C24.3967 15.9268 24.7499 16.3919 24.8289 16.838C25.1438 16.612 25.0301 16.066 24.4841 15.6913C24.3381 15.5902 24.0173 15.4272 24.0173 15.4272H24.0221L22.5976 14.6005L22.0493 14.2828L22.5976 11.1555L22.624 10.9747ZM17.9219 11.3387L19.8491 11.9882V14.9966L18.4306 14.2531L17.9219 11.3387ZM18.3205 17.729C18.6365 18.0418 18.9465 18.2358 19.2411 18.3428C19.2027 18.4938 19.1524 18.8055 19.2948 19.116C19.411 19.3657 19.6217 19.5585 19.9245 19.687C19.9581 19.9963 20.1544 20.4614 20.699 20.6671C20.4608 20.9062 20.2285 21.1311 20.134 21.2227L17.9255 21.1882C17.8751 21.1632 17.7901 21.1073 17.7519 21.0276C17.747 21.0169 17.7399 21.0109 17.7362 20.999L18.0966 21.0573C18.105 21.0585 18.1122 21.0585 18.1194 21.0585C18.1888 21.0585 18.2498 21.0109 18.2618 20.9396C18.2738 20.8599 18.2199 20.7873 18.1421 20.7754L17.6992 20.7064L18.1912 19.0184L17.7255 18.0442L16.9786 18.8293L16.9331 20.5851L16.4315 20.5066C16.3537 20.4911 16.2795 20.5482 16.2663 20.6255C16.2544 20.7028 16.307 20.7754 16.386 20.7897L16.5967 20.8218C16.5213 20.8646 16.4722 20.8979 16.4662 20.9027L16.4231 20.9324L16.4112 20.9848C16.2891 21.4772 16.5656 21.9447 16.8637 22.154L16.8528 22.216C16.8409 22.2921 16.8577 22.3659 16.9031 22.4277C16.9462 22.4907 17.0132 22.5288 17.0875 22.5419C17.103 22.5442 17.1198 22.5454 17.1342 22.5454C17.2635 22.5454 17.376 22.4562 17.4083 22.3266C17.5197 22.3397 17.6214 22.3421 17.6908 22.3421H17.7495L20.6475 22.8619L20.6966 22.8297C20.9277 22.6692 21.8075 22.0316 22.096 21.821C22.175 21.8888 22.2636 21.9506 22.3714 22.0018C22.2779 22.3135 22.2719 22.7929 22.6419 23.1712H15.256V18.9351C15.256 18.5247 15.135 18.112 14.9926 17.7313H18.3205V17.729ZM21.9021 21.6045C21.6088 21.8186 20.8547 22.3659 20.5817 22.5562L17.9482 22.0863C17.9542 22.0625 17.9601 22.0399 17.9661 22.0161C18.0009 21.8805 18.0356 21.6949 18.038 21.4772L20.2513 21.5129L20.2932 21.4701C20.3267 21.4368 21.0283 20.7635 21.3861 20.3757C21.4712 20.4816 21.5777 20.5827 21.7166 20.6719C21.6687 20.9289 21.689 21.2952 21.9021 21.6045ZM17.4933 21.1513C17.5555 21.2809 17.6681 21.3678 17.7459 21.4165C17.7435 21.5379 17.7315 21.727 17.6992 21.8936C17.692 21.9305 17.6824 21.965 17.6716 21.9995C17.6656 22.0209 17.6597 22.0387 17.6549 22.053C17.5388 22.053 17.3101 22.0387 17.1234 21.9709C16.9163 21.8947 16.6074 21.5177 16.6792 21.1025C16.7691 21.0478 16.9761 20.9324 17.17 20.9324C17.3197 20.9313 17.4215 21.0014 17.4933 21.1513ZM17.2192 20.6291L17.2635 18.9435L17.6441 18.5427L17.8836 19.0399L17.4119 20.6576L17.2192 20.6291ZM21.8781 29.3675C21.7345 29.3675 21.6016 29.3699 21.4819 29.3746L21.7955 28.4052C21.8446 28.2707 21.5968 28.0983 21.4951 27.9472C21.6495 28.0435 22.0493 28.2541 22.2421 28.3385C22.2217 28.3695 21.8781 29.3675 21.8781 29.3675ZM22.8622 28.266L22.6575 29.327C22.5269 29.3449 22.3881 29.3544 22.2457 29.3604L22.4611 28.3397C22.5258 28.0364 21.7057 27.9425 21.3012 27.3465C21.1037 27.5678 20.7314 27.6331 20.3578 27.6331C20.0167 27.6331 19.6755 27.5784 19.4684 27.538C19.4158 27.5296 19.3655 27.5237 19.3165 27.5237C19.1967 27.5237 19.0878 27.5606 19.0124 27.6867L18.9525 27.7867L17.8357 27.5249L17.5579 27.9816C17.5184 28.0554 17.5161 28.1185 17.5794 28.1875L17.6549 28.2696C17.6034 28.4314 17.3712 28.6752 17.3712 28.6752L17.2048 28.4694C17.0731 28.3231 17.0946 28.0566 17.2323 27.8092L17.6752 27.0658L18.621 27.2013L18.4737 26.8683C18.2762 26.4282 18.5767 25.8679 18.6089 25.5455C18.5982 25.6431 18.5084 25.6645 18.4031 25.6645C18.3073 25.6645 18.2008 25.6466 18.1302 25.6466C18.1026 25.6466 18.0787 25.649 18.0655 25.6585L17.8093 25.8131L17.607 25.6359C17.5831 25.6014 17.5747 25.5217 17.6346 25.4622L18.1026 24.9412L17.5496 24.3L18.3241 24.6867L18.5599 24.4024C18.6245 24.4654 18.597 24.6307 18.597 24.6307C18.8388 24.6367 19.5163 25.009 19.5523 25.8773C19.5547 25.9036 19.5547 25.9332 19.5547 25.9618C19.5547 25.9618 19.5607 25.9725 19.5726 25.9904C19.6205 26.0558 19.7521 26.2235 19.9197 26.239L20.99 26.3437H20.9947C21.112 26.3437 21.3455 26.2069 21.6447 26.2069C21.8075 26.2069 21.9895 26.2485 22.1834 26.3699C22.1834 26.3699 22.2804 26.2938 22.4384 26.2854C22.4504 26.2842 22.4635 26.2842 22.4755 26.2842C22.9555 26.2842 23.1542 26.7148 23.4116 27.0729C23.6056 27.3453 23.864 27.7497 23.864 27.7497C23.7683 27.8627 23.6797 27.9246 23.5313 27.9246C23.4906 27.9246 23.4439 27.921 23.3936 27.9115C22.8789 27.8175 22.8047 26.7659 22.5114 26.6827C22.4959 26.6779 22.4791 26.6768 22.4647 26.6768C22.3701 26.6768 22.3282 26.76 22.3282 26.76C22.4623 27.1181 22.3845 27.2632 22.5282 27.5392C22.6359 27.7438 22.8274 27.9127 22.9064 27.9924C22.9064 27.9948 22.8849 28.1494 22.8622 28.266ZM17.115 27.262L17.1641 27.3845C17.1318 27.4916 16.7607 27.6439 16.7607 27.6439L16.6805 27.4702C16.5955 27.2847 16.6134 26.9718 16.872 26.7803L17.4729 26.4162L18.1098 26.5506C18.0978 26.7517 18.2187 26.9016 18.2187 26.9016L17.5507 26.7743L17.1509 27.0491C17.0839 27.0955 17.0791 27.1823 17.115 27.262ZM22.9627 29.2687L23.1459 28.3195C23.1554 28.2636 23.1674 28.1982 23.1758 28.1435C23.2273 28.1649 23.2823 28.1827 23.3422 28.1935C23.4103 28.2065 23.4738 28.2125 23.5313 28.2125C23.8114 28.2125 23.9742 28.0661 24.0831 27.9412L24.2244 27.7782L24.1095 27.5999C24.0987 27.582 23.8449 27.1823 23.6486 26.9087C23.6103 26.8552 23.5732 26.8016 23.536 26.7434C23.3134 26.4127 23.0345 25.9975 22.4755 25.9975L22.4252 25.9987C22.3331 26.0046 22.254 26.0225 22.1906 26.0463C22.0146 25.9642 21.8338 25.9226 21.6459 25.9226C21.4149 25.9226 21.2198 25.9856 21.0905 26.0297C21.0533 26.0403 21.0198 26.0522 20.9935 26.057L19.9485 25.9547C19.9353 25.9523 19.8922 25.9274 19.8408 25.8655V25.8607L20.067 25.7703C20.0036 25.0221 19.2805 24.5617 18.8771 24.4059C18.8592 24.331 18.8232 24.256 18.7598 24.1954L18.5347 23.9836L18.3372 24.2192L18.2403 24.3393L16.7774 23.7421L17.7291 24.9293L17.3532 25.4943C17.2156 25.6394 17.3676 25.7846 17.3676 25.7846L17.7554 26.0498L18.1577 25.9011C18.172 25.9011 18.184 25.9047 18.1972 25.9059C18.178 25.9666 18.1529 26.2045 18.1362 26.2711L17.4382 26.1343L16.7044 26.5459C16.3273 26.8207 16.2759 27.2763 16.4159 27.5879L16.4973 27.7652L16.6134 28.015L16.8696 27.9091C16.8732 27.9079 16.8768 27.9068 16.8792 27.9044C16.787 28.197 16.8242 28.4753 16.9893 28.6586L17.145 28.8536L17.352 29.1142L17.5794 28.8715C17.6465 28.8048 17.8632 28.5634 17.9302 28.3564L17.9793 28.1982L17.868 28.0768L17.8501 28.0554L17.9745 27.8509L18.8854 28.0637L19.0901 28.1102L19.1991 27.9317L19.259 27.8342C19.2697 27.814 19.2733 27.8104 19.3152 27.8104C19.3476 27.8104 19.3798 27.814 19.4146 27.8211C19.7581 27.8853 20.0754 27.9174 20.3567 27.9174C20.6296 27.9174 20.7924 27.9068 20.9875 27.8425C20.9875 27.8425 21.4771 28.3945 21.4939 28.4159L21.1947 29.3342L21.1814 29.3901C20.614 29.4353 20.3375 29.559 20.0036 29.8909C19.5187 29.4127 19.1751 29.3627 17.8716 29.3627C16.3117 29.3627 15.2547 28.4539 15.2547 27.0027V23.4543H24.7499L24.7523 27.0027C24.7535 28.1804 24.058 29.0011 22.9627 29.2687ZM25.0157 17.729C24.8708 18.1096 24.7499 18.5224 24.7499 18.9328L24.7511 21.5807C24.1945 21.4879 24.1286 20.892 24.1262 20.8658L24.1155 20.7445L23.9958 20.7338C23.7539 20.7111 23.5935 20.6089 23.4582 20.478C23.1854 20.2068 23.1841 19.7667 23.1854 19.7631C23.1818 19.7857 22.8849 20.1984 23.2296 20.6493C23.3745 20.8396 23.5839 20.9562 23.8557 21.0026C23.9192 21.3333 24.1669 21.7996 24.7511 21.8709V23.1676H23.1087C22.351 22.7488 22.6718 22.0113 22.6873 21.9804L22.752 21.8401L22.6072 21.7853C21.7871 21.4832 22.0122 20.6696 22.0242 20.635L22.0577 20.5161L21.9464 20.4637C21.2688 20.1521 21.361 19.3111 21.3694 19.2766C21.1611 19.4443 21.0857 19.7869 21.2293 20.1224C21.1515 20.2104 21.0474 20.3174 20.9337 20.4341C20.2322 20.2567 20.2106 19.6156 20.2106 19.5859L20.2094 19.4871L20.1173 19.4515C19.8431 19.3504 19.6552 19.1992 19.563 18.9958C19.4589 18.771 19.496 18.5355 19.5247 18.4224C19.6049 18.4403 19.6851 18.4534 19.7617 18.4593C19.8408 18.4677 19.9222 18.4724 20.0036 18.4724H20.0084H20.0143C20.0957 18.4724 20.1759 18.4677 20.2549 18.4593C20.6918 18.4165 21.1814 18.2298 21.6914 17.7278H25.0157V17.729ZM22.4564 15.0524L23.1052 15.4272H23.1148L23.2775 15.5212C22.9112 15.6223 22.6311 15.8043 22.3965 16.0433C22.3881 16.0505 22.3797 16.0601 22.3714 16.0684C22.3175 16.1255 22.2636 16.1873 22.2133 16.2504C22.2038 16.2622 22.1942 16.2753 22.1834 16.2885C22.1331 16.3527 22.0864 16.4181 22.041 16.4871C22.0337 16.499 22.0254 16.5109 22.017 16.5215C21.9631 16.6012 21.9117 16.6869 21.8602 16.775C21.3981 17.566 20.6607 18.0382 20.0047 18.0395C19.35 18.0382 18.6126 17.566 18.1505 16.775C18.1002 16.6893 18.0499 16.606 17.9961 16.5252C17.9852 16.5097 17.9757 16.4942 17.9661 16.4811C17.9207 16.4157 17.8751 16.3515 17.8284 16.2908C17.8165 16.2742 17.8058 16.2611 17.7937 16.2468C17.7435 16.1861 17.692 16.1255 17.6405 16.0696C17.6297 16.0612 17.6226 16.0505 17.6118 16.041C17.376 15.8019 17.0971 15.6211 16.7295 15.5212L16.8947 15.4272H16.902L17.5507 15.0524L18.2175 14.673L19.9988 15.6365L20.0024 15.633L20.0071 15.6365L21.7884 14.673L22.4564 15.0524ZM21.5777 14.2543L20.1579 14.9978V11.9882L22.084 11.3387L21.5777 14.2543ZM20.0036 11.6575L17.8919 10.8284C18.0715 10.4061 18.8998 10.0468 20.0036 10.0457C21.1084 10.0468 21.9368 10.4061 22.1151 10.8284L20.0036 11.6575Z" fill="black"/>
</svg>
