<svg width="40" height="40" viewBox="0 0 40 40" fill="none" xmlns="http://www.w3.org/2000/svg">
<path d="M6 6V34H34V6H6ZM14.2334 13.1762H18.2381V12.2792H19.0807L20.0321 11.3278L20.9835 12.2792H21.8262V13.1762H25.8306V14.9063H14.2332V13.1762H14.2334ZM13.1122 15.4829H26.952V16.0596H13.1122V15.4829ZM15.3868 28.7461H13.6568V26.2471C13.6568 25.7163 13.2695 25.286 12.7919 25.286C12.3142 25.286 11.9269 25.7163 11.9269 26.2471V28.7459H10.1969V23.556H15.3868V28.7461ZM15.3868 22.9793H10.1967V22.4026H15.3866V22.9793H15.3868ZM24.1008 28.7461H23.5241V22.9474C23.5241 21.0189 21.9606 19.4554 20.0321 19.4554C18.1036 19.4554 16.5401 21.0189 16.5401 22.9474V28.7461H15.9635V22.9474C15.9635 20.7004 17.7851 18.8788 20.0321 18.8788C22.2791 18.8788 24.1008 20.7004 24.1008 22.9474V28.7461ZM29.8673 28.7461H28.1373V26.2471C28.1373 25.7163 27.75 25.286 27.2724 25.286C26.7947 25.286 26.4075 25.7163 26.4075 26.2471V28.7459H24.6774V23.556H29.8673V28.7461ZM29.8673 22.9793H24.6774V22.4026H29.8673V22.9793ZM29.8673 21.8262H24.4825C24.2076 19.8666 22.3271 18.3503 20.048 18.3503C17.7689 18.3503 15.8885 19.8666 15.6137 21.8262H10.1969V21.2495H14.2656V16.6361H25.7987V21.2493H29.8673V21.8262Z" fill="#FF0000"/>
</svg>
