<svg width="40" height="40" viewBox="0 0 40 40" fill="none" xmlns="http://www.w3.org/2000/svg">
<path d="M14.2827 22.1432L14.7038 22.3538C15.8269 22.8451 16.6692 23.5471 17.1605 24.6701C18.1432 26.7057 17.0903 28.6711 15.2654 29.4432C14.3529 29.7942 13.4404 29.9345 12.4577 29.9345H7.05288C6.8423 29.9345 6.63173 30.0047 6.49134 30.0047C6.35096 30.0047 6.21058 29.9345 6 29.9345C6.07019 29.7942 6.07019 29.5836 6.14038 29.5134C6.9125 28.8115 7.19326 27.9692 7.19326 26.9865V18.423C7.19326 17.5807 6.70192 16.8788 6.21058 16.1769C6.07019 16.0365 6.07019 15.8259 6.07019 15.6856C6.21058 15.6856 6.42115 15.6154 6.56154 15.6154C7.33365 15.6154 8.03557 15.6856 8.80768 15.6856H10.4923C10.7731 15.6856 10.9836 15.6154 11.124 15.3346C11.9663 13.9308 13.2298 13.1586 14.774 12.8077C16.1077 12.4567 17.4413 12.5971 18.775 12.5971C19.1961 12.5971 19.2663 12.5269 19.1961 12.1058C19.0557 11.474 18.775 10.9125 18.2836 10.4913C18.2134 10.4212 18.1432 10.2106 18.1432 10.0702C18.2836 10.0702 18.424 10 18.6346 10C18.9153 10 19.2663 10.0702 19.5471 10.0702H20.9509C21.0913 10.0702 21.3019 10 21.4423 10H21.8634C21.8634 10.1404 21.8634 10.351 21.723 10.4913C21.5124 10.9125 21.1615 11.2635 20.9509 11.6144V11.6846C20.5999 12.4567 20.6701 12.5971 21.5124 12.5971C22.7759 12.6673 23.9692 12.5269 25.2326 12.8077C26.7768 13.1586 28.0403 13.9308 28.8826 15.2644C29.0932 15.5452 29.2336 15.6856 29.5845 15.6856H31.8307C31.9711 15.6856 32.1816 15.6154 32.2518 15.475C32.4624 15.2644 32.673 15.124 32.8836 15.2644C33.0239 15.3346 33.0941 15.5452 33.0941 15.6856C33.0239 15.9663 32.8134 16.1067 32.5326 16.1067C31.6201 16.1769 30.6374 16.2471 29.7249 16.2471C29.4441 16.2471 29.3038 16.3173 29.374 16.6682C29.5845 18.0721 29.3038 19.4057 28.3211 20.5288C28.2509 20.599 28.2509 20.6692 28.1105 20.8096H28.4615C30.9182 20.4586 32.9537 21.4413 33.7259 23.8278C34.498 26.2846 33.6557 28.6009 30.9884 29.5836C30.3566 29.8644 29.5845 29.9345 28.8124 29.9345C27.0576 30.0047 25.2326 29.9345 23.4778 29.9345C23.3374 29.9345 23.1971 30.0749 22.9865 30.0749C22.8461 30.0749 22.6355 30.0749 22.5653 29.9345C22.4951 29.8644 22.5653 29.6538 22.6355 29.5836C23.6182 28.7413 23.7586 27.6182 23.7586 26.4249C23.6884 25.0913 23.7586 23.8278 23.7586 22.4942C23.7586 22.2134 23.6884 22.1432 23.4076 22.073C22.1442 21.8625 21.0211 20.8096 21.0211 19.3355C21.0211 18.423 21.0913 17.6509 21.7932 17.0192C22.0038 16.8086 22.2846 16.6682 22.4951 16.5981C22.7759 16.4577 22.9163 16.3875 22.6355 16.1769C22.5653 16.1067 22.5653 15.8961 22.5653 15.8259C22.6355 15.7557 22.7759 15.6856 22.9163 15.6856C23.4076 15.6856 23.8288 15.8259 24.3201 15.8259H26.6365C26.7768 15.8259 26.9172 15.7557 26.9172 15.6856C26.9874 15.6154 26.9172 15.475 26.847 15.3346C26.0047 14.0711 24.8115 13.3692 23.2672 13.3692H21.0211C20.7403 13.3692 20.5999 13.5096 20.5999 13.7904V21.3009C20.5298 22.2836 20.8807 23.1259 21.5124 23.8278C21.5826 23.898 21.723 23.9682 21.723 24.1086C21.723 24.249 21.7932 24.4596 21.723 24.5298C21.723 24.5999 21.4423 24.5298 21.3019 24.5298C21.0913 24.5298 20.9509 24.3894 20.7403 24.3894H18.9855C18.775 24.3894 18.4942 24.4596 18.2836 24.5298C18.1432 24.5298 17.9326 24.5298 17.9326 24.4596C17.8625 24.3894 17.9326 24.1788 17.9326 24.0384C18.0028 23.898 18.2134 23.7576 18.2836 23.6173C18.775 22.9855 19.0557 22.2836 18.9855 21.3711V13.7904C18.9855 13.5096 18.9153 13.3692 18.6346 13.3692H16.5288C14.774 13.299 13.5106 14.1413 12.5981 15.5452C12.7384 15.7557 12.949 15.7557 13.1596 15.8259C13.7211 15.9663 14.2125 16.1769 14.774 16.3173C14.9144 16.3875 15.0548 16.5279 15.2654 16.5279C15.4057 16.5981 15.6865 16.5981 15.8269 16.5279C17.6519 15.6856 19.0557 17.1596 19.0557 18.5634C19.0557 19.6163 18.9153 20.599 18.0028 21.3009C17.0903 22.0028 15.9673 22.073 14.8442 21.9326C14.7038 21.9326 14.4932 21.9326 14.3529 21.8625C14.3529 22.073 14.2827 22.073 14.2827 22.1432ZM13.0894 21.6519V21.5115C12.7384 21.3009 12.3875 21.0903 12.1067 20.8096C10.9134 19.6163 10.4923 18.2125 10.7731 16.5981C10.8433 16.3173 10.7029 16.2471 10.4221 16.2471H9.57979C8.80768 16.2471 8.73749 16.2471 8.73749 17.0192V27.1269C8.73749 28.5307 9.79037 29.1624 10.8433 29.2326C11.5452 29.3028 12.2471 29.3028 13.0192 29.2326C15.1952 29.1624 16.5288 27.2672 15.8971 25.1615C15.3355 23.2663 13.5105 22.1432 11.4048 22.3538C10.5625 22.424 10.0711 22.9855 10.2817 23.9682L10.4923 24.3894C10.6327 24.3192 10.7029 24.249 10.8433 24.1086C11.0538 23.898 11.4048 23.898 11.6856 24.1086C11.9663 24.3894 11.9663 24.5999 11.7557 24.8807C11.4048 25.3019 10.9836 25.0913 10.5625 24.9509C9.86056 24.7403 9.64999 24.1788 9.57979 23.4769C9.5096 22.8451 9.93075 22.424 10.4221 22.073C11.0538 21.6519 11.7557 21.6519 12.5279 21.6519C12.7384 21.7221 12.8788 21.7221 13.0894 21.6519ZM26.5663 21.7221C26.1451 21.7923 25.8643 21.8625 25.5836 22.0028C25.5134 22.0028 25.373 22.2134 25.373 22.2836V27.0567C25.373 28.3903 26.2153 29.2326 27.549 29.3028C28.3211 29.3028 29.023 29.3028 29.7951 29.2326C30.9182 29.1624 31.7605 28.5307 32.322 27.548C32.9537 26.4249 32.8836 25.2317 32.4624 24.0384C31.7605 22.1432 30.2163 20.95 28.2509 21.5115C27.198 21.7923 26.7768 22.4942 26.9874 23.5471C26.9874 23.6874 27.1278 23.8278 27.198 23.898C27.2682 23.8278 27.4086 23.7576 27.4788 23.6173C27.6893 23.4067 27.8999 23.2663 28.1807 23.3365C28.5316 23.4769 28.672 23.7576 28.672 24.1086C28.672 24.3894 28.5316 24.6701 28.2509 24.7403C27.7595 24.8105 27.2682 24.7403 26.9172 24.3894C26.2855 23.7576 26.1451 22.8451 26.4961 22.0028C26.5663 21.9326 26.5663 21.8625 26.5663 21.7221ZM25.4432 18.9144C25.373 18.9144 25.373 18.9144 25.4432 18.9144V20.8798C25.4432 21.1605 25.5836 21.2307 25.7942 21.0903C26.0749 20.95 26.2855 20.8096 26.5663 20.599C27.4086 19.8971 27.6192 18.8442 27.6893 17.8615C27.7595 17.4404 27.6893 17.0894 27.6192 16.6682C27.6192 16.4577 27.4788 16.2471 27.198 16.2471L25.724 16.4577C25.5134 16.5279 25.4432 16.6682 25.4432 16.8788V18.9144ZM12.5279 17.3702H12.4577C12.5981 18.0019 12.6682 18.7038 12.8086 19.3355C12.949 19.8971 13.3 20.3884 13.7913 20.7394C14.3529 21.1605 14.3529 21.0903 14.774 20.599C15.3355 19.9673 15.3355 19.3355 14.9846 18.6336C14.9144 18.5634 14.8442 18.423 14.9144 18.2827C15.0548 17.7913 14.774 17.4404 14.423 17.1596C14.1423 16.949 13.8615 16.7384 13.5106 16.6682C12.5981 16.3173 12.5279 16.3173 12.5981 17.2298C12.5279 17.3 12.5279 17.3 12.5279 17.3702ZM23.899 19.8971C23.899 19.5461 23.8288 19.125 23.8288 18.7038C23.8288 18.423 23.8288 18.1423 23.7586 17.8615C23.6884 17.5105 23.548 17.0894 23.2672 16.8788C23.1971 16.7384 22.7057 16.8788 22.4951 17.0192C22.2846 17.1596 22.0038 17.4404 21.9336 17.6509C21.7932 18.0721 21.723 18.5634 21.723 19.0548C21.723 20.1778 22.4249 20.95 23.4778 21.2307C23.7586 21.3009 23.899 21.1605 23.899 20.8798V19.8971ZM15.9673 17.0192C15.9673 17.0894 15.9673 17.1596 16.0375 17.1596C17.0903 18.4932 17.0903 19.7567 15.8971 21.0903C15.8269 21.1605 15.8269 21.2307 15.7567 21.3711C15.7567 21.4413 15.8269 21.4413 15.8269 21.5115C16.248 21.3711 16.7394 21.3711 17.1605 21.1605C18.5644 20.4586 18.7048 18.8442 18.1432 17.7211C17.7923 16.8086 16.7394 16.5981 15.9673 17.0192Z" fill="#BD0D31"/>
</svg>
