<svg width="40" height="40" viewBox="0 0 40 40" fill="none" xmlns="http://www.w3.org/2000/svg">
<path d="M16.3449 30.7069H8.55172V27.4138H16.3276V30.7069H16.3449ZM17.9138 25.7586H7V34H8.55172V32.3449H17.8793V25.7586H17.9138ZM8.55172 10.9483L11.6724 7.65517V19.1897H8.55172V10.9483ZM7 20.8276H13.2069V6H10.8966L7 10.1207V20.8276ZM16.3449 7.65517H19.4655V19.1897H16.3449V7.65517ZM14.7931 20.8276H21V6H14.7931V20.8276ZM31.8793 20.8276H33.431V6H31.0862V6.01724L28.7414 8.48276V6H26.3966L22.5345 10.1207V20.8276H24.0862V10.9483L27.2069 7.65517V20.8276H28.7586V10.9483L31.8793 7.65517V20.8276ZM7 24.1207H33.4482V22.4655H7V24.1207ZM27.2241 27.4138H31.8793V30.7069H27.2241V27.4138ZM25.6724 30.7069H21V27.4138H25.6724V30.7069ZM27.2241 32.3449H33.4482V25.7586H19.4655V32.3449H25.6724V34H27.2241V32.3449Z" fill="#384249"/>
</svg>
