<svg width="40" height="40" viewBox="0 0 40 40" fill="none" xmlns="http://www.w3.org/2000/svg">
<path fill-rule="evenodd" clip-rule="evenodd" d="M14.307 8H19.4522L24.8135 19.8419C27.2486 20.1757 31.9421 22.6305 33.415 25.6941C34.8879 28.7576 33.3365 31.2124 31.4512 31.7623C28.8197 32.6853 26.4434 31.7623 24.8135 28.7576C23.7708 26.8356 22.9862 24.9912 22.3478 23.4904C21.8213 22.2527 21.3942 21.2487 21.0036 20.6274C18.6143 20.8958 13.6393 22.3163 10.8506 27.9917L10.2811 29.7788C10.8871 30.6718 11.6009 30.6412 12.0336 30.6226C12.1339 30.6183 12.219 30.6147 12.2842 30.6233V31.5659H6C6.30767 29.7919 7.72841 25.7678 10.615 23.4357C14.091 20.6274 15.9959 19.9793 20.4734 19.3706L16.585 10.337C16.4279 9.846 15.7916 8.86801 14.739 8.96227H14.307V8ZM25.1473 20.7845C32.276 22.4538 35.265 28.4399 31.9618 29.7396C29.628 30.6578 28.0154 27.0814 27.1241 25.1046C27.0179 24.8691 26.9219 24.6563 26.8362 24.4765C26.7972 24.3946 26.7502 24.2966 26.6968 24.1853C26.3119 23.3823 25.5958 21.8884 25.1473 20.7845Z" fill="#941F33"/>
</svg>
