<svg width="40" height="40" viewBox="0 0 40 40" fill="none" xmlns="http://www.w3.org/2000/svg">
<path d="M4 27.9928L8.4697 30.9954C11.0863 30.5107 22.2392 28.2029 22.2392 24.2738C22.2392 21.3269 18.9705 19.3665 16.0837 17.6378C13.7802 16.2566 11.7941 15.0641 11.7941 13.5885C11.7941 11.9971 13.1796 10.6888 15.8006 9.80944C16.385 9.61563 16.9792 9.4524 17.5807 9.32043C15.1871 9.64644 10.7174 10.6502 10.7174 13.6486C10.7174 17.8566 19.9313 19.448 19.9313 23.8062C19.9271 27.2249 4 27.9928 4 27.9928Z" fill="#194A81"/>
<path d="M13.244 13.387C13.244 11.4052 15.4273 10.2513 17.156 9.58215C14.8869 10.1141 12.0515 11.298 12.0515 13.5929C12.0515 14.9183 13.9817 16.0765 16.2209 17.4148C19.1678 19.1821 22.5051 21.181 22.5051 24.2781C22.5051 26.247 20.0472 28.0357 15.2129 29.6014C13.1015 30.2633 10.953 30.8004 8.77856 31.21L12.386 33.6421C12.386 33.6421 24.5898 30.0818 24.5898 25.076C24.5898 16.8915 13.244 16.1837 13.244 13.387Z" fill="#194A81"/>
<path d="M24.5596 11.4441C24.5596 12.0129 24.3337 12.5584 23.9315 12.9607C23.5292 13.3629 22.9837 13.5889 22.4149 13.5889H21.7929V14.6226H22.4449C23.285 14.6226 24.0908 14.2889 24.6849 13.6948C25.279 13.1007 25.6127 12.295 25.6127 11.4548C25.6127 10.6147 25.279 9.8089 24.6849 9.21482C24.0908 8.62074 23.285 8.28699 22.4449 8.28699H19.2664V15.8923H20.3001V12.791V9.31647H22.4449C23.0056 9.32431 23.5409 9.55139 23.9362 9.94907C24.3314 10.3467 24.5552 10.8834 24.5596 11.4441Z" fill="#194A81"/>
<path d="M22.445 7H17.9839V15.8922H19.0134V8.03378H22.445C23.2915 8.11875 24.0764 8.51516 24.6471 9.14608C25.2179 9.77701 25.534 10.5975 25.534 11.4482C25.534 12.299 25.2179 13.1195 24.6471 13.7504C24.0764 14.3813 23.2915 14.7777 22.445 14.8627H21.793V15.8965H22.445C23.0292 15.8965 23.6076 15.7814 24.1473 15.5579C24.687 15.3343 25.1773 15.0067 25.5904 14.5936C26.0035 14.1806 26.3312 13.6902 26.5547 13.1505C26.7783 12.6108 26.8933 12.0324 26.8933 11.4482C26.8933 10.8641 26.7783 10.2857 26.5547 9.74597C26.3312 9.20629 26.0035 8.71592 25.5904 8.30286C25.1773 7.8898 24.687 7.56215 24.1473 7.3386C23.6076 7.11506 23.0292 7 22.445 7Z" fill="#194A81"/>
<path d="M30.3122 22.721V17.2133C30.32 16.6698 30.1186 16.1442 29.7498 15.745C29.3809 15.3459 28.8728 15.1036 28.3304 15.0685C28.0542 15.0595 27.7789 15.1062 27.521 15.2056C27.2631 15.3051 27.0278 15.4554 26.8291 15.6476C26.6257 15.8432 26.4635 16.0776 26.3522 16.3369C26.241 16.5963 26.1829 16.8753 26.1814 17.1575V22.7339H27.2366V17.1575C27.2372 17.0169 27.267 16.8781 27.3242 16.7497C27.3814 16.6213 27.4647 16.5062 27.5688 16.4118C27.673 16.3174 27.7956 16.2457 27.9289 16.2013C28.0622 16.1568 28.2034 16.1407 28.3433 16.1538C28.5966 16.1824 28.8302 16.3039 28.9989 16.495C29.1677 16.6859 29.2597 16.9326 29.2569 17.1875V22.7639L30.3122 22.721Z" fill="#194A81"/>
<path d="M34.696 22.7211V17.2133C34.697 16.6746 34.4918 16.1558 34.1225 15.7633C33.7532 15.3709 33.2479 15.1346 32.71 15.1029C32.4324 15.0925 32.1556 15.1382 31.896 15.2372C31.6365 15.3362 31.3996 15.4864 31.1994 15.679C30.9992 15.8716 30.8398 16.1025 30.7309 16.358C30.622 16.6136 30.5656 16.8884 30.5652 17.1662V22.7425H31.6248V17.1662C31.6197 17.0216 31.6457 16.8776 31.7009 16.744C31.7562 16.6103 31.8395 16.49 31.9452 16.3912C32.0509 16.2925 32.1766 16.2175 32.3136 16.1714C32.4507 16.1252 32.5961 16.109 32.74 16.1238C32.9933 16.1525 33.2269 16.2741 33.3956 16.465C33.5645 16.656 33.6564 16.9028 33.6537 17.1576V22.7339L34.696 22.7211Z" fill="#194A81"/>
<path d="M32.6927 13.829C31.8662 13.8113 31.0625 14.1001 30.4364 14.6397C29.81 14.1004 29.0065 13.8117 28.1801 13.829C27.2917 13.8612 26.4504 14.237 25.8335 14.8771C25.2166 15.5171 24.8722 16.3717 24.8728 17.2607V22.7213H25.928V17.2178C25.9251 16.6094 26.1574 16.0234 26.5762 15.5823C26.9951 15.1411 27.5681 14.8787 28.1758 14.8499C28.6187 14.8377 29.056 14.9524 29.436 15.1803C29.816 15.4084 30.1228 15.7402 30.3206 16.1368L30.445 16.3856L30.5694 16.1368C30.8006 15.6704 31.1827 15.296 31.6536 15.0742C32.1245 14.8524 32.6566 14.7963 33.1634 14.9151C33.6702 15.0338 34.122 15.3204 34.4453 15.7283C34.7687 16.1362 34.9447 16.6415 34.9447 17.162V22.7384H35.9999V17.2649C36.0016 16.3752 35.6577 15.5196 35.0407 14.8786C34.4237 14.2376 33.5818 13.8613 32.6927 13.829Z" fill="#194A81"/>
</svg>
