<svg width="40" height="40" viewBox="0 0 40 40" fill="none" xmlns="http://www.w3.org/2000/svg">
<path fill-rule="evenodd" clip-rule="evenodd" d="M17.7255 34H17.2912L16.8234 33.9666L16.389 33.9332L15.9547 33.8998L15.5537 33.8329L15.1193 33.7661L14.7184 33.6659L14.3174 33.5656L13.9165 33.432L13.5155 33.2983L13.1146 33.1647L12.747 33.031L12.3795 32.864L12.0119 32.6635L11.6778 32.463L11.3103 32.2625L10.9761 32.0621L10.642 31.8282L10.3079 31.5943L10.0072 31.327L9.67303 31.0597L9.37231 30.7924L9.10501 30.4916L8.83771 30.1909L8.57041 29.8902L8.3031 29.5561L8.06921 29.2554L7.83532 28.9212L7.60143 28.5537L7.40095 28.2196L7.20048 27.852L7.03341 27.4845L7 27.4511H7.03341L11.21 24.1432L11.3103 24.3771L11.4105 24.6778L11.5442 24.9117L11.6444 25.179L11.778 25.4129L11.9451 25.6468L12.0788 25.8807L12.2458 26.1146L10.1408 27.7852L10.3079 28.0191L10.4749 28.253L10.6754 28.4535L10.8425 28.6874L11.043 28.8878L11.2434 29.0883L11.4773 29.2554L11.6778 29.4559L11.9117 29.6229L12.1456 29.79L12.3795 29.957L12.6134 30.1241L12.8473 30.2578L13.1146 30.3914L13.3484 30.5251L13.6158 30.6587L13.8831 30.759L14.1169 30.8926L14.3842 30.9928L14.685 31.0931L14.9523 31.1599L15.2196 31.2601L15.4869 31.327L15.7876 31.3938L16.0549 31.4272L16.3556 31.494L16.6563 31.5274L16.9236 31.5609L17.2243 31.5943L17.5251 31.6277H17.7924H18.3938H18.6945L18.9952 31.5943L19.2959 31.5609L19.5632 31.5274L19.864 31.494L20.1647 31.4272L20.4654 31.3938L20.7327 31.327L21.0334 31.2601L21.3007 31.1933L21.6014 31.0931L21.8687 31.0263L22.1695 30.926L22.4368 30.8258L22.7041 30.7255L23.0048 30.5919L23.2721 30.4916L23.5394 30.358L23.8067 30.2243L24.074 30.0907L24.3413 29.9236L24.5752 29.79L24.8425 29.6229L25.1098 29.4893L25.3437 29.3222L25.5776 29.1551L25.8449 28.9881L26.0788 28.7876L26.3127 28.5871L26.5465 28.4201L26.7804 28.2196L26.9809 28.0191L27.2148 27.8186L27.4487 27.6181L27.6492 27.3843L27.8496 27.1838L28.0501 26.9499L28.2506 26.716L28.4511 26.4821L28.6516 26.2816L28.8186 26.0143L29.0191 25.7804L29.1862 25.5465L29.3532 25.2792L29.5203 25.0453L29.6539 24.778L29.821 24.5442L29.9547 24.2434L30.1217 24.0095L30.2554 23.7422L30.389 23.4749L30.4893 23.1742L30.6229 22.9069L30.7232 22.6396L30.8234 22.3389L30.9236 22.0716L31.0239 21.7709L31.1241 21.4702L31.1909 21.2029L31.2578 20.9022L31.3246 20.6014L31.3914 20.3007L31.4248 20L31.5251 19.4988L31.5585 18.9976L31.5919 18.463V17.9618L31.5585 17.4606L31.5251 16.9594L31.4248 16.4916L31.358 15.9905L31.2243 15.5227L31.0907 15.0549L30.9236 14.5871L30.7566 14.1527L30.5561 13.7184L30.3222 13.284L30.0883 12.8831L29.8544 12.4821L29.5537 12.0812L29.253 11.7136L28.9523 11.3795L28.6181 11.0453L28.284 10.7112L27.9165 10.4105L27.5489 10.1098L27.148 9.84248L26.747 9.60859L26.3127 9.40812L25.8783 9.20764L25.4105 9.00716L24.9427 8.8401L24.4749 8.70645L23.9737 8.6062L23.4726 8.53938L23.2721 8.50597L23.0382 8.47255L22.8377 8.43914H22.6372L22.4033 8.40573H22.1695H21.4344H21.1337L20.7995 8.43914L20.4988 8.47255L20.1981 8.50597L19.8974 8.53938L19.5632 8.6062L19.2625 8.67303L18.9618 8.73986L18.6611 8.80668L18.3604 8.87351L18.0597 8.97375L17.7924 9.07399L17.4916 9.17422L17.1909 9.30787L16.8902 9.40812L16.6229 9.54177L16.3222 9.67542L16.0215 9.80907L15.7208 9.97613L15.4535 10.1098L15.1527 10.3103L14.8854 10.4773L14.6181 10.6444L14.3174 10.8449L14.0501 11.0119L13.7828 11.2124L13.5489 11.4129L13.2816 11.6134L13.0143 11.8473L12.7804 12.0477L12.5465 12.2816L14.1504 13.9523L13.9165 14.1862L13.6826 14.3866L13.4821 14.6539L13.2816 14.8878L13.0811 15.1217L12.8807 15.3556L12.6802 15.6229L12.5131 15.8902L9.37231 12.5489V12.5155L9.67303 12.148L9.97375 11.8138L10.3079 11.4463L10.642 11.1122L10.9761 10.778L11.3103 10.4439L11.6778 10.1098L12.0119 9.80907L12.3795 9.50835L12.7804 9.24105L13.148 8.97375L13.5489 8.70645L13.9499 8.43914L14.3508 8.20525L14.7518 7.97136L15.1862 7.73747L15.5871 7.537L15.9881 7.33652L16.389 7.16945L16.8234 7.00239L17.2578 6.86874L17.6587 6.70167L18.0931 6.60143L18.5274 6.46778L18.9618 6.36754L19.4296 6.2673L19.864 6.20048L20.2983 6.13365L20.7661 6.10023L21.2005 6.03341H21.6683L22.1026 6L22.3699 6.03341H22.6372H22.9045L23.1718 6.06683L23.4391 6.10023L23.673 6.13365L23.9403 6.16706L24.2076 6.20048L24.4749 6.23389L24.7422 6.30071L25.0095 6.33413L25.2434 6.40096L25.5107 6.46778L25.778 6.53461L26.0119 6.63484L26.2792 6.70167L26.5131 6.80191L26.7804 6.86874L27.0143 6.96897L27.2482 7.10262L27.4821 7.20287L27.716 7.3031L27.9499 7.43675L28.1504 7.57041L28.3842 7.67064L28.6181 7.80429L28.8186 7.93794L29.0191 8.10501L29.253 8.23867L29.4535 8.37232L29.6539 8.53938L29.821 8.70645L30.0215 8.8401L30.222 9.04058L30.389 9.20764L30.5895 9.3747L30.7566 9.54177L30.9236 9.74225L31.0907 9.90931L31.2578 10.1098L31.4582 10.3771L31.6587 10.6444L31.8592 10.9117L32.0597 11.179L32.2267 11.4463L32.3938 11.747L32.5609 12.0477L32.6945 12.3484L32.8616 12.6157L32.9952 12.9165L33.0955 13.2506L33.2291 13.5513L33.3294 13.852L33.4296 14.1527L33.5298 14.4535L33.5967 14.7876L33.6635 15.1217L33.7303 15.4224L33.7971 15.7566L33.8306 16.0907L33.8974 16.3914L33.9308 16.7255V17.0597L33.9642 17.3938V18.3628L33.9308 18.6969V19.031L33.8974 19.3652L33.8306 19.6993L33.7971 20L33.7303 20.3675L33.6635 20.7351L33.5967 21.1026L33.4964 21.4368L33.3962 21.8043L33.2959 22.1384L33.1957 22.4726L33.0621 22.8401L32.9618 23.1742L32.8282 23.5084L32.6611 23.8425L32.5274 24.1766L32.3604 24.5107L32.1933 24.8115L32.0263 25.1456L31.8592 25.4463L31.6587 25.747L31.4917 26.0812L31.2912 26.3819L31.0907 26.6826L30.8568 26.9833L30.6563 27.284L30.4224 27.5513L30.1885 27.8186L29.9547 28.1193L29.7208 28.3866L29.4869 28.6539L29.2196 28.9212L28.9857 29.1551L28.7184 29.4224L28.4511 29.6563L28.1838 29.8902L27.9165 30.1575L27.6158 30.358L27.3484 30.5919L27.0477 30.7924L26.747 31.0263L26.4797 31.2267L26.179 31.4272L25.8449 31.6277L25.5442 31.7948L25.2434 31.9952L24.9093 32.1623L24.6086 32.3294L24.2745 32.463L23.9737 32.6301L23.6396 32.7637L23.3055 32.8974L22.9714 33.031L22.6372 33.1647L22.3031 33.2649L21.969 33.3652L21.6014 33.4654L21.2673 33.5656L20.9332 33.6325L20.5656 33.7327L20.2315 33.7995L19.864 33.8329L19.5298 33.8998L19.1623 33.9332L18.7948 33.9666L18.4606 34H18.0931H17.7255Z" fill="#9F2A2F"/>
<path fill-rule="evenodd" clip-rule="evenodd" d="M18.9952 25.8138L19.3293 25.7804H19.6634L19.9976 25.7136L20.2983 25.6468L20.6324 25.5799L20.9331 25.4797L21.2339 25.3795L21.5346 25.2458L21.8687 25.1122L22.1694 24.9451L22.4367 24.778L22.7374 24.5775L23.0047 24.3771L23.272 24.1432L23.5393 23.9093L23.7732 23.6754L23.8401 23.6086L23.9403 23.4749L24.0071 23.4081L24.0405 23.3413L15.7541 23.3747L15.6873 23.241L15.5871 23.1408L15.5203 23.0071L15.4534 22.8735L15.3198 22.6062L15.1861 22.3389L15.1193 22.0382L15.0191 21.7709L14.9856 21.4367L14.9522 21.136H27.7828L27.7494 21.1694L27.6491 21.537L27.5155 21.9379L27.3484 22.2721L27.1813 22.6396L27.0143 22.9737L26.8138 23.3078L26.6133 23.642L26.4129 23.9761L26.179 24.2768L25.9117 24.5775L25.6778 24.8783L25.4105 25.1456L25.1432 25.4463L24.8424 25.6802L24.5417 25.9475L24.241 26.1814L23.9403 26.4153L23.6396 26.6491L23.3055 26.8496L22.9713 27.0167L22.6372 27.2172L22.3031 27.3842L21.9689 27.5179L21.6014 27.6515L21.2339 27.7852L20.8663 27.8854L20.5322 27.9857L20.1312 28.0525L19.7637 28.1193L19.3961 28.1527L19.0286 28.1861H18.6277H18.3269L18.0262 28.1527L17.7255 28.1193L17.4248 28.0859L17.1241 28.0525L16.7899 27.9522L16.4892 27.8854L16.2219 27.7852L15.9212 27.6849L15.6539 27.5847L15.3532 27.4511L15.0859 27.284L14.852 27.1503L14.5847 26.9833L14.3508 26.8162L14.1169 26.6157L13.9164 26.4487L13.6825 26.2482L13.4821 26.0143L13.2816 25.7804L13.1145 25.5799L12.9475 25.346L12.7804 25.0787L12.6133 24.8448L12.4797 24.5775L12.346 24.3102L12.2458 24.0429L12.1121 23.7422L12.0453 23.4749L11.9451 23.1742L11.8782 22.8735L11.8114 22.5728L11.778 22.2386L11.7446 21.9379L11.7112 21.6038V21.2697V20.9689L11.7446 20.6682L11.778 20.3341L11.8114 20L11.8782 19.599L11.9785 19.1647L12.1121 18.7637L12.2458 18.3627L12.3794 17.9618L12.5465 17.5943L12.747 17.1933L12.9475 16.8257L13.1813 16.4916L13.4152 16.1241L13.6491 15.7899L13.9164 15.4558L14.1837 15.1217L14.4845 14.821L14.7852 14.5203L15.0859 14.2195L15.42 13.9522L15.7541 13.7184L16.0883 13.4845L16.4558 13.2506L16.8234 13.0167L17.1909 12.8162L17.5584 12.6491L17.9594 12.4821L18.3269 12.3484L18.7279 12.2148L19.1288 12.1145L19.5298 12.0143L19.9642 11.9475L20.3651 11.8806L20.7661 11.8472H21.2004H21.568L21.9355 11.8806L22.3031 11.9141L22.6706 11.9809L23.0047 12.0477L23.3389 12.1479L23.673 12.2482L23.9737 12.3818L24.3078 12.5155L24.6086 12.6491L24.8759 12.8162L25.1766 12.9833L25.4439 13.1837L25.7112 13.3842L25.9451 13.6181L26.179 13.852L26.4129 14.0859L26.6133 14.3198L26.8138 14.5871L27.0143 14.8878L27.1813 15.1551L27.3484 15.4558L27.5155 15.7565L27.6157 16.0907L27.7494 16.3914L27.8496 16.7255L27.9498 17.0596L28.0167 17.3938L28.0501 17.7613L28.1169 18.1288V18.463V18.8974H15.2864L15.42 18.5632L15.5871 18.2625L15.7541 17.9618L15.9546 17.6945L16.1217 17.4272L16.3556 17.1599L16.5895 16.926L16.8234 16.6587H25.1098L25.0095 16.525L24.9427 16.3914L24.8424 16.2577L24.7756 16.1241L24.6754 16.0238L24.5751 15.8902L24.4749 15.7565L24.3747 15.6563L24.1408 15.4224L23.9069 15.2219L23.6396 15.0549L23.4057 14.8878L23.105 14.7542L22.8043 14.6205L22.5035 14.4868L22.1694 14.3866L21.8687 14.3198L21.5346 14.253L21.167 14.2195H20.8329H20.5322L20.2315 14.253L19.9308 14.2864L19.6634 14.3532L19.3627 14.3866L19.0954 14.4868L18.7947 14.5871L18.5274 14.6873L18.2601 14.7876L17.9928 14.9212L17.7255 15.0549L17.4582 15.2219L17.2243 15.389L16.957 15.5561L16.7231 15.7231L16.4892 15.9236L16.2887 16.1241L16.0549 16.3246L15.8544 16.5584L15.6539 16.7923L15.4868 17.0262L15.2864 17.2601L15.1193 17.5274L14.9856 17.7613L14.8186 18.0286L14.7183 18.2959L14.5847 18.5632L14.4845 18.8639L14.3842 19.1312L14.284 19.432L14.2171 19.7327L14.1837 20L14.1503 20.2673L14.1169 20.4678V20.7016V21.136V21.3699L14.1503 21.6038L14.1837 21.8377L14.2171 22.0382L14.284 22.2386L14.3174 22.4725L14.3842 22.673L14.4845 22.8735L14.5513 23.074L14.6515 23.241L14.7518 23.4415L14.852 23.6086L14.9856 23.7756L15.0859 23.9427L15.2195 24.1098L15.42 24.3102L15.5871 24.5107L15.7876 24.7112L16.0214 24.8448L16.2219 25.0119L16.4558 25.1456L16.6897 25.2792L16.9236 25.3795L17.1575 25.4797L17.4248 25.5799L17.6587 25.6468L17.926 25.6802L18.1933 25.747L18.4606 25.7804H18.7279L18.9952 25.8138Z" fill="#9F2A2F"/>
</svg>
