<svg width="40" height="40" viewBox="0 0 40 40" fill="none" xmlns="http://www.w3.org/2000/svg">
<path d="M19.9965 6C12.2653 6 6 12.276 6 20.0035C6 27.7347 12.2653 34 19.9965 34C27.7213 34 33.9914 27.7347 33.9914 20.0035C33.9914 12.276 27.7213 6 19.9965 6ZM21.5157 33.1523L23.4947 28.4079H21.1394C19.9342 28.4079 19.5191 27.5404 19.8032 26.7685L23.1358 18.4972C23.1358 18.4972 23.4417 17.8665 22.8892 17.5565C22.2897 17.217 21.9682 17.8396 21.9682 17.8396L15.8855 27.4307C15.717 27.7138 15.1552 28.4181 14.2463 28.0122C13.3337 27.6 13.6227 26.6529 13.6908 26.5018L16.8799 18.912C16.8799 18.912 17.2044 18.1794 16.8627 17.6334C16.546 17.1237 16.1647 17.0678 15.7902 17.0525H14.075L11.7082 22.6486L11.7554 14.3213L18.6155 6.42369L16.4102 11.6964C16.4102 11.6964 18.3314 11.6964 19.1255 11.6964C19.5223 11.6964 19.8965 11.9007 20.1076 12.2424C20.3076 12.5669 20.3587 13.0124 20.142 13.5275L16.7318 21.7969C16.624 22.0402 16.5815 22.4986 17.0686 22.7177C17.5528 22.9559 17.88 22.5601 17.9348 22.455L23.8912 12.7908C24.2955 12.1279 24.8883 11.7504 25.6018 12.0921C26.4556 12.5032 26.2449 13.3562 26.1494 13.6388L23.1185 21.249C22.4897 22.7989 23.7132 23.0586 24.2482 23.0586C24.5294 23.0586 25.6596 23.0586 25.6596 23.0586L27.9775 17.3874L28.1477 25.8461L21.5157 33.1523Z" fill="#00609D"/>
</svg>
