<svg width="40" height="40" viewBox="0 0 40 40" fill="none" xmlns="http://www.w3.org/2000/svg">
<path fill-rule="evenodd" clip-rule="evenodd" d="M6 6C12.7709 6 19.4909 6 26.2618 6C28.8582 6 31.4545 6 34.0509 6C34.0509 15.3164 34.0509 24.6836 34.0509 34C30.7418 34 27.4327 34 24.1745 34C18.1164 34 12.0582 34 6 34C6 24.6836 6 15.3673 6 6ZM7.47636 7.47636C7.47636 15.8255 7.47636 24.2254 7.47636 32.5745C15.8255 32.5745 24.2255 32.5745 32.5745 32.5745C32.5745 24.2254 32.5745 15.8255 32.5745 7.47636C24.2255 7.47636 15.8764 7.47636 7.47636 7.47636ZM15.3164 13.7382C13.3309 13.7382 11.3964 13.7891 9.41091 13.7891C9.25818 13.7891 9.05454 13.7891 8.95272 13.9418C8.85091 14.0436 8.85091 14.1964 8.85091 14.2982C8.90182 14.2982 8.95273 14.3491 9.00364 14.4C10.48 14.4 11.9055 14.4 13.3818 14.4C13.5855 14.4 13.7382 14.3491 13.9418 14.3491C14.4509 14.2982 14.9091 14.3491 15.4182 14.2982C16.5891 14.2982 17.8109 14.2982 18.9818 14.2982C19.1345 14.2982 19.2873 14.2473 19.44 14.2473C20.0509 14.3491 20.6109 14.2473 21.2218 14.3491C22.1382 14.3491 23.0545 14.2982 24.0218 14.4C24.9382 14.4 25.9055 14.5018 26.8218 14.6036C27.5855 14.5018 28.3491 14.6036 29.0618 14.6545C29.6218 14.7564 30.2327 14.7054 30.7927 14.7054C30.9455 14.7054 31.0473 14.5527 31.2 14.4509C31.2 14.2982 31.2 14.1454 31.2 13.9927C31.0473 13.8909 30.8436 13.84 30.6909 13.84C30.1818 13.8909 29.6727 13.7891 29.1636 13.7891C27.3818 13.7891 25.6 13.84 23.8182 13.7382C22.4945 13.6364 21.12 13.7382 19.7455 13.6364C18.88 13.6364 18.0655 13.6873 17.2 13.6873C16.5891 13.6873 15.9273 13.6873 15.3164 13.7382ZM27.0764 16.5382V16.5891C26.6691 16.7418 26.2618 16.9964 25.9055 17.2509C25.5491 17.6073 25.1418 18.0145 24.9891 18.5236C24.7855 19.0327 24.8364 19.5418 24.7345 20.0509C24.7345 20.4073 24.6836 20.7636 24.5818 21.12C24.6327 21.1709 24.6327 21.2218 24.6327 21.3236C24.6327 21.8836 24.6836 22.4436 24.6327 23.0036C24.6327 23.0036 24.5818 23.0545 24.5309 23.1054C24.7345 23.36 24.6836 23.7164 24.7345 24.0218C24.6836 24.7345 24.7345 25.4473 24.7855 26.16C24.7855 26.3636 24.8873 26.5673 24.9891 26.72C25.2436 26.72 25.2436 26.4145 25.1927 26.2109C25.1927 25.2945 25.1927 24.3273 25.1927 23.4109C25.0909 22.1891 25.1927 21.0182 25.2945 19.7964C25.3964 19.5418 25.3964 19.2364 25.3964 18.9309C25.6 18.6255 25.6509 18.2182 25.9055 17.9636C26.0073 17.8618 26.1091 17.76 26.2109 17.6582C26.4145 17.4545 26.6691 17.4036 26.9236 17.2509C26.9745 17.2509 27.0764 17.2509 27.1273 17.2509C27.1782 17.2 27.2291 17.2 27.3309 17.1491C27.7891 17.1491 28.1964 17.0473 28.6545 17.2C28.7564 17.3018 28.8582 17.3018 29.0109 17.3527C29.1127 17.4545 29.2655 17.5054 29.3673 17.5564C29.6218 17.8109 29.7236 18.1673 29.8764 18.5236C29.9273 18.6764 29.9273 18.88 30.0291 19.0327C30.08 19.1854 30.0291 19.44 30.1818 19.5418C30.1818 19.7454 30.1818 19.9491 30.2327 20.1527C30.2327 20.56 30.2327 20.9673 30.2836 21.3745C30.2836 21.5273 30.2327 21.68 30.2327 21.8327C30.2836 22.0873 30.2836 22.3418 30.2327 22.5964C30.1818 22.8 30.3345 22.9527 30.3855 23.1054C30.3345 23.4109 30.2327 23.7164 30.3345 24.0218C30.3855 24.0218 30.4364 24.0727 30.4364 24.0727C30.3855 24.1236 30.3345 24.2254 30.2836 24.2254C30.2836 24.48 30.2836 24.6836 30.2836 24.9382C30.2836 24.9382 30.2327 24.9891 30.1818 25.04C30.2327 25.0909 30.2836 25.1418 30.2836 25.1927C30.2836 25.2436 30.2327 25.2945 30.1818 25.2945C30.2327 25.3964 30.3345 25.4982 30.2836 25.6C30.2327 25.7018 30.2836 25.9564 30.1309 25.9564C30.1818 26.1091 30.1818 26.3127 30.1818 26.4654C30.1818 26.5673 30.3345 26.5673 30.3855 26.5673C30.3855 26.5673 30.3855 26.6182 30.3855 26.6691C30.5382 26.6182 30.6909 26.6182 30.8436 26.6182C30.9455 25.9564 30.8436 25.2436 30.8945 24.5818C30.9455 24.0218 30.8945 23.4618 30.8945 22.8509C30.8945 22.1382 30.8436 21.4764 30.8436 20.7636C30.7927 20.2545 30.7927 19.7455 30.6909 19.2364C30.64 18.88 30.5891 18.4727 30.4364 18.1673C30.3345 17.76 30.0291 17.4545 29.7745 17.1491C29.52 16.8945 29.2145 16.7927 28.9091 16.64C28.5527 16.4873 28.1455 16.5891 27.7891 16.4873C27.5855 16.5382 27.3309 16.5382 27.0764 16.5382Z" fill="#E46714"/>
<path fill-rule="evenodd" clip-rule="evenodd" d="M12.3637 16.2837C12.5673 16.3346 12.7709 16.3855 12.9746 16.3346C13.3309 16.3346 13.6364 16.4873 13.9418 16.6401C14.4 16.8437 14.7055 17.251 14.96 17.6582C15.0618 17.9637 15.2146 18.2182 15.2655 18.5237C15.4691 19.491 15.52 20.5092 15.52 21.5273C15.5709 22.0364 15.5709 22.5964 15.5709 23.1055C15.5709 23.5128 15.5709 23.9201 15.5709 24.3273C15.52 25.0401 15.6218 25.7019 15.52 26.4146C15.3673 26.4146 15.2146 26.4146 15.0618 26.4655C15.0618 26.3637 14.9091 26.3637 14.8073 26.3128C14.8073 26.1601 14.8073 26.0073 14.7564 25.9055L14.8073 25.8546C14.8073 25.8546 14.7564 25.8037 14.7055 25.7528C14.7564 25.7528 14.8073 25.8037 14.8582 25.8037C14.8582 25.651 14.9091 25.4982 14.96 25.2946C14.96 25.1928 14.8582 25.1419 14.8073 25.0401H14.9091C14.9091 24.9892 14.9091 24.9382 14.9091 24.8873C14.8582 24.8873 14.8073 24.8364 14.8073 24.7855C14.8073 24.7855 14.8582 24.7346 14.9091 24.6837C14.9091 24.4291 14.9091 24.2255 14.8582 23.971C14.96 23.971 15.0109 23.9201 15.0109 23.8182C14.8582 23.7673 14.9091 23.6655 14.9091 23.5637C14.9091 23.5637 14.8582 23.5637 14.8073 23.5637C14.8582 23.411 14.8582 23.2582 14.8582 23.0546C15.0109 23.0037 14.9091 22.9019 14.9091 22.8001C14.8073 22.6982 14.7564 22.5455 14.7564 22.4437C14.7564 22.3419 14.8073 22.1891 14.8582 22.0873C14.8073 21.8328 14.7564 21.5273 14.8073 21.2728C14.8073 21.0692 14.7055 20.8655 14.8073 20.611C14.6546 20.3564 14.9091 20.0001 14.7055 19.7964C14.7055 19.7455 14.7564 19.6946 14.7564 19.6946C14.7055 19.5928 14.7055 19.491 14.7564 19.3891C14.6546 19.2873 14.6037 19.1346 14.6546 19.0328C14.6037 18.931 14.6036 18.8291 14.5527 18.7782C14.5527 18.5237 14.4509 18.2691 14.2982 18.0146C14.1964 17.7601 14.0436 17.4546 13.7382 17.3528C13.5855 17.2001 13.3818 17.2001 13.2291 17.0473C13.0764 16.9964 12.9236 16.9455 12.7709 16.9455C12.5164 16.9455 12.2618 16.9964 12.0073 16.9964C11.9055 16.9964 11.8036 17.0473 11.7527 17.0982C11.6509 17.0982 11.6 17.0982 11.4982 17.1492C11.2436 17.3019 10.8873 17.4037 10.7346 17.6582C10.48 17.7601 10.3782 18.0655 10.2255 18.3201C10.1746 18.5237 10.0218 18.7273 9.97092 18.8801C10.0727 19.1855 9.92001 19.491 9.92001 19.7964C9.92001 20.2037 9.8182 20.611 9.8182 21.0182C9.8182 21.3237 9.76729 21.6291 9.76729 21.8837C9.71638 22.7491 9.86911 23.6655 9.8182 24.531C9.8182 24.9382 9.86911 25.3455 9.8182 25.7528C9.8182 25.9564 9.86911 26.1601 9.8182 26.3637C9.8182 26.4655 9.71638 26.5164 9.61456 26.5673C9.51274 26.4655 9.41092 26.3128 9.41092 26.1601C9.3091 25.5491 9.36001 24.8873 9.30911 24.2764C9.30911 24.0728 9.41092 23.8691 9.30911 23.6655C9.36001 23.411 9.30911 23.1055 9.10547 22.9528C9.30911 22.851 9.15638 22.5964 9.2582 22.4437C9.2582 22.2401 9.25819 22.0364 9.20729 21.7819L9.30911 21.731C9.15638 21.4764 9.36001 21.171 9.15638 20.9673C9.2582 20.6619 9.30911 20.3564 9.30911 20.051C9.41092 19.5928 9.36001 19.1346 9.46183 18.7273C9.56365 18.4728 9.66547 18.1673 9.76729 17.9128C9.92002 17.6582 10.1237 17.5055 10.2764 17.251C10.3782 17.1491 10.4291 16.9964 10.5818 16.9964V16.9455H10.6836C10.9382 16.7419 11.2946 16.5382 11.6 16.4364C11.6 16.4364 11.6 16.3855 11.6 16.3346C11.8546 16.3855 12.16 16.4364 12.3637 16.2837ZM20.1527 16.2837C20.5091 16.3855 20.9164 16.2837 21.2218 16.4364C21.5782 16.5892 21.9855 16.7419 22.24 17.0473C22.4437 17.3019 22.6982 17.5055 22.7491 17.8619C22.8 18.0655 22.9527 18.2691 22.9527 18.5237C23.1564 19.4401 23.2073 20.3564 23.2073 21.3237C23.2582 22.2401 23.2582 23.1564 23.2582 24.1237C23.1564 24.9382 23.3091 25.7019 23.2073 26.5164C23.0546 26.5164 22.9018 26.5164 22.7491 26.5673C22.6982 26.4655 22.5964 26.4655 22.4946 26.4146C22.4946 26.2619 22.4946 26.1091 22.4436 26.0073C22.4436 26.0073 22.4946 25.9564 22.4946 25.9055L22.3927 25.8546C22.4436 25.8546 22.4946 25.8546 22.5455 25.8546C22.5964 25.7019 22.5964 25.5491 22.6473 25.3964C22.5964 25.3455 22.5455 25.2437 22.4946 25.1928C22.5455 25.1419 22.5964 25.091 22.5964 25.091C22.5455 25.0401 22.4946 24.9891 22.4946 24.9382C22.4946 24.9382 22.5455 24.8873 22.5964 24.8364C22.5964 24.5819 22.5964 24.3782 22.5455 24.1237C22.6473 24.1237 22.6982 24.0728 22.6982 23.971C22.4946 23.8182 22.5964 23.5637 22.5964 23.3601C22.5964 23.2073 22.6982 23.1055 22.6473 22.9528C22.4436 22.7491 22.4437 22.4437 22.5455 22.1891C22.4946 21.9855 22.4946 21.7819 22.4946 21.6291C22.5455 21.4255 22.5455 21.2728 22.4946 21.0691C22.4946 20.7637 22.4437 20.4582 22.4946 20.1528C22.4946 20.051 22.4436 20.0001 22.3927 19.8982C22.3927 19.8473 22.4436 19.7964 22.4436 19.7964C22.3927 19.6946 22.3927 19.5928 22.3927 19.491C22.1891 19.3382 22.3418 19.0837 22.24 18.931C22.1382 18.7782 22.1891 18.5746 22.0873 18.4219C21.9346 18.1164 21.8327 17.7601 21.5782 17.5055C21.3746 17.4546 21.2727 17.3019 21.0691 17.251C20.9673 17.251 20.9164 17.1491 20.8655 17.0982C20.6109 17.0473 20.3564 16.9455 20.1018 16.9964C19.8473 17.0473 19.5418 16.9455 19.3382 17.1492C19.2873 17.1492 19.2364 17.1492 19.1855 17.1492C18.9309 17.3528 18.5236 17.4037 18.3709 17.7092C18.0146 17.9128 17.9127 18.371 17.7091 18.7273C17.5564 18.8801 17.6582 19.1346 17.6073 19.3382C17.5055 19.7964 17.5055 20.3055 17.4546 20.8146C17.4546 21.2219 17.4037 21.6292 17.4037 22.0364C17.4037 22.851 17.4546 23.6655 17.4546 24.531C17.4546 24.7855 17.4546 25.0401 17.4546 25.2946C17.5055 25.651 17.4037 25.9564 17.4546 26.3128C17.5055 26.4655 17.4037 26.6691 17.2509 26.7201C17.1491 26.5673 17.0473 26.4146 17.0473 26.2619C16.9964 25.7528 16.9964 25.2437 16.9964 24.7346C16.9964 24.531 16.9964 24.3273 16.9964 24.1237C17.0473 24.0219 16.9455 23.8692 16.9964 23.7673C16.9455 23.5637 16.9455 23.3091 16.7927 23.1564C16.7927 23.1564 16.8437 23.1055 16.8946 23.1055C16.8946 22.9528 16.8946 22.7491 16.9455 22.5964C16.9455 22.3928 16.9455 22.1892 16.8946 21.9855H16.9455C16.7927 21.731 16.9455 21.4764 16.8436 21.2219C16.9964 20.6619 16.9964 20.1019 17.0473 19.5928C17.0473 19.0328 17.2 18.5237 17.5055 18.0655C17.7091 17.811 17.9127 17.5564 18.1673 17.3528C18.2182 17.3528 18.2691 17.3528 18.2691 17.3528V17.3019C18.6255 17.1491 18.9818 16.8946 19.3382 16.7928C19.3382 16.7928 19.3382 16.7419 19.3382 16.691C19.6437 16.3346 19.9491 16.4364 20.1527 16.2837Z" fill="#016531"/>
</svg>
