<svg width="40" height="40" viewBox="0 0 40 40" fill="none" xmlns="http://www.w3.org/2000/svg">
<path fill-rule="evenodd" clip-rule="evenodd" d="M8.08492 18.5131H13.9775C13.9621 17.3089 14.0323 16.8521 14.3944 16.1979H20.2682C20.2552 16.2127 14.9041 22.8308 13.5947 24.26C12.2831 25.6914 11.847 26.5527 10.9081 26.519C9.96598 26.4852 9.30305 25.4608 9.30305 23.8583H4C4.13958 24.797 4.79414 26.8408 7.1317 27.2401C9.46646 27.6387 11.5413 27.4134 11.7263 27.5251C11.9114 27.6368 13.0568 27.7878 13.8646 27.7027C14.6726 27.6173 16.3098 27.5932 17.7715 26.2562C18.5419 26.8631 19.5403 27.8491 22.5472 27.8491C25.5502 27.8491 28.5952 26.2472 29.4955 24.0229C30.3958 21.7987 28.9811 19.8381 27.0354 19.3218C25.089 18.8053 23.831 19.0433 23.831 19.0433L26.2004 16.1846H33.2595L36 12H18.3215C16.6546 12.0015 14.6358 12.9554 13.6272 14.5211C10.7973 14.9401 8.98924 16.1725 8.08492 18.5131ZM24.769 13.2027H33.3756L32.522 14.5143H23.6803L24.769 13.2027ZM15.6599 14.5183C16.1012 14.0265 17.2355 13.203 18.3552 13.203H22.7558L21.6575 14.5183H15.6599ZM12.6263 16.209C12.4029 16.836 12.3373 17.1115 12.2902 17.8589H10.2102C10.4692 17.3814 11.0829 16.5665 12.6263 16.209ZM18.2441 21.0822L22.3074 16.1966H23.9077L20.0231 20.8541C18.7455 20.8603 18.2441 21.0822 18.2441 21.0822ZM9.2034 26.67C8.55812 26.6632 8.22635 26.6192 7.50958 26.3271C6.79312 26.0349 6.01971 25.2606 5.84733 24.6707H7.73365C7.77821 24.9901 7.92058 25.3144 8.23037 25.7632C8.54141 26.2141 8.85306 26.3803 9.2034 26.67ZM13.0652 26.8133C14.4637 25.8978 15.7534 24.2563 16.4231 23.6472C16.4011 24.2049 16.5351 24.6011 16.6651 24.8966C15.7921 25.7279 14.4359 26.9838 13.0652 26.8133ZM18.6121 25.3259L21.2297 22.1753C21.2297 22.1753 21.8301 22.4473 22.1396 22.8438C22.4501 23.2412 22.5194 23.8558 22.5194 23.8558H24.6759C24.5793 23.3804 24.2463 22.6504 23.7248 22.1626C23.2015 21.6733 22.693 21.3332 22.0496 21.1884L22.8793 20.1899C22.8793 20.1899 24.5966 20.0754 25.4125 20.4867C26.2806 20.9244 27.4319 21.8893 27.0877 23.5463C26.7439 25.2005 24.4277 26.2611 23.2083 26.4069C21.992 26.5524 21.2078 26.5644 20.2685 26.22C19.3273 25.8755 18.6121 25.3259 18.6121 25.3259ZM19.1676 21.8968L17.5694 23.81C17.5233 23.8642 17.2445 23.1047 17.8498 22.3607C18.4571 21.6148 19.1676 21.8968 19.1676 21.8968Z" fill="#D6B36A"/>
</svg>
