<svg width="40" height="40" viewBox="0 0 40 40" fill="none" xmlns="http://www.w3.org/2000/svg">
<path fill-rule="evenodd" clip-rule="evenodd" d="M21.1646 15.869L25.9016 31.7774H21.1699L21.1646 15.869Z" fill="#FFFFFE"/>
<path fill-rule="evenodd" clip-rule="evenodd" d="M11.3918 31.7268L18.4227 7.04541L25.7083 31.7268H11.3918Z" fill="#009252"/>
<path fill-rule="evenodd" clip-rule="evenodd" d="M21.2913 10.8054L21.3 33.771H27.8793L21.2913 10.8054Z" fill="#009252"/>
<path fill-rule="evenodd" clip-rule="evenodd" d="M11.2126 31.8618L18.4284 6.57312L25.8897 31.8618H11.2126ZM11.3918 31.7268H25.7083L18.4226 7.09548L11.3918 31.7268Z" fill="#FFFFFE"/>
<path fill-rule="evenodd" clip-rule="evenodd" d="M19.6734 24.5112C18.8282 22.2827 17.9643 18.9277 17.9643 15.2166C17.9643 13.6319 18.1209 11.9827 18.505 10.3285L18.2395 10.2617L11.8752 33.3486H18.6206L18.6621 33.3C20.0434 31.6739 20.7443 30.3116 20.7421 28.8787C20.7413 27.5938 20.3435 26.2788 19.6734 24.5112Z" fill="#FFFFFE"/>
<path fill-rule="evenodd" clip-rule="evenodd" d="M19.8254 32.0255L19.829 32.0205H21.0458V34H28.1667L28.1541 33.9563L21.1079 9.1575L21.037 9.1667L21.0398 14.6927L21.016 14.6959L18.4254 6L11 32.0214H12.0809L11.6625 33.5251H18.6711L18.7567 33.4258C19.174 32.9397 19.5305 32.4764 19.8254 32.0255ZM18.6351 33.321L18.597 33.3668H11.8729L12.2923 31.8618H11.2127L18.4284 6.57308L20.979 15.1389L21.1138 15.6163L21.1079 15.086L21.1064 9.48663L21.1286 9.4832L28.0753 33.9315H21.1138V31.8613H19.7415L19.7177 31.8992C19.4224 32.3539 19.0612 32.8258 18.6351 33.321Z" fill="#6F8F9D"/>
</svg>
