<svg width="40" height="40" viewBox="0 0 40 40" fill="none" xmlns="http://www.w3.org/2000/svg">
<path fill-rule="evenodd" clip-rule="evenodd" d="M11.6397 12.1279C16.9192 12.1279 22.1044 12.1279 27.3838 12.1279C27.3838 16.3704 27.3838 20.7071 27.3838 24.9495C26.2525 25.6094 25.1212 26.2694 23.8956 26.9293C23.8956 26.0808 23.8956 25.138 23.8956 24.2895C23.8956 21.367 23.8956 18.4445 23.8956 15.6162C23.0471 15.6162 22.1044 15.6162 21.2559 15.6162C21.2559 19.9529 21.2559 24.1953 21.2559 28.532C20.1246 29.1919 18.9933 29.8518 17.7677 30.5118C17.7677 25.5151 17.7677 20.6128 17.7677 15.6162C16.9192 15.6162 15.9764 15.6162 15.1279 15.6162C15.1279 21.0842 15.1279 26.5522 15.1279 32.0202C13.9966 32.6801 12.8653 33.3401 11.6397 34C11.6397 26.6465 11.6397 19.3872 11.6397 12.1279ZM9 6C16.0707 6 23.0471 6 30.1178 6C30.1178 7.13131 30.1178 8.26264 30.1178 9.48823C23.0471 9.48823 16.0707 9.48823 9 9.48823C9 8.26264 9 7.13131 9 6Z" fill="#102C53"/>
</svg>
