<svg width="40" height="40" viewBox="0 0 40 40" fill="none" xmlns="http://www.w3.org/2000/svg">
<path fill-rule="evenodd" clip-rule="evenodd" d="M20.5736 13.2306C20.5817 13.2189 20.5899 13.2061 20.5993 13.1932C20.8157 12.8785 20.7256 12.6446 20.5806 12.5194C20.4893 12.4387 18.3182 11.1238 18.3182 11.1238C18.1614 11.0185 18.0573 10.8395 18.0573 10.6348C18.0573 10.3131 18.2503 10.0698 18.6878 9.9493C20.0834 9.5656 24.9908 9.36439 26.6589 9.36439C27.2368 9.36439 28.2335 9.36205 29.1284 9.38779L29.0886 9.34918C26.6437 7.26106 23.4689 6 20.0015 6C12.2679 6 6 12.2667 6 20.0004C6 23.3998 7.21076 26.5151 9.22518 28.9413C10.9846 26.4109 15.3269 20.177 16.278 18.9031C17.3741 17.4349 19.8752 14.1712 20.2975 13.6178L20.3185 13.5921L20.5736 13.2306Z" fill="#E2001A"/>
<path fill-rule="evenodd" clip-rule="evenodd" d="M11.4642 31.0977C13.8273 32.9179 16.7869 34 20.0015 34C27.734 34 34.0019 27.7321 34.0019 19.9996C34.0019 17.6588 33.4275 15.4537 32.4133 13.5153L32.4145 13.5165C32.8964 13.0521 33.4521 12.3174 33.0871 11.3956C32.9725 11.1219 32.4285 10.4995 32.2881 10.3486L32.308 10.4024C32.6484 11.4307 31.9746 12.0753 31.4903 12.5128C31.2248 12.7549 27.6697 16.1065 23.5005 19.7516C19.8249 22.9651 15.7153 26.2347 13.3336 28.0175C9.98442 30.5233 9.33283 30.8883 9.33283 30.8883C9.24392 30.9362 9.09653 30.9772 8.9889 30.9772C8.78419 30.9772 8.60637 30.8859 8.49407 30.7385L8.49056 30.735C8.47302 30.7783 8.46717 30.8157 8.48237 30.8415C8.84151 31.424 9.43694 32.0967 9.78438 32.0967C9.892 32.0967 10.0406 32.0557 10.1295 32.0089C10.1295 32.0089 10.3927 31.8627 11.4642 31.0977Z" fill="#E2001A"/>
<path fill-rule="evenodd" clip-rule="evenodd" d="M20.5936 13.1925C20.8089 12.879 20.7188 12.645 20.5749 12.5187C20.4836 12.4391 18.3125 11.1231 18.3125 11.1231C18.1557 11.0178 18.0516 10.84 18.0516 10.6353C18.0516 10.3124 18.2446 10.0703 18.6821 9.94861C20.0766 9.56491 24.9851 9.36487 26.6521 9.36487C27.4394 9.36487 28.9987 9.35902 30.0247 9.42687C31.1758 9.50174 32.0496 9.74038 32.266 10.2972C32.693 11.3887 31.9876 12.0625 31.4869 12.5164C31.2226 12.7573 27.6675 16.1089 23.4983 19.754C19.8227 22.9675 15.712 26.236 13.3314 28.0199C9.98221 30.5257 9.33063 30.8906 9.33063 30.8906C9.24172 30.9386 9.09432 30.9796 8.98553 30.9796C8.63927 30.9796 8.3667 30.714 8.3667 30.3654C8.3667 30.2344 8.40647 30.1104 8.47666 30.0109C8.47666 30.0109 15.0709 20.5097 16.2723 18.9024C17.4725 17.2974 20.3526 13.5376 20.3526 13.5376C20.3526 13.5376 20.3866 13.4955 20.5936 13.1925Z" fill="#FEFEFE"/>
</svg>
