<svg width="40" height="40" viewBox="0 0 40 40" fill="none" xmlns="http://www.w3.org/2000/svg">
<path d="M17.3691 17.1812C16.0537 18.1208 15.0201 19.5302 15.0201 21.3154C15.0201 22.8188 15.7718 24.2282 16.8993 25.2617C17.651 25.9195 18.1208 25.9195 18.1208 25.1678V17.557C18.1208 17.1812 17.745 16.9933 17.3691 17.1812ZM22.349 12.5772C22.0671 12.4832 21.9732 12.2953 21.9732 12.1074V9.47651C21.9732 9.19463 21.6913 9.00671 21.3154 9.19463C20.1879 9.94631 19.4362 10.5101 18.3087 11.2617C18.1208 11.3557 18.0268 11.5436 18.0268 11.8255V12.2953C18.0268 12.4832 17.8389 12.6711 17.651 12.7651C17.1812 12.953 16.6175 13.1409 16.1477 13.3289C13.047 14.8322 10.8859 17.8389 10.8859 21.4094C10.8859 24.604 12.6711 27.7987 15.5839 29.5839C16.1477 29.9597 16.7114 30.0537 17.2752 29.4899C18.7785 28.0805 20.2819 26.6711 21.7852 25.2617C21.9732 25.0738 22.1611 24.7919 22.1611 24.4161V17.745C22.1611 17.1812 22.5369 17.2752 22.8188 17.4631C24.2282 18.4027 25.1678 19.906 25.1678 21.5034C25.1678 22.8188 24.698 23.9463 23.8524 24.8859C23.5705 25.2617 23.5705 25.2617 23.4765 25.7315V29.302C23.4765 29.8658 24.0403 29.8658 24.3221 29.6779C27.2349 28.0805 29.2081 24.8859 29.2081 21.4094C29.2081 17.0872 26.1074 13.6107 22.349 12.5772ZM10.0403 6H29.9597C32.2148 6 34 7.87919 34 10.0403V30.0537C34 32.3087 32.2148 34.094 29.9597 34.094H10.0403C7.78524 34.1879 6 32.3087 6 30.1477V10.0403C6 7.87919 7.78524 6 10.0403 6Z" fill="#AB0873"/>
</svg>
