<svg width="40" height="40" viewBox="0 0 40 40" fill="none" xmlns="http://www.w3.org/2000/svg">
<path fill-rule="evenodd" clip-rule="evenodd" d="M8.63236 11.5751C10.5036 10.6717 12.5544 10.2017 14.6323 10.2001C17.4592 10.22 20.1627 11.3603 22.1499 13.3709C24.1371 15.3815 25.2456 18.0982 25.2323 20.9251C25.239 23.0074 24.4234 25.0082 22.9627 26.4922C21.502 27.9763 19.5145 28.8237 17.4323 28.85C16.7014 28.8468 15.9783 28.6991 15.3045 28.4156C14.6308 28.1321 14.0197 27.7183 13.5063 27.198C12.9929 26.6777 12.5874 26.061 12.313 25.3835C12.0386 24.706 11.9008 23.981 11.9073 23.2501C11.9041 22.7642 11.9965 22.2824 12.1794 21.8322C12.3623 21.3821 12.6321 20.9723 12.9733 20.6264C13.3146 20.2805 13.7206 20.0052 14.1683 19.8163C14.6159 19.6273 15.0964 19.5284 15.5823 19.5251C15.8877 19.5283 16.1893 19.5917 16.4702 19.7116C16.751 19.8315 17.0055 20.0055 17.2191 20.2237C17.4326 20.4419 17.6011 20.7001 17.7149 20.9834C17.8287 21.2668 17.8856 21.5697 17.8823 21.8751C17.8823 22.2397 17.7374 22.5895 17.4796 22.8473C17.2217 23.1052 16.872 23.2501 16.5073 23.2501C15.9823 23.2501 15.8323 23.5251 16.2323 23.9501C16.4425 24.1781 16.6976 24.3602 16.9816 24.485C17.2655 24.6097 17.5722 24.6745 17.8823 24.6751C18.8659 24.6619 19.8043 24.2602 20.4928 23.5576C21.1813 22.8551 21.564 21.9087 21.5573 20.9251C21.564 19.4508 20.9864 18.0339 19.951 16.9844C18.9155 15.9349 17.5066 15.3383 16.0323 15.3251C13.9458 15.3449 11.9519 16.1894 10.4858 17.6742C9.01976 19.159 8.20067 21.1635 8.20737 23.2501C8.19748 24.6519 8.46382 26.042 8.99118 27.3409C9.51853 28.6399 10.2966 29.8222 11.2809 30.8204C12.2652 31.8187 13.4365 32.6132 14.7279 33.1588C16.0192 33.7043 17.4054 33.9902 18.8073 34C22.5203 34 26.0812 32.525 28.7067 29.8995C31.3322 27.274 32.8072 23.7131 32.8072 20.0001C32.8072 16.2871 31.3322 12.7261 28.7067 10.1006C26.0812 7.47515 22.5203 6.00016 18.8073 6.00016C16.7722 5.99023 14.7605 6.43382 12.9183 7.2987C11.0761 8.16358 9.44972 9.42802 8.15737 11.0001C7.78237 11.5001 8.13237 11.8251 8.63236 11.5751Z" fill="#74CE6A"/>
</svg>
