<svg width="40" height="40" viewBox="0 0 40 40" fill="none" xmlns="http://www.w3.org/2000/svg">
<path fill-rule="evenodd" clip-rule="evenodd" d="M22.7861 10.6551H29.8293C29.8293 10.6551 29.8293 10.6551 29.8466 10.6551C30.4523 10.6724 31.5945 11.1569 31.5945 11.7799H31.9925V8.92456H29.8466H22.7861H19.9134H9.92822V10.6551H19.9134H22.7861Z" fill="#1E2F96"/>
<path fill-rule="evenodd" clip-rule="evenodd" d="M29.8468 6.0173H22.7862H19.9135H13.5625V7.59209H19.9135H22.7862L29.8468 7.60939H32.01C32.9271 7.60939 33.3598 8.21508 33.4636 9.14956C33.6021 9.14956 33.9309 9.14956 33.9482 9.14956L34.0001 6H29.8468V6.0173Z" fill="#1E2F96"/>
<path fill-rule="evenodd" clip-rule="evenodd" d="M24.5686 31.8368L22.7862 28.6354L19.9135 23.4957L17.5773 19.3078L19.9135 17.2485L22.7862 14.7219L24.5859 13.1298C25.0185 12.6452 25.6934 12.403 26.3164 12.403V11.7627H22.7862H21.021V12.3857C22.0247 12.3857 22.5958 12.4376 21.9382 13.5451L19.9135 15.2756L13.5105 20.7268V12.7664C13.8393 12.576 14.1854 12.6452 14.3758 12.576V11.7454H8.2843H6.06922V12.5587C6.41533 12.6452 6.86526 12.6452 7.02101 12.801V31.733C7.00371 32.0618 6.27689 32.4425 6 32.4425V33.2213H8.30161H14.843V32.4425C15.2064 32.4425 13.6489 32.4252 13.6143 31.8368V22.3362L19.0309 32.131L19.0136 32.4598H18.6675V33.2213H19.9481H22.8208H25.9184V32.4598C25.3646 32.3387 24.8801 32.4598 24.5686 31.8368ZM8.95921 31.958H8.2843H7.60939V12.7145H8.2843H8.95921V31.958L19.9135 32.4079H19.7923L14.0816 22.1112L13.9431 22.0593L15.0334 21.3671L19.9308 30.3486L21.0556 32.3906L19.9308 32.4079L8.95921 31.958Z" fill="#1E2F96"/>
<path fill-rule="evenodd" clip-rule="evenodd" d="M29.8467 17.9407C29.4314 17.7677 28.9814 17.6812 28.4969 17.6812C26.5933 17.6812 24.6897 17.6812 22.7861 17.6812C22.1112 17.6812 21.4363 17.6812 20.7441 17.6812L19.9134 18.3734L18.8059 19.3079H19.9134H22.7861H26.178C27.4932 19.3944 28.5315 20.8134 28.5315 22.5439C28.5315 22.8208 28.5142 23.0977 28.4623 23.3573C27.822 21.869 26.6798 20.7961 25.3127 20.5538V20.5365H25.2089H22.7861H19.9134H19.1174L19.9134 21.921L20.0519 22.1632H22.4054C22.5265 22.1632 22.665 22.1805 22.7861 22.2324C23.8937 22.5439 24.7416 23.8418 24.7416 25.3993C24.7416 26.5934 24.2398 27.6317 23.4956 28.2028L24.0667 29.2065C25.1743 28.4624 25.9357 27.026 25.9357 25.3993C25.9357 24.1187 25.4685 22.9593 24.7243 22.1632H25.0012C26.3337 22.4228 27.372 23.9976 27.372 25.9012C27.372 27.9778 26.1261 29.6737 24.6205 29.6737C24.5167 29.6737 24.4301 29.6737 24.3263 29.6564L25.2435 31.2658C26.6625 31.0409 27.8566 29.9333 28.4969 28.3758C28.9641 28.3412 29.4314 28.2028 29.864 27.9951C31.5253 27.1991 32.8751 25.2955 32.7713 23.0285C32.754 20.9519 31.6984 18.6849 29.8467 17.9407ZM29.8467 26.2646C29.5698 26.4896 29.241 26.6626 28.9122 26.7491C28.9468 26.4723 28.9641 26.1954 28.9641 25.9012C28.9641 25.6762 28.9641 25.4685 28.9295 25.2436C29.4314 24.4994 29.7256 23.5477 29.7256 22.5266C29.7256 21.246 29.2583 20.0866 28.5315 19.2905H28.8084C29.1891 19.3598 29.5352 19.5328 29.8467 19.8097C30.6427 20.4673 31.1619 21.6787 31.1619 23.0458C31.1792 24.3956 30.6427 25.607 29.8467 26.2646Z" fill="#1E2F96"/>
</svg>
