<svg width="40" height="40" viewBox="0 0 40 40" fill="none" xmlns="http://www.w3.org/2000/svg">
<path d="M29.5091 21.8091C28.4424 22.2914 27.0652 23.5444 27.0652 23.5444C27.0652 23.5444 27.1382 22.9964 27.1747 22.7407C27.394 21.2064 27.8688 19.7086 28.3803 18.2473C29.2571 15.8727 30.974 12.6945 28.7821 12.2195C27.9419 12.0369 26.9921 12.1465 26.9921 12.1465C26.9921 12.1465 27.2843 10.7948 28.4533 10.6487C29.2571 10.5391 30.8279 10.466 31.8509 10.393C33.6774 10.2468 34.2619 9.297 33.8966 8.16451C33.2756 6.37445 29.6589 7.10509 25.0924 7.39734C20.0876 7.72613 14.7174 8.67596 13.2196 9.11434C10.6258 9.88151 9.42029 10.466 9.60295 11.562C9.78561 12.8771 11.3565 12.8041 12.7447 12.5483C13.8772 12.3291 17.1285 11.7081 19.357 11.4158C22.5352 11.014 23.9234 10.9044 23.9234 10.9044C23.9234 10.9044 22.3891 15.4709 20.8182 19.7086C20.1606 21.4986 18.8089 25.2248 17.3842 27.7455C16.544 29.1703 15.4846 30.0471 13.4023 30.0836C10.9181 30.1202 9.38376 28.4762 8.76272 26.3208C8.25127 24.4943 8.68965 22.5581 10.1875 21.9005C11.5757 21.2429 13.1465 21.8274 13.1465 21.8274C13.1465 21.8274 13.0735 22.1927 12.5986 22.3754C12.3428 22.4484 11.393 22.6311 11.2469 22.7041C10.6989 22.8868 10.2605 23.6905 10.9912 24.5308C12.1236 25.7729 14.2425 25.4806 15.3384 24.6769C16.4344 23.8732 17.3112 21.9736 16.7267 20.4758C16.1422 18.9779 14.279 18.5396 12.4524 18.5396C9.60295 18.5761 7.4841 19.8182 6.57081 21.8639C5.69404 23.8732 5.69404 27.3437 7.52063 29.9009C9.16457 32.239 12.014 33.0792 13.9502 32.9696C15.6672 32.8966 17.1651 32.3486 18.2975 31.3988C19.9049 30.0471 21.2201 27.2707 22.5352 23.8732C23.8138 20.6949 24.8733 17.7358 24.8733 17.7358C24.8733 17.7358 24.3253 20.6219 24.0695 22.485C23.7407 25.0057 23.8138 27.015 23.9965 27.636C24.2157 28.4031 24.8367 28.8415 25.5308 28.9511C26.2614 29.0607 26.6998 28.5127 27.2113 27.8552C29.0379 25.5536 29.3374 25.6048 30.1704 25.0057C32.0116 23.6832 31.2078 21.042 29.5091 21.8091V21.8091Z" fill="#C11F3E"/>
</svg>
