<svg width="40" height="40" viewBox="0 0 40 40" fill="none" xmlns="http://www.w3.org/2000/svg">
<path d="M31.8688 28.2771C32.116 28.4537 32.3985 28.5596 32.7515 28.5596C33.2812 28.5949 33.6696 28.4184 33.8814 28.1006C34.0933 27.7828 34.1992 27.3944 34.1992 26.9706C34.1992 26.3351 34.0226 25.8761 33.7049 25.6995C33.3518 25.4877 32.9634 25.3818 32.5397 25.3818C32.2925 25.3818 32.0806 25.417 31.9041 25.417V28.2771H31.8688ZM31.8688 25.064C32.3631 24.9581 32.7869 24.9227 33.1046 24.9227C33.6342 24.9227 34.2346 25.064 34.9407 25.3111C35.6469 25.5583 36 26.1233 36 26.9706C36 27.571 35.7528 28.03 35.2585 28.4184C34.7642 28.7714 34.0933 28.948 33.2458 28.948C32.8928 28.9127 32.6456 28.9127 32.469 28.9127H29.4325V28.5596H29.8914C30.1386 28.5596 30.2446 28.489 30.2446 28.3478C30.2446 28.3124 30.2799 28.2771 30.2799 28.2065V23.3691C30.2799 23.2985 30.2799 23.2632 30.2446 23.2279C30.2093 23.0866 30.1034 23.016 29.8914 23.016H29.4325V22.663H35.435L35.4703 24.2166H35.0466V23.8634C35.0466 23.7222 34.8701 23.581 34.5523 23.4398C34.2346 23.2985 33.8108 23.1926 33.3871 23.1219C32.9281 23.0514 32.575 23.016 32.3631 23.016C32.2219 23.0514 32.116 23.0514 32.0454 23.0866C31.9747 23.1219 31.9394 23.1926 31.9394 23.2985V25.064H31.8688ZM24.3832 28.2771C24.6657 28.489 25.0188 28.5949 25.4072 28.5949C25.8309 28.5596 26.1487 28.4537 26.3606 28.1712C26.6077 27.924 26.7136 27.5356 26.7136 27.0766C26.7136 26.1233 26.2193 25.6642 25.2659 25.6642H24.3479V28.2771H24.3832ZM24.3832 25.2406H25.6543C25.9368 25.2052 26.1487 25.0993 26.3252 24.9227C26.5018 24.7462 26.5724 24.499 26.5724 24.1812C26.5724 23.9694 26.5371 23.7575 26.4311 23.581C26.3252 23.4044 26.184 23.2632 26.0074 23.1926C25.8309 23.0866 25.5838 23.0514 25.3013 23.0514C24.9482 23.0514 24.6304 23.1573 24.3832 23.3338V25.2406ZM26.5371 25.4524C27.0667 25.4877 27.561 25.629 27.9494 25.9467C28.3732 26.2292 28.5497 26.6529 28.5497 27.1826C28.5497 27.7122 28.3026 28.1359 27.8435 28.4537C27.3845 28.7714 26.7136 28.948 25.8662 28.948C25.6897 28.948 25.5484 28.9127 25.4425 28.9127H21.9469V28.5596H22.4059C22.653 28.5596 22.759 28.489 22.759 28.3478C22.7943 28.3124 22.7943 28.2771 22.7943 28.2065V23.3691C22.7943 23.2985 22.7943 23.2632 22.759 23.2279C22.7237 23.0866 22.6178 23.016 22.4059 23.016H21.9469V22.663H24.2773C24.595 22.663 25.0188 22.663 25.5484 22.6276C26.643 22.6276 27.3845 22.7689 27.7729 23.0866C28.1613 23.4044 28.3732 23.7575 28.3732 24.1459C28.3732 24.3931 28.3026 24.6402 28.126 24.8521C27.9494 25.064 27.7376 25.2052 27.4551 25.3111C27.102 25.3818 26.8196 25.4524 26.5371 25.4524ZM15.7324 28.489H18.2394C18.4159 28.489 18.5572 28.4537 18.5925 28.3124C18.5925 28.2771 18.6278 28.2418 18.6278 28.1712V23.5103C18.6278 23.2985 18.5925 23.1573 18.5572 23.1219C18.5218 23.0866 18.4512 23.0514 18.31 23.0514H17.5332C17.3566 23.0514 17.2154 23.0866 17.1448 23.1573C17.0742 23.2279 17.0035 23.3691 16.9682 23.6163C16.933 23.6869 16.8976 23.8282 16.8623 24.04C16.721 24.5343 16.5798 25.064 16.4386 25.5936C16.2621 26.1233 16.1208 26.5822 15.9442 27.0413C15.8383 27.2885 15.7324 27.5356 15.6265 27.8181C15.5206 28.0653 15.4499 28.2065 15.4499 28.2418C15.3793 28.4184 15.5206 28.489 15.7324 28.489ZM15.4146 23.016V22.663H21.0994V23.016H20.6051C20.3579 23.016 20.252 23.0866 20.252 23.2279V28.0653C20.252 28.3478 20.3579 28.489 20.6051 28.489H21.2406V30.3604H20.7817V29.9366C20.7817 29.7248 20.6051 29.5482 20.2167 29.407C19.8283 29.2305 19.4046 29.1246 18.875 29.0186C18.3806 28.9127 17.9216 28.8774 17.5685 28.8774C17.2154 28.8774 16.7917 28.9127 16.2974 29.0539C15.803 29.1598 15.3793 29.3011 15.0262 29.4423C14.6731 29.6189 14.4966 29.7602 14.4613 29.9366L14.426 30.3604H13.8963L14.0375 28.489C14.426 28.5243 14.8144 28.2065 15.2028 27.571C15.5558 26.9354 15.8737 26.1938 16.1208 25.3465C16.368 24.499 16.4739 23.8988 16.5092 23.5103C16.5092 23.3338 16.4739 23.2279 16.4033 23.1573C16.3326 23.0866 16.1562 23.0514 15.909 23.0514H15.4146V23.016ZM35.5057 21.1094H26.8902C28.2673 14.2593 18.2394 6.98556 13.6138 19.8735C15.2028 4.61983 36.0706 10.1281 35.5057 21.1094ZM4.15093 28.9833H12.8018C9.83574 13.5178 17.5685 8.71572 24.701 9.7397C14.32 7.26804 2.5267 10.34 4.15093 28.9833Z" fill="#00563F"/>
</svg>
