<svg width="40" height="40" viewBox="0 0 40 40" fill="none" xmlns="http://www.w3.org/2000/svg">
<path fill-rule="evenodd" clip-rule="evenodd" d="M4 17.152L6.06806 16.454L4 15.4063L19.9998 10L36 15.4063L33.9319 16.454L36 17.152L33.9319 18.1997L36 18.8977L34.1137 19.8534L36 20.4904L28.0001 24.5434V18.5615H11.9999V24.5434L4 20.4904C4 20.4904 5.64411 19.9347 5.88511 19.8534L4 18.8977L6.06806 18.1997L4 17.152ZM12.127 17.7267L8.13246 15.7033L19.9998 11.693L31.8675 15.7033L27.8718 17.7267C27.1987 15.3713 23.9293 13.5849 19.9998 13.5849C16.0695 13.5849 12.8001 15.3713 12.127 17.7267ZM32.93 16.9616L33.9629 17.3114L28.0001 20.3322V19.4592L32.93 16.9616ZM32.93 18.7073L33.9629 19.0571L28.0001 22.0792V21.2052L32.93 18.7073ZM6.88829 20.3611L5.85441 20.7105L11.9999 23.8252V22.9522L6.88829 20.3611ZM7.07002 18.7073L6.03584 19.0571L11.9999 22.0792V21.2052L7.07002 18.7073ZM7.07002 16.9616L6.03584 17.3114L11.9999 20.3322V19.4592L7.07002 16.9616ZM34.1456 20.7105L28.0001 23.8252V22.9522L33.1117 20.3611L34.1456 20.7105ZM33.9332 15.5547L19.9998 10.8466L6.06684 15.5547L12.0011 18.5614L27.9976 18.5615L33.9332 15.5547Z" fill="#01A489"/>
<path fill-rule="evenodd" clip-rule="evenodd" d="M27.8975 18.7014V24.6846L27.8962 24.6858V24.898C27.8962 27.6733 24.329 29.9245 19.9306 29.9245C15.5386 29.9245 11.9747 27.6794 11.9653 24.9099V23.9784C11.9747 26.7574 15.5386 29.0098 19.9306 29.0098C24.329 29.0098 27.8962 26.7513 27.8962 23.9664V23.0934C27.8962 25.8773 24.329 28.1368 19.9306 28.1368C15.5386 28.1368 11.9747 25.8832 11.9653 23.1041V22.2311C11.9747 25.0117 15.5386 27.2638 19.9306 27.2638C24.329 27.2638 27.8962 25.0056 27.8962 22.2204V21.3477C27.8962 24.1326 24.329 26.3911 19.9306 26.3911C15.5386 26.3911 11.9747 24.1387 11.9653 21.3585V20.4855C11.9747 23.2645 15.5386 25.5181 19.9306 25.5181C24.329 25.5181 27.8962 23.2586 27.8962 20.4735V19.6017C27.8962 22.3856 24.329 24.6439 19.9306 24.6439C15.5386 24.6439 11.9747 22.3918 11.9653 19.6125V18.7529L11.9714 18.7612V18.7563C11.9759 21.5393 15.541 23.7951 19.9367 23.7951C23.713 23.7951 26.8762 22.1306 27.6953 19.8975C27.8263 19.5346 27.8962 19.1576 27.8962 18.7695L27.8938 18.6907L27.895 18.7039L27.8975 18.7014ZM11.9726 18.6953L11.9653 18.6916V18.6821L11.9726 18.6858V18.6953Z" fill="#CCAC70"/>
<path fill-rule="evenodd" clip-rule="evenodd" d="M25.2485 15.9917C26.363 16.7246 27.0414 17.6908 27.0414 18.7493C27.0414 19.8077 26.363 20.773 25.2485 21.5068V20.4723C25.8383 19.9717 26.1799 19.3813 26.1799 18.7493C26.1799 18.1169 25.8383 17.5268 25.2485 17.025V15.9917Z" fill="#01A489"/>
</svg>
