<svg width="40" height="40" viewBox="0 0 40 40" fill="none" xmlns="http://www.w3.org/2000/svg">
<path d="M20.0028 30.0242C28.8355 30.0242 36 25.3195 36 19.5121C36 13.7047 28.8355 9 20.0028 9C11.1702 9 4 13.7047 4 19.5121C4 25.3195 11.1645 30.0242 20.0028 30.0242ZM33.2405 16.4416C33.748 17.3062 34.0606 18.271 34.1566 19.269C34.4054 24.0415 28.581 28.2373 21.1507 28.6218C16.4686 28.8594 12.2672 27.5474 9.73953 25.3421C12.8286 26.9332 16.2922 27.6545 19.7597 27.4287C27.5236 27.0159 33.625 22.7692 33.3706 17.9344C33.3406 17.5859 33.2303 17.2492 33.0482 16.9506C30.5489 16.9506 25.6971 16.9166 23.243 16.9506C23.0339 17.5809 22.8695 18.2253 22.751 18.8788C23.6784 18.8788 28.8015 18.9918 28.8015 19.8627C28.8015 21.0615 23.1808 24.3865 21.4504 24.3865C20.2856 24.3865 20.1046 24.0585 20.1046 23.3912C20.242 22.053 20.5303 20.7346 20.9642 19.4612L19.1942 19.3934C17.4243 22.1246 15.6318 23.2668 11.0401 24.3526C10.2516 24.5524 9.44411 24.668 8.63121 24.6974C7.86669 24.1713 7.22446 23.4866 6.74819 22.6901C6.22125 21.787 5.9079 20.7754 5.83213 19.7326C5.57766 14.9601 11.4077 10.7812 18.8379 10.3911C23.5201 10.1422 27.7215 11.4654 30.2605 13.6594C27.1728 12.0774 23.7133 11.364 20.2516 11.5955C12.6743 11.997 6.68034 16.0401 6.62944 20.7166C6.67887 21.4137 6.87136 22.0932 7.19491 22.7126C7.89886 22.8682 8.61714 22.9498 9.33805 22.9558C13.7318 22.9558 15.8692 21.2594 17.5261 19.2124C16.0502 19.1785 9.88655 18.8788 9.88655 17.4312C9.88655 16.549 12.4538 16.1871 13.6809 16.1871C15.6883 16.1871 17.7692 16.3002 19.8502 16.3342C20.4665 15.5029 21.7445 13.3881 23.5879 13.3881C23.7689 13.3881 24.2608 13.3881 24.2608 13.535C24.2608 14.1854 23.5879 15.7178 23.4635 16.4473H33.2744L33.2405 16.4416ZM19.5674 18.7035C19.9462 18.138 20.3365 17.5726 20.7549 16.9449C21.0602 16.9788 21.7106 16.9788 22.0102 16.9788C21.7106 17.5951 21.473 18.155 21.2355 18.7714C20.7436 18.7374 20.0028 18.7714 19.5391 18.7035H19.5674ZM21.2638 16.3285C21.4448 16.1815 22.2138 14.9262 22.8528 14.9487C22.8742 14.9734 22.8902 15.0022 22.8999 15.0334C22.9097 15.0645 22.9129 15.0973 22.9094 15.1297C22.7742 15.563 22.5842 15.9774 22.3438 16.3624H21.9085C21.6874 16.3665 21.4663 16.3552 21.2469 16.3285H21.2638ZM27.009 20.2586V20.4055C27.009 21.101 23.2203 23.3178 22.112 23.3178C22.0362 23.2926 21.9709 23.2427 21.9268 23.1761C21.8827 23.1094 21.8623 23.0298 21.8689 22.9502C21.963 21.78 22.1984 20.6256 22.5701 19.5121C23.243 19.5913 26.4888 19.693 26.8507 20.1398C26.9751 20.2076 26.9072 20.2755 26.9751 20.2755L27.009 20.2586ZM19.4261 16.9562C18.9341 17.5217 18.5326 18.0871 18.1029 18.579C17.1302 18.5451 12.2106 18.2228 12.2106 17.4482C12.2106 17.188 13.3755 17.1145 13.6865 17.1145C15.4225 17.0466 17.6505 17.024 19.3921 16.9788L19.4261 16.9562Z" fill="#103984"/>
</svg>
