<svg width="40" height="40" viewBox="0 0 40 40" fill="none" xmlns="http://www.w3.org/2000/svg">
<path d="M19.9998 4C11.1462 4 4 11.1462 4 20C4 28.8538 11.1462 36 19.9998 36C28.8534 36 35.9996 28.8538 35.9996 20C36.0628 11.1462 28.8534 4 19.9998 4ZM19.9998 34.3557C12.0948 34.3557 5.64425 27.9684 5.64425 20.0632C5.64425 12.1581 12.0948 5.70751 19.9998 5.70751C27.9681 5.70751 34.3553 12.0949 34.3553 20.0632C34.3553 27.9684 27.9681 34.3557 19.9998 34.3557Z" fill="#5F5742"/>
<path d="M27.7151 12.0949C27.7783 11.2728 27.2724 10.1977 25.6914 8.80635C25.6914 8.80635 25.6282 9.05932 25.6914 9.1858C25.6914 9.1858 25.1855 8.61663 24.0472 8.36366C24.0472 8.36366 24.1736 7.85774 24.2369 7.54153C24.2369 7.28857 24.0472 6.97236 23.6045 7.22532C21.7073 8.04746 18.5453 8.04746 15.2568 11.2095C15.5097 10.4506 16.3319 9.1858 17.2805 8.49015C16.1421 8.74311 15.1935 9.12256 14.8773 9.31228C14.5611 9.502 14.4346 9.62849 14.3082 9.81821C13.5493 10.8301 12.4742 13.0435 11.9683 15.8894C11.6521 14.0554 11.905 12.1581 12.0315 11.2095C11.2726 11.8419 10.577 12.7273 10.2608 13.17C10.0078 13.4862 9.94458 13.7392 9.94458 13.9921C9.88134 14.6245 10.0711 17.9763 11.3359 20.6324C10.0711 19.6206 9.05922 17.4704 8.61653 16.2688C8.30033 17.1542 8.04737 18.419 7.98413 19.3044C7.98413 19.9368 8.23709 20.253 8.36357 20.506C8.55329 20.8854 10.2608 23.8577 13.8022 25.8815C12.4742 25.755 9.69162 24.2372 8.36357 23.0988C8.67977 24.3004 8.99598 25.1226 9.5019 26.0079C9.69162 26.3874 9.88134 26.5771 10.5137 26.8933C12.0948 27.7787 14.3714 28.6641 17.7864 28.6008C16.0789 29.3597 13.486 29.3597 11.7785 28.917C11.905 29.0435 12.3477 29.4862 12.9169 29.8656C13.6125 30.3716 14.6244 30.9407 15.8892 31.1937C18.482 31.6996 21.644 29.8656 20.8852 26.4506C20.8852 26.4506 20.5057 27.3992 19.4306 27.7154C20.6954 26.4506 20.5689 24.4269 18.3555 24.1739C17.4702 24.0475 16.0156 24.1739 15.573 24.1739C15.1303 24.1739 14.5611 24.1739 14.1184 23.668C14.1184 23.668 14.7508 23.6048 15.3832 23.4783C15.8892 23.3518 16.901 22.9091 17.5967 22.9724C17.5334 22.8459 17.2805 22.4664 16.2686 22.8459C16.0156 22.9091 15.573 22.9091 15.2568 22.5297C16.2686 22.7826 16.6481 21.6443 17.5967 22.2767C17.7864 22.4032 18.1026 22.4032 17.9761 22.1502C17.7864 21.834 17.5967 21.6443 17.0907 21.6443C15.9524 21.5811 15.067 21.5178 14.3082 21.8973C13.9287 22.087 13.5493 22.34 13.2331 22.6562C13.2331 22.1502 13.2963 20.8222 13.992 20.1898C14.7508 19.5573 16.3951 19.2411 17.0907 19.1147C17.0907 19.1147 16.901 18.7352 17.0907 18.4822C17.4069 18.1028 18.3555 17.4071 23.9839 17.4071L23.5412 17.8498C24.3634 17.9131 25.6914 18.1028 27.0827 18.6087C27.2092 18.672 27.5254 18.7352 27.9048 18.1028C28.0313 17.9131 27.9048 17.9131 27.5886 17.7233C27.6519 17.5969 27.6519 17.4704 27.6519 17.4071C27.6519 17.2174 27.5254 17.2807 27.4621 17.3439C27.2724 17.4704 26.893 17.4704 26.8297 17.2807C26.7665 17.0909 26.4503 16.6482 25.7547 16.5218C25.7547 16.5218 26.1973 16.0158 27.1459 16.2056C27.1459 16.2056 27.2092 16.4585 27.3989 16.3953C27.5886 16.332 27.7151 16.1423 27.8416 16.332C27.9048 16.4585 27.9048 16.5218 27.9048 16.6482C27.8416 16.7747 27.9048 16.838 28.0945 16.7115C28.221 16.6482 28.2843 16.5218 28.4107 16.3953C28.4107 16.3953 28.7269 16.5218 29.1696 16.3953C29.4226 16.332 29.8653 15.9526 30.055 15.3202C30.308 15.1305 30.5609 14.751 30.4344 14.6245C30.1815 14.4348 28.9167 13.6759 28.6005 13.4862C28.2843 13.2965 27.6519 12.8538 27.7151 12.0949ZM19.6836 14.3716C19.9998 14.2451 20.1263 14.1818 20.4425 14.1186C20.6954 14.0554 20.8852 14.0554 20.6954 14.3083C20.1263 15.1305 20.1263 16.7115 20.9484 17.0277C20.3792 17.0277 19.9365 17.0909 19.4306 17.1542C19.3674 15.7629 19.6203 14.9407 19.6203 14.9407C19.3041 15.0672 18.9247 15.2569 18.735 15.3202C18.6717 13.8024 19.9998 11.2728 21.7073 10.5771C19.8101 12.2214 19.6836 14.3716 19.6836 14.3716ZM23.2883 8.17394C23.0986 8.42691 22.6559 8.99608 22.7824 9.37552C22.7824 9.37552 22.3397 9.502 21.9602 9.69173C21.7705 9.81821 21.7073 9.69173 21.7705 9.502C22.0867 8.80635 22.5926 8.42691 23.0353 8.1107C23.3515 7.92098 23.4148 8.1107 23.2883 8.17394ZM26.893 12.5376C26.8297 12.7905 26.8297 12.8538 26.5768 12.7905C26.5135 12.7273 26.2606 12.6641 26.1973 12.6641C26.0709 12.6008 26.0076 12.6008 26.0709 12.7273C26.1341 12.8538 26.3238 13.2965 26.2606 13.6127C26.2606 13.6127 25.8179 12.6641 25.1223 12.0949C25.3752 12.0316 26.0076 12.0949 26.3871 12.2214C26.5768 12.2846 26.7665 12.2846 26.893 11.4625C27.0195 11.9684 27.0195 12.3479 26.893 12.5376ZM30.4977 18.419C29.7388 18.7984 28.7902 18.9249 28.221 18.9249C29.3594 19.3676 30.8771 20.1898 31.9522 21.0751C31.889 20.6957 31.9522 20.3162 31.9522 20.0633C31.9522 19.9368 31.889 19.8735 31.889 19.8735C30.6242 19.3676 29.8653 19.1779 29.8653 19.1779C30.1815 19.0514 30.4344 18.672 30.4977 18.419Z" fill="#5F5742"/>
<path d="M25.4384 24.3004C25.8811 24.4269 26.5135 24.4901 26.8929 24.3004C24.9325 23.7944 23.8574 21.0118 19.3673 20.6324C19.1776 20.6324 18.7349 20.6956 18.9879 20.2529C19.2408 19.8102 21.0116 18.6087 21.0116 18.6087C20.6954 18.6087 19.1776 18.7352 18.7349 18.7984C18.2922 18.8616 18.1658 18.7352 18.1658 18.4189C18.1658 18.4189 17.2804 19.2411 17.7231 19.6838C17.7863 19.747 17.976 19.747 18.229 19.6838C18.4187 19.6205 18.7982 19.494 19.0511 19.4308C19.0511 19.4308 19.1144 19.4308 19.1144 19.494C18.9879 19.6838 18.7349 20.0632 18.6717 20.2529C18.6084 20.5059 18.5452 20.6324 18.9879 20.7589C19.3673 20.8853 21.4542 21.5178 22.7191 22.4031C23.9839 23.2253 26.9562 25.5652 26.7664 29.8656C27.4621 29.3597 28.0945 28.8537 28.4739 28.4743C28.5372 28.411 28.5372 28.2213 28.5372 28.2213C27.968 26.9565 26.7664 25.1225 25.4384 24.3004Z" fill="#5F5742"/>
<path d="M21.9602 31.8261C22.4029 31.6996 23.2883 31.5099 24.0471 31.2569C24.1736 31.1937 24.2369 31.0672 24.2369 31.0039C24.6795 29.8024 24.8693 27.1462 23.5412 25.6917C24.3001 27.2727 23.9839 29.9288 21.9602 31.8261ZM25.1222 21.0118C27.2091 21.8972 29.2328 24.0474 30.2447 26.1344C30.4344 25.8182 30.8771 25.0593 31.1933 24.2371C31.1933 24.1107 31.13 24.0474 31.0668 23.9842C29.2961 22.4664 27.1459 21.3913 25.1222 21.0118Z" fill="#5F5742"/>
</svg>
