<svg width="40" height="40" viewBox="0 0 40 40" fill="none" xmlns="http://www.w3.org/2000/svg">
<path d="M26.4857 26.4803C25.3643 26.117 24.4967 25.2817 23.9412 24.2455C23.2864 25.3865 22.1036 26.2778 20.8089 26.5339C20.5071 26.5938 20.2061 26.6213 19.9106 26.6213C19.5575 26.6213 19.2132 26.5796 18.8806 26.5024C18.2006 27.5457 17.2881 28.4274 16.218 29.0768C17.322 29.6575 18.578 29.9885 19.9098 29.9885C21.206 29.9885 22.4471 29.6827 23.5937 29.0807C24.7623 28.4668 25.7528 27.5646 26.4857 26.4803ZM30.2941 14.5838L29.9844 14.5137C29.9844 14.5137 31.3587 12.903 31.5234 12.7036C31.3405 12.5114 29.1404 10.2222 28.9269 10C28.7417 10.1868 25.1697 13.8265 23.6607 15.3608C23.3573 15.7177 22.7458 16.3907 21.5204 17.6996C20.5339 18.9564 20.117 20.5734 20.117 22.2006C20.117 23.6159 20.4953 24.946 21.1454 26.0973C22.2651 25.7537 23.2139 24.9468 23.7269 23.8759L23.7702 23.7806C23.5897 23.2865 23.4842 22.7538 23.4842 22.2006C23.4842 19.679 25.5361 17.631 28.0585 17.631C30.5801 17.631 32.6297 19.679 32.6297 22.2006C32.6297 24.7223 30.5801 26.7734 28.0585 26.7734C27.6298 26.7734 27.2169 26.7104 26.8253 26.6001C26.1468 27.6268 25.2469 28.4944 24.1926 29.1303C25.336 29.771 26.6574 30.1398 28.0593 30.1398C32.4366 30.1398 36 26.578 36 22.2006C36 18.7011 33.6533 15.5649 30.2941 14.5838ZM18.5174 26.4228C17.5276 26.1013 16.6947 25.4598 16.1226 24.6072C16.0446 24.4906 15.9705 24.3708 15.9051 24.2534C15.322 25.2723 14.3685 26.0256 13.2535 26.3692C13.1408 26.4039 13.0234 26.433 12.9107 26.4598C12.8855 26.4637 12.8611 26.4685 12.8374 26.4716C12.5372 26.5347 12.2354 26.563 11.9423 26.563C9.42067 26.563 7.36871 24.515 7.36871 21.995C7.36871 19.4757 9.42067 17.4238 11.9423 17.4238C12.2669 17.4238 12.5924 17.464 12.9155 17.5341C13.3181 16.9415 13.8098 16.4191 14.337 15.9384C14.3764 15.9021 14.4182 15.8651 14.4607 15.8312C14.4741 15.821 14.4867 15.8092 14.5017 15.7965C14.8508 15.4979 15.2235 15.2205 15.6215 14.9762C14.4891 14.3829 13.2291 14.0582 11.9423 14.0582C7.56492 14.0582 4 17.6192 4 21.9958C4 26.3723 7.56492 29.9325 11.9423 29.9325C13.2023 29.9325 14.4182 29.6638 15.5293 29.0681C15.5616 29.0508 15.5955 29.0405 15.6262 29.0232C15.7121 28.9822 15.7909 28.9318 15.8744 28.8845C16.9382 28.284 17.8334 27.429 18.5174 26.4228ZM14.9816 15.8336C13.1282 17.2622 11.9706 19.5364 11.9706 22.0501C11.9706 23.5182 12.371 24.8893 13.0668 26.0713C14.2141 25.753 15.1888 24.9531 15.7247 23.8846C15.478 23.3204 15.3378 22.705 15.3378 22.0501C15.3378 19.5317 17.3905 17.4805 19.9106 17.4805C20.2202 17.4805 20.9011 17.5751 21.1398 17.6105C21.9562 16.7406 23.1634 15.4333 23.5322 14.9983C22.4164 14.4238 21.1722 14.1126 19.9106 14.1126C18.6238 14.1126 17.4071 14.4238 16.3299 14.9707L16.3582 14.9841L16.0872 15.1267C15.6971 15.334 15.3283 15.5665 14.9816 15.8336Z" fill="#173A79"/>
</svg>
