<svg width="40" height="40" viewBox="0 0 40 40" fill="none" xmlns="http://www.w3.org/2000/svg">
<path d="M34 6H6V34H34V6Z" fill="#058B8C"/>
<path fill-rule="evenodd" clip-rule="evenodd" d="M13.8816 18.393C13.1566 18.4641 11.4509 18.8765 11.4509 20.0996C11.4651 21.4506 13.6115 21.6355 14.3649 21.6212C15.7295 21.5786 17.1795 20.9386 18.3878 20.0711V19.8294C17.1795 18.7059 15.2889 18.265 13.8816 18.393ZM20.1647 21.9057H20.1362C19.9941 22.1332 19.8945 22.3749 19.8234 22.6451C19.7808 22.8585 19.7524 23.0575 19.7666 23.2851C19.795 23.4415 19.8234 23.5979 19.8945 23.7401L20.0936 23.9819L20.122 23.9961H20.1504H20.1789L20.2215 23.9819L20.4205 23.7401C20.4915 23.5979 20.52 23.4557 20.5484 23.2851C20.5626 23.0575 20.5484 22.8585 20.5058 22.6451C20.4347 22.3749 20.3494 22.1332 20.1931 21.9057H20.1647ZM27.2437 23.6406L27.2295 23.5979C26.6893 23.6548 25.7795 23.6406 25.2394 23.5695C24.614 23.47 24.0027 23.2993 23.4057 23.0575V23.1002C23.4199 23.4131 23.4199 23.7259 23.4057 24.0388C23.3773 24.3801 23.3062 24.7214 23.2066 25.0343C24.5144 24.7641 26.0639 24.3517 27.2437 23.6406ZM13.0998 23.6264L13.114 23.5837C13.6542 23.6406 14.5497 23.6264 15.0899 23.5553C15.7153 23.4557 16.3266 23.2851 16.9236 23.0433V23.086C16.9094 23.3988 16.9094 23.7117 16.9378 24.0246C16.9663 24.3659 17.0373 24.7072 17.1368 25.0201C15.829 24.7641 14.2654 24.3516 13.0998 23.6264ZM22.766 16.8144L22.7944 16.8713C24.1164 16.53 25.7369 16.3167 27.1015 16.53L27.1157 16.4731C26.0781 15.691 24.5002 15.2785 23.2351 15.0226C23.1355 15.6483 22.965 16.2456 22.766 16.8144ZM17.5775 16.8144L17.5349 16.8713C16.2129 16.53 14.5923 16.3167 13.2419 16.53L13.2277 16.4731C14.2654 15.691 15.8433 15.2785 17.1084 15.0226C17.1937 15.6483 17.3643 16.2456 17.5775 16.8144ZM20.1504 16.1176H20.1931C20.4063 15.691 20.5484 15.1221 20.6053 14.6386C20.4631 14.6244 20.321 14.6244 20.1789 14.6244C20.0367 14.6244 19.8945 14.6244 19.7524 14.6386C19.795 15.1363 19.9372 15.7052 20.1504 16.1176ZM26.4619 18.393C27.1869 18.4641 28.8926 18.8765 28.8784 20.0996C28.8642 21.4506 26.7178 21.6355 25.9644 21.6212C24.5997 21.5786 23.164 20.9386 21.9415 20.0711V19.8294C23.1498 18.7059 25.0404 18.265 26.4619 18.393ZM23.3488 19.9147C24.1022 20.3271 24.9409 20.5831 25.7653 20.6826C26.1349 20.7253 27.9545 20.7395 27.9545 20.0285C27.9545 19.4027 26.4903 19.2605 26.0355 19.2321C25.0972 19.2036 24.2159 19.4312 23.3488 19.8436V19.9147ZM22.2685 21.6781L22.4248 21.4506C23.5904 22.1474 24.7845 22.5883 26.1065 22.6167C27.7696 22.6878 29.0348 22.1047 29.8877 20.8391L30.1009 21.0097C29.376 24.8778 23.7041 26.2146 21.1028 26.3L21.0459 26.044C22.766 25.404 22.9081 23.4131 22.2685 21.6781ZM20.2357 20.4693C20.8896 21.0951 21.3019 21.9625 21.3872 22.9438C21.4156 23.8539 21.1028 24.8636 20.2926 25.0912L20.1647 25.1054L20.0367 25.0912C19.2264 24.8636 18.9137 23.8681 18.9422 22.9438C19.0274 21.9483 19.4397 21.0808 20.0936 20.4693H20.2357ZM21.5577 13.7426C21.3729 15.179 21.0033 16.5727 20.2499 17.7104H20.1647H20.0794C19.326 16.5727 18.9564 15.179 18.7716 13.7426C19.2406 13.7142 19.6955 13.7 20.1647 13.7C20.6337 13.7 21.1028 13.7142 21.5577 13.7426ZM18.0608 21.6781C17.4354 23.3988 17.5633 25.404 19.2833 26.044L19.2406 26.3C16.6677 26.2715 11.0244 24.9916 10.2284 20.9671L10.4558 20.8391C11.4935 22.1474 12.7729 22.7162 14.2228 22.6167C15.5448 22.574 16.7531 22.1332 17.9044 21.4506L18.0608 21.6781ZM14.5355 17.4117C12.716 17.4117 11.1097 18.0517 10.3705 19.6729L10.2 19.5592C10.2568 15.9896 14.8767 14.3115 17.7339 13.8849C17.9471 15.4634 18.4304 16.8713 19.1838 18.1797L19.4255 18.5779L19.3828 18.649L19.0416 18.4783C17.5775 17.8099 16.085 17.4117 14.5355 17.4117ZM25.7938 17.4117C24.2443 17.4686 22.7518 17.8099 21.3019 18.4783L20.9749 18.649L20.9038 18.5779L21.1597 18.1797C21.9131 16.8713 22.3822 15.4634 22.6096 13.8849C25.8364 14.4821 29.973 15.8474 30.1436 19.5592L29.973 19.6729C29.049 17.9664 27.8834 17.4117 25.7938 17.4117ZM16.9805 19.9147C16.2129 20.3271 15.3884 20.5831 14.5639 20.6826C14.1801 20.7253 12.389 20.7395 12.3748 20.0285C12.3748 19.4027 13.8532 19.2605 14.2939 19.2321C15.232 19.2036 16.1134 19.4312 16.9805 19.8436V19.9147Z" fill="white"/>
</svg>
