<svg width="40" height="40" viewBox="0 0 40 40" fill="none" xmlns="http://www.w3.org/2000/svg">
<path fill-rule="evenodd" clip-rule="evenodd" d="M20.7427 16.2107C21.005 16.2107 21.2673 16.1053 21.5821 16.0001L30.8684 12.4738C29.6092 10.4737 26.1466 6.36842 20.8476 6.05263C20.4279 6 20.0082 6 19.6409 6C14.4993 6 10.5645 8.31581 8.04613 12.4211C6.36725 15.1053 6 17.8422 6 19.8949C6 21.2633 6.15739 22.316 6.26232 22.8422C6.41972 24.0528 7.0493 25.2634 7.36409 25.4739C7.57395 25.6318 7.94121 25.737 8.25599 25.737C8.46586 25.737 8.72818 25.6844 8.93804 25.6318L18.1194 22.1581C17.8571 21.6844 17.28 20.6844 16.2307 18.4212C14.6043 14.8422 13.9747 12.6843 13.8173 11.1053C13.8698 10.8948 13.8698 10.7895 13.8698 10.6843C13.8698 10.2106 14.1321 9.73688 14.6043 9.73688C15.2338 9.78951 15.7585 10.3158 16.3881 10.9474C17.5423 12.1053 19.2212 14.9475 19.7983 15.7369C20.1131 16.1053 20.3754 16.2107 20.7427 16.2107Z" fill="#DB0334"/>
<path fill-rule="evenodd" clip-rule="evenodd" d="M18.8538 23.7894C18.5915 23.7894 18.2767 23.842 18.0144 23.9999L8.78052 27.5262C10.0397 29.5263 13.5023 33.5789 18.8013 33.9473C19.2211 34 19.5883 34 20.0081 34C25.0972 34 29.0845 31.6841 31.6028 27.5789C33.2292 24.8946 33.6489 22.1578 33.6489 20.0525C33.6489 18.684 33.4915 17.6841 33.3866 17.1577C33.2292 15.9472 32.5996 14.7367 32.2324 14.5261C32.0225 14.3682 31.6552 14.2629 31.288 14.2629C31.0781 14.2629 30.8158 14.3156 30.6059 14.3682L21.4246 17.8419C21.6869 18.3156 22.264 19.3156 23.3134 21.5788C24.9397 25.1578 25.5693 27.2631 25.7267 28.8947C25.7267 28.9999 25.7267 29.1578 25.7267 29.2631C25.7267 29.7368 25.4644 30.2104 25.0447 30.2104C24.4151 30.1578 23.8905 29.6315 23.2609 28.9999C22.1066 27.842 20.4277 24.9999 19.8506 24.2104C19.5359 23.8946 19.2211 23.7894 18.8538 23.7894Z" fill="#DB0334"/>
</svg>
