<svg width="40" height="40" viewBox="0 0 40 40" fill="none" xmlns="http://www.w3.org/2000/svg">
<path d="M9.14711 5V9.98132L19.9761 20.5937L26.1887 14.3811C28.1124 12.4574 31.2535 12.5321 33.0835 14.5451L33.3142 14.7989C34.9628 16.6124 34.9668 19.3807 33.3234 21.199L26.0403 29.2569L19.9761 23.1926L9.36369 34.0216H14.1284L19.7595 27.7408L26.0403 33.5884L36.0396 23.2993C38.7515 20.5088 38.6351 16.033 35.7818 13.3872L33.9662 11.7037C31.2341 9.17025 26.9878 9.25034 24.3532 11.885L19.9761 16.2621L9.14711 5Z" fill="#609A42"/>
<path d="M6.54816 34.0216H2L16.2942 19.7274L18.46 21.8932L6.54816 34.0216Z" fill="#609A42"/>
</svg>
