<svg width="40" height="40" viewBox="0 0 40 40" fill="none" xmlns="http://www.w3.org/2000/svg">
<path d="M28.7322 18.4826H23.8076L26.8996 19.9713L23.8076 21.4601H29.8774L33.9428 17.7955V13.8445L28.7322 18.4826Z" fill="url(#paint0_linear_1470_5590)"/>
<path d="M24.7238 18.4826H22.7197L25.8117 19.9714L22.7197 21.4601H24.7238L27.8158 19.9714L24.7238 18.4826Z" fill="#54BEE3"/>
<path d="M16.1349 18.4826H10.0654L6 23.1206V27.5869L11.3824 21.4601H16.1349L16.593 19.9714L16.1349 18.4826Z" fill="url(#paint1_linear_1470_5590)"/>
<path d="M16.4787 18.4826H15.5625L16.0206 19.9714L15.5625 21.4601H16.4787L16.9367 19.9714L16.4787 18.4826Z" fill="#4B9BD2"/>
<path d="M15.4478 24.9529L25.8117 19.9713H16.9365L15.4478 24.9529Z" fill="#D0D5D6"/>
<path d="M6 6V23.1206L10.0654 18.4826H16.3067L15.4478 14.8752L23.1779 18.4826H28.7321L33.9427 13.7873V6H6Z" fill="#1B4692"/>
<path d="M29.82 21.4601H23.1779L15.1615 25.182L16.3067 21.4601H11.3824L6 27.5869V34H33.9427V17.7955L29.82 21.4601Z" fill="#1B4692"/>
<path d="M15.4478 14.9897L25.8117 19.9713H16.9365L15.4478 14.9897Z" fill="white"/>
<path d="M15.5621 18.4826H16.4783L15.4476 14.9898L22.7196 18.4826H24.7237L14.0161 13.3293L15.5621 18.4826Z" fill="#1B4692"/>
<path d="M22.7196 21.4601L15.4476 24.9529L16.4783 21.4601H15.5621L14.0161 26.6134L24.7237 21.4601H22.7196Z" fill="#1B4692"/>
<defs>
<linearGradient id="paint0_linear_1470_5590" x1="33.9427" y1="17.6523" x2="5.85559" y2="17.6523" gradientUnits="userSpaceOnUse">
<stop offset="0.1592" stop-color="#57C8E8"/>
<stop offset="0.784" stop-color="#478ECC"/>
</linearGradient>
<linearGradient id="paint1_linear_1470_5590" x1="33.9193" y1="23.0348" x2="5.9741" y2="23.0348" gradientUnits="userSpaceOnUse">
<stop offset="0.1592" stop-color="#57C8E8"/>
<stop offset="0.784" stop-color="#478ECC"/>
</linearGradient>
</defs>
</svg>
