<svg width="40" height="40" viewBox="0 0 40 40" fill="none" xmlns="http://www.w3.org/2000/svg">
<path d="M33.0608 6.93188H6.93188V33.0608H33.0608V6.93188Z" fill="#FAEB00"/>
<path d="M6.93187 6.93187H33.0608V33.0608H6.93187V6.93187ZM6 34H34V6H6V34Z" fill="black"/>
<path d="M20 23.1918L11.9581 31.2337L8.76629 28.0419L16.8082 20L15.1279 18.3197V15.0031L13.9613 13.8364V16.7274L12.9487 17.74L8.86901 13.6603L7.86377 14.6729C7.87111 13.9098 8.0252 11.7085 9.88893 9.87416C11.9067 7.93706 14.0787 8.81022 14.8197 9.55131L18.8921 13.631L17.8501 14.6729L19.9854 16.8081L22.1206 14.6729L21.0787 13.631L25.151 9.55131C25.8921 8.81022 28.0713 7.92972 30.0818 9.87416C31.9529 11.7085 32.0996 13.9098 32.107 14.6729L31.1017 13.6603L27.0221 17.74L26.0095 16.7274V13.8364L24.8428 15.0031V18.3197L23.1625 20L31.2044 28.0419L28.0126 31.2337L20 23.1918Z" fill="black"/>
</svg>
