<svg width="40" height="40" viewBox="0 0 40 40" fill="none" xmlns="http://www.w3.org/2000/svg">
<path d="M17.3277 10.1839C15.0122 10.1839 12.9908 10.8455 11.2266 12.1686C11.6677 11.7275 12.1455 11.3233 12.66 10.919C14.9019 9.30182 17.3644 8.75052 20.0841 9.15482C22.8039 9.59585 24.9724 10.919 26.5895 13.1242C28.2066 15.3661 28.7946 17.8286 28.3536 20.5851C28.2801 21.1364 28.1331 21.6877 27.9861 22.1654C28.8314 20.9526 29.3827 19.5192 29.64 17.9388C29.8238 16.7995 29.8238 15.7336 29.6767 14.6678C30.4485 16.3952 30.6691 18.2329 30.3383 20.2176C29.8973 22.9373 28.5741 25.1057 26.3322 26.7229C24.2373 28.2298 21.8851 28.8546 19.3123 28.5238C19.2388 28.1195 19.202 27.7152 19.202 27.2742C19.1285 25.6571 19.4226 24.1502 20.0474 22.7535L18.9816 22.533C17.3277 24.5544 16.5558 26.8699 16.6293 29.5161C16.6293 29.8469 16.6661 30.1409 16.7028 30.435C15.3798 29.9571 14.1669 29.1853 13.0643 28.0828C11.1164 26.1348 10.1608 23.7826 10.1608 21.0261C10.1608 18.2696 11.1531 15.9174 13.0643 13.9695C15.0122 12.0216 17.3644 11.066 20.1209 11.066C20.6722 11.066 21.2235 11.1027 21.7381 11.1762C20.4149 10.5147 18.9448 10.1839 17.3277 10.1839ZM19.4594 29.2588C20.1209 29.5161 20.8192 29.6999 21.5543 29.8102C24.3843 30.2512 26.9202 29.6631 29.2357 27.9724C31.5144 26.2818 32.9111 24.0398 33.3521 21.2466C33.7931 18.4533 33.2051 15.8806 31.5512 13.5652C30.5589 12.2053 29.346 11.1395 27.9126 10.4412C27.8758 10.4044 27.8391 10.3309 27.8023 10.2942C26.1484 7.97871 23.9065 6.58209 21.0765 6.14105C18.2465 5.70001 15.7105 6.28806 13.3951 7.97871C11.3369 9.48559 10.0138 11.4335 9.42571 13.8593C7.80857 15.7336 7 17.9389 7 20.5116C7 23.3783 7.99233 25.804 10.0138 27.8254C11.8882 29.6999 14.1301 30.6922 16.7396 30.8392C16.9233 31.9785 17.2542 33.0444 17.8055 34H21.9953C20.7089 32.6401 19.8636 31.0597 19.4594 29.2588Z" fill="#2F9A41"/>
</svg>
