<svg width="40" height="40" viewBox="0 0 40 40" fill="none" xmlns="http://www.w3.org/2000/svg">
<path d="M26.2259 18.616L32.801 7.2447C32.8109 7.21588 32.8109 7.18458 32.801 7.15576C32.8109 7.1293 32.8109 7.10011 32.801 7.07365C32.7881 7.04498 32.7665 7.02105 32.7394 7.00523C32.7101 6.99826 32.6797 6.99826 32.6504 7.00523H28.4495C27.9933 7.00732 27.5454 7.12754 27.1495 7.35417C26.7554 7.57426 26.4271 7.89546 26.1985 8.28468L19.1376 20.5181C19.1338 20.5407 19.1338 20.5638 19.1376 20.5865C19.1344 20.6115 19.1344 20.6368 19.1376 20.6617C19.1464 20.6851 19.1605 20.7062 19.1787 20.7233C19.1975 20.7393 19.2182 20.7531 19.2402 20.7644C20.8514 21.3481 22.3313 22.2446 23.5948 23.4024C24.8582 24.5602 25.8803 25.9563 26.6022 27.5105C26.6121 27.537 26.6121 27.5662 26.6022 27.5926C26.6128 27.619 26.6128 27.6484 26.6022 27.6747C26.5889 27.7014 26.5673 27.723 26.5406 27.7363C26.5136 27.7425 26.4855 27.7425 26.4585 27.7363H12.3709C12.3276 27.735 12.2863 27.718 12.2546 27.6884C12.2376 27.6727 12.224 27.6536 12.2146 27.6325C12.2052 27.6113 12.2002 27.5884 12.1999 27.5653V12.3556C12.1989 12.3329 12.2027 12.3102 12.2109 12.289C12.2192 12.2679 12.2317 12.2486 12.2478 12.2325C12.2639 12.2164 12.2831 12.2039 12.3043 12.1956C12.3255 12.1874 12.3482 12.1836 12.3709 12.1846H19.4386C19.8957 12.1836 20.3445 12.0631 20.7406 11.8351C21.1366 11.607 21.4662 11.2794 21.6965 10.8846L23.797 7.2447C23.8039 7.21546 23.8039 7.18499 23.797 7.15576C23.8039 7.12883 23.8039 7.10058 23.797 7.07365L23.7285 7.00523C23.7016 6.99828 23.6734 6.99828 23.6464 7.00523H7.17789C7.13277 7.00067 7.08735 7.01024 7.04789 7.0326C7.01828 7.06961 7.00147 7.11522 7 7.1626V32.813C7.00031 32.8362 7.00532 32.8591 7.01473 32.8802C7.02414 32.9014 7.03775 32.9204 7.05474 32.9362C7.08848 32.9668 7.13234 32.9838 7.17789 32.9841H32.8215C32.8454 32.9862 32.8694 32.983 32.892 32.9748C32.9145 32.9666 32.9349 32.9536 32.9519 32.9366C32.9689 32.9197 32.9819 32.8992 32.9901 32.8767C32.9983 32.8541 33.0015 32.8301 32.9994 32.8062C32.9786 30.1269 32.3616 27.4859 31.1931 25.0748C30.0294 22.664 28.3472 20.5403 26.2669 18.8555C26.2342 18.8302 26.2122 18.7936 26.2053 18.7528C26.199 18.7299 26.1976 18.7058 26.2011 18.6823C26.2047 18.6587 26.2131 18.6361 26.2259 18.616Z" fill="#96D700"/>
</svg>
