<svg width="40" height="40" viewBox="0 0 40 40" fill="none" xmlns="http://www.w3.org/2000/svg">
<path fill-rule="evenodd" clip-rule="evenodd" d="M17.5764 14.5159L28.2412 20.0449L17.5764 25.5739L6.91166 20.0449L17.5764 14.5159ZM18.547 17.0258L22.9088 19.2872L18.547 21.5544V20.0449L19.9857 19.2872L18.547 18.5117V17.0258ZM20.4825 12L36 20.0449L20.4825 28.0898L19.0323 27.332L33.1169 20.0449L19.0323 12.7518L20.4825 12ZM17.5765 19.5891L16.2177 20.2876V18.7366L13.7056 20.0449L17.5765 22.0635V23.5731L10.7882 20.0449L17.5765 16.5227V19.5891ZM17.5765 13.0064L31.1529 20.0449L17.5765 27.0834L4 20.0449L17.5765 13.0064Z" fill="#BB9434"/>
</svg>
