<svg width="40" height="40" viewBox="0 0 40 40" fill="none" xmlns="http://www.w3.org/2000/svg">
<path d="M13.048 25.7317H6V34H14.1078V26.7959C14.1078 26.1696 13.6708 25.7317 13.048 25.7317ZM16.852 6H6V14.2683H16.9148C21.6547 14.2683 25.5215 18.1525 25.5215 22.9125V34H33.754V22.9753C33.6921 13.5792 26.1452 6 16.852 6ZM16.7272 15.834H6V24.1032H13.4213C13.7336 24.104 14.0424 24.166 14.3302 24.2855C14.6181 24.405 14.8798 24.5812 15.0996 24.8019C15.3194 25.0226 15.4938 25.2851 15.6133 25.573C15.732 25.8617 15.793 26.1705 15.7921 26.4819V33.9991H23.8999V23.0381C23.8999 19.092 20.7196 15.8349 16.7272 15.834Z" fill="#EB1C2D"/>
</svg>
