<svg width="40" height="40" viewBox="0 0 40 40" fill="none" xmlns="http://www.w3.org/2000/svg">
<path d="M6 6H34V34H6V6Z" fill="#DD002E"/>
<path d="M10.8999 12.86V27.14H13.4899V15.1H16.6399V27.14H19.2299V12.86H10.8999ZM29.7299 22.31C29.6599 20.7 29.0999 17.55 25.0399 17.55L24.9699 17.48H23.7799V15.17H28.3299V12.86H21.3299V27.14H25.2499C25.8799 27.14 26.5099 27 27.0699 26.79C27.6299 26.58 28.1199 26.16 28.5399 25.74C28.9599 25.25 29.3099 24.76 29.5199 24.13C29.7299 23.57 29.7999 22.94 29.7299 22.31ZM24.6899 24.83C24.4099 24.83 23.7799 24.69 23.7799 24.69V19.65H24.2699C25.5999 19.65 27.0699 19.51 27.0699 22.17C27.0699 24.69 25.4599 24.83 24.6899 24.83Z" fill="white"/>
</svg>
