<svg width="40" height="40" viewBox="0 0 40 40" fill="none" xmlns="http://www.w3.org/2000/svg">
<path d="M6 6H34V34H6V6Z" fill="url(#paint0_linear_2529_9289)"/>
<path d="M22.87 15.8C22.87 15.8 23.99 12.16 24.69 10.76C25.39 9.35999 26.23 7.88999 27.28 7.88999C28.33 7.88999 28.26 8.30999 28.61 8.23999C29.1 8.16999 29.03 7.04999 26.93 7.04999C24.76 7.04999 23.22 8.16999 22.17 10.48C21.12 12.79 19.02 18.95 18.6 20.28C18.11 21.61 16.71 23.36 15.31 23.36C13.91 23.36 13.56 21.89 13.7 20.7C13.91 18.88 15.73 16.85 17.41 16.36C19.09 15.87 18.95 14.75 17.2 15.1C15.45 15.45 11.04 17.13 11.04 20.77C11.04 24.41 15.73 25.6 17.34 23.57C17.2 24.27 17.06 24.9 16.64 26.02C15.87 28.12 14.61 31.9 13.63 31.9C12.65 31.9 12.16 31.83 11.74 31.62C11.32 31.34 10.69 32.11 11.46 32.39C12.23 32.67 14.54 33.58 15.8 32.39C17.13 31.2 17.97 30.08 18.88 27C19.86 23.92 21.12 20.7 21.89 18.88C22.66 17.06 23.57 16.08 24.69 16.08C25.81 16.08 26.72 17.41 26.37 19.37C26.02 21.26 23.92 22.87 22.38 22.94C20.84 23.01 21.26 24.41 22.73 24.13C24.13 23.85 26.37 23.08 27.42 22.1C28.47 21.12 29.1 19.93 29.1 17.83C29.03 15.94 27.28 14.68 25.53 14.68C23.78 14.68 22.87 15.8 22.87 15.8Z" fill="white"/>
<defs>
<linearGradient id="paint0_linear_2529_9289" x1="6" y1="20" x2="34" y2="20" gradientUnits="userSpaceOnUse">
<stop stop-color="#C94B28"/>
<stop offset="1" stop-color="#7A1831"/>
</linearGradient>
</defs>
</svg>
