<svg width="40" height="40" viewBox="0 0 40 40" fill="none" xmlns="http://www.w3.org/2000/svg">
<path d="M4 20.0098C4 11.1773 11.0087 4 19.6312 4C28.2348 4 35.242 11.1765 35.242 20.009C35.242 28.8235 28.2341 36 19.6304 36C11.0094 36.0008 4 28.8235 4 20.0105V20.0098Z" fill="white"/>
<path d="M4.78133 20.0098C4.78133 28.3839 11.443 35.2006 19.6312 35.2006C27.8035 35.2006 34.4607 28.3809 34.4607 20.0098C34.4607 11.6221 27.8065 4.8009 19.6312 4.8009C11.4392 4.8009 4.78133 11.6199 4.78133 20.0098ZM4 20.0098C4 11.1773 11.0087 4 19.6312 4C28.2348 4 35.242 11.1765 35.242 20.009C35.242 28.8235 28.2341 36 19.6304 36C11.0094 36.0008 4 28.8235 4 20.0105V20.0098Z" fill="#1E5478"/>
<path d="M14.9704 9.90139C14.43 10.1438 13.9166 10.4423 13.4386 10.7919C17.1578 9.09522 21.699 9.20587 24.1356 10.3192C24.9019 10.6835 25.4167 10.9048 25.6501 11.3399C23.1209 10.6458 22.0347 10.5201 19.9181 10.5736C16.9071 10.6293 12.9026 11.8495 11.3716 12.7821L10.6986 13.6402C12.9026 12.3049 17.0155 11.4324 19.2955 11.3587C21.8413 11.3233 23.8157 11.5604 25.6328 12.2349C25.5244 12.7083 25.2933 12.9454 24.9019 13.184C17.6388 11.8878 13.3475 13.4189 9.46792 16.009L9.18414 16.8656C13.5101 13.8216 18.813 12.9838 23.9233 13.8946C22.0904 14.5517 19.9007 14.697 18.0671 15.1321C16.5014 15.4979 15.6644 15.6086 13.5793 16.3214C11.4642 17.0327 10.2146 17.7614 9.4333 18.6925C9.05919 19.1321 8.77391 19.6409 8.70164 20.1867C8.66852 20.5134 8.68584 20.8084 8.79348 21.1005C8.87929 21.3564 9.07575 21.6108 9.29028 21.866C9.04188 22.3026 8.82584 22.8709 9.18414 23.5273C9.34372 23.8359 9.75321 24.146 10.1469 24.4403L10.0362 24.7655C9.98354 25.1509 9.93085 25.6056 10.1808 25.988C10.606 26.6812 11.1224 27.1389 11.9421 27.5762C12.0671 28.1423 12.2613 28.5969 12.6888 29.0004C13.5966 29.8562 15.6275 31.4979 19.2398 31.7539C21.9467 31.9375 23.8864 31.0975 24.6173 30.7317L25.5071 30.2589C23.9941 30.8777 21.4499 31.2428 19.3648 31.0606C16.3388 30.8047 13.635 28.7806 13.2963 28.1965C13.4017 28.268 13.5447 28.3237 13.6674 28.3786C17.2112 30.1295 21.7856 31.0794 27.6426 28.6346L28.1258 28.1603C22.8003 29.8562 18.1386 29.802 13.1345 27.1216C13.1894 26.8656 13.2963 26.6436 13.5259 26.4652C14.8063 27.0448 16.0362 27.5228 17.5319 27.8306C19.2767 28.1603 21.2692 28.2341 22.9086 28.1603C24.5646 28.0873 27.839 27.248 29.3881 26.4095C29.5296 26.2815 29.6004 26.0647 29.7427 25.9172C26.719 27.0448 23.1209 27.5762 20.9508 27.4106C18.8319 27.248 16.9463 26.9913 14.4532 25.8246C14.9327 25.6251 15.4318 25.4603 15.9293 25.3128C17.5673 25.8246 19.2398 26.1332 21.2158 26.2258C23.1759 26.3161 27.7494 25.5709 30.6324 23.784C30.7235 23.528 30.8115 23.2525 30.8115 23.2525C30.8115 23.2525 26.8063 25.443 22.2681 25.443C20.1491 25.443 18.8499 25.1321 17.8895 24.895C20.0242 24.4938 22.7129 24.1648 25.7374 23.3813C27.2677 22.9785 29.1555 22.0655 30.0106 21.3007C30.74 20.624 31.3106 19.7486 31.1156 18.8581C31.0773 18.618 30.7581 18.0557 30.3659 17.8532C30.74 17.3609 30.7047 16.9409 30.6527 16.5788C30.6151 16.3003 30.4909 15.9932 30.3328 15.7207C30.0829 15.3888 29.8496 15.1321 29.3686 14.8423C29.4424 14.4596 29.3925 14.0634 29.2263 13.711C28.8529 13.0546 28.1777 12.49 27.0208 11.8878C26.9674 11.65 26.8228 11.3399 26.5759 11.0305C25.1172 9.55288 22.7302 8.84155 20.7182 8.80391C20.6053 8.80166 20.4931 8.8009 20.3832 8.8009C18.0295 8.8009 16.1401 9.34287 14.9704 9.90139ZM26.3622 13.5491C26.5413 13.3481 26.8063 13.038 26.8763 12.7821C27.3768 13.111 27.9459 13.6033 28.0159 14.1144C27.4837 13.9112 26.9139 13.6959 26.3622 13.5499V13.5491ZM26.8063 15.7734C25.9534 15.5348 25.206 15.2428 24.2064 15.0629C24.8138 14.8235 25.221 14.5698 25.5793 14.277C26.3772 14.4945 27.1254 14.77 27.7344 15.0425C27.629 15.2014 27.0193 15.7795 26.8341 15.7795C26.8245 15.7799 26.8149 15.7778 26.8063 15.7734ZM28.3554 16.4117C28.5857 16.2288 28.8003 16.0301 28.9967 15.7915C29.4762 16.2108 29.6185 16.5028 29.3881 16.959C29.069 16.7226 28.728 16.5939 28.3554 16.4117ZM10.0754 20.9364C8.75584 19.0757 13.3302 17.7448 14.2041 17.4701C16.4284 16.7926 19.0291 16.2853 21.3791 15.9932C22.9952 15.7915 23.8526 15.9759 25.3844 16.3944C21.4499 17.4708 17.5673 17.8148 13.8646 18.9289C10.8793 19.8171 10.0874 20.9364 10.0754 20.9364ZM11.0517 21.8291C12.4404 20.624 15.2722 19.9503 16.3057 19.7132C19.5974 18.9831 22.6595 18.5277 23.9233 18.2002C25.4551 17.8148 26.5232 17.452 27.2677 17.0877C27.3038 17.0327 28.5142 17.6334 28.6392 17.7779C28.2304 18.1265 27.6629 18.4193 27.0381 18.6361C25.1691 19.3301 21.769 20.0587 19.9723 20.3372C18.1559 20.6451 16.6399 20.8807 14.6316 21.4257C13.4724 21.738 12.6888 22.1031 12.119 22.487C11.6922 22.2311 11.4431 22.1588 11.0517 21.8291ZM13.635 23.2887C14.2207 23.0327 14.862 22.8318 15.483 22.6707C18.6173 21.8818 21.3791 21.738 25.1879 20.6812C27.0208 20.1867 28.3554 19.6568 29.1932 19.0026C29.3166 18.8912 29.4416 18.8009 29.5665 18.6925C30.67 20.4426 26.5232 21.793 23.6907 22.4163C22.21 22.7161 20.7263 23.0012 19.2398 23.2714C17.3911 23.5815 16.7829 23.7463 15.5018 24.1295C14.862 23.8735 14.2207 23.5995 13.635 23.2887ZM10.3035 22.7414C10.5895 22.9259 10.8018 23.0726 11.1412 23.2525C11.0163 23.3617 10.8552 23.4723 10.7318 23.5988C10.4487 23.4332 10.1612 23.0719 10.3035 22.7407V22.7414ZM11.7826 24.42C11.961 24.2559 12.1913 24.0926 12.4404 23.9292C12.9749 24.1852 13.5259 24.4193 14.0423 24.6579C13.6946 24.7878 13.3612 24.9531 13.0471 25.1509C12.622 24.9134 12.2004 24.6695 11.7826 24.4193V24.42ZM11.3189 25.3128C11.6215 25.5145 11.9241 25.6778 12.2282 25.8434C12.1032 26.0263 12.0129 26.1701 11.961 26.3545C11.5153 25.9706 11.3001 25.6605 11.3189 25.3128Z" fill="#1E5478"/>
</svg>
