<svg width="40" height="40" viewBox="0 0 40 40" fill="none" xmlns="http://www.w3.org/2000/svg">
<path d="M12.1111 34H8.1001V16.731C8.11663 13.89 9.25252 11.1702 11.2614 9.1613C13.2703 7.15242 15.9901 6.01653 18.8311 6H32.0891V16.64C32.0872 19.4867 30.9551 22.2161 28.9415 24.2284C26.928 26.2406 24.1978 27.371 21.3511 27.371H14.6311L16.1221 23.36H21.2601C22.1436 23.3637 23.0191 23.1924 23.8361 22.856C24.6531 22.5196 25.3953 22.0247 26.0201 21.4C26.6448 20.7752 27.1397 20.033 27.4761 19.216C27.8125 18.399 27.9838 17.5235 27.9801 16.64V10.011H18.7401C17.8566 10.0073 16.9811 10.1786 16.1641 10.515C15.3471 10.8514 14.6048 11.3462 13.9801 11.971C13.3553 12.5957 12.8605 13.338 12.5241 14.155C12.1877 14.972 12.0164 15.8475 12.0201 16.731V34H12.1111V34Z" fill="url(#paint0_radial_2520_9177)"/>
<defs>
<radialGradient id="paint0_radial_2520_9177" cx="0" cy="0" r="1" gradientUnits="userSpaceOnUse" gradientTransform="translate(8.9051 32.873) scale(23.226 23.226)">
<stop stop-color="#D6005E"/>
<stop offset="1" stop-color="#E3448A"/>
</radialGradient>
</defs>
</svg>
