<svg width="40" height="40" viewBox="0 0 40 40" fill="none" xmlns="http://www.w3.org/2000/svg">
<path d="M6 8C6 6.89543 6.89543 6 8 6H32C33.1046 6 34 6.89543 34 8V32C34 33.1046 33.1046 34 32 34H8C6.89543 34 6 33.1046 6 32V8Z" fill="url(#paint0_angular_1469_2721)"/>
<path d="M19.9962 19.4987L25.3153 13.5167H17.0665C16.1463 13.5167 15.3971 14.2573 15.3971 15.167V23.9726C15.3945 24.0439 15.3971 24.0928 15.3978 24.1095L15.4004 24.1474C15.4017 24.1873 15.4036 24.2271 15.4082 24.2664L15.4127 24.3371L15.4192 24.3364C15.5435 25.1253 16.2341 25.7315 17.0672 25.7315H26.2953L19.9962 19.4987ZM16.2738 24.1558L16.2699 24.0722V24.0002C16.2744 23.8922 16.3017 23.6518 16.4422 23.4673C16.4604 23.4448 16.595 23.2943 16.7479 23.1252L19.4168 20.1481L24.1883 24.8687H17.0665C16.6529 24.8681 16.3121 24.555 16.2738 24.1558ZM17.0665 14.3795H23.3851L19.0832 19.2191L16.2705 22.3564V15.167C16.2705 14.7331 16.6276 14.3795 17.0665 14.3795Z" fill="white"/>
<defs>
<radialGradient id="paint0_angular_1469_2721" cx="0" cy="0" r="1" gradientUnits="userSpaceOnUse" gradientTransform="translate(19.6242 19.906) rotate(-48.7376) scale(13.2497)">
<stop stop-color="#74C13D"/>
<stop offset="0.0885417" stop-color="#339A0B"/>
<stop offset="0.510417" stop-color="#58B026"/>
<stop offset="1" stop-color="#A5DF64"/>
</radialGradient>
</defs>
</svg>
