<svg width="40" height="40" viewBox="0 0 40 40" fill="none" xmlns="http://www.w3.org/2000/svg">
<path d="M34 6H6V34H34V6Z" fill="#C5AF62"/>
<path d="M22.6769 8.29973V19.5529C22.6769 20.3796 23.3475 21.0502 24.1742 21.0502C25.0009 21.0502 25.6715 20.3796 25.6715 19.5529V13.1955C27.5762 14.8097 28.7858 17.2198 28.7858 19.9127C28.7858 24.7749 24.8441 28.7166 19.9819 28.7166C15.1197 28.7166 11.178 24.7742 11.178 19.912C11.178 17.2765 12.3372 14.9133 14.1726 13.3012V19.5529C14.1726 20.3796 14.8432 21.0502 15.6699 21.0502C16.4966 21.0502 17.1672 20.3796 17.1672 19.5529V8.32913C11.9431 9.59403 8.06372 14.2994 8.06372 19.912C8.06372 26.4941 13.3998 31.8302 19.9819 31.8302C26.564 31.8302 31.9001 26.4941 31.9001 19.912C31.9001 14.2567 27.9612 9.52123 22.6769 8.29973ZM19.6823 8.11353C19.0208 8.11353 18.4846 8.64973 18.4846 9.31123V19.5529C18.4846 20.3796 19.1552 21.0502 19.9819 21.0502C20.8086 21.0502 21.4792 20.3796 21.4792 19.5529V8.11353H19.6823ZM19.9819 9.85023C19.7173 9.85023 19.5031 9.63603 19.5031 9.37143C19.5031 9.10683 19.7173 8.89263 19.9819 8.89263C20.2465 8.89263 20.4607 9.10683 20.4607 9.37143C20.4607 9.63603 20.2465 9.85023 19.9819 9.85023Z" fill="white"/>
</svg>
