<svg width="40" height="40" viewBox="0 0 40 40" fill="none" xmlns="http://www.w3.org/2000/svg">
<path d="M15.9514 15.4894C15.9514 13.5527 17.5132 12.0033 19.4485 12.0033C21.3838 12.0033 22.9626 13.5527 22.9626 15.4726C22.9626 17.3925 21.4008 18.9419 19.4485 18.9419C17.5132 18.9587 15.9514 17.4094 15.9514 15.4894Z" fill="#21DBBC"/>
<path d="M18.0392 15.4894C18.0392 13.5527 16.4774 12.0033 14.5421 12.0033C12.6068 12.0033 11.0281 13.5527 11.0281 15.4894C11.0281 17.4094 12.5899 18.9587 14.5421 18.9587C16.4944 18.9587 18.0392 17.4094 18.0392 15.4894Z" fill="#1E1F1A"/>
<path d="M22.5378 27.9182C23.4884 27.9182 24.4051 27.4635 24.9653 26.6214L31.6709 16.4662C32.5537 15.1357 32.1802 13.3505 30.8391 12.4748C29.498 11.599 27.6985 11.9695 26.8157 13.3L20.1102 23.4721C19.2274 24.8026 19.6009 26.5878 20.942 27.4635C21.4343 27.7667 21.9945 27.9182 22.5378 27.9182Z" fill="#21DBBC"/>
<path d="M28.9719 24.4489C28.9719 22.529 30.5337 20.9796 32.486 20.9796C34.4213 20.9796 36.0001 22.529 36.0001 24.4489C36.0001 26.3688 34.4382 27.9351 32.486 27.9351C30.5337 27.9182 28.9719 26.3688 28.9719 24.4489Z" fill="#21DBBC"/>
<path d="M6.90292 27.9178C5.30716 27.9178 4 26.6379 4 25.038V14.8827C4 13.2996 5.30716 12.0028 6.90292 12.0028C8.49868 12.0028 9.80582 13.2996 9.80582 14.8827V25.038C9.80582 26.6379 8.49868 27.9178 6.90292 27.9178Z" fill="#1E1F1A"/>
</svg>
