<svg width="40" height="40" viewBox="0 0 40 40" fill="none" xmlns="http://www.w3.org/2000/svg">
<path d="M20.0215 33.6976C27.7535 33.6851 34.0117 27.6321 33.9998 20.1778C33.9879 12.7235 27.7103 6.69077 19.9783 6.70327C12.2465 6.71575 5.9881 12.7688 6.00002 20.223C6.01193 27.6772 12.2895 33.71 20.0215 33.6976Z" fill="#292929"/>
<path d="M11.9367 9.37073C11.7236 9.51353 11.3608 9.75283 11.3301 9.74125C11.3455 9.72389 11.3551 9.71424 11.4146 9.66791L11.4415 9.64669L11.8695 9.33406C12.8177 8.71652 12.8177 8.71652 12.8656 8.7088C12.7984 8.78792 11.9443 9.36494 11.9367 9.37073ZM12.2591 9.54441C12.5374 9.34757 12.8753 9.05037 12.7831 8.99827C12.5336 8.9616 11.4645 9.72389 11.5912 9.8474C11.6449 9.90142 11.9443 9.76634 12.2591 9.54441ZM13.0672 9.78756C13.3282 9.58108 13.5605 9.26845 13.3205 9.2202C12.8791 9.19704 11.9674 9.88599 12.1728 10.0886C12.2783 10.1928 12.6928 10.0848 13.0672 9.78756ZM20.1343 10.3723C20.1688 10.0867 19.8656 9.70265 19.211 9.72002C18.4011 9.79915 18.0844 10.4167 18.4989 10.7467C19.0018 11.1481 20.071 10.903 20.1343 10.3723ZM22.1784 10.3202C22.1228 10.0365 21.6928 9.66406 21.0326 9.70458C20.2878 9.80301 20.1285 10.3762 20.5777 10.7042C21.1804 11.1442 22.2878 10.8798 22.1784 10.3202ZM24.1938 10.1928C24.046 9.91301 23.5086 9.55985 22.8905 9.62353C22.2494 9.73932 22.2456 10.2739 22.7082 10.5846C23.3358 11.0072 24.353 10.8277 24.2398 10.3144C24.2321 10.2758 24.213 10.2276 24.1938 10.1928ZM25.8521 10.0076C25.6218 9.73353 25.0402 9.39967 24.5507 9.48073C24.0498 9.61775 24.2475 10.1446 24.7599 10.4398C25.3915 10.8007 26.1132 10.6849 25.9845 10.2411C25.9653 10.1658 25.9193 10.0867 25.8521 10.0076ZM27.0574 9.77791C26.7638 9.51353 26.1707 9.19704 25.8253 9.29161C25.4644 9.45563 25.9615 10.0944 26.641 10.3414C27.14 10.5228 27.4625 10.3839 27.2916 10.0577C27.2455 9.97283 27.1611 9.87054 27.0574 9.77791ZM27.7734 9.52318C27.4356 9.26845 26.8675 8.97318 26.6774 9.07353C26.4644 9.29932 27.5776 10.1639 28.0786 10.16C28.2897 10.1581 28.2686 9.98634 28.0268 9.74125C27.9788 9.69301 27.8962 9.61389 27.7734 9.52318ZM14.3051 10.1002C14.549 9.86283 14.6775 9.51161 14.2878 9.47494C13.6737 9.473 12.8407 10.1504 13.1132 10.4283C13.2975 10.6135 13.9078 10.4881 14.3051 10.1002ZM15.929 10.2488C16.0998 10.0211 16.096 9.69301 15.6468 9.67371C15.0268 9.69493 14.4088 10.243 14.6717 10.5363C14.8905 10.7814 15.616 10.6676 15.929 10.2488ZM17.8828 10.3434C17.9922 10.0983 17.8579 9.75669 17.3224 9.75283C16.6525 9.79528 16.14 10.3472 16.4817 10.6579C16.7984 10.9493 17.6736 10.8123 17.8828 10.3434ZM27.9654 9.253C27.5623 8.97898 27.0977 8.7416 27.0786 8.83809C27.1477 9.09669 28.5315 10.0134 28.6217 9.8609C28.6602 9.79528 28.3723 9.52897 27.9654 9.253ZM10.5374 10.3955L10.5067 10.4225C10.6449 10.3028 10.8311 10.1427 10.9693 10.0211C10.7677 10.189 10.6296 10.3125 10.5374 10.3955ZM9.46839 12.279C9.77158 11.9219 10.0153 11.4376 9.8752 11.3469C9.67562 11.3063 9.21109 11.864 9.19197 11.8872C8.77543 12.389 8.67367 12.6669 8.71214 12.7518C8.77357 12.8907 9.14967 12.6553 9.46839 12.279ZM10.4395 12.5318C10.6238 12.2983 10.6641 12.0011 10.4242 11.9509C10.0135 11.9219 9.5297 12.5954 9.70633 12.8039C9.83498 12.9544 10.2188 12.8116 10.4395 12.5318ZM20.213 13.2902C20.2648 12.939 19.8406 12.4642 18.9136 12.4874C17.8752 12.5762 17.474 13.2651 17.9731 13.6839C18.6276 14.2319 20.1132 13.9714 20.213 13.2902ZM22.975 13.2342C22.9557 12.8888 22.4337 12.4391 21.5008 12.4912C20.5125 12.6051 20.2206 13.2323 20.7159 13.6356C21.4299 14.2165 23.0133 13.9347 22.975 13.2342ZM25.7005 13.0258C25.6103 12.6804 25.0518 12.2114 24.14 12.3021C23.2072 12.4584 23.0595 13.1242 23.6256 13.5256C24.4011 14.0775 25.7868 13.7977 25.7139 13.103C25.7119 13.0798 25.7063 13.049 25.7005 13.0258ZM27.9403 12.7749C27.7829 12.4353 27.2168 11.9837 26.4989 12.0976C25.7101 12.2925 25.7888 13.02 26.4375 13.3828C27.2417 13.8344 28.188 13.5063 27.973 12.8502C27.9634 12.827 27.95 12.7981 27.9403 12.7749ZM29.5699 12.4662C29.355 12.1227 28.8214 11.7 28.3069 11.8332C27.735 12.059 28.0133 12.8753 28.7714 13.1956C29.4125 13.4677 29.879 13.159 29.6467 12.6147C29.6275 12.5684 29.5968 12.5086 29.5699 12.4662ZM30.5142 12.1265C30.1534 11.6498 29.6582 11.399 29.5124 11.6209C29.2936 11.9548 30.0939 13.0297 30.6467 12.883C30.9557 12.7267 30.5604 12.1883 30.5142 12.1265ZM11.9942 13.0297C12.1574 12.7865 12.1478 12.4256 11.7044 12.3793C11.0787 12.3716 10.6007 13.0335 10.8829 13.3211C11.1286 13.5681 11.7408 13.4079 11.9942 13.0297ZM14.5546 13.0953C14.714 12.7865 14.5739 12.3388 13.8963 12.306C13.0422 12.3291 12.5143 13.0374 12.8791 13.4233C13.2629 13.8286 14.2802 13.6279 14.5546 13.0953ZM17.1516 13.2284C17.2552 12.9235 17.0019 12.4951 16.2572 12.4893C15.3723 12.5395 14.9443 13.1898 15.3436 13.5604C15.8138 13.9946 16.9615 13.7842 17.1516 13.2284ZM30.7964 11.756C30.7312 11.6788 30.1515 10.9995 30.0882 11.1867C30.0728 11.5997 31.0958 12.6726 31.2724 12.5723C31.3703 12.5163 31.094 12.1091 30.7964 11.756ZM7.52974 15.5152C7.72364 15.1042 7.77927 14.6063 7.64297 14.5098C7.50099 14.4732 7.3071 14.8611 7.20545 15.0965C7.00576 15.552 6.92138 15.9031 6.9827 16.017C7.06533 16.1617 7.34546 15.9051 7.52974 15.5152ZM8.72362 16.0363C8.85795 15.7488 8.79466 15.3821 8.49136 15.3146C8.03077 15.278 7.75621 16.075 7.95776 16.3354C8.13242 16.5612 8.55475 16.3972 8.72362 16.0363ZM20.2764 16.7407C20.3416 16.3682 19.8291 15.8665 18.7005 15.8916C17.4318 15.9861 17.023 16.704 17.6563 17.1518C18.4395 17.7076 20.1554 17.4374 20.2764 16.7407ZM23.5469 16.7137C23.57 16.2814 22.9288 15.8472 21.856 15.9012C20.6659 16.0267 20.2878 16.7098 20.8618 17.1478C21.6755 17.7674 23.5066 17.4702 23.5469 16.7137ZM26.7753 16.4473C26.7446 16.044 26.1957 15.523 25.0747 15.6291C23.9384 15.8066 23.6563 16.5593 24.2686 17.0109C25.1534 17.6632 26.8387 17.2849 26.7753 16.4473ZM29.5564 16.1212C29.4663 15.6657 28.8981 15.0945 27.9174 15.247C26.8041 15.5094 26.7177 16.4339 27.4682 16.9066C28.4241 17.5068 29.7331 17.0167 29.5564 16.1212ZM31.4969 15.7468C31.3646 15.3068 30.8674 14.6816 30.0978 14.8765C29.1898 15.2123 29.3799 16.3354 30.1956 16.7387C31.0209 17.144 31.7503 16.5882 31.4969 15.7468ZM32.5065 15.3532C32.3588 14.9692 32.0056 14.4616 31.6371 14.6391C31.092 15.0232 31.6429 16.2447 32.2341 16.3258C32.6045 16.374 32.7273 15.9301 32.5065 15.3532ZM10.8503 16.3972C11.002 16.0382 10.7985 15.6137 10.2552 15.5558C9.5144 15.5442 9.12857 16.3162 9.51243 16.7175C9.86372 17.0823 10.6392 16.897 10.8503 16.3972ZM13.1266 16.7272C13.2495 16.3779 12.9501 15.9823 12.3109 15.9515C11.5029 15.9707 11.1325 16.5979 11.5029 16.9935C11.9194 17.4374 12.9347 17.2714 13.1266 16.7272ZM16.57 16.6558C16.6564 16.3278 16.3243 15.8665 15.4799 15.8568C14.5355 15.907 14.1612 16.5361 14.5815 16.951C15.1075 17.4721 16.4088 17.2791 16.57 16.6558ZM32.8117 14.9209C32.4125 14.0274 32.3491 14.1779 32.33 14.2281C32.2206 14.7414 32.8962 16.0093 33.0843 15.8877C33.163 15.8376 33.0632 15.4844 32.8117 14.9209ZM13.6391 8.50424C13.6468 8.50038 14.501 8.0681 14.5355 7.9774L14.5317 7.97161C14.334 7.93301 12.9098 8.64511 12.856 8.81108L12.8618 8.8188C12.9578 8.84002 13.4376 8.60458 13.6391 8.50424ZM14.0537 8.69915C14.357 8.5274 14.7236 8.26493 14.6257 8.21669L14.6064 8.21091C14.238 8.18581 13.0729 8.82266 13.2073 8.97511C13.2629 9.04266 13.6026 8.95388 14.0537 8.69915ZM20.8042 9.17196C20.7831 8.97125 20.5163 8.69143 20.0863 8.71072C19.5911 8.77248 19.3666 9.21634 19.7063 9.46722C20.071 9.73546 20.8483 9.59459 20.8042 9.17196ZM22.5527 9.10055C22.4317 8.8709 21.9846 8.56213 21.4952 8.60266C20.9923 8.68757 20.9672 9.14108 21.3147 9.40546C21.8138 9.78371 22.6832 9.64669 22.5911 9.20283C22.5853 9.17196 22.568 9.12949 22.5527 9.10055ZM24.0287 8.97318C23.8157 8.74933 23.2725 8.45792 22.8521 8.51582C22.449 8.61423 22.5891 9.02335 22.9808 9.27616C23.499 9.61195 24.2341 9.57528 24.1707 9.21634C24.1592 9.14494 24.1074 9.05616 24.0287 8.97318ZM25.1612 8.80721C24.8655 8.58722 24.2667 8.32091 23.9615 8.38844C23.666 8.50423 24.1093 8.98284 24.6218 9.20862C25.1054 9.4209 25.52 9.38037 25.4413 9.12757C25.4126 9.03494 25.3108 8.91915 25.1612 8.80721ZM25.9212 8.61423C25.57 8.40389 24.9615 8.1588 24.7657 8.23406C24.5718 8.39231 25.639 9.08704 26.1612 9.14108C26.378 9.16424 26.4394 9.07547 26.3146 8.923C26.2782 8.87862 26.1707 8.76284 25.9212 8.61423ZM14.9212 8.89213C15.2245 8.68564 15.4241 8.43669 15.2398 8.39809L15.2073 8.39424C14.7044 8.38652 13.7543 8.95968 13.9212 9.17002C14.0154 9.28967 14.4837 9.19318 14.9212 8.89213ZM16.1189 9.04073C16.3301 8.84968 16.4855 8.55441 16.144 8.53319C15.5604 8.54862 14.7773 9.11213 15.0268 9.33792C15.1919 9.49038 15.7505 9.37265 16.1189 9.04073ZM17.5202 9.13335C17.6583 8.94037 17.6583 8.66827 17.2936 8.66056C16.7696 8.69143 16.213 9.1681 16.4299 9.40161C16.6238 9.60809 17.2629 9.4923 17.5202 9.13335ZM19.1247 9.18161C19.1881 8.9809 19.0576 8.70494 18.6468 8.71072C18.1228 8.75705 17.7312 9.22213 18.0095 9.46528C18.2879 9.70458 19 9.57528 19.1247 9.18161ZM26.2782 8.40389C25.8598 8.18775 25.3012 7.98512 25.2379 8.06038C25.2321 8.24757 26.7408 9.01564 26.902 8.90564C26.9827 8.8516 26.7043 8.62582 26.2782 8.40389ZM26.2033 8.18968C25.7946 7.99477 25.4011 7.84424 25.3453 7.86353L25.3531 7.87898C25.5105 8.0102 26.9423 8.71266 27.0325 8.67599C26.9787 8.56213 26.211 8.19354 26.2033 8.18968ZM10.5086 10.7158C10.8561 10.407 11.2379 9.98634 11.2092 9.91107C11.0845 9.85704 9.8023 11.0362 9.85028 11.1597C9.92515 11.1886 10.238 10.959 10.5086 10.7158ZM11.1574 10.8895C11.3877 10.6714 11.5374 10.3935 11.3839 10.3434C11.0614 10.3106 10.4088 10.9995 10.5048 11.1616C10.5682 11.2716 10.8982 11.1346 11.1574 10.8895ZM21.3914 11.7984C21.3934 11.5109 20.9692 11.1269 20.1631 11.1577C19.2533 11.2446 18.9577 11.8177 19.4338 12.1555C20.069 12.6032 21.3858 12.3639 21.3914 11.7984ZM23.8637 11.6112C23.783 11.287 23.2494 10.8702 22.4606 10.9339C21.6275 11.0574 21.4701 11.6556 21.9557 12.0281C22.6391 12.5511 23.9308 12.3176 23.8752 11.6807C23.8732 11.6614 23.8694 11.6325 23.8637 11.6112ZM26.0728 11.4202C25.9155 11.1134 25.355 10.7023 24.6505 10.7911C23.9135 10.9455 23.9328 11.5456 24.4855 11.8969C25.213 12.36 26.2552 12.1439 26.1247 11.5572C26.115 11.5147 26.0939 11.4607 26.0728 11.4202ZM27.7715 11.1712C27.5488 10.8721 26.973 10.4784 26.4452 10.5865C25.8886 10.7679 26.1496 11.4144 26.7523 11.7348C27.3876 12.0705 28.0248 11.9065 27.9058 11.4356C27.8828 11.3507 27.8387 11.2619 27.7715 11.1712ZM28.9077 10.8818C28.6371 10.5904 28.0786 10.216 27.7408 10.3376C27.3607 10.5595 28.0018 11.4028 28.6928 11.5939C29.0709 11.6981 29.3261 11.5398 29.1016 11.1404C29.0555 11.0574 28.9903 10.9705 28.9077 10.8818ZM12.3782 11.3662C12.6315 11.0883 12.7562 10.6714 12.334 10.6116C11.6565 10.5904 10.8982 11.4086 11.1536 11.7193C11.3531 11.9625 12.0058 11.7753 12.3782 11.3662ZM14.1037 11.5765C14.1344 11.5341 14.2091 11.4202 14.2207 11.2928C14.2629 10.8258 13.5643 10.7467 13.0154 11.1558C12.5834 11.4781 12.5067 11.9393 13.0634 12.0281C13.5988 12.0648 13.977 11.7483 14.1037 11.5765ZM16.4933 11.6769C16.6545 11.3546 16.4951 10.9011 15.7792 10.8818C14.8465 10.9242 14.2764 11.6653 14.6756 12.0532C15.1055 12.4719 16.2092 12.2423 16.4933 11.6769ZM18.8924 11.7405C18.9769 11.4144 18.6775 10.9686 17.8963 10.9763C16.9462 11.0477 16.5182 11.7463 16.9655 12.1304C17.4933 12.5858 18.737 12.3349 18.8924 11.7405ZM29.4413 10.5672C29.1342 10.2797 28.639 9.93038 28.5028 10.0577C28.4279 10.2063 28.7138 10.5691 29.0095 10.8432C29.3243 11.1346 29.6985 11.3372 29.8444 11.2986C30.0095 11.2542 29.8329 10.9339 29.4413 10.5672ZM29.7178 10.5923C29.4777 10.3839 29.1669 10.0983 28.9212 9.89756L28.9058 9.88405C28.7657 9.77406 28.71 9.73546 28.6831 9.7316L28.6928 9.76248C28.8923 10.0404 29.8963 10.9435 30.0593 10.9628L30.0651 10.957C30.044 10.8914 29.7503 10.6212 29.7178 10.5923ZM8.11329 13.6491C8.40687 13.1937 8.60273 12.7151 8.58546 12.6263L8.57967 12.6205C8.47791 12.6398 7.77348 13.8344 7.76779 13.846L7.7467 13.8826C7.69096 13.9849 7.56045 14.2262 7.6468 14.1991C7.71216 14.1779 7.90977 13.9618 8.11329 13.6491ZM8.8656 14.0814C9.06146 13.7765 9.11327 13.379 8.89249 13.3056C8.51059 13.2593 7.99809 14.2339 8.17275 14.4538C8.29364 14.6083 8.65072 14.4172 8.8656 14.0814ZM21.7734 14.8649C21.8022 14.5118 21.286 14.0428 20.2399 14.0795C19.0536 14.1875 18.7082 14.8765 19.3262 15.2934C20.1151 15.826 21.7158 15.5462 21.7734 14.8649ZM24.8771 14.8379C24.8464 14.4906 24.3032 14.0119 23.2321 14.0872C22.1535 14.2262 21.8771 14.8881 22.449 15.2992C23.2609 15.8839 24.9404 15.5636 24.8771 14.8379ZM27.6506 14.533C27.5546 14.149 27.0076 13.6588 26.0843 13.7726C25.1112 13.9656 24.9749 14.6893 25.5776 15.11C26.4547 15.7217 27.8482 15.3319 27.6506 14.533ZM29.8943 14.2107C29.7273 13.7842 29.1438 13.2555 28.3665 13.4098C27.4567 13.6839 27.616 14.6275 28.4068 15.0366C29.2743 15.4863 30.14 15.0676 29.927 14.3033C29.9173 14.2744 29.9039 14.2377 29.8943 14.2107ZM31.2705 13.846C31.0747 13.4639 30.5738 12.9255 30.0575 13.1011C29.4471 13.4137 29.8712 14.5446 30.6965 14.8032C31.3127 14.998 31.6083 14.506 31.2705 13.846ZM10.4299 14.5002C10.6276 14.1586 10.5432 13.7495 10.1018 13.6839C9.45101 13.6569 8.96167 14.4636 9.25908 14.8283C9.51243 15.1371 10.167 14.9518 10.4299 14.5002ZM12.8022 14.7066C12.9789 14.3439 12.8195 13.8093 12.0614 13.7553C11.0767 13.763 10.5374 14.6642 11.0365 15.1139C11.4933 15.5268 12.5182 15.2914 12.8022 14.7066ZM15.3512 14.8861C15.4702 14.5619 15.2169 14.1007 14.4357 14.0775C13.5067 14.1142 13.0748 14.7916 13.4914 15.2046C13.9712 15.6793 15.1362 15.4786 15.3512 14.8861ZM18.4529 14.973C18.5296 14.6854 18.1669 14.2918 17.2917 14.2975C16.2974 14.3573 15.9117 14.9093 16.3588 15.2624C16.9386 15.7179 18.307 15.5288 18.4529 14.973ZM31.8789 13.4619C31.7005 13.1628 31.305 12.6418 31.0996 12.8155C30.7945 13.24 31.7158 14.4636 32.0613 14.3631C32.2379 14.3129 32.163 13.9328 31.8789 13.4619ZM32.3108 13.9135C32.044 13.4407 31.6409 12.8386 31.33 12.3948L31.3453 12.4333C31.7177 13.1802 32.1937 13.8518 32.3204 13.954L32.3281 13.9502L32.3108 13.9135ZM6.61807 17.1344C6.78126 16.5766 6.82924 16.0382 6.82148 15.9515C6.80804 15.9591 6.80804 15.9591 6.78312 16.0324C6.63917 16.5169 6.45489 17.1634 6.34165 17.6554L6.33597 17.6864C6.33018 17.7346 6.33018 17.7423 6.33204 17.7616L6.34745 17.7654C6.41653 17.6998 6.52976 17.4354 6.61807 17.1344ZM7.41071 17.5685C7.54701 17.146 7.43377 16.6635 7.17856 16.5748C6.74278 16.5169 6.52211 17.7076 6.72366 18.0066C6.89252 18.2594 7.26491 18.0221 7.41071 17.5685ZM22.021 18.5548C22.0844 18.0511 21.4433 17.5377 20.3013 17.5821C19.0076 17.7094 18.5969 18.4872 19.1823 19.0102C19.9999 19.7397 21.9116 19.4347 22.021 18.5548ZM25.522 18.4505C25.5469 17.9738 24.8809 17.5088 23.7619 17.5899C22.4875 17.7538 22.1381 18.5026 22.7561 18.9774C23.616 19.6354 25.4778 19.2823 25.522 18.4505ZM28.6352 18.1341C28.616 17.6766 28.0843 17.0977 26.9596 17.2367C25.6852 17.4818 25.4452 18.4003 26.2033 18.8828C27.1496 19.4829 28.6717 19.016 28.6352 18.1341ZM31.0747 17.7152C31.0113 17.2135 30.5028 16.5902 29.5699 16.7735C28.4567 17.0958 28.3896 18.1977 29.186 18.6743C30.0786 19.2089 31.1918 18.6435 31.0747 17.7152ZM32.8175 17.4432C32.7215 17.0031 32.3204 16.3798 31.6525 16.5824C30.7407 16.9781 31.0056 18.2478 31.8463 18.5316C32.4931 18.7458 32.9825 18.1977 32.8175 17.4432ZM9.08059 17.97C9.17852 17.667 9.00572 17.2869 8.60273 17.2251C8.0346 17.2 7.85032 17.9005 8.11515 18.2248C8.38392 18.5509 8.94244 18.4023 9.08059 17.97ZM11.5816 18.3579C11.6794 18.024 11.4031 17.64 10.835 17.5975C10.0518 17.6014 9.8541 18.2846 10.2245 18.6339C10.6258 19.0102 11.4376 18.8461 11.5816 18.3579ZM14.7389 18.5316C14.8407 18.1263 14.4107 17.6766 13.6084 17.6535C12.6065 17.6921 12.2553 18.4235 12.7831 18.8731C13.3723 19.3749 14.5797 19.1645 14.7389 18.5316ZM18.4836 18.6705C18.5681 18.2807 18.0594 17.7462 16.8886 17.7538C15.5893 17.8329 15.1593 18.5798 15.7965 19.0584C16.5911 19.6547 18.3243 19.4058 18.4836 18.6705ZM33.4183 16.924C33.3914 16.8218 33.1534 15.9379 32.8597 16.1714C32.4624 16.6326 32.9173 17.9662 33.3224 17.9526C33.5679 17.9468 33.545 17.4142 33.4183 16.924ZM33.1975 15.8781L33.1438 15.7333L33.1534 15.7623C33.257 16.0962 33.3262 16.4416 33.424 16.7773C33.4931 17.0185 33.5834 17.2541 33.6563 17.4933C33.5296 17.0051 33.3607 16.3528 33.1975 15.8781ZM15.3934 7.63775C16.403 7.30003 16.403 7.30003 16.4319 7.28266V7.2788C16.1958 7.26723 14.8407 7.70722 14.6411 7.85775L14.6449 7.8674C14.712 7.86353 14.9001 7.80371 15.3934 7.63775ZM15.5355 7.79214C15.6756 7.74002 16.3799 7.47564 16.4337 7.41003L16.4222 7.39845C16.1362 7.37915 14.5873 7.88669 14.643 8.03915C14.7293 8.07775 15.1746 7.92529 15.5355 7.79214ZM16.0095 7.9388C16.2245 7.84231 16.8099 7.56055 16.689 7.52003L16.6679 7.51617C16.1958 7.50652 14.8291 8.07389 15.0077 8.20705C15.0691 8.25144 15.3858 8.21669 16.0095 7.9388ZM20.046 8.20705C20.0575 8.05652 19.927 7.76512 19.5757 7.77863C19.1746 7.8288 18.8233 8.26493 19.1017 8.49652C19.378 8.72809 20.0172 8.58529 20.046 8.20705ZM21.2053 8.1781C21.117 7.99283 20.7984 7.74967 20.4779 7.77284C20.1036 7.83459 20.0325 8.25143 20.3589 8.46756C20.7273 8.71266 21.2898 8.5795 21.234 8.26108C21.2284 8.23406 21.2168 8.20126 21.2053 8.1781ZM22.3492 8.10477C22.1611 7.92916 21.6986 7.69565 21.3972 7.73038C21.1093 7.79792 21.2571 8.16266 21.5757 8.3595C21.9884 8.61423 22.545 8.57758 22.4817 8.29968C22.4759 8.27266 22.451 8.19932 22.3492 8.10477ZM23.2916 8.00055C22.9864 7.81336 22.4395 7.62038 22.2207 7.6609C22.0248 7.73424 22.3953 8.08932 22.7945 8.27459C23.2743 8.49652 23.6621 8.45407 23.5719 8.25722C23.5565 8.22056 23.497 8.12599 23.2916 8.00055ZM23.9749 7.87126C23.6026 7.69951 22.9999 7.52196 22.8521 7.56827C22.7254 7.66669 23.7292 8.22634 24.236 8.28038C24.426 8.3016 24.4931 8.24757 24.4049 8.14336C24.3377 8.06424 24.1803 7.96581 23.9749 7.87126ZM24.3819 7.72459C23.9308 7.55284 23.3416 7.41196 23.2743 7.45827C23.2687 7.53547 24.046 7.85775 24.2917 7.94845C24.6774 8.09126 24.9653 8.15301 25.0114 8.10283C25.0575 8.05459 24.8348 7.89828 24.3819 7.72459ZM16.7754 8.06038C17.0249 7.91565 17.3416 7.67827 17.2226 7.63196L17.1689 7.62424C16.6947 7.63389 15.5586 8.14722 15.7158 8.3402C15.8042 8.44634 16.2763 8.34985 16.7754 8.06038ZM17.7332 8.14722C17.9328 7.97932 18.1016 7.72459 17.881 7.70529L17.8444 7.70336C17.3455 7.73038 16.4606 8.23406 16.6814 8.44248C16.8253 8.57758 17.3608 8.45792 17.7332 8.14722ZM18.831 8.1974C18.9309 8.04301 18.9807 7.75547 18.6525 7.7574C18.1727 7.79792 17.5527 8.29003 17.831 8.50617C18.0422 8.66827 18.6161 8.53125 18.831 8.1974ZM24.4855 7.57406C24.0633 7.43319 23.6409 7.33862 23.545 7.34827L23.5393 7.35792C23.6237 7.43125 25.1227 7.97354 25.2187 7.91179C25.2168 7.85389 24.8368 7.69178 24.4855 7.57406ZM24.2801 7.41968C23.8406 7.28459 23.4989 7.21125 23.4203 7.20933L23.4317 7.22284C23.4452 7.22862 25.1074 7.76126 25.2034 7.76704C25.1823 7.72845 24.6659 7.53739 24.2801 7.41968ZM22.1477 6.91985C21.7715 6.86582 21.4548 6.84846 21.4337 6.86003C21.4529 6.86389 21.4587 6.86389 21.5028 6.86968C22.0172 6.90635 22.5239 6.97775 23.0172 7.08003L22.9999 7.07424C22.9942 7.07424 22.5835 6.98161 22.1477 6.91985ZM17.2744 7.0974C17.689 7.02213 17.9597 6.98354 18.1765 6.95266C18.3397 6.9295 18.3455 6.92758 18.3627 6.92179V6.91985C18.1267 6.89477 16.8348 7.0974 16.5162 7.2267C16.5297 7.23056 16.5297 7.23056 17.2744 7.0974ZM17.2668 7.1881C17.6122 7.11476 17.9654 7.08003 18.3051 6.97775V6.97196C17.9942 6.96038 16.6507 7.1881 16.4068 7.3367V7.34827C16.4779 7.356 16.6295 7.32319 17.2668 7.1881ZM17.451 7.27688C18.355 7.04144 18.355 7.04144 18.3704 7.03178L18.3589 7.02599C17.9942 7.02599 16.572 7.31547 16.524 7.45441C16.57 7.50266 17.0268 7.3888 17.451 7.27688ZM20.3454 7.47178C20.3051 7.36372 20.1324 7.16494 19.9788 7.17652C19.7888 7.21511 19.593 7.55863 19.8444 7.7188C20.0614 7.85775 20.4145 7.74775 20.3569 7.50266L20.3454 7.47178ZM21.0441 7.4409C20.8885 7.31161 20.5374 7.1495 20.4069 7.16494C20.282 7.20354 20.38 7.51039 20.6486 7.6609C20.9001 7.80178 21.2033 7.77284 21.1726 7.61266C21.1669 7.576 21.1381 7.5181 21.0441 7.4409ZM21.6698 7.38688C21.3934 7.25564 20.9232 7.11862 20.8176 7.13793C20.7351 7.18231 21.2033 7.53739 21.5968 7.65126C21.8445 7.72459 22.021 7.69757 21.9692 7.59529C21.9501 7.56249 21.8867 7.48915 21.6698 7.38688ZM22.1496 7.3174C21.7754 7.19389 21.2187 7.07811 21.1515 7.09933C21.165 7.1495 21.8886 7.44476 22.0748 7.50459C22.6026 7.67635 22.6391 7.59337 22.6429 7.58178C22.6525 7.53739 22.5028 7.43512 22.1496 7.3174ZM22.4721 7.23442C21.9903 7.11091 21.4221 7.03178 21.3954 7.05301C21.5047 7.12249 23.0767 7.60108 23.1304 7.49108C23.0997 7.42161 22.7772 7.31354 22.4721 7.23442ZM17.831 7.35792C17.9884 7.30389 18.5067 7.12442 18.5565 7.08968L18.5527 7.08196L18.5374 7.08003C18.0402 7.09547 16.7619 7.47951 16.9097 7.57021C16.9347 7.58757 17.0767 7.61845 17.831 7.35792ZM18.3455 7.41968C18.3512 7.41775 18.831 7.18231 18.8444 7.13213L18.8119 7.12442C18.378 7.15337 17.3166 7.54319 17.4836 7.65704C17.5451 7.69565 17.831 7.66863 18.3455 7.41968ZM18.9596 7.46021C19.0403 7.39459 19.2917 7.16301 19.1784 7.15529H19.1592C18.8003 7.19196 18.0057 7.58371 18.2034 7.71302C18.3013 7.77669 18.6448 7.71108 18.9596 7.46021ZM19.639 7.47757C19.6697 7.4081 19.7255 7.16494 19.5547 7.17266C19.309 7.20933 18.8042 7.56055 18.9923 7.72266C19.1228 7.83652 19.5201 7.74389 19.639 7.47757ZM22.6237 7.14564C22.14 7.04723 21.57 6.97968 21.5373 7.00091C21.5508 7.0067 23.2783 7.43126 23.4106 7.39266C23.3953 7.32705 22.9193 7.2074 22.6237 7.14564ZM22.5891 7.05687C22.1496 6.98161 21.6698 6.93723 21.641 6.95266C21.6564 6.95652 23.3474 7.28266 23.4106 7.25758C23.3665 7.22284 23.0075 7.12827 22.5891 7.05687ZM22.3685 6.96811C21.973 6.90828 21.6026 6.88319 21.545 6.89284C21.5584 6.8967 23.2072 7.15143 23.236 7.14564L23.2283 7.14178C23.1247 7.10705 22.7581 7.02599 22.3685 6.96811ZM19.9616 6.79634C19.95 6.81758 19.9481 6.84073 19.9405 6.86197L19.9443 6.86003C20.0114 6.82915 20.069 6.80985 20.1804 6.77897C20.2206 6.7674 20.2264 6.7674 20.2322 6.76354V6.76161C20.2284 6.75968 19.9961 6.73073 19.9616 6.79634ZM19.7888 6.79828C19.8733 6.82722 19.9155 6.84846 19.9385 6.86197V6.86003C19.9365 6.83495 19.9462 6.81179 19.9423 6.78863L19.9251 6.76933C19.8809 6.75197 19.7082 6.75583 19.6966 6.76547C19.6986 6.76933 19.6986 6.76933 19.7888 6.79828ZM19.6237 6.80793C19.7964 6.82915 19.8963 6.85231 19.9385 6.86197C19.7888 6.80214 19.6813 6.75968 19.3876 6.77319C19.3646 6.77512 19.3646 6.77512 19.3569 6.77705C19.3627 6.77897 19.3704 6.78091 19.4433 6.78863C19.4836 6.79248 19.5508 6.79828 19.6237 6.80793ZM19.4778 6.82336C19.7217 6.83687 19.8733 6.85424 19.9385 6.86197C19.7964 6.83687 19.4164 6.7674 19.0307 6.80214L19.0191 6.80599C19.1708 6.82144 19.3244 6.81372 19.4778 6.82336ZM19.3684 6.84073C19.6641 6.8446 19.8579 6.85617 19.9385 6.86197C19.1727 6.7867 18.7926 6.83301 18.7504 6.83881L18.7466 6.84073C18.9538 6.86003 19.1612 6.83881 19.3684 6.84073ZM19.2975 6.86197C19.6276 6.85424 19.8444 6.86003 19.9385 6.86197C18.9807 6.81372 18.5623 6.88319 18.5585 6.88319L18.5565 6.88512C18.5758 6.88705 18.618 6.88705 18.7735 6.87933C18.9193 6.87354 19.0997 6.86582 19.2975 6.86197ZM20.4356 6.82144C20.284 6.82915 20.1304 6.84266 19.9405 6.86197H19.952C20.3339 6.83687 20.6257 6.83301 21.0306 6.83687C21.1784 6.83881 21.19 6.83687 21.2091 6.83495C21.1477 6.8195 20.8003 6.80214 20.4356 6.82144ZM20.2975 6.80793C20.1612 6.82336 20.0403 6.8446 19.9385 6.86389L19.9481 6.86197C20.2571 6.8253 20.5085 6.81179 20.8156 6.80407C20.902 6.80214 20.9116 6.80021 20.9289 6.80021C20.8982 6.78863 20.6064 6.77319 20.2975 6.80793ZM20.1381 6.79828C20.0632 6.81564 19.9961 6.84073 19.9385 6.86197L19.9443 6.86003C20.119 6.82336 20.2802 6.80021 20.5181 6.78091C20.5796 6.77512 20.5854 6.77512 20.5968 6.77319C20.5872 6.76933 20.3416 6.75197 20.1381 6.79828ZM19.2724 6.88319C19.6179 6.86389 19.8349 6.86197 19.9405 6.86197C18.879 6.84846 18.4644 6.93144 18.4606 6.93336C18.4702 6.93915 18.5508 6.93336 18.783 6.91599C18.8924 6.90828 19.0787 6.89477 19.2724 6.88319ZM19.2917 6.90635C19.6295 6.87548 19.8387 6.86582 19.9405 6.86197C18.9078 6.88319 18.4894 6.97003 18.4606 6.98354C18.4817 6.9874 18.5374 6.98354 18.808 6.9546C18.9789 6.93723 19.1266 6.92179 19.2917 6.90635ZM19.3551 6.9295C19.57 6.89862 19.76 6.8774 19.9385 6.86197H19.927C18.7888 6.92758 18.5029 7.0395 18.5029 7.0395C18.522 7.04723 18.522 7.04723 19.3551 6.9295ZM19.9538 6.97003C19.952 6.93336 19.9385 6.89863 19.9385 6.86197L19.9365 6.86389C19.8579 6.91985 19.7696 6.98547 19.7389 7.04144C19.689 7.13213 19.7504 7.15337 19.7792 7.15723C19.8444 7.16687 19.9654 7.12056 19.9538 6.97003ZM20.1266 6.96424C20.0728 6.9295 20.0172 6.90056 19.9385 6.86197V6.86389C19.9616 6.91599 19.9673 6.97389 19.9923 7.02407C19.9999 7.0395 20.0192 7.07231 20.0575 7.10511C20.1266 7.16109 20.2341 7.17266 20.2513 7.12442C20.261 7.10511 20.2629 7.05495 20.1266 6.96424ZM20.2955 6.9546C20.1535 6.91021 20.0038 6.8774 19.9385 6.86197L19.9423 6.86389C20.1132 6.93336 20.2667 7.0395 20.4394 7.10319C20.5354 7.13793 20.6391 7.1495 20.6275 7.11284C20.6237 7.08968 20.545 7.03178 20.2955 6.9546ZM20.4356 6.93915C20.2437 6.90248 20.0614 6.8774 19.9385 6.86197L19.9462 6.86389C20.0825 6.89091 20.1784 6.91407 20.428 6.98354C20.6352 7.04144 20.9461 7.13021 20.973 7.09547C20.9519 7.0588 20.7313 6.99511 20.4356 6.93915ZM20.5374 6.91985C20.3589 6.89862 20.1631 6.87933 19.9405 6.86197L19.95 6.86389C20.2264 6.8967 20.4125 6.9295 20.7427 6.98933C21.0152 7.0395 21.2091 7.07424 21.2398 7.0588C21.1822 7.01828 20.8425 6.95652 20.5374 6.91985ZM20.5968 6.89863C20.3972 6.88319 20.1823 6.87161 19.9385 6.86197H19.95C20.2955 6.88512 20.5412 6.91407 20.9634 6.96811C21.2284 7.00284 21.3703 7.02021 21.4126 7.01442C21.3858 6.9874 21.0306 6.93144 20.5968 6.89863ZM19.4702 6.94687C19.7044 6.8967 19.8502 6.87354 19.9405 6.86197L19.9289 6.86389C18.9155 6.96811 18.7255 7.08196 18.7235 7.08389C18.7408 7.10319 18.7408 7.10319 19.4702 6.94687ZM19.6123 6.96038C19.7466 6.91407 19.8426 6.88512 19.9405 6.86197L19.9327 6.86389C19.1995 6.9874 19.0211 7.09162 19.0153 7.11862C19.0518 7.15143 19.2629 7.08003 19.6123 6.96038ZM19.7735 6.96811C19.8387 6.92179 19.8809 6.89091 19.9385 6.86197L19.9327 6.86389C19.284 7.05301 19.3608 7.14178 19.3627 7.14178C19.3665 7.14372 19.4529 7.19582 19.7735 6.96811ZM20.6122 6.87548C20.403 6.86582 20.1899 6.86197 19.9385 6.86197H19.952C20.3551 6.87354 20.641 6.89477 21.1266 6.93915C21.3665 6.96038 21.4414 6.96617 21.4894 6.96424C21.4548 6.93723 21.021 6.89284 20.6122 6.87548ZM20.5815 6.85231C20.3838 6.85038 20.1784 6.85231 19.9385 6.86197H19.952C20.3282 6.86003 20.6275 6.86968 21.1362 6.89863C21.3819 6.91213 21.4376 6.91599 21.4701 6.91213C21.4452 6.89477 21.0517 6.8581 20.5815 6.85231ZM21.3378 6.86003C20.879 6.83301 20.4125 6.83301 19.9385 6.86197H19.95C20.3992 6.84266 20.7331 6.85038 21.1228 6.86003C21.2974 6.86389 21.3089 6.86389 21.3339 6.86197L21.3378 6.86003ZM11.2379 30.0295C10.8791 29.599 10.144 29.1553 10.0058 29.2382C9.8388 29.3366 10.714 30.2224 11.2361 30.4C11.2592 30.4058 11.2899 30.4134 11.3128 30.4134C11.4606 30.4212 11.43 30.2591 11.2379 30.0295ZM20.2975 30.645C20.3723 30.317 19.8444 29.9754 18.9443 29.9927C18.0211 30.0565 17.7658 30.4656 18.1151 30.7955C18.6775 31.3243 20.167 31.222 20.2975 30.645ZM22.8848 30.5795C23.0517 30.2455 22.616 29.9214 21.7005 29.9677C20.664 30.0719 20.2955 30.5717 20.7313 30.8959C21.3185 31.3282 22.6448 31.0581 22.8848 30.5795ZM25.4394 30.4174C25.689 30.0796 25.4068 29.7631 24.5143 29.8442C23.4356 29.9927 22.9443 30.5467 23.3627 30.8515C23.833 31.1932 25.0556 30.9364 25.4394 30.4174ZM27.5412 30.1819C27.854 29.8326 27.7158 29.5778 27.2264 29.603C27.1668 29.6068 27.0881 29.6164 27.0287 29.6261C26.0249 29.8268 25.424 30.4887 25.8368 30.7396C26.1995 30.9616 27.1074 30.6644 27.5412 30.1819ZM29.067 29.8924C29.3972 29.5547 29.4356 29.3116 29.1591 29.3116C29.092 29.3116 29.0114 29.3308 28.9577 29.3424C28.1208 29.5914 27.4164 30.373 27.7465 30.5409C27.9768 30.6586 28.6313 30.3363 29.067 29.8924ZM29.9749 29.5682C30.2705 29.2691 30.5046 28.9719 30.3626 28.9777C30.3319 28.9796 30.282 29.0008 30.2494 29.0144C29.6351 29.3212 28.8136 30.2185 29.0172 30.2745C29.1304 30.3035 29.5604 29.9869 29.9749 29.5682ZM12.7869 30.2707C12.5394 29.877 11.7217 29.5508 11.5202 29.7013C11.3052 29.8616 11.9328 30.4675 12.5336 30.5795C12.9174 30.6258 12.8675 30.398 12.7869 30.2707ZM14.7869 30.454C14.7082 30.2397 14.3013 29.9909 13.8196 29.9638C13.3436 29.9677 13.4261 30.2243 13.5892 30.3864C13.9788 30.7705 14.8061 30.867 14.8003 30.5253C14.8003 30.5023 14.7946 30.4733 14.7869 30.454ZM17.4491 30.6045C17.426 30.317 16.9059 30.0025 16.1689 29.9909C15.4664 30.0179 15.3512 30.3401 15.6468 30.6238C16.1938 31.1487 17.4913 31.1333 17.4491 30.6045ZM13.8676 32.1483C13.3685 31.8473 12.739 31.5521 12.6833 31.5945C12.6986 31.6949 13.7331 32.2584 14.1401 32.3877C14.1727 32.3973 14.1804 32.3973 14.1977 32.3973L14.2035 32.3857C14.1766 32.3452 14.0633 32.2661 13.8676 32.1483ZM20.2418 32.5788C20.2993 32.3645 19.9155 32.1425 19.2495 32.1523C18.6027 32.1927 18.4529 32.4359 18.6852 32.6385C19.0805 32.9839 20.1419 32.9435 20.2418 32.5788ZM22.0633 32.5324C22.2436 32.3124 21.975 32.1001 21.2898 32.1349C20.5566 32.2024 20.2648 32.4977 20.5028 32.7061C20.8425 33.0052 21.8022 32.8508 22.0633 32.5324ZM23.8597 32.4205C24.0882 32.2429 24.0556 32.0943 23.7754 32.0461C23.6276 32.021 23.4586 32.0364 23.3684 32.0442C22.5239 32.1541 22.1324 32.5247 22.3339 32.7003C22.5815 32.9165 23.4817 32.7119 23.8597 32.4205ZM25.3377 32.2545C25.6352 32.0692 25.7139 31.9168 25.5335 31.8763C25.4395 31.8551 25.3012 31.8743 25.2264 31.8839C24.4184 32.0346 23.8041 32.5112 24.0153 32.6366C24.2034 32.7466 24.9193 32.515 25.3377 32.2545ZM26.4125 32.05C26.7811 31.8396 26.9576 31.6717 26.8309 31.6505C26.7849 31.6427 26.7197 31.6582 26.6544 31.6717C25.9653 31.8609 25.1323 32.4205 25.2724 32.488C25.3684 32.5382 25.9558 32.3104 26.4125 32.05ZM26.543 32.0963L27.2417 31.7122L27.284 31.6871C27.5392 31.5328 27.6621 31.4517 27.6966 31.4112L27.6889 31.4035C27.6659 31.4093 27.6563 31.4112 27.6103 31.4305C27.1668 31.6253 26.1746 32.2159 26.0939 32.297C26.1477 32.3046 26.5374 32.0982 26.543 32.0963ZM15.1055 32.3491C14.8061 32.1252 14.2264 31.8512 13.81 31.7991C13.7504 31.7972 13.5719 31.7875 13.6852 31.9245C13.9405 32.2314 15.2649 32.7621 15.2936 32.569C15.3013 32.5247 15.2322 32.4437 15.1055 32.3491ZM16.6103 32.4842C16.4433 32.295 15.9097 32.0152 15.3397 31.9805C14.8676 31.9805 15.0806 32.2063 15.1286 32.2506C15.499 32.6019 16.7216 32.9493 16.6814 32.6115C16.6756 32.5748 16.6507 32.5324 16.6103 32.4842ZM18.3339 32.5632C18.263 32.3491 17.7773 32.1117 17.165 32.1001C16.5969 32.1194 16.6545 32.3356 16.7774 32.4591C17.165 32.8547 18.307 32.9782 18.3435 32.6308C18.3455 32.6096 18.3416 32.5826 18.3339 32.5632ZM20.1688 33.5687C20.2034 33.5011 20.0018 33.4028 19.6179 33.4066C19.3109 33.4201 19.2764 33.4935 19.3282 33.5397C19.4567 33.6498 20.0997 33.698 20.1688 33.5687ZM21.0671 33.5475C21.1746 33.5031 21.19 33.4568 21.1113 33.4259C21.0134 33.3874 20.8329 33.395 20.7735 33.397C20.3704 33.4278 20.2053 33.5379 20.2744 33.5976C20.3685 33.6826 20.8752 33.6246 21.0671 33.5475ZM21.9557 33.4896C22.1573 33.4375 22.2591 33.3816 22.2072 33.3545C22.1611 33.3275 22.0037 33.341 21.9519 33.3448C21.4683 33.397 21.1017 33.5552 21.1074 33.6015C21.1553 33.6286 21.6526 33.5687 21.9557 33.4896ZM22.6851 33.4086C22.7811 33.3874 23.1016 33.312 23.1592 33.2581L23.1535 33.2465C23.1227 33.2407 23.092 33.2425 23.0037 33.2541C22.5795 33.3217 21.7965 33.5533 21.7907 33.5552C21.9808 33.5301 22.2341 33.4935 22.4241 33.4626L22.4683 33.4549C22.5259 33.4413 22.6026 33.4278 22.6851 33.4086ZM17.6314 33.4549C17.2668 33.3718 16.9079 33.2561 16.5373 33.2059L16.5028 33.204C16.5547 33.2696 17.2879 33.4086 17.5278 33.4529C17.6775 33.4781 17.879 33.5089 18.0287 33.5321H18.0249C17.9193 33.5167 17.7908 33.4915 17.6314 33.4549ZM18.3742 33.5224C17.9404 33.395 17.6218 33.3256 17.403 33.3101C17.3377 33.3082 17.3186 33.312 17.309 33.3256C17.355 33.4356 18.4644 33.6054 18.5854 33.5919C18.5738 33.5822 18.5719 33.5803 18.3742 33.5224ZM19.2264 33.561C19.1094 33.4895 18.7869 33.3854 18.4376 33.3776C18.2283 33.3816 18.2495 33.424 18.2802 33.451C18.4088 33.5571 19.2917 33.6961 19.2744 33.6073L19.2264 33.561ZM20.8963 33.1905C21.0134 33.0419 20.7677 32.8856 20.2322 32.9029C19.6775 32.9435 19.5643 33.1288 19.6948 33.2483C19.9538 33.4838 20.7255 33.4105 20.8963 33.1905ZM22.3012 33.1288C22.4779 33.0187 22.4721 32.9203 22.2821 32.874C22.1496 32.8432 21.9923 32.8528 21.9001 32.8586C21.2629 32.9241 20.9769 33.1635 21.1017 33.287C21.2725 33.4549 22.0095 33.3082 22.3012 33.1288ZM23.5546 33.0207C23.8137 32.9029 23.9059 32.8006 23.7926 32.7601C23.7139 32.7312 23.568 32.7485 23.4875 32.7563C22.7965 32.8586 22.2994 33.1693 22.3992 33.2599C22.5028 33.3506 23.1649 33.1963 23.5546 33.0207ZM24.5182 32.8798C24.8521 32.7466 25.044 32.627 24.9749 32.598C24.9404 32.5826 24.8386 32.6 24.7888 32.6096C24.2321 32.7273 23.4951 33.0746 23.4413 33.1654L23.449 33.177C23.5546 33.2001 24.14 33.0303 24.5182 32.8798ZM22.6506 33.422C23.0575 33.343 23.1803 33.3178 23.6505 33.2021L23.664 33.1982C23.7581 33.1731 23.8597 33.1422 23.8962 33.1248C23.8886 33.121 23.8866 33.121 23.8137 33.1364C23.4222 33.2233 23.0402 33.3372 22.6506 33.422ZM25.163 32.7139C25.4491 32.6019 25.7792 32.4591 25.8253 32.4109C25.8118 32.4051 25.8079 32.4031 25.7292 32.4263C25.3319 32.5518 24.2091 33.0284 24.1765 33.0458C24.2263 33.0496 24.4855 32.9589 25.0518 32.7582L25.0785 32.7485C25.1036 32.7369 25.1381 32.7235 25.163 32.7139ZM15.8541 32.9627C15.7102 32.9029 14.975 32.5961 14.6411 32.5362C14.6046 32.5324 14.5988 32.5324 14.5854 32.5382C14.643 32.6791 16.0748 33.1442 16.2207 33.1403C16.2111 33.123 16.2015 33.1094 15.8541 32.9627ZM16.8848 33.0844C16.6314 32.9473 16.0978 32.7369 15.7082 32.7023C15.6506 32.7003 15.5182 32.6965 15.5892 32.7756C15.7678 32.9705 17.1055 33.3796 17.0787 33.2309C17.0748 33.2021 17.0038 33.15 16.8848 33.0844ZM18.117 33.1654C17.975 33.0322 17.5258 32.8392 17.0518 32.82C16.7351 32.8238 16.7927 32.9241 16.831 32.9667C17.0153 33.1673 18.1592 33.4877 18.1765 33.2657C18.1803 33.2291 18.1363 33.1827 18.117 33.1654ZM19.4778 33.2021C19.4549 33.0554 19.0843 32.8914 18.5872 32.8894C18.1708 32.9068 18.1209 33.0361 18.2514 33.148C18.5796 33.4317 19.5201 33.4723 19.4778 33.2021ZM9.49713 28.503C9.18432 28.0282 8.60656 27.5477 8.49715 27.5863C8.36282 27.6345 9.14016 28.721 9.54511 28.9313L9.57583 28.9429C9.71781 28.9835 9.68141 28.7828 9.49713 28.503ZM21.7696 29.3424C21.8886 28.9623 21.3416 28.5782 20.3358 28.6149C19.2533 28.7075 18.8982 29.2382 19.3244 29.6146C19.9462 30.1626 21.57 29.9831 21.7696 29.3424ZM24.7274 29.2131C24.9231 28.8291 24.4989 28.4586 23.474 28.5319C22.3281 28.6709 21.8732 29.2594 22.3185 29.6242C22.8867 30.0873 24.4164 29.8268 24.7274 29.2131ZM27.3703 28.9835C27.5872 28.6457 27.4529 28.2212 26.4682 28.337C25.3569 28.528 24.8137 29.1861 25.2341 29.52C25.7216 29.9078 26.9787 29.5914 27.3703 28.9835ZM29.399 28.6863C29.7158 28.2502 29.5431 27.9606 29.0133 28.0398C28.9845 28.0437 28.9461 28.0514 28.9174 28.0571C27.9461 28.3022 27.3607 29.0704 27.7562 29.354C28.1112 29.6106 28.9884 29.2536 29.399 28.6863ZM30.7599 28.3409C31.0805 27.9163 31.1035 27.6403 30.8137 27.6847C30.7752 27.6904 30.7273 27.706 30.6889 27.7176C29.9001 28.0282 29.2513 28.9854 29.6179 29.1166C29.8501 29.1997 30.3837 28.8368 30.7599 28.3409ZM11.0115 28.8909C10.8791 28.6323 10.4645 28.2984 10.0806 28.2366C9.70633 28.2116 9.90209 28.5531 10.0576 28.7364C10.4319 29.1783 11.0115 29.3829 11.0576 29.0896C11.0691 29.0144 11.0287 28.9255 11.0115 28.8909ZM12.9329 29.049C12.856 28.8136 12.4625 28.5358 11.998 28.499C11.5355 28.4952 11.6103 28.7944 11.8061 28.9989C12.2341 29.4427 12.9482 29.4679 12.9462 29.1282C12.9462 29.1031 12.9405 29.0722 12.9329 29.049ZM15.6373 29.2536C15.6026 28.9642 15.1132 28.6399 14.4357 28.6168C13.7063 28.6361 13.7236 29.0298 14.0134 29.2961C14.6064 29.8364 15.6909 29.7168 15.6373 29.2536ZM18.7235 29.3617C18.76 29.0008 18.1765 28.6168 17.2514 28.6187C16.2227 28.6767 16.1305 29.1687 16.4586 29.4871C17.0729 30.0816 18.6603 29.9927 18.7235 29.3617ZM31.1994 28.229L31.5756 27.7176L31.6045 27.675C31.7772 27.4222 31.829 27.3257 31.8155 27.2929C31.7964 27.2891 31.7868 27.2929 31.7312 27.3315C31.1726 27.7715 30.5142 28.7904 30.6774 28.779C30.7887 28.7732 31.1956 28.2346 31.1994 28.229ZM11.9654 31.0599C11.5489 30.7261 11.0269 30.3884 10.9079 30.3556L10.8982 30.3633C10.9079 30.3806 10.9328 30.425 11.2572 30.6778L11.7697 31.0599C12.1074 31.2993 12.215 31.3513 12.2553 31.3726C12.2898 31.3861 12.2898 31.3861 12.3033 31.3784C12.2841 31.3185 12.0594 31.1352 11.9654 31.0599ZM21.3876 31.7026C21.5086 31.4266 21.0979 31.1506 20.2936 31.1758C19.428 31.2452 19.165 31.6197 19.5163 31.8937C20.0403 32.3028 21.2073 32.1155 21.3876 31.7026ZM23.6583 31.6023C23.8866 31.3205 23.5949 31.0541 22.7945 31.1101C21.8905 31.2144 21.474 31.6369 21.7811 31.8975C22.19 32.2468 23.3301 32.0094 23.6583 31.6023ZM25.687 31.4286C25.9769 31.1622 25.8789 30.9518 25.4625 30.9404C25.3608 30.9384 25.2552 30.95 25.1803 30.9576C24.2475 31.1082 23.6832 31.6177 24.0037 31.8473C24.3377 32.0866 25.2763 31.8068 25.687 31.4286ZM27.2437 31.1989C27.5661 30.9404 27.6275 30.7396 27.3934 30.7106C27.3051 30.701 27.2148 30.7164 27.1266 30.7338C26.307 30.9268 25.6025 31.5308 25.8559 31.7084C26.069 31.8589 26.8099 31.5482 27.2437 31.1989ZM28.2878 30.9326C28.6409 30.6624 28.8118 30.4559 28.7024 30.4328C28.662 30.4232 28.5988 30.4424 28.5392 30.4617C27.8482 30.7126 27.0383 31.4208 27.1861 31.5076C27.2878 31.5675 27.8214 31.2896 28.2878 30.9326ZM13.1823 31.3243C12.7639 30.923 11.9578 30.5717 11.8234 30.6836C11.6756 30.8091 12.5777 31.4942 13.1631 31.6331C13.1881 31.6369 13.2226 31.6427 13.2495 31.6427C13.4089 31.6467 13.382 31.5154 13.1823 31.3243ZM14.8387 31.525C14.5297 31.1101 13.549 30.7937 13.2955 30.9596C13.0307 31.1333 13.7889 31.7374 14.547 31.8454C15.1055 31.8897 14.8503 31.5386 14.8387 31.525ZM16.7274 31.6409C16.6449 31.415 16.1727 31.1603 15.6007 31.1391C15.1037 31.1487 15.0864 31.3591 15.2802 31.5501C15.7082 31.9708 16.7312 32.0866 16.7408 31.7142C16.7408 31.6929 16.7351 31.6621 16.7274 31.6409ZM19.094 31.72C19.1036 31.4478 18.5969 31.1545 17.8291 31.1545C17.0882 31.1931 16.95 31.5018 17.2476 31.7662C17.783 32.2448 19.0767 32.2121 19.094 31.72ZM28.0152 31.222C28.4394 30.9114 28.9979 30.4849 29.403 30.1472L29.4164 30.1336L29.4221 30.126C29.4087 30.1298 29.4087 30.1298 29.3665 30.1568C28.9058 30.4694 28.0076 31.1816 27.9538 31.2568C27.9654 31.2548 27.973 31.253 28.0152 31.222ZM7.84835 25.3323C7.7255 24.9019 7.33781 24.3809 7.06533 24.2805C6.72366 24.2226 7.15353 25.2628 7.41651 25.6198C7.65456 25.9421 7.8407 25.9151 7.88103 25.7009C7.89447 25.6333 7.90016 25.5156 7.84835 25.3323ZM22.0172 26.3088C22.1131 25.9054 21.5873 25.3709 20.3531 25.4171C19.0536 25.5368 18.6603 26.2412 19.2629 26.7121C20.0575 27.3335 21.8349 27.0749 22.0172 26.3088ZM25.4318 26.1582C25.5834 25.6912 25.0364 25.2396 23.8886 25.3226C22.5891 25.4886 22.1324 26.2083 22.6813 26.658C23.405 27.2543 25.1803 26.9321 25.4318 26.1582ZM28.4836 25.8957C28.6371 25.4886 28.3588 24.9752 27.2609 25.1065C26.0094 25.3323 25.5278 26.1331 26.0959 26.5442C26.7715 27.0343 28.2015 26.6464 28.4836 25.8957ZM30.8272 25.5522C30.9922 25.1413 30.8501 24.6317 30.0171 24.7919C28.9327 25.0795 28.497 26.0096 29.0709 26.355C29.6006 26.6735 30.5526 26.2393 30.8272 25.5522ZM32.4951 25.1393C32.6793 24.6761 32.7119 24.0625 32.0498 24.2747C31.0958 24.68 30.6313 25.9267 31.1649 26.1911C31.5565 26.386 32.2033 25.8745 32.4951 25.1393ZM9.61999 25.8128C9.56621 25.5272 9.22651 25.1663 8.82538 25.1045C8.37233 25.0795 8.47223 25.5812 8.77543 25.9073C9.15164 26.3146 9.61233 26.2567 9.62764 25.9112C9.6296 25.8823 9.62578 25.8418 9.61999 25.8128ZM12.0902 25.917C12.0383 25.3091 10.8771 24.8151 10.4126 25.203C10.0211 25.529 10.4895 26.2798 11.3339 26.4072C11.9693 26.4554 12.1074 26.108 12.0902 25.917ZM15.0384 26.2219C15.0479 25.836 14.4952 25.4037 13.6564 25.3785C12.7101 25.4095 12.6372 25.9845 13.0038 26.3512C13.6833 27.0305 15.0211 26.8336 15.0384 26.2219ZM18.4894 26.33C18.5412 25.9499 18.0095 25.4249 16.8771 25.4307C15.7696 25.5002 15.453 26.1042 15.929 26.5596C16.6411 27.2389 18.3877 27.0826 18.4894 26.33ZM33.1342 24.7166C33.2302 24.458 33.4317 23.8636 33.2493 23.935C33.2282 23.9428 33.2052 23.9621 33.1861 23.9756C32.6275 24.4754 32.3128 25.7009 32.5661 25.6855C32.6985 25.6777 32.9173 25.3072 33.1342 24.7166ZM8.01536 26.7565C7.79086 26.3106 7.38776 25.7568 7.31475 25.7394C7.31475 25.7549 7.31672 25.7684 7.3494 25.836C7.49717 26.1408 7.71981 26.5365 7.87906 26.8356L8.01153 27.0556C8.09023 27.183 8.11712 27.2119 8.14204 27.2389C8.16313 27.2563 8.16696 27.2582 8.1804 27.2563C8.21494 27.2042 8.11897 26.961 8.01536 26.7565ZM9.26684 27.2254C9.13633 26.8954 8.73892 26.5287 8.43572 26.4573C8.09602 26.4207 8.35703 26.9321 8.56426 27.2003C8.9443 27.6904 9.27635 27.6944 9.30706 27.459C9.31865 27.3701 9.28214 27.2659 9.26684 27.2254ZM20.2399 27.8989C20.3186 27.5014 19.7312 27.0903 18.7312 27.1096C17.6583 27.1888 17.3397 27.7406 17.7888 28.144C18.4567 28.7422 20.1055 28.5782 20.2399 27.8989ZM23.4893 27.8255C23.6352 27.3972 23.0671 26.9784 21.9865 27.0363C20.7466 27.1676 20.33 27.8179 20.8713 28.2386C21.5681 28.775 23.2552 28.5106 23.4893 27.8255ZM26.6064 27.6287C26.7773 27.2563 26.4894 26.7815 25.3204 26.8896C24.0613 27.0729 23.568 27.7985 24.1362 28.1864C24.7964 28.6399 26.2973 28.3003 26.6064 27.6287ZM29.1688 27.3412C29.3684 26.9629 29.2283 26.4941 28.2974 26.631C27.1592 26.8704 26.6486 27.6616 27.1611 28.0147C27.6947 28.3813 28.8194 28.0032 29.1688 27.3412ZM31.0306 26.9881C31.2301 26.631 31.2839 26.1274 30.5814 26.2952C29.6391 26.5944 29.1284 27.5149 29.5833 27.7851C29.9499 28.0012 30.6947 27.5921 31.0306 26.9881ZM32.1381 26.5924C32.353 26.2026 32.4682 25.8108 32.211 25.8668C32.1803 25.8745 32.1419 25.8919 32.1131 25.9035C31.4182 26.2836 30.8866 27.4068 31.2494 27.4763C31.4758 27.5207 31.8789 27.0614 32.1381 26.5924ZM11.048 27.3952C10.9808 27.1424 10.6065 26.8279 10.1785 26.7777C9.7236 26.7641 9.80809 27.1424 10.0691 27.4088C10.4837 27.8353 11.0576 27.8197 11.0595 27.4821C11.0595 27.455 11.0538 27.4204 11.048 27.3952ZM13.6103 27.675C13.5777 27.403 13.1612 27.0903 12.5912 27.0595C11.9558 27.0671 11.9789 27.4666 12.2744 27.7368C12.808 28.225 13.6602 28.1055 13.6103 27.675ZM16.9232 27.8661C16.9386 27.4763 16.332 27.0498 15.405 27.0363C14.3531 27.0826 14.284 27.6634 14.6986 28.0282C15.3992 28.6439 16.8963 28.5338 16.9232 27.8661ZM32.3128 26.5365C32.4778 26.2083 32.7062 25.7742 32.8559 25.4384L32.854 25.4423L32.8309 25.4808C32.4643 26.0868 32.0191 26.8568 31.9864 27.0826C32.0056 27.0729 32.3088 26.5403 32.3128 26.5365ZM6.75819 23.3001C6.66988 22.7656 6.39926 22.2117 6.29947 22.1557C6.20929 22.1056 6.26296 22.4279 6.334 22.7849L6.34931 22.8621L6.38778 23.0435C6.51446 23.6089 6.58736 23.7807 6.66026 23.8636L6.6795 23.8791C6.76781 23.9216 6.82148 23.6804 6.75819 23.3001ZM8.01918 23.661C7.9923 23.3658 7.72943 22.9817 7.41847 22.9103C7.02117 22.8756 7.19004 23.5916 7.44143 23.8791C7.70058 24.1744 7.9923 24.0643 8.01918 23.7633C8.02115 23.7324 8.02115 23.6919 8.01918 23.661ZM20.3396 24.5681C20.4165 24.1338 19.854 23.5491 18.595 23.5761C17.2744 23.6822 16.8886 24.4368 17.5124 24.956C18.3415 25.6468 20.1919 25.3921 20.3396 24.5681ZM23.8233 24.4792C23.9231 24.0431 23.3857 23.4757 22.1189 23.5453C20.7696 23.6977 20.3396 24.4638 20.9481 24.9618C21.7523 25.6217 23.6333 25.3072 23.8233 24.4792ZM27.2609 24.2612C27.3742 23.827 26.9672 23.2673 25.7101 23.387C24.3454 23.5974 23.9059 24.4504 24.5872 24.9096C25.4029 25.4635 27.0517 25.064 27.2609 24.2612ZM30.0862 23.9447C30.2014 23.5067 29.9173 22.9585 28.9192 23.111C27.7215 23.3774 27.3281 24.3153 27.9749 24.7244C28.6775 25.1683 29.8808 24.7244 30.0862 23.9447ZM32.3088 23.5414C32.4336 23.0512 32.2973 22.3584 31.4029 22.5764C30.2379 22.9721 29.879 24.2651 30.5987 24.6375C31.2129 24.954 32.092 24.3905 32.3088 23.5414ZM33.3626 23.1188C33.4451 22.7559 33.4836 22.1211 33.0343 22.3256C32.3184 22.7559 32.1246 24.0451 32.6102 24.1319C32.8904 24.182 33.2206 23.7363 33.3626 23.1188ZM10.1305 24.0875C10.1247 23.7845 9.78306 23.4102 9.30324 23.358C8.73706 23.3464 8.74089 23.8849 9.0442 24.2149C9.48172 24.6916 10.1401 24.5391 10.1305 24.0875ZM13.0096 24.3481C13.0269 23.9775 12.5643 23.5568 11.8464 23.5201C11 23.5375 10.9309 24.128 11.2994 24.5024C11.8867 25.0987 12.9808 24.9077 13.0096 24.3481ZM16.499 24.514C16.5431 24.1396 16.0556 23.6147 15.0288 23.6032C13.8887 23.661 13.7542 24.3499 14.2226 24.7688C14.9059 25.3785 16.4184 25.2107 16.499 24.514ZM33.7426 22.5205L33.8424 21.8721L33.8444 21.8585V21.8258C33.8309 21.8296 33.8309 21.8296 33.8079 21.8701C33.5008 22.5224 33.3262 23.6552 33.4509 23.6919C33.5276 23.6456 33.7408 22.5321 33.7426 22.5205ZM6.50484 19.3865C6.57195 18.9542 6.48178 18.4737 6.36275 18.3849C6.33018 18.3753 6.24186 18.3483 6.16699 18.9793C6.14011 19.2031 6.09027 19.7377 6.18623 19.8844C6.27061 20.0137 6.42614 19.7995 6.49325 19.4579C6.49719 19.4385 6.50287 19.4097 6.50484 19.3865ZM7.82725 19.811C7.90016 19.4251 7.69872 18.9291 7.2918 18.8384C6.74475 18.794 6.6584 19.7783 6.95592 20.168C7.22654 20.5213 7.73129 20.3147 7.82725 19.811ZM20.3205 20.5675C20.4049 20.0774 19.7658 19.564 18.5872 19.591C17.2687 19.6953 16.8426 20.446 17.4318 20.965C18.2322 21.6733 20.1765 21.4051 20.3205 20.5675ZM23.8483 20.5C23.9155 20.0175 23.2552 19.5351 22.071 19.5968C20.7351 19.7397 20.3282 20.4884 20.9423 20.9786C21.8022 21.6617 23.7292 21.3433 23.8483 20.5ZM27.33 20.2125C27.3684 19.7628 26.8636 19.1819 25.6237 19.3016C24.2839 19.5139 23.9424 20.4112 24.6756 20.9014C25.5949 21.517 27.2571 21.0847 27.33 20.2125ZM30.3339 19.8824C30.3472 19.3807 29.8732 18.7516 28.7829 18.9195C27.4587 19.2244 27.2282 20.2993 28.0709 20.7991C28.9768 21.3375 30.3108 20.7971 30.3339 19.8824ZM32.3991 19.4829C32.3857 19.0082 32.0516 18.3309 31.2148 18.5393C30.1265 18.9253 30.1054 20.1932 30.9422 20.583C31.6621 20.9188 32.424 20.3437 32.3991 19.4829ZM33.5526 19.0449C33.52 18.6473 33.3338 17.9546 32.8578 18.1765C32.1399 18.6435 32.3626 20.0851 32.9845 20.1932C33.3971 20.2645 33.6006 19.6528 33.5526 19.0449ZM9.84066 20.0774C9.90788 19.7493 9.6449 19.3614 9.14584 19.3092C8.48753 19.2977 8.36665 19.9731 8.70252 20.3244C9.06332 20.7046 9.74469 20.5559 9.84066 20.0774ZM12.7486 20.4112C12.8234 20.0426 12.4434 19.6238 11.7601 19.5892C10.8675 19.6084 10.7101 20.3089 11.1286 20.6892C11.6354 21.1523 12.6353 20.9786 12.7486 20.4112ZM16.476 20.5173C16.5624 20.0774 16.0077 19.6006 15.0422 19.5892C13.8963 19.647 13.5316 20.3746 14.1075 20.857C14.808 21.4456 16.3378 21.2256 16.476 20.5173ZM33.9038 19.1703C33.8693 18.8268 33.8175 18.3695 33.7599 18.0298L33.7561 18.0106C33.733 17.8812 33.6966 17.6882 33.6428 17.7751L33.6313 17.8001C33.4164 18.4293 33.7197 19.7667 33.8731 19.6567C33.9461 19.6046 33.9038 19.1742 33.9038 19.1703ZM6.20536 21.1716C6.19006 20.7451 6.09595 20.3263 6.0883 19.8979L6.08447 20.3167C6.10557 20.7701 6.13246 21.3761 6.18044 21.8277V21.8296C6.20153 21.8007 6.21694 21.5016 6.20536 21.1716ZM7.18807 21.6039C7.19583 21.1233 6.93668 20.5733 6.65261 20.473C6.22263 20.415 6.37816 21.6907 6.6219 22.0438C6.84268 22.3623 7.11517 22.1519 7.17473 21.762C7.18239 21.7138 7.18807 21.6521 7.18807 21.6039ZM22.1113 22.6402C22.19 22.1809 21.6199 21.5711 20.3416 21.6213C18.9193 21.762 18.6256 22.6189 19.1881 23.1014C20.0192 23.8193 21.9596 23.5125 22.1113 22.6402ZM25.7254 22.48C25.8041 22.0342 25.3108 21.4224 23.9999 21.5228C22.6832 21.7023 22.2302 22.534 22.8406 23.0474C23.6544 23.7324 25.568 23.3562 25.7254 22.48ZM28.9557 22.2001C29.0286 21.7408 28.6217 21.1561 27.4894 21.2951C26.1937 21.5421 25.8213 22.4511 26.4989 22.9257C27.3262 23.5067 28.8194 23.0647 28.9557 22.2001ZM31.5872 21.8277C31.6563 21.3009 31.3127 20.6466 30.3357 20.8377C29.0939 21.189 28.8156 22.4067 29.616 22.8544C30.3857 23.2809 31.472 22.7155 31.5872 21.8277ZM33.2282 21.3973C33.2801 20.8705 33.1035 20.1719 32.4087 20.4016C31.4298 20.8493 31.305 22.2792 32.0171 22.5938C32.5565 22.8312 33.1457 22.2503 33.2282 21.3973ZM8.66416 22.0979C8.68329 21.8007 8.43573 21.4302 8.04804 21.3723C7.54898 21.3511 7.53357 21.9705 7.8254 22.2986C8.13439 22.6479 8.63531 22.5282 8.66416 22.0979ZM11.1727 22.233C11.2054 21.9165 10.881 21.5498 10.3435 21.5112C9.65835 21.517 9.59889 22.1133 9.95389 22.4433C10.3724 22.8312 11.1247 22.7019 11.1727 22.233ZM14.7293 22.5456C14.7811 22.1615 14.3454 21.6173 13.3916 21.5903C12.2898 21.6347 12.1497 22.4009 12.6468 22.8408C13.3109 23.4275 14.6353 23.2403 14.7293 22.5456ZM18.357 22.6595C18.4242 22.231 17.902 21.6425 16.7447 21.6501C15.4759 21.737 15.2207 22.5302 15.7255 23.0011C16.4817 23.7035 18.2283 23.4777 18.357 22.6595ZM33.8809 20.9535C33.8962 20.7007 33.9192 19.896 33.6217 20.1256C33.1323 20.6274 33.1457 22.0342 33.5219 22.0246C33.7273 22.0188 33.8502 21.4822 33.8809 20.9535Z" fill="url(#paint0_linear_2529_9296)"/>
<defs>
<linearGradient id="paint0_linear_2529_9296" x1="3.12289" y1="29.3153" x2="35.8776" y2="29.3153" gradientUnits="userSpaceOnUse">
<stop stop-color="#47B547"/>
<stop offset="1" stop-color="#FFDA5A"/>
</linearGradient>
</defs>
</svg>
