<svg width="40" height="40" viewBox="0 0 40 40" fill="none" xmlns="http://www.w3.org/2000/svg">
<path fill-rule="evenodd" clip-rule="evenodd" d="M25.626 29.2853C28.311 29.872 31.0046 30.5656 33.9161 34.2101C34.1747 34.5336 33.7798 34.8577 33.4831 34.5964C30.5202 31.9949 27.8432 31.1563 25.3761 31.1563C22.6297 31.1563 20.7586 31.5198 18.8729 31.5198C11.7635 31.5198 6 25.8064 6 18.7592C6 11.7134 11.7635 6 18.8729 6C25.9829 6 31.7457 11.7127 31.7457 18.7592C31.7491 21.0682 31.1188 23.3338 29.9234 25.3093C29.8853 25.3714 29.7898 25.3494 29.7804 25.2779C29.3387 22.1425 27.4055 20.4145 24.5929 19.9106C24.349 19.8665 24.3036 19.7175 24.6263 19.6901C25.4844 19.6166 26.7072 19.6293 27.3287 19.7402C27.3661 19.4188 27.3821 19.0907 27.3821 18.7592C27.3821 14.1017 23.5725 10.3248 18.8729 10.3248C14.1732 10.3248 10.3636 14.101 10.3636 18.7592C10.3636 23.4182 14.1732 27.1944 18.8729 27.1944C19.0065 27.1944 19.1401 27.1957 19.2725 27.1897C19.142 26.4368 19.0885 25.6727 19.1127 24.909C19.1335 24.3945 19.239 24.3236 19.4736 24.7239C20.6504 26.7353 22.3403 28.5682 25.6253 29.2853H25.626ZM25.4075 26.1546C25.7216 26.1546 26.051 26.2856 26.3343 26.5235C26.907 27.0032 27.0814 27.5739 26.7781 27.9769C26.6097 28.1974 26.337 28.319 26.0096 28.319C25.6888 28.319 25.3614 28.2007 25.1342 28.0049C24.613 27.5532 24.46 26.8222 24.8001 26.4065C24.9331 26.2441 25.1489 26.1546 25.4075 26.1546ZM28.2615 24.067C28.7393 24.2461 28.9271 24.9705 28.9765 25.3046C29.0607 25.8639 28.883 26.0951 28.7039 26.0951C28.5088 26.0951 28.2629 25.8686 27.9742 25.4215C27.6889 24.9805 27.5846 24.4726 27.7256 24.2174C27.8192 24.0483 28.015 23.9741 28.2615 24.067Z" fill="#FF8C00"/>
</svg>
