<svg width="40" height="40" viewBox="0 0 40 40" fill="none" xmlns="http://www.w3.org/2000/svg">
<path d="M10.5575 16.2321V18.3646H10.092C9.23596 16.8253 7.64407 15.9392 5.80439 15.9392C2.79331 15.9392 0 18.7551 0 22.4044C0 26.0537 2.71822 28.847 5.80439 28.847C7.64407 28.847 9.23596 27.9685 10.092 26.4217H10.5575V28.5317H13.2532V16.2321H10.5575ZM6.61535 26.3466C4.43777 26.3466 2.71822 24.6345 2.71822 22.4044C2.71822 20.1742 4.43026 18.4622 6.61535 18.4622C8.79294 18.4622 10.5575 20.1742 10.5575 22.4044C10.5575 24.6345 8.79294 26.3466 6.61535 26.3466Z" fill="#FF5000"/>
<path d="M24.4187 20.6404H19.7407V18.658H27.6551V16.2327H17.0525V28.5248H24.4262C26.9267 28.5248 28.6613 26.8578 28.6613 24.5826C28.6538 22.3074 26.8892 20.6404 24.4187 20.6404ZM24.1034 26.1069H19.7407V23.0433H24.1034C25.3273 23.0433 25.913 23.6815 25.913 24.5826C25.913 25.4912 25.3498 26.1069 24.1034 26.1069Z" fill="#FF5000"/>
<path d="M35.7274 20.5451C38.0871 20.5451 40 18.6322 40 16.2726C40 13.9129 38.0871 12 35.7274 12C33.3677 12 31.4548 13.9129 31.4548 16.2726C31.4548 18.6322 33.3677 20.5451 35.7274 20.5451Z" fill="#00F500"/>
</svg>
