<svg width="40" height="40" viewBox="0 0 40 40" fill="none" xmlns="http://www.w3.org/2000/svg">
<path d="M13.8398 20C13.8398 18.74 14.1898 17.55 14.8898 16.57C15.5898 15.52 16.5698 14.75 17.6898 14.26C18.8098 13.77 20.0698 13.7 21.2598 13.91C22.4498 14.12 23.5698 14.75 24.4798 15.59C25.3898 16.43 25.9498 17.55 26.1598 18.81C26.3698 20 26.2998 21.26 25.8098 22.38C25.3198 23.5 24.5498 24.48 23.4998 25.18C22.4498 25.88 21.2598 26.23 20.0698 26.23C18.3898 26.23 16.8498 25.6 15.6598 24.41C14.4698 23.22 13.8398 21.68 13.8398 20V20Z" fill="#4FAE2E"/>
<path d="M24.3398 12.16C24.3398 11.46 24.5498 10.76 24.9698 10.2C25.3898 9.63997 25.9498 9.14997 26.5798 8.86997C27.2098 8.58997 27.9798 8.51997 28.6098 8.65997C29.3098 8.79997 29.9398 9.14997 30.4298 9.63997C30.9198 10.13 31.2698 10.76 31.4098 11.46C31.5498 12.16 31.4798 12.86 31.1998 13.49C30.9198 14.12 30.4998 14.68 29.8698 15.1C29.3098 15.52 28.6098 15.73 27.9098 15.73C26.9298 15.73 26.0898 15.38 25.3898 14.68C24.7598 13.98 24.3398 13.07 24.3398 12.16Z" fill="#016438"/>
<path d="M6 20C6 16.29 7.47 12.72 10.13 10.13C12.72 7.47 16.29 6 20 6V11.11C18.25 11.11 16.5 11.6 15.03 12.58C13.56 13.56 12.44 14.96 11.74 16.57C11.04 18.18 10.9 20 11.25 21.75C11.6 23.5 12.44 25.11 13.7 26.3C14.96 27.56 16.57 28.4 18.32 28.75C20.07 29.1 21.89 28.89 23.5 28.19C25.11 27.49 26.51 26.37 27.49 24.9C28.47 23.43 28.96 21.68 28.96 19.93H34C34 21.75 33.65 23.57 32.95 25.32C32.25 27 31.2 28.54 29.94 29.87C28.61 31.2 27.07 32.18 25.39 32.88C23.71 33.58 21.89 34 20 34C18.18 34 16.36 33.65 14.61 32.95C12.93 32.25 11.39 31.2 10.06 29.94C8.73 28.61 7.75 27.07 7.05 25.39C6.35 23.64 6 21.82 6 20Z" fill="#016438"/>
</svg>
