<svg width="40" height="40" viewBox="0 0 40 40" fill="none" xmlns="http://www.w3.org/2000/svg">
<path d="M25.68 17.32H28.4V27.32H33.28V17.32H36V13.08H25.68V17.32ZM7.44 23H4V27.32H8.88C9.12 27.32 9.36 27.32 9.52 27.24C10.24 27.16 10.88 26.76 11.44 26.2C11.92 25.64 12.24 24.92 12.24 24.2V13.08H7.44V23ZM25.04 22.2C25.04 21.8 25.04 21.48 24.96 21.08H23.44C23.44 21.4 23.52 21.72 23.52 22.12C23.52 22.52 23.44 22.76 23.44 23.08L17.84 18.36C17.12 17.72 16.8 17.32 16.8 16.36C16.8 14.44 18 14.44 19.52 14.44C21.6 14.44 21.92 14.84 21.92 16.6V17.4H23.52V16.6C23.52 13.56 22.08 13 19.52 13C16.72 13 15.2 13.56 15.2 16.36C15.2 17.96 15.52 18.36 16.48 19.16C14.72 19.64 13.6 19.64 13.6 23.08C13.6 27.56 15.84 27.48 19.04 27.48C21.36 27.48 23.52 27.48 24.32 25.64L26.4 27.4L27.28 26.28L24.8 24.2C25.04 23.56 25.12 22.84 25.04 22.2ZM19.2 25.96C15.84 25.96 15.44 25.72 15.44 22.92C15.44 20.6 15.68 20.44 17.76 19.88L23.36 24.52C22.88 26.2 20.72 25.96 19.2 25.96Z" fill="#768086"/>
</svg>
