<svg width="40" height="40" viewBox="0 0 40 40" fill="none" xmlns="http://www.w3.org/2000/svg">
<path fill-rule="evenodd" clip-rule="evenodd" d="M22.7896 6.29395V13.5546H19.9773C16.4208 13.5546 13.552 16.4225 13.552 19.9748C13.552 23.5293 16.4208 26.3904 19.9773 26.3904H22.7896V33.651C29.2081 32.4225 34 26.7876 34 19.9725C34 13.2124 29.2081 7.57753 22.7896 6.29395Z" fill="#003791"/>
<path fill-rule="evenodd" clip-rule="evenodd" d="M19.9774 28.6682C15.181 28.6682 11.2828 24.7646 11.2828 19.9747C11.2828 15.1871 15.1833 11.2836 19.9706 11.2836H20.5136V6H19.9774C12.2738 6 6 12.2687 6 19.9747C6 27.7313 12.2738 34 19.9774 34H20.5204V28.6659H19.9774V28.6682Z" fill="#FF4B5F"/>
</svg>
