<svg width="40" height="40" viewBox="0 0 40 40" fill="none" xmlns="http://www.w3.org/2000/svg">
<path fill-rule="evenodd" clip-rule="evenodd" d="M6 6H33.0531V34H6V6ZM17.6329 11.9517C17.4525 11.8164 17.4525 11.6812 17.6329 11.5459C18.8299 11.5017 20.0022 11.5468 21.1498 11.6812C20.9608 11.9354 20.7354 12.1608 20.4734 12.3575V18.715C20.3392 18.7382 20.2492 18.6931 20.2029 18.5797C19.5908 18.2848 18.9821 17.9692 18.3768 17.6328C18.3092 16.3712 18.2866 15.1087 18.3092 13.8454C17.8637 13.8128 17.4579 13.9255 17.0918 14.1836C15.957 15.3833 16.0472 16.5106 17.3623 17.5652C18.5201 18.2566 19.6924 18.9104 20.8792 19.5266C21.4329 19.8297 21.9739 20.1679 22.5024 20.5411C23.2884 21.1012 23.8069 21.8452 24.058 22.7729C24.4765 24.9123 23.6873 26.4002 21.6908 27.2367C21.2454 27.5163 20.7494 27.6966 20.2029 27.7778C20.6751 28.2881 20.7203 28.8292 20.3382 29.401C20.0721 29.8037 19.8016 30.2094 19.5266 30.6184C19.4307 30.7406 19.2954 30.7857 19.1208 30.7536V29.942C18.7638 29.6973 18.4707 29.3818 18.2415 28.9952C18.1348 28.696 18.1573 28.4254 18.3092 28.1836C18.416 28.0085 18.5513 27.8507 18.715 27.7101C17.7874 27.1749 16.7954 26.9494 15.7391 27.0338C15.62 27.1296 15.5298 27.2424 15.4686 27.372C15.3727 27.4943 15.2374 27.5393 15.0628 27.5072C15.0186 26.2202 15.0637 24.9578 15.1981 23.7198C15.3166 23.7021 15.4068 23.7471 15.4686 23.8551C15.5785 24.1858 15.7138 24.5014 15.8744 24.8019C16.9557 26.672 18.5789 27.4159 20.744 27.0338C21.1715 26.8427 21.5773 26.6172 21.9614 26.3575C22.1859 26.1562 22.3212 25.9083 22.3672 25.6135C22.9203 24.4087 22.6497 23.4168 21.5556 22.6377C21.2638 22.3791 20.9481 22.1536 20.6087 21.9614C20.4746 22.8829 20.4295 23.8298 20.4734 24.8019C20.6655 25.1007 20.891 25.3713 21.1498 25.6135C19.957 25.7478 18.7396 25.793 17.4976 25.7488C17.4655 25.5742 17.5106 25.4389 17.6329 25.343C17.891 25.2912 18.0939 25.1559 18.2415 24.9372C18.3541 23.4923 18.3316 22.0494 18.1739 20.6087C17.7426 20.4159 17.3368 20.1905 16.9565 19.9324C15.2841 19.0219 14.6303 17.6242 14.9952 15.7391C15.5677 14.1973 16.6724 13.3406 18.3092 13.1691C18.3313 12.8503 18.3087 12.5347 18.2415 12.2222C18.0617 12.0758 17.8588 11.9857 17.6329 11.9517ZM21.1498 19.0531C21.1272 19.0193 21.1047 18.9855 21.0821 18.9517C21.0596 18.9179 21.037 18.8841 21.0145 18.8502C21.0595 18.9179 21.1047 18.9855 21.1498 19.0531Z" fill="#002C67"/>
<path d="M18.9853 8.70535C20.1332 8.6582 20.6518 9.19926 20.5409 10.3285C20.1847 11.0362 19.6212 11.2842 18.85 11.0725C17.9224 10.2171 17.9675 9.42802 18.9853 8.70535Z" fill="white"/>
<path d="M17.6327 11.5459C18.8297 11.5018 20.002 11.5469 21.1496 11.6812C20.9606 11.9354 20.7352 12.1608 20.4732 12.3575C20.4281 13.3946 20.383 14.4316 20.338 15.4686C20.2929 16.5057 20.2478 17.5427 20.2027 18.5797C19.5906 18.2849 18.9819 17.9693 18.3766 17.6329C18.309 16.3712 18.2865 15.1087 18.309 13.8454C17.8635 13.8128 17.4577 13.9256 17.0916 14.1836C15.9568 15.3834 16.047 16.5106 17.3621 17.5653C18.52 18.2566 19.6922 18.9104 20.879 19.5266C21.4327 19.8297 21.9737 20.1679 22.5022 20.5411C23.2882 21.1012 23.8067 21.8452 24.0578 22.773C24.4763 24.9123 23.6871 26.4003 21.6906 27.2368C21.2452 27.5163 20.7492 27.6967 20.2027 27.7778C20.6749 28.2882 20.7201 28.8292 20.338 29.401C20.0719 29.8037 19.8014 30.2095 19.5264 30.6184C19.3198 30.4423 19.1845 30.2168 19.1206 29.9421C18.7636 29.6974 18.4705 29.3818 18.2414 28.9952C18.1346 28.696 18.1572 28.4255 18.309 28.1836C18.4158 28.0086 18.5511 27.8507 18.7148 27.7102C17.7872 27.1749 16.7952 26.9494 15.7389 27.0339C15.6198 27.1296 15.5297 27.2424 15.4684 27.372C15.3725 27.4943 15.2373 27.5393 15.0626 27.5073C15.0184 26.2204 15.0635 24.9582 15.1978 23.7204L15.1979 23.7198C15.3164 23.7021 15.4066 23.7472 15.4684 23.8551C15.5783 24.1858 15.7136 24.5014 15.8742 24.802C16.9555 26.672 18.5787 27.416 20.7438 27.0339C21.1713 26.8427 21.5771 26.6172 21.9612 26.3575C22.1857 26.1562 22.321 25.9083 22.367 25.6136C22.9201 24.4088 22.6495 23.4168 21.5554 22.6377C21.2636 22.3791 20.9479 22.1536 20.6085 21.9614C20.4745 22.883 20.4293 23.8298 20.4732 24.802C20.6653 25.1008 20.8908 25.3713 21.1496 25.6136C19.9568 25.7479 18.7394 25.7931 17.4974 25.7488C17.4653 25.5742 17.5104 25.4389 17.6327 25.343C17.8908 25.2912 18.0937 25.156 18.2413 24.9372C18.3539 23.4923 18.3314 22.0494 18.1737 20.6087C17.7424 20.416 17.3366 20.1905 16.9563 19.9324C15.2839 19.022 14.6301 17.6242 14.995 15.7392C15.5675 14.1973 16.6722 13.3406 18.309 13.1691C18.3311 12.8503 18.3085 12.5347 18.2413 12.2223C18.0615 12.0759 17.8586 11.9857 17.6327 11.9517C17.4523 11.8165 17.4523 11.6812 17.6327 11.5459Z" fill="white"/>
<path d="M20.4732 12.3575L20.4732 18.715C20.3391 18.7382 20.249 18.6931 20.2027 18.5797C20.2471 17.5581 20.2916 16.5365 20.336 15.5149L20.338 15.4686L20.3419 15.3775C20.3857 14.3708 20.4294 13.3642 20.4732 12.3575Z" fill="white"/>
<path d="M22.6375 16.8213C22.6372 16.2787 22.4795 15.7827 22.1641 15.3334C21.7489 14.807 21.3206 14.311 20.879 13.8454C20.9009 13.8016 20.9229 13.7578 20.9448 13.7139L20.9467 13.7102C20.9692 13.6651 20.9918 13.62 21.0143 13.5749C21.5835 13.9197 22.1246 13.9197 22.6375 13.5749C22.7334 13.4526 22.8687 13.4076 23.0433 13.4396V16.9566C22.8687 16.9887 22.7334 16.9436 22.6375 16.8213Z" fill="white"/>
<path d="M19.5264 30.6184C19.3198 30.4423 19.1845 30.2168 19.1206 29.9421L19.1206 30.7537C19.2952 30.7857 19.4305 30.7407 19.5264 30.6184Z" fill="white"/>
</svg>
