<svg width="40" height="40" viewBox="0 0 40 40" fill="none" xmlns="http://www.w3.org/2000/svg">
<path fill-rule="evenodd" clip-rule="evenodd" d="M22.7109 11.8084C22.5753 12.2582 21.633 15.2136 19.7412 16.9958C17.7781 15.3468 16.6645 11.749 16.6645 11.749L16.6693 11.7133C15.332 13.7597 14.442 16.213 14.442 16.213C14.442 16.213 16.3647 22.0571 19.7484 24.7365C23.0298 21.8215 24.9215 16.144 24.9215 16.144C24.9215 16.144 24.1458 14.0333 22.7109 11.8084ZM22.7466 10.5378C22.7466 10.5378 21.6615 13.7954 19.7793 15.4682C17.8376 13.931 16.7383 10.5449 16.7478 10.4902C16.7478 10.4902 17.8638 7.67281 19.746 6C21.6901 7.53718 22.7466 10.5378 22.7466 10.5378ZM24.7049 18.0476C25.8566 20.1487 26.4706 21.8168 26.4706 21.8168C26.4706 21.8168 23.9982 30.2522 19.7769 34C15.4295 30.5544 13 21.9048 13 21.9048L13.0595 21.7073C13.188 21.3052 13.6948 19.9488 14.6133 18.238C15.2106 19.8751 17.0643 24.2272 19.7793 26.464C22.7109 23.7537 24.2409 19.442 24.7049 18.0476Z" fill="#EB5C18"/>
</svg>
