<svg width="40" height="40" viewBox="0 0 40 40" fill="none" xmlns="http://www.w3.org/2000/svg">
<path fill-rule="evenodd" clip-rule="evenodd" d="M22.2223 21.154L21.1562 22.2201L21.8655 23.9328L23.9349 21.8633L22.2223 21.154ZM20.7611 22.3836H19.2503L18.542 24.0955H21.4643L20.7611 22.3836ZM22.392 19.2473V20.7528L24.0977 21.4612V18.5388L22.392 19.2473ZM18.8491 22.2201L17.7831 21.154L16.0774 21.8633L18.1469 23.9328L18.8491 22.2201ZM21.8655 16.0673L21.1562 17.78L22.2223 18.846L23.9349 18.1368L21.8655 16.0673ZM19.2503 17.6102H20.7611L21.4643 15.9045H18.542L19.2503 17.6102ZM17.6195 20.7519V19.2473L15.9139 18.5388V21.4612L17.6195 20.7519ZM17.7831 18.846L18.8491 17.78L18.1469 16.0673L16.0774 18.1368L17.7831 18.846ZM18.9118 14.7819H29.246C29.6028 14.7819 29.9605 14.9194 30.2364 15.1952C30.368 15.3252 30.4724 15.48 30.5437 15.6508C30.615 15.8214 30.6517 16.0046 30.6517 16.1895C30.6517 16.3745 30.615 16.5576 30.5437 16.7283C30.4724 16.899 30.368 17.0538 30.2364 17.1838L32.6069 19.5544C33.049 19.1122 33.3996 18.5871 33.6386 18.0091C33.8775 17.4313 34.0001 16.8119 33.9993 16.1865C34.0001 15.562 33.8775 14.9436 33.6386 14.3666C33.3996 13.7897 33.049 13.2657 32.6069 12.8246C32.1661 12.3825 31.6423 12.0319 31.0654 11.793C30.4887 11.554 29.8704 11.4314 29.246 11.4322H22.2605L18.9118 14.7819ZM22.9184 15.5338L30.2242 22.8475C30.4206 23.0436 30.5545 23.2934 30.6088 23.5657C30.6632 23.8378 30.6357 24.12 30.5297 24.3764C30.4236 24.6329 30.2439 24.8522 30.0133 25.0065C29.7826 25.1609 29.5114 25.2433 29.2338 25.2433V28.5991C29.8581 28.5997 30.4764 28.4769 31.0531 28.238C31.6298 27.999 32.1538 27.6486 32.5947 27.2067C33.0378 26.7652 33.389 26.2402 33.628 25.6621C33.867 25.084 33.989 24.4643 33.9871 23.8388C33.9869 22.5761 33.4862 21.365 32.5947 20.4708L27.6596 15.5338H22.9184ZM25.2202 18.9018V29.2388C25.2202 29.5965 25.0819 29.9611 24.806 30.2361C24.5427 30.4979 24.1865 30.6447 23.8153 30.6447C23.444 30.6447 23.0878 30.4979 22.8245 30.2361L20.4487 32.6076C21.3422 33.4997 22.5532 34.0005 23.8157 34C24.4411 34.0009 25.0604 33.8783 25.6383 33.6393C26.2162 33.4003 26.7413 33.0497 27.1835 32.6076C27.6257 32.1653 27.9763 31.6402 28.2152 31.0623C28.4541 30.4844 28.5767 29.865 28.5759 29.2397L28.5689 22.2584L25.2202 18.9026V18.9018ZM24.4675 22.9102L17.1618 30.2239C16.8958 30.4852 16.5381 30.6318 16.1654 30.6321C15.9809 30.6323 15.7981 30.5961 15.6276 30.5257C15.457 30.4552 15.3021 30.3517 15.1717 30.2212C15.0412 30.0908 14.9377 29.9358 14.8672 29.7653C14.7968 29.5947 14.7605 29.412 14.7608 29.2274H11.4042C11.4036 29.8534 11.5268 30.4732 11.7669 31.0513C12.0069 31.6293 12.3589 32.1541 12.8027 32.5954C13.6951 33.4876 14.9052 33.9888 16.1671 33.9888C17.4289 33.9888 18.6391 33.4876 19.5315 32.5954L24.4666 27.6523L24.4675 22.9102ZM21.0996 25.2121H10.7663C10.3939 25.2118 10.0368 25.0638 9.77341 24.8004C9.51005 24.537 9.36199 24.1799 9.36176 23.8074C9.36176 23.4506 9.50013 23.0921 9.77601 22.8162L7.40458 20.4464C6.96051 20.8863 6.60822 21.41 6.36815 21.9871C6.12808 22.5642 6.00501 23.1833 6.0061 23.8083C6.00498 24.4343 6.128 25.0542 6.36805 25.6324C6.6081 26.2104 6.9604 26.7352 7.40458 27.1762C7.84544 27.6183 8.36931 27.9689 8.94608 28.2078C9.52285 28.4468 10.1412 28.5695 10.7655 28.5687H17.7518L21.1005 25.213L21.0996 25.2121ZM17.0738 24.4158L9.76904 17.1081C9.63822 16.9778 9.53441 16.8229 9.46358 16.6523C9.39275 16.4818 9.35629 16.299 9.35629 16.1143C9.35629 15.9296 9.39275 15.7467 9.46358 15.5762C9.53441 15.4056 9.63822 15.2507 9.76904 15.1205C9.89799 14.9886 10.0521 14.884 10.2222 14.8129C10.3923 14.7417 10.575 14.7054 10.7594 14.7062V11.3565C10.1351 11.356 9.51689 11.4788 8.94015 11.7177C8.36342 11.9567 7.83952 12.3071 7.39849 12.7489C6.95465 13.189 6.60251 13.7127 6.36246 14.2898C6.12241 14.8668 5.99921 15.4857 6 16.1108C6 17.4284 6.53259 18.6137 7.39849 19.4787L12.3328 24.4158H17.0738ZM14.7921 21.0913V10.7543C14.7941 10.3823 14.9428 10.0261 15.2057 9.76303C15.4687 9.49992 15.8248 9.35108 16.1967 9.3488C16.5535 9.3488 16.9112 9.48804 17.1871 9.76305L19.5637 7.39243C18.67 6.50016 17.4587 5.99931 16.1958 6C14.9333 5.99954 13.7223 6.50037 12.8288 7.39243C12.3862 7.83433 12.0353 8.35938 11.7964 8.93738C11.5574 9.51538 11.4351 10.1349 11.4364 10.7604V17.7416L14.7921 21.0913ZM15.544 17.0837L22.8497 9.7761C22.9807 9.64545 23.1363 9.5421 23.3075 9.47203C23.4786 9.40197 23.6621 9.36659 23.847 9.36794C24.2351 9.36794 24.5806 9.52459 24.8373 9.7761C24.9694 9.90638 25.0739 10.0617 25.1451 10.233C25.2162 10.4042 25.2524 10.588 25.2516 10.7734H28.6064C28.6064 9.45584 28.0669 8.26444 27.2079 7.40548C26.7668 6.96369 26.243 6.61329 25.6662 6.37435C25.0895 6.13541 24.4713 6.01263 23.847 6.01305C23.2217 6.0119 22.6021 6.13432 22.0241 6.37328C21.4463 6.61223 20.9212 6.96302 20.4792 7.40548L15.5448 12.3416V17.0837H15.544ZM20.8438 22.0199L22.0221 20.8346V19.1585L20.8429 17.9793H19.1686L17.9833 19.1585V20.8337L19.1686 22.0191H20.8429L20.8438 22.0199ZM18.1591 24.4593L15.544 21.8502V18.1498L18.1591 15.5338H21.8524L24.4675 18.1498V21.8502L21.8524 24.4593H18.1591Z" fill="#2F88F0"/>
</svg>
