<svg width="40" height="40" viewBox="0 0 40 40" fill="none" xmlns="http://www.w3.org/2000/svg">
<path d="M20.3943 20.8591C24.4781 20.8591 27.7887 17.5485 27.7887 13.4647C27.7887 9.38094 24.4781 6.07037 20.3943 6.07037C16.3106 6.07037 13 9.38094 13 13.4647C13 17.5485 16.3106 20.8591 20.3943 20.8591Z" fill="#F36F21"/>
<path d="M20.3943 34.2393C24.4781 34.2393 27.7887 34.0186 27.7887 33.7464C27.7887 33.4741 24.4781 33.2534 20.3943 33.2534C16.3106 33.2534 13 33.4741 13 33.7464C13 34.0186 16.3106 34.2393 20.3943 34.2393Z" fill="#F36F21"/>
<path d="M13 24.8732C13 25.9295 16.3099 26.845 20.3943 26.845C24.4788 26.845 27.7887 25.9295 27.7887 24.8732C27.7887 23.7464 24.4788 22.9014 20.3943 22.9014C16.3099 22.9014 13 23.7464 13 24.8732ZM20.3943 28.8168C25.7464 28.8168 27.7887 29.3098 27.7887 30.014C27.7887 30.7183 25.7464 31.2816 20.3943 31.2816C15.0422 31.2816 13 30.7183 13 30.014C13 29.3098 15.0422 28.8168 20.3943 28.8168Z" fill="#F36F21"/>
<path d="M20.4648 21C16.3099 21 13 17.6197 13 13.4648C13 9.30985 16.3099 6 20.4648 6C24.6197 6 28 9.38027 28 13.4648C28 17.5493 24.6197 21 20.4648 21ZM20.4648 6.21127C16.4507 6.21127 13.1408 9.4507 13.1408 13.5352C13.1408 17.6197 16.3803 20.8591 20.4648 20.8591C24.5493 20.8591 27.7183 17.6197 27.7183 13.5352C27.7183 9.4507 24.4788 6.21127 20.4648 6.21127V6.21127Z" fill="#EB690A"/>
<path d="M20.4648 31.4224C17.0141 31.4224 13 31.2112 13 30.014C13 29.1689 15.4648 28.676 20.4648 28.676C25.5352 28.676 28 29.0985 28 30.014C28 31.1408 23.9155 31.4224 20.4648 31.4224ZM20.4648 28.9577C13.9155 28.9577 13.1408 29.7323 13.1408 30.014C13.1408 30.2957 13.6338 31.1408 20.4648 31.1408C27.2957 31.1408 27.7183 30.2253 27.7183 30.014C27.7183 29.6619 27.0141 28.9577 20.4648 28.9577ZM20.4648 26.9858C16.3099 26.9858 13 26.0703 13 24.8732C13 23.5351 16.8732 22.7605 20.4648 22.7605C24.0563 22.7605 28 23.4647 28 24.8732C28 25.9999 24.6197 26.9858 20.4648 26.9858ZM20.4648 22.9718C16.4507 22.9718 13.1408 23.8168 13.1408 24.8732C13.1408 25.7887 16.169 26.7041 20.4648 26.7041C24.7605 26.7041 27.7183 25.7182 27.7183 24.8732C27.7183 23.8168 24.4788 22.9718 20.4648 22.9718Z" fill="#EB690A"/>
<path d="M20.4648 34.3802C19.1972 34.3802 13 34.3802 13 33.7464C13 33.1126 19.2676 33.1126 20.4648 33.1126C21.662 33.1126 28 33.1126 28 33.7464C28 34.3802 21.7324 34.3802 20.4648 34.3802ZM13.2817 33.7464C13.7746 33.8873 16.3803 34.0985 20.4648 34.0985C24.5493 34.0985 27.1549 33.8873 27.7183 33.7464C27.2253 33.6056 24.6197 33.3943 20.4648 33.3943C16.3099 33.3943 13.7746 33.6056 13.2817 33.7464Z" fill="#EB690A"/>
</svg>
