<svg width="40" height="40" viewBox="0 0 40 40" fill="none" xmlns="http://www.w3.org/2000/svg">
<path d="M20 6C12.3 6 6 12.3 6 20.07C6 27.84 12.3 34 20 34C27.7 34 34 27.84 34 19.93C34 16.29 32.53 12.72 29.87 10.06C27.28 7.47 23.71 6 20 6ZM27.77 23.71C26.3 26.86 23.08 28.75 19.65 28.61C16.36 28.47 13.49 26.44 12.16 23.36C10.83 20.42 11.39 16.92 13.56 14.4C13.84 14.12 14.19 14.12 14.33 14.33L15.8 15.8C16.08 16.08 16.08 16.29 15.87 16.57C14.33 18.39 14.26 21.05 15.52 22.94C16.78 24.83 19.23 25.81 21.54 25.11C23.78 24.41 25.32 22.38 25.32 19.93C25.32 18.74 24.9 17.41 23.99 16.5C23.85 16.22 23.85 15.87 23.99 15.73L25.53 14.26C25.81 13.98 26.16 13.98 26.3 14.26C28.75 16.85 29.24 20.56 27.77 23.71Z" fill="#3C46FA"/>
</svg>
