<svg width="40" height="40" viewBox="0 0 40 40" fill="none" xmlns="http://www.w3.org/2000/svg">
<path d="M25.2817 15.324C25.4256 15.5399 25.7134 15.7557 26.0731 15.7557H33.4836C33.9153 15.7557 34.1311 15.2521 33.9153 14.8924C32.2605 12.8059 29.7424 11.5109 26.9365 11.5109H26.289C24.7781 11.5109 23.4111 11.8706 22.188 12.5181C23.4111 13.2376 24.4903 14.1729 25.2817 15.324Z" fill="url(#paint0_linear_1470_5670)"/>
<path d="M33.3397 25.1088H26.073C25.7852 25.1088 25.4975 25.2527 25.2816 25.5404C24.4902 26.6916 23.411 27.6269 22.116 28.3464C23.3391 28.9939 24.778 29.3536 26.2169 29.3536H26.8644C29.6704 29.3536 32.1166 28.0586 33.7713 26.0441C34.0591 25.6843 33.8433 25.1088 33.3397 25.1088Z" fill="url(#paint1_linear_1470_5670)"/>
<path d="M27.0803 20.4323C27.0803 22.0151 28.3034 23.2382 29.8862 23.2382C31.4691 23.2382 32.6922 22.0151 32.6922 20.4323C32.6922 18.8494 31.4691 17.6263 29.8862 17.6263C28.3034 17.6263 27.0803 18.8494 27.0803 20.4323Z" fill="url(#paint2_linear_1470_5670)"/>
<path d="M25.5695 30.7207C20.3893 30.1451 16.3603 25.7563 16.3603 20.4323C16.3603 15.1082 20.3893 10.7195 25.5695 10.1439C25.5695 10.1439 25.6415 10.1439 25.6415 10.0719C25.6415 10.0719 25.6415 10 25.5695 10H16.3603C10.6046 10 6 14.6765 6 20.3603C6 26.1161 10.6765 30.7207 16.3603 30.7207H25.5695C25.5695 30.7926 25.5695 30.7926 25.5695 30.7207C25.5695 30.7207 25.5695 30.7926 25.5695 30.7207Z" fill="url(#paint3_linear_1470_5670)"/>
<defs>
<linearGradient id="paint0_linear_1470_5670" x1="22.1279" y1="15.7755" x2="33.9696" y2="15.7755" gradientUnits="userSpaceOnUse">
<stop stop-color="#CC2445"/>
<stop offset="0.144" stop-color="#CD213F"/>
<stop offset="0.613" stop-color="#CE1930"/>
<stop offset="1" stop-color="#CF162B"/>
</linearGradient>
<linearGradient id="paint1_linear_1470_5670" x1="22.1278" y1="29.341" x2="33.9224" y2="29.341" gradientUnits="userSpaceOnUse">
<stop stop-color="#CC2445"/>
<stop offset="0.144" stop-color="#CD213F"/>
<stop offset="0.613" stop-color="#CE1930"/>
<stop offset="1" stop-color="#CF162B"/>
</linearGradient>
<linearGradient id="paint2_linear_1470_5670" x1="27.0979" y1="23.2396" x2="32.7127" y2="23.2396" gradientUnits="userSpaceOnUse">
<stop stop-color="#CC2445"/>
<stop offset="0.144" stop-color="#CD213F"/>
<stop offset="0.613" stop-color="#CE1930"/>
<stop offset="1" stop-color="#CF162B"/>
</linearGradient>
<linearGradient id="paint3_linear_1470_5670" x1="5.96295" y1="30.8077" x2="25.5821" y2="30.8077" gradientUnits="userSpaceOnUse">
<stop stop-color="#CC2445"/>
<stop offset="0.144" stop-color="#CD213F"/>
<stop offset="0.613" stop-color="#CE1930"/>
<stop offset="1" stop-color="#CF162B"/>
</linearGradient>
</defs>
</svg>
