<svg width="40" height="40" viewBox="0 0 40 40" fill="none" xmlns="http://www.w3.org/2000/svg">
<path d="M4.15283 34.9535H37.7022V6C2.77409 35.8727 7.82947 31.7365 4.15283 34.9535Z" fill="#00858A"/>
<path d="M37.2425 17.9491L40 13.3533L26.6722 16.1107C30.3488 16.1107 33.5659 16.5703 37.2425 17.9491ZM16.5614 18.8682C20.2381 17.0299 24.3743 16.5703 26.6722 16.1107C26.2126 16.1107 17.021 18.8682 16.5614 18.8682ZM16.5614 18.8682C13.3444 20.247 10.1273 23.0044 10.5869 25.7619C11.0465 28.0598 13.804 29.4386 18.3998 30.3577C18.8593 30.3577 18.3998 30.8173 18.3998 30.8173C14.7231 30.3577 1.85488 29.8981 0.0165656 26.6811C-0.443014 23.9236 8.74858 21.1661 16.5614 18.8682Z" fill="#D7B56D"/>
<path d="M28.0509 23.0044V24.8427C28.9701 26.2215 31.268 30.8173 28.0509 30.8173V32.6556C32.6467 32.6556 31.7276 28.0598 30.3488 24.8427H33.1063V32.6556H34.9446V23.0044H28.0509ZM27.5913 24.8427V23.0044H21.1572V32.6556H26.6722C27.5913 32.6556 27.5913 31.2768 27.5913 30.3577C27.5913 29.4385 26.6722 26.681 26.2126 26.681H24.3743C24.3743 27.6002 26.2126 29.8981 25.2934 30.8173H22.9955V24.8427H27.5913Z" fill="#FEFEFE"/>
</svg>
