<svg width="40" height="40" viewBox="0 0 40 40" fill="none" xmlns="http://www.w3.org/2000/svg">
<path d="M21.7746 10.9113C21.7743 10.9321 21.7821 10.9518 21.7968 10.9668C21.8114 10.9818 21.8312 10.99 21.8519 10.99H22.1011C22.9011 10.99 23.55 11.6385 23.55 12.4388V27.505L19.201 13.4148C18.7796 12.0456 17.4465 10.8974 16.0129 10.8974H12.8892C12.8466 10.8974 12.8123 10.9317 12.8123 10.9743V11.0975C12.8123 11.1401 12.8466 11.1745 12.8892 11.1745H13.2327C13.9894 11.1745 14.4718 11.7991 14.4718 12.6264V26.5423C14.4718 27.4213 13.7593 28.1338 12.8803 28.1338H12.7275C12.6849 28.1338 12.6506 28.1682 12.6506 28.2107V28.3186C12.6506 28.3612 12.6849 28.3956 12.7275 28.3956H17.8574C17.8999 28.3956 17.9343 28.3612 17.9343 28.3186V28.2107C17.9343 28.1682 17.8999 28.1338 17.8574 28.1338H17.4809C16.1964 28.1338 15.1551 27.0924 15.1551 25.808V14.5889L18.2788 24.5226C18.8569 26.3156 21.0659 28.2243 23.7454 28.2243C26.2424 28.2243 28.3925 25.8866 28.3925 23.3488C28.3925 20.9263 26.9488 18.9998 24.7575 18.4783H24.7585C26.1287 18.2621 27.2596 17.2616 27.5997 15.9169C28.2934 13.1745 26.7697 10.7677 23.0945 10.7677H21.8529C21.8111 10.7677 21.7767 10.8014 21.776 10.8432L21.7746 10.9113ZM20.0003 7.54111C26.8701 7.54111 32.4592 13.1302 32.4592 20C32.4592 26.8698 26.8701 32.4589 20.0003 32.4589C13.1306 32.4589 7.54145 26.8698 7.54145 20C7.54145 13.1302 13.1306 7.54111 20.0003 7.54111ZM20.0003 6C12.2683 6 6 12.2683 6 20C6 27.7317 12.2683 34 20.0003 34C27.7324 34 34.0003 27.7321 34.0003 20C34.0003 12.2679 27.7324 6 20.0003 6Z" fill="#057A55"/>
</svg>
