<svg width="40" height="40" viewBox="0 0 40 40" fill="none" xmlns="http://www.w3.org/2000/svg">
<path d="M6 6H34V34H6V6Z" fill="#002569"/>
<path d="M15.7999 18.81H11.1799C11.1799 18.81 11.1099 19.23 11.1099 19.72V20.63C11.1099 21.19 11.1799 21.54 11.1799 21.54H15.7999V18.81ZM25.9499 19.23H19.4399V13.49H17.6199V26.51H19.4399V20.98H25.9499V26.51H27.8399V13.49H25.9499V19.23Z" fill="white"/>
<path d="M11.1099 20.35V20.56H15.7999V19.65H11.1099V20.35Z" fill="#002569"/>
<path d="M15.7997 18.81V13.49H11.8797L11.1797 18.81H15.7997ZM11.1797 21.47C11.5297 23.08 12.3697 24.34 13.7697 25.39C14.3997 25.95 15.1697 26.3 15.7297 26.58V21.47H11.1797Z" fill="#C60C2E"/>
</svg>
