<svg width="40" height="40" viewBox="0 0 40 40" fill="none" xmlns="http://www.w3.org/2000/svg">
<path d="M16.0957 23.4885L19.6827 23.485C20.376 23.485 20.9907 23.2929 21.4624 22.9713C21.9645 22.6478 22.3406 22.1672 22.564 21.6213L24.4097 16.5798L20.9487 16.5816C20.259 16.5816 19.6461 16.7094 19.1458 17.0337C18.6106 17.3553 18.1595 17.9628 18.0228 18.414L16.0957 23.4885Z" fill="#FDB913"/>
<path d="M25.2747 20.6053L24.5331 22.468C24.216 23.1747 23.6397 23.9457 23.2672 24.203C22.5417 24.748 21.5036 25.2304 20.3717 25.2331L13.513 25.2394L15.3677 19.4671L16.1092 17.6043C16.4264 16.8976 17.0017 16.1266 17.3716 15.8684C18.1015 15.3244 19.1352 14.8401 20.268 14.8401L26.7282 14.833L25.2747 20.6053ZM36 12H14.2894C13.0922 12 11.4903 12.344 10.1609 13.2767C8.93964 14.1763 8.70557 15.009 8.23474 15.9748C8.15523 16.1659 8.00514 16.4233 7.93724 16.6493L4.98989 25.2447L4 28.0724H26.353C27.5475 28.0706 29.1512 27.7293 30.4814 26.7957C31.6974 25.896 31.9386 25.0607 32.4031 24.0985C32.4844 23.9046 32.6363 23.6473 32.7042 23.424L36 12.0536H35.9803L36 12Z" fill="#004282"/>
</svg>
